<?xml version="1.0" standalone="no"?><!DOCTYPE svg PUBLIC "-//W3C//DTD SVG 1.1//EN" "http://www.w3.org/Graphics/SVG/1.1/DTD/svg11.dtd"><svg t="1655107162724" class="icon" viewBox="0 0 1024 1024" version="1.1" xmlns="http://www.w3.org/2000/svg" p-id="1178" xmlns:xlink="http://www.w3.org/1999/xlink" width="200" height="200"><defs><style type="text/css">@font-face { font-family: feedback-iconfont; src: url("//at.alicdn.com/t/font_1031158_u69w8yhxdu.woff2?t=1630033759944") format("woff2"), url("//at.alicdn.com/t/font_1031158_u69w8yhxdu.woff?t=1630033759944") format("woff"), url("//at.alicdn.com/t/font_1031158_u69w8yhxdu.ttf?t=1630033759944") format("truetype"); }
</style></defs><path d="M512 512m-512 0a512 512 0 1 0 1024 0 512 512 0 1 0-1024 0Z" fill="#8BB7F9" opacity=".15" p-id="1179"></path><path d="M512 814.545455a302.626909 302.626909 0 0 1-117.76-581.317819 302.626909 302.626909 0 0 1 235.531636 557.544728A300.648727 300.648727 0 0 1 512 814.545455z m-19.933091-496.628364a51.653818 51.653818 0 0 0-51.595636 51.584v206.405818a51.653818 51.653818 0 0 0 51.595636 51.584h154.763636a51.595636 51.595636 0 1 0 0-103.191273h-103.156363v-154.763636a51.653818 51.653818 0 0 0-51.607273-51.618909z" fill="#6DA9F7" p-id="1180"></path></svg>