<?xml version="1.0" standalone="no"?><!DOCTYPE svg PUBLIC "-//W3C//DTD SVG 1.1//EN" "http://www.w3.org/Graphics/SVG/1.1/DTD/svg11.dtd"><svg t="1655107151042" class="icon" viewBox="0 0 1024 1024" version="1.1" xmlns="http://www.w3.org/2000/svg" p-id="1027" xmlns:xlink="http://www.w3.org/1999/xlink" width="200" height="200"><defs><style type="text/css">@font-face { font-family: feedback-iconfont; src: url("//at.alicdn.com/t/font_1031158_u69w8yhxdu.woff2?t=1630033759944") format("woff2"), url("//at.alicdn.com/t/font_1031158_u69w8yhxdu.woff?t=1630033759944") format("woff"), url("//at.alicdn.com/t/font_1031158_u69w8yhxdu.ttf?t=1630033759944") format("truetype"); }
</style></defs><path d="M510.02 512.27m-398.83 0a398.83 398.83 0 1 0 797.66 0 398.83 398.83 0 1 0-797.66 0Z" fill="#3B64F4" p-id="1028"></path><path d="M491.71 493.96m-380.53 0a380.53 380.53 0 1 0 761.06 0 380.53 380.53 0 1 0-761.06 0Z" fill="#4D7AF7" opacity=".73" p-id="1029"></path><path d="M581.51 139.12S440.43 185.99 464.7 260.94c10.76 33.23 47.17 50.71 80.28 39.6 51.19-17.18 138.47-38.3 146.71 13.84 11.72 74.21-70.31 184.57-15.62 209.46 54.68 24.9 174.07-135.67 167.96-169.86-6.11-34.19-94.11-183.46-262.52-214.86z" fill="#2A57E8" opacity=".16" p-id="1030"></path><path d="M629.41 139.12s-115.36 38.32-95.51 99.61c8.8 27.17 38.57 41.47 65.65 32.38 41.86-14.05 113.23-31.32 119.96 11.31 9.58 60.68-57.49 150.92-12.78 171.28 44.71 20.36 142.33-110.94 137.34-138.89-4.99-27.96-76.96-150.01-214.66-175.69z" fill="#5E8FFC" p-id="1031"></path><path d="M140.08 573.71s27.8-60.04 79.4-51.44c51.6 8.6 60.2-55.9 94.6-90.3s98.9 19.73 43 65.76-51.6 73.91-34.4 90.07c17.2 16.16 189.19 4.44 141.9 81.25s-180.59-17.83-219.29-0.61-79.29 36.75-59.44 51.93c-0.01 0-56.37-69.42-45.77-146.66z" fill="#2A57E8" opacity=".18" p-id="1032"></path><path d="M116.39 532.06s24.26-52.38 69.27-44.88c45.02 7.5 52.52-48.77 82.53-78.78s86.28 17.21 37.52 57.38-45.02 64.48-30.01 78.58c15.01 14.1 165.07 3.87 123.8 70.89s-157.56-15.56-191.33-0.53-78.38 43.13-61.06 56.38c0-0.01-39.97-71.65-30.72-139.04z" fill="#5E8FFC" p-id="1033"></path><path d="M402.73 896.5s30.44-133.17 145.62-126.15c115.17 7.02 148.25-58.01 154.69-128.91s111.02 17.18 58.74 85.94-112.99-3.75-118.09 109.85c-0.01-0.01 26.85 107.4-240.96 59.27z" fill="#2A57E8" opacity=".24" p-id="1034"></path><path d="M417.73 901.1s21.16-102.72 101.22-97.84c80.06 4.88 103.05-40.32 107.53-89.61 4.48-49.28 77.18 11.95 40.83 59.74-36.35 47.79-78.54-2.61-82.09 76.36 0 0 54.06 79.97-167.49 51.35z" fill="#5E8FFC" p-id="1035"></path><path d="M776.19 737.58m-136.91 0a136.91 136.91 0 1 0 273.82 0 136.91 136.91 0 1 0-273.82 0Z" fill="#FCBA00" p-id="1036"></path><path d="M913.1 733.24c0 75.61-61.3 136.91-136.91 136.91s-136.91-61.3-136.91-136.91 67.73 67.25 143.35 67.25S913.1 657.62 913.1 733.24z" fill="#F99F00" opacity=".46" p-id="1037"></path><path d="M890.92 790.65c0 54.61-60.11 78.42-114.72 78.42s-102.08-31.27-111.23-63.42c-14.94-52.53 22.97 14.41 115.88 13.1 54.6-0.76 110.07-28.1 110.07-28.1z" fill="#F99F00" opacity=".83" p-id="1038"></path><path d="M668.77698 693.587363a63.49 84.77 74.601 1 0 163.45352-45.019532 63.49 84.77 74.601 1 0-163.45352 45.019532Z" fill="#F7D56B" opacity=".4" p-id="1039"></path><path d="M684.782101 656.102644a30.02 40.09 74.601 1 0 77.301541-21.29094 30.02 40.09 74.601 1 0-77.301541 21.29094Z" fill="#F9DC8A" opacity=".39" p-id="1040"></path></svg>