<?xml version="1.0" standalone="no"?><!DOCTYPE svg PUBLIC "-//W3C//DTD SVG 1.1//EN" "http://www.w3.org/Graphics/SVG/1.1/DTD/svg11.dtd"><svg t="1636105540893" class="icon" viewBox="0 0 1024 1024" version="1.1" xmlns="http://www.w3.org/2000/svg" p-id="14949" xmlns:xlink="http://www.w3.org/1999/xlink" width="200" height="200"><defs><style type="text/css"></style></defs><path d="M411.733333 486.4c-10.666667-8.533333-21.333333-14.933333-32-19.2-12.8-4.266667-23.466667-6.4-36.266666-6.4-19.2 0-36.266667 4.266667-49.066667 10.666667 6.4-10.666667 12.8-21.333333 21.333333-29.866667 8.533333-8.533333 19.2-14.933333 32-21.333333 12.8-6.4 27.733333-8.533333 42.666667-10.666667h8.533333l14.933334-55.466667h-23.466667c-27.733333 2.133333-57.6 8.533333-78.933333 19.2s-40.533333 25.6-53.333334 40.533334c-14.933333 17.066667-23.466667 36.266667-32 57.6-6.4 21.333333-10.666667 44.8-10.666666 68.266666 0 21.333333 2.133333 40.533333 8.533333 55.466667 4.266667 14.933333 12.8 27.733333 23.466667 38.4 10.666667 10.666667 23.466667 17.066667 36.266666 23.466667 14.933333 4.266667 29.866667 6.4 46.933334 6.4 14.933333 0 27.733333-2.133333 40.533333-6.4 12.8-4.266667 25.6-10.666667 36.266667-19.2s19.2-19.2 25.6-32c6.4-12.8 10.666667-27.733333 10.666666-44.8s-2.133333-32-8.533333-44.8c-6.4-10.666667-12.8-21.333333-23.466667-29.866667z m-98.133333 36.266667c6.4-2.133333 12.8-4.266667 19.2-4.266667 6.4 0 12.8 0 19.2 2.133333 6.4 2.133333 10.666667 4.266667 12.8 8.533334 4.266667 4.266667 6.4 8.533333 8.533333 12.8 2.133333 6.4 4.266667 12.8 4.266667 21.333333s-2.133333 14.933333-4.266667 21.333333c-2.133333 6.4-6.4 10.666667-10.666666 14.933334-4.266667 4.266667-8.533333 6.4-14.933334 8.533333-6.4 2.133333-12.8 4.266667-19.2 4.266667-14.933333 0-25.6-4.266667-34.133333-10.666667-8.533333-6.4-10.666667-19.2-10.666667-36.266667 0-8.533333 2.133333-14.933333 4.266667-21.333333 2.133333-6.4 6.4-10.666667 10.666667-14.933333 4.266667-2.133333 8.533333-6.4 14.933333-6.4zM676.266667 522.666667c-6.4-6.4-14.933333-12.8-23.466667-17.066667 0 0-2.133333 0-2.133333-2.133333 6.4-4.266667 12.8-10.666667 19.2-17.066667 10.666667-12.8 17.066667-27.733333 17.066666-46.933333 0-12.8-2.133333-23.466667-8.533333-34.133334-6.4-10.666667-12.8-17.066667-21.333333-25.6-8.533333-6.4-19.2-10.666667-32-14.933333-12.8-2.133333-25.6-2.133333-40.533334-2.133333-12.8 0-27.733333 2.133333-38.4 4.266666-12.8 4.266667-23.466667 8.533333-32 14.933334-8.533333 6.4-17.066667 14.933333-21.333333 25.6-6.4 10.666667-8.533333 21.333333-8.533333 34.133333 0 19.2 6.4 34.133333 17.066666 46.933333 6.4 6.4 10.666667 10.666667 19.2 17.066667-2.133333 0-2.133333 2.133333-4.266666 2.133333-8.533333 4.266667-14.933333 10.666667-21.333334 17.066667-6.4 6.4-12.8 14.933333-17.066666 25.6-4.266667 8.533333-6.4 21.333333-6.4 34.133333 0 14.933333 4.266667 29.866667 10.666666 40.533334s14.933333 21.333333 27.733334 27.733333c10.666667 6.4 23.466667 10.666667 36.266666 14.933333 12.8 2.133333 27.733333 4.266667 40.533334 4.266667 12.8 0 27.733333-2.133333 40.533333-4.266667 12.8-2.133333 25.6-8.533333 36.266667-14.933333 10.666667-6.4 21.333333-17.066667 27.733333-27.733333 6.4-10.666667 10.666667-25.6 10.666667-40.533334 0-12.8-2.133333-23.466667-6.4-34.133333-6.4-12.8-10.666667-21.333333-19.2-27.733333z m-55.466667-68.266667c-2.133333 4.266667-4.266667 6.4-8.533333 8.533333-4.266667 2.133333-8.533333 6.4-12.8 8.533334-4.266667 2.133333-8.533333 4.266667-14.933334 6.4-4.266667-2.133333-8.533333-4.266667-14.933333-6.4-4.266667-2.133333-10.666667-4.266667-12.8-8.533334-4.266667-2.133333-6.4-6.4-8.533333-8.533333-2.133333-4.266667-2.133333-6.4-2.133334-12.8 0-8.533333 2.133333-14.933333 8.533334-19.2 6.4-4.266667 17.066667-8.533333 29.866666-8.533333 12.8 0 23.466667 2.133333 29.866667 8.533333 6.4 4.266667 8.533333 10.666667 8.533333 19.2 0 6.4 0 10.666667-2.133333 12.8z m-81.066667 108.8c2.133333-4.266667 6.4-8.533333 10.666667-12.8 4.266667-4.266667 10.666667-8.533333 17.066667-10.666667l19.2-6.4 19.2 6.4c6.4 2.133333 12.8 6.4 17.066666 10.666667 4.266667 4.266667 8.533333 8.533333 10.666667 12.8 2.133333 4.266667 4.266667 8.533333 4.266667 14.933333 0 10.666667-4.266667 19.2-10.666667 25.6-8.533333 6.4-21.333333 10.666667-36.266667 10.666667-17.066667 0-29.866667-4.266667-36.266666-10.666667-8.533333-6.4-10.666667-14.933333-10.666667-25.6-6.4-6.4-6.4-10.666667-4.266667-14.933333zM953.6 548.266667c-4.266667-8.533333-10.666667-17.066667-17.066667-25.6-6.4-6.4-14.933333-12.8-23.466666-17.066667 0 0-2.133333 0-2.133334-2.133333 6.4-4.266667 12.8-10.666667 19.2-17.066667 10.666667-12.8 17.066667-27.733333 17.066667-46.933333 0-12.8-2.133333-23.466667-8.533333-32-6.4-10.666667-12.8-17.066667-21.333334-25.6-8.533333-6.4-19.2-10.666667-32-14.933334-12.8-4.266667-27.733333-4.266667-40.533333-4.266666-12.8 0-27.733333 2.133333-38.4 4.266666-12.8 4.266667-23.466667 8.533333-32 14.933334-8.533333 6.4-17.066667 14.933333-21.333333 25.6-6.4 10.666667-8.533333 21.333333-8.533334 32 0 19.2 6.4 34.133333 17.066667 46.933333 6.4 6.4 10.666667 10.666667 19.2 17.066667-2.133333 0-2.133333 2.133333-4.266667 2.133333-8.533333 4.266667-14.933333 10.666667-21.333333 17.066667-6.4 6.4-12.8 14.933333-17.066667 25.6-4.266667 10.666667-6.4 21.333333-6.4 34.133333 0 14.933333 4.266667 29.866667 10.666667 40.533333s14.933333 21.333333 27.733333 27.733334c10.666667 6.4 23.466667 10.666667 36.266667 14.933333 12.8 2.133333 27.733333 4.266667 40.533333 4.266667 12.8 0 27.733333-2.133333 40.533334-4.266667 12.8-2.133333 25.6-8.533333 36.266666-14.933333 10.666667-6.4 21.333333-17.066667 27.733334-27.733334 6.4-10.666667 10.666667-25.6 10.666666-40.533333-2.133333-14.933333-4.266667-25.6-8.533333-34.133333z m-72.533333-93.866667c-2.133333 4.266667-4.266667 6.4-8.533334 8.533333-4.266667 2.133333-8.533333 6.4-12.8 8.533334-4.266667 2.133333-8.533333 4.266667-14.933333 4.266666-4.266667-2.133333-8.533333-4.266667-14.933333-6.4-4.266667-2.133333-10.666667-4.266667-12.8-8.533333-4.266667-2.133333-6.4-6.4-8.533334-8.533333-2.133333-4.266667-2.133333-6.4-2.133333-12.8 0-8.533333 2.133333-14.933333 8.533333-19.2 6.4-4.266667 17.066667-8.533333 29.866667-8.533334 12.8 0 23.466667 2.133333 29.866667 8.533334 6.4 4.266667 8.533333 10.666667 8.533333 19.2s-2.133333 12.8-2.133333 14.933333z m-81.066667 108.8c2.133333-4.266667 6.4-8.533333 10.666667-12.8 4.266667-4.266667 10.666667-8.533333 17.066666-10.666667l19.2-6.4 19.2 6.4c6.4 2.133333 10.666667 6.4 17.066667 10.666667 4.266667 4.266667 8.533333 8.533333 10.666667 12.8 2.133333 4.266667 4.266667 8.533333 4.266666 14.933333 0 10.666667-4.266667 19.2-10.666666 25.6-8.533333 6.4-21.333333 10.666667-36.266667 10.666667-17.066667 0-29.866667-4.266667-36.266667-10.666667-8.533333-6.4-10.666667-14.933333-10.666666-25.6-8.533333-6.4-6.4-10.666667-4.266667-14.933333zM85.333333 445.866667l32-10.666667v230.4h64V356.266667L64 394.666667z" p-id="14950"></path></svg>