<?xml version="1.0" standalone="no"?><!DOCTYPE svg PUBLIC "-//W3C//DTD SVG 1.1//EN" "http://www.w3.org/Graphics/SVG/1.1/DTD/svg11.dtd"><svg t="1636105831395" class="icon" viewBox="0 0 1024 1024" version="1.1" xmlns="http://www.w3.org/2000/svg" p-id="17860" xmlns:xlink="http://www.w3.org/1999/xlink" width="200" height="200"><defs><style type="text/css"></style></defs><path d="M142.08 113.2032h724.4288v115.968H142.08z" fill="#1DCE75" p-id="17861"></path><path d="M713.6768 790.6816l47.0528-156.672h58.6752V278.9888H189.184v354.9696H243.712l47.0528 156.672H101.5296v115.968h805.5808v-115.968h-193.4336zM305.152 394.9056h398.2848v123.136H305.152V394.9056z m68.1984 239.104h257.792l-54.0672 156.672H427.4176l-54.0672-156.672z" fill="#05C46D" p-id="17862"></path><path d="M713.6768 790.6816l47.0528-156.672h58.6752V278.9888H189.184v354.9696H243.712l47.0528 156.672H101.5296v115.968h805.5808v-115.968h-193.4336zM305.152 394.9056h398.2848v123.136H305.152V394.9056z m68.1984 239.104h257.792l-54.0672 156.672H427.4176l-54.0672-156.672z" fill="#05C46D" p-id="17863"></path><path d="M750.5408 667.9552l10.1888-33.9456h14.7968c16.0768-23.2448 30.72-47.5136 43.9296-72.6528V278.9888H189.184v354.9696H243.712l47.0528 156.672H101.5296v115.968h293.4784c142.5408-40.2944 266.3936-125.184 355.5328-238.6432z m-173.5168 122.7264H427.4176l-54.0672-156.672h257.792l-54.1184 156.672z m-271.872-395.776h398.2848v123.136H305.152V394.9056z" fill="#1DCE75" p-id="17864"></path><path d="M698.7776 113.2032H142.08v115.968h526.2336c13.4144-37.3248 23.6544-76.0832 30.464-115.968zM305.152 518.0416V394.9056h276.8384a689.3056 689.3056 0 0 0 66.304-115.968H189.184v354.9696H243.712l4.1472 13.7728c82.5344-29.184 157.8496-73.5232 222.6176-129.7408H305.152z" fill="#3CD38E" p-id="17865"></path><path d="M432.64 113.2032H142.08v115.968h201.0112c33.792-35.328 63.8464-74.1888 89.5488-115.968zM290.0992 278.9376H189.184v71.1168c35.84-20.6848 69.5808-44.544 100.9152-71.1168z" fill="#48E1AA" p-id="17866"></path></svg>