<?xml version="1.0" standalone="no"?><!DOCTYPE svg PUBLIC "-//W3C//DTD SVG 1.1//EN" "http://www.w3.org/Graphics/SVG/1.1/DTD/svg11.dtd"><svg t="1636105869331" class="icon" viewBox="0 0 1024 1024" version="1.1" xmlns="http://www.w3.org/2000/svg" p-id="19714" xmlns:xlink="http://www.w3.org/1999/xlink" width="200" height="200"><defs><style type="text/css"></style></defs><path d="M54.857143 512c0 201.984 130.980571 373.321143 312.630857 433.773714 22.857143 4.205714 31.213714-9.910857 31.213714-22.034285 0-10.843429-0.402286-39.606857-0.621714-77.732572-127.158857 27.611429-153.984-61.293714-153.984-61.293714-20.809143-52.827429-50.779429-66.889143-50.779429-66.889143-41.508571-28.342857 3.145143-27.776 3.145143-27.776 45.897143 3.236571 70.034286 47.122286 70.034286 47.122286 40.777143 69.851429 106.989714 49.664 133.046857 37.961143 4.150857-29.513143 15.963429-49.664 29.001143-61.074286-101.485714-11.538286-208.219429-50.779429-208.219429-225.956572 0-49.901714 17.810286-90.733714 47.067429-122.660571-4.717714-11.556571-20.406857-58.057143 4.48-120.978286 0 0 38.363429-12.306286 125.696 46.866286 36.461714-10.166857 75.574857-15.213714 114.450286-15.414857 38.838857 0.182857 77.933714 5.248 114.432 15.414857 87.277714-59.172571 125.586286-46.866286 125.586285-46.866286 24.96 62.902857 9.270857 109.421714 4.571429 120.978286 29.312 31.926857 46.994286 72.777143 46.994286 122.660571 0 175.634286-106.898286 214.272-208.713143 225.572572 16.384 14.116571 31.012571 42.020571 31.012571 84.662857 0 61.110857-0.566857 110.409143-0.566857 125.403429 0 12.233143 8.246857 26.459429 31.433143 21.997714C838.290286 885.156571 969.142857 713.929143 969.142857 512 969.142857 259.547429 764.452571 54.857143 511.963429 54.857143 259.547429 54.857143 54.857143 259.529143 54.857143 512z" fill="#161514" p-id="19715"></path></svg>