<svg height="200" viewBox="0 0 1117 1024" width="218.164063" xmlns="http://www.w3.org/2000/svg"><path d="m706.64485625 824.42174346 45.40866592 68.11255986a448.6084418 448.6084418 0 0 1 -240.46334297 69.46519571c-248.44029082 0-449.5901792-201.59988751-449.5901792-449.99974952s201.14988838-449.99974951 449.54974951-449.99974951c248.84986114 0 450.4488706 201.5998875 450.4488706 449.99974951 0 6.87304336-.16435547 13.66346865-.45 20.45389482h-81.94038398c.4078125-6.79042617.57216797-13.58173037.57216797-20.45389482 0-203.27683974-165.02686084-368.1824124-368.63065459-368.1824124-203.11336318 0-367.7324124 164.86514297-367.7324124 368.1824124s164.61904922 368.18065459 367.7324124 368.18065459c71.63081982 0 138.51818438-20.45477373 195.13465752-55.75866064z"/><path d="m532.45364434 307.45464893h-61.36344229v245.45376914l214.77292735 128.86340449 30.6817207-50.31735469-184.09120577-109.2277705zm265.90942266 204.54510058h245.45289023l-122.72688457 163.63643203z"/></svg>