<?xml version="1.0" standalone="no"?><!DOCTYPE svg PUBLIC "-//W3C//DTD SVG 1.1//EN" "http://www.w3.org/Graphics/SVG/1.1/DTD/svg11.dtd"><svg t="1636105498794" class="icon" viewBox="0 0 1024 1024" version="1.1" xmlns="http://www.w3.org/2000/svg" p-id="12842" xmlns:xlink="http://www.w3.org/1999/xlink" width="200" height="200"><defs><style type="text/css"></style></defs><path d="M442.5 699.7H285.8v21.4h156.7v-21.4zM663.6 220c-3.5-0.3-7.1-0.7-10.6-0.9-4-0.4-7.9-0.8-11.8-1.4 3.9 0.6 7.9 1 11.8 1.4 3.5 0.2 7 0.7 10.6 0.9z" fill="#E12319" p-id="12843"></path><path d="M767.2 83.4H213.1c-78.7 0-142.5 63.8-142.5 142.5V780c0 78.7 63.8 142.5 142.5 142.5h554.1c78.7 0 142.5-63.8 142.5-142.5V225.9c0-78.7-63.8-142.5-142.5-142.5zM228 323.3c1.8-4.8 3.3-9.6 5.5-14.2 2.8-5.8 6.3-11.2 10.4-16.2 10.2-12.4 17.2-26.6 23.1-41.5 3.4-8.4 7.1-16.7 10.5-25.2 3.9-9.7 12.4-11.4 21-8.8 4.2 1.3 8 3.6 11.3 6.4 6.4 5.4 13.7 9.6 20.7 14.3 1.2 0.8 2.1 1.2 3.4-0.2 13.4-14.5 30.1-24.2 47.9-32 35.1-15.6 71.9-25.7 109.7-32 30.8-5.1 61.8-6.1 93-4.6 0.6 0 1.2-0.1 1.8-0.1 1.8-1.7 3.4-1 5.1 0.2 1.2 0.4 2.4 0.5 3.6 0.3 0.8-0.7 1.5-0.7 2.2 0.2 4.4 0.4 8.7 0.9 13.1 1.3 0.8-0.7 1.5-0.6 2.1 0.2 1.5 0.2 2.9 0.3 4.4 0.5 0.6-0.6 1-0.5 1.4 0.2 0.9 0.4 1.9 0.6 2.9 0.4 1.2-1 2.2-0.7 3.1 0.5 7.3 1.6 14.7 3 22 4.8 19.9 4.9 39.1 11.5 55.4 24.7 13.1 10.6 18.2 23.9 15.5 40.9-3.7 22.9-11.7 44-23 64.1-1.4 2.5-3.9 3.8-5.6 5.9 0.8 3.9-3 5.8-3.9 9-0.8 2.7-3.2 4.4-4.9 6.5-0.1 0.4-0.2 0.9-0.8 0.6 0 0.5 0.2 1.3-0.7 0.7 0.6 1.6-1 2.3-1.7 3.2-10.5 13.9-23.5 25.2-37.2 35.8-28.5 22.1-61.1 35.1-96.5 41.2-8.8 1.5-17.7 0-26.5-1-6.5-0.7-13-1.5-19.5-2.8-1.2-0.2-2.6-1.2-3.8 0.1-0.1 0.1-0.4 0.2-0.5 0.3-0.7-4.6-4.8-2.7-7.1-3.2-20.3-4.7-38.9-13.6-57-23.5-23.5-13-46.3-27.1-65.9-45.9-15.1-14.5-28.3-30.4-36.5-50-1.6-3.9-3.1-8-3.7-12.2-0.4-3-1.6-4.8-4.7-5.7 0.6 6.8 1 13.6 0.4 20.3-2.1 27.1-15.2 46.2-41.1 55.6-8.6 3.1-16.9 7.1-26.3 8-12.5 1.3-28.2-12.2-22.6-27.1z m68.1 473.4c-6.2 11.1-14.9 20.9-22.5 31.2-6.1 8.2-14.1 10.8-25.4 7.4 3.6-6.4 7.8-12.1 10.2-18.5 6.9-18.3 13.5-36.8 19.3-55.5 1.9-6 3.5-9.2 10.3-8.8 8.2 0.5 16.4 0.1 28.3 0.1-7.4 16.5-12.7 30.9-20.2 44.1z m84.2-8c-0.5 32.8-19.2 49.6-53.4 47.3v-13.9c20-7.1 21-8.6 21-30.6v-51.4h-93.1v-57.7h218.5v57h-93v35.8c0 4.4 0.1 9 0 13.5z m75.7 40.6c-20-21.5-33.7-46.3-41.9-76.2h31.4c10.9 28.2 21.4 55.5 32 82.9-7.3 2-14.5 0.8-21.5-6.7z m25.2-162.6H246.9v-16.5h100.6c0.5-4.8 0.8-8.5 1.3-13h30.8c0.6 4.1 1.2 8.1 2 13.2h75.1c3.8 0 7.6-0.1 11.4-0.1 14.8-0.2 14.9-0.1 13.1 16.4z m26.7-172.5c-4.4 9.6-6.8 20-9.8 30.1-0.7 2.3-1.5 3.5-4.1 3.4-3 0-6.9 1.8-8.8 0.1-2-1.8-0.2-5.7 0-8.6 0.9-11.5 1.4-23 0.7-34.8-3.8 1.2-6.8 3.5-9.6 5.9-10.9 9.1-19.9 20-30.1 29.7-1.7 1.6-3.4 3.1-4.9 4.9-2.2 2.8-5.2 3.1-8.4 3.4-2.9 0.3-3.5-0.6-2-3.3 5.5-9.2 10.8-18.5 16.2-27.7 2.9-5 5.7-10.2 8.9-15.1 1.6-2.5 0.5-3-1.5-3.5-3.7-0.9-7-2.7-10-5-7.2-5.5-10.6-16.8-7.3-25.1 1.1 3.8 2.4 7.3 4.7 10.3 7.1 9.6 17.5 7.9 25.1 3.6 0.9-0.5 1.4-1.6 2-2.6 9-15 17.9-30 26.8-45.1 1.4-2.4 2.7-2.9 5.5-2.4 12 2.2 24 4 36.2 2.5 5.8-0.7 11.4-2 17.2-5.3v6c-0.3 36.2-0.6 72.5-0.7 108.7 0 3.4-1 4-4.1 3.7-7.6-0.7-7.5-0.6-9.4-8.1-2.2-8.4-3.3-17.2-6.4-25.4-1.7-4.3-3.6-8.5-6.9-11.9-4.3-4.3-7.5-4.3-11.9 0-3.4 3.4-5.5 7.5-7.4 11.6z m31.4 339c-4 3.5-11.6 2.9-18.5 4.4 8.2-18.6 15.7-35 22.6-51.6 2.6-6.2 5.3-13 5.4-19.6 0.2-12.7 6.8-15 17.5-13.9 6.2 0.6 12.6 0.1 20.4 0.1-9.5 32.3-23.6 59.5-47.4 80.6z m187.8-4.8c-19.7-21.3-32.9-45.8-40.9-74.1 2.1-0.9 2.4-1.1 2.8-1.1 29.8-3 29.5-2.9 37.6 25.3 2.9 10.2 6.8 20.1 11.1 29.8 4.1 9.2 9.4 17.9 14.3 27.2-10.3 2.7-17.8 0.6-24.9-7.1zM753.5 667c-3.5 0.2-7.5 0.6-11.5 0.6-45.9 0.1-91.9 0.3-137.8-0.1-8.8-0.1-13.8 2.2-17.1 10.8-5.5 14-12.4 27.5-19.8 43.6 17.9 0 33.9 0.3 50-0.4 1.8-0.1 4.7-5.1 4.9-8 0.6-9.7 0.2-19.5 0.2-30.1h31.7v38.3h90.7v17.8h-90.5c0 17.4 0.1 33.2 0 49-0.2 32.8-18.6 49.6-52.7 47.8-2.5-8.7-3.3-15.3 8.8-18.2 4.5-1.1 10.4-8 10.6-12.6 1.1-21.4 0.5-43 0.5-65.9h-95.1c11.2-24.4 21.6-46.9 33-71.8h-40.7v-17.5c13.6 0 27.2 0.2 40.8-0.1 3.2-0.1 8.4-0.8 9.1-2.6 7.7-19.4 23.5-8.5 37.3-11.9-1.8 5.5-3 8.9-4.7 14h152.2c0.1 6.4 0.1 11.1 0.1 17.3z" fill="#E12319" p-id="12844"></path><path d="M678 329.8c0.8 1.8-0.9 2.4-1.6 3.4-10.5 13.9-23.5 25.2-37.2 35.8-28.5 22.1-61.1 35.1-96.5 41.2-8.8 1.5-17.7 0-26.5-1-6.5-0.7-13-1.5-19.5-2.8-1.2-0.2-2.6-1.2-3.8 0.1-0.1 0.1-0.4 0.2-0.5 0.3-0.7-4.6-4.8-2.7-7.1-3.2-20.3-4.7-38.9-13.6-57-23.5-23.5-13-46.3-27.1-65.9-45.9-15.1-14.5-28.3-30.4-36.5-50-1.6-3.9-3.1-8-3.7-12.2-0.4-3-1.6-4.8-4.7-5.7 0.6 6.8 1 13.6 0.4 20.3-2.1 27.1-15.2 46.2-41.1 55.6-8.6 3.1-16.9 7.1-26.3 8-12.5 1.2-28.1-12.2-22.5-27.1 1.8-4.8 3.3-9.6 5.5-14.2 2.8-5.8 6.3-11.2 10.4-16.2 10.2-12.4 17.2-26.6 23.1-41.5 3.4-8.4 7.1-16.7 10.5-25.2 3.9-9.7 12.4-11.4 21-8.8 4.2 1.3 8 3.6 11.3 6.4 6.4 5.4 13.7 9.6 20.7 14.3 1.2 0.8 2.1 1.2 3.4-0.2 13.4-14.5 30.1-24.2 47.9-32 35.1-15.6 71.9-25.7 109.7-32 30.8-5.1 61.8-6.1 93-4.6 0.6 0 1.2-0.1 1.8-0.1 1.7 0.1 3.4 0.1 5.1 0.2 1.2 0.4 2.4 0.5 3.6 0.3 0.7 0.1 1.4 0.1 2.2 0.2 4.4 0.4 8.7 0.9 13.1 1.3 0.7 0.1 1.4 0.1 2.1 0.2 1.5 0.2 2.9 0.3 4.4 0.5 0.5 0.1 1 0.1 1.4 0.2 0.9 0.4 1.9 0.6 2.9 0.4 1 0.2 2.1 0.3 3.1 0.5 7.3 1.6 14.7 3 22 4.8 19.9 4.9 39.1 11.5 55.4 24.7 13.1 10.6 18.2 23.9 15.5 40.9-3.7 22.9-11.7 44-23 64.1-1.4 2.5-3.9 3.8-5.6 5.9-1.5 0.5-3 0.8-4.4 1.5-7.6 3.6-15.7 6-23.9 7.4-31.5 5.3-62.5 3-92.8-7.2-28.5-9.6-51.1-27.4-69-51.4-1.8-2.5-5.2-3.4-7.3-2-2 1.3-2.9 6.4-1.3 8.6 5.6 7.9 12 15.3 18.9 22.1 24.1 23.5 53.6 36.2 86.3 42 20.7 3.7 41.6 3.6 62.4 0.7 7-1 13.8-3.1 20.6-5.1z m-25-110.7c6.3 0.3 12.5 1.5 18.9 0.9 8.1-0.7 15.9-2 22.7-6.9 4.4-3.2 5-8.2 1.6-12.4-1.3-1.6-2.9-3-4.7-4-6.9-3.9-14.2-6.8-22-7.8-8-1-16-1.5-24.2-0.6-6.5 0.7-12.7 1.6-18.4 4.7-4.3 2.4-8.2 5.8-8.2 10.8 0 5.3 4.8 7.8 9.1 9.9 7.9 3.9 16.6 4.5 25.2 5.4z m-161.9-0.4c-0.7 6.7 5.1 13.4 12.1 14.2 6.2 0.7 14.6-5.4 15.3-11.1 0.8-6.1-5.6-13.4-12.3-14-8-0.7-14.3 3.9-15.1 10.9z" fill="#EEEEEE" p-id="12845"></path><path d="M437.2 448.7c1.1 3.8 2.4 7.3 4.7 10.3 7.1 9.6 17.5 7.9 25.1 3.6 0.9-0.5 1.4-1.6 2-2.6 9-15 17.9-30 26.8-45.1 1.4-2.4 2.7-2.9 5.5-2.4 12 2.2 24 4 36.2 2.5 5.8-0.7 11.4-2 17.2-5.3v6c-0.3 36.2-0.6 72.5-0.7 108.7 0 3.4-1 4-4.1 3.7-7.6-0.7-7.5-0.6-9.4-8.1-2.2-8.4-3.3-17.2-6.4-25.4-1.7-4.3-3.6-8.5-6.9-11.9-4.3-4.3-7.5-4.3-11.9 0-3.2 3.2-5.3 7.2-7.2 11.3-4.4 9.6-6.8 20-9.8 30.1-0.7 2.3-1.5 3.5-4.1 3.4-3 0-6.9 1.8-8.8 0.1-2-1.8-0.2-5.7 0-8.6 0.9-11.5 1.4-23 0.7-34.8-3.8 1.2-6.8 3.5-9.6 5.9-10.9 9.1-19.9 20-30.1 29.7-1.7 1.6-3.4 3.1-4.9 4.9-2.2 2.8-5.2 3.1-8.4 3.4-2.9 0.3-3.5-0.6-2-3.3 5.5-9.2 10.8-18.5 16.2-27.7 2.9-5 5.7-10.2 8.9-15.1 1.6-2.5 0.5-3-1.5-3.5-3.7-0.9-7-2.7-10-5-7.4-5.2-10.7-16.6-7.5-24.8z" fill="#EEEEEE" p-id="12846"></path><path d="M678 329.8c-6.8 2-13.6 4-20.7 5-20.9 2.9-41.7 3-62.4-0.7-32.7-5.8-62.1-18.5-86.3-42-7-6.8-13.3-14.1-18.9-22.1-1.6-2.2-0.7-7.2 1.3-8.6 2.2-1.4 5.5-0.5 7.3 2 17.9 24 40.5 41.8 69 51.4 30.2 10.2 61.3 12.4 92.8 7.2 8.3-1.4 16.3-3.8 23.9-7.4 1.4-0.6 2.9-1 4.4-1.5 0.8 3.9-3 5.8-3.9 9-0.8 2.7-3.2 4.4-4.9 6.5-0.5-0.1-0.8 0.1-0.8 0.6l0.1-0.1c-0.6 0.1-1.1 0.1-0.9 0.7zM591.3 169.5c-1.7-0.1-3.4-0.1-5.1-0.2 1.8-1.7 3.5-1 5.1 0.2zM624.2 172.9c-1-0.2-2.1-0.3-3.1-0.5 1.2-0.9 2.2-0.6 3.1 0.5zM597.1 169.9c-0.7-0.1-1.4-0.1-2.2-0.2 0.8-0.7 1.6-0.6 2.2 0.2zM612.4 171.4c-0.7-0.1-1.4-0.1-2.1-0.2 0.7-0.7 1.4-0.6 2.1 0.2zM618.2 172.1c-0.5-0.1-1-0.1-1.4-0.2 0.5-0.6 1-0.5 1.4 0.2z" fill="#282526" p-id="12847"></path><path d="M678.7 329.3c0.1-0.5 0.4-0.6 0.8-0.6-0.1 0.4-0.1 0.9-0.8 0.6z" fill="#EEEEEE" p-id="12848"></path><path d="M677.9 329.9c-0.1-0.7 0.4-0.7 0.9-0.7-0.1 0.5 0.3 1.6-0.9 0.7z" fill="#EEEEEE" p-id="12849"></path><path d="M653 219.1c-8.6-0.9-17.2-1.6-25.2-5.3-4.4-2.1-9.1-4.6-9.1-9.9 0-5 3.9-8.5 8.2-10.8 5.7-3.1 11.9-4 18.4-4.7 8.2-0.9 16.2-0.4 24.2 0.6 7.8 1 15.1 4 22 7.8 1.8 1 3.4 2.4 4.7 4 3.4 4.2 2.8 9.2-1.6 12.4-6.8 4.9-14.6 6.1-22.7 6.9-6.4 0.6-12.6-0.7-18.9-1z" fill="#282526" p-id="12850"></path><path d="M491.1 218.7c0.8-7 7.1-11.6 15.2-10.9 6.7 0.6 13 7.9 12.3 14-0.7 5.6-9.1 11.7-15.3 11.1-7.1-0.7-12.9-7.5-12.2-14.2z" fill="#444243" p-id="12851"></path><path d="M559.6 667.8h-40.7v-17.5c13.6 0 27.2 0.2 40.8-0.1 3.2-0.1 8.4-0.8 9.1-2.6 7.7-19.4 23.5-8.5 37.3-11.9-1.8 5.5-3 8.9-4.7 14h152.2V667c-3.5 0.2-7.5 0.6-11.5 0.6-45.9 0.1-91.9 0.3-137.8-0.1-8.8-0.1-13.8 2.2-17.1 10.8-5.5 14-12.4 27.5-19.8 43.6 17.9 0 33.9 0.3 50-0.4 1.8-0.1 4.7-5.1 4.9-8 0.6-9.7 0.2-19.5 0.2-30.1h31.7v38.3h90.7v17.8h-90.5c0 17.4 0.1 33.2 0 49-0.2 32.8-18.6 49.6-52.7 47.8-2.5-8.7-3.3-15.3 8.8-18.2 4.5-1.1 10.4-8 10.6-12.6 1.1-21.4 0.5-43 0.5-65.9h-95.1c11.3-24.4 21.7-47 33.1-71.8zM326.9 836v-13.9c20-7.1 21-8.6 21-30.6v-51.4h-93.1v-57.7h218.5v57h-93v49.5c-0.5 32.6-19.1 49.5-53.4 47.1z m-41.1-114.9h156.7v-21.4H285.8v21.4zM246.8 666.7v-16.5h100.6c0.5-4.8 0.8-8.5 1.3-13h30.8c0.6 4.1 1.2 8.1 2 13.2h75.1c3.8 0 7.6-0.1 11.4-0.1 15-0.1 15 0 13.2 16.5-77.7-0.1-155.5-0.1-234.4-0.1z" fill="#FFFFFF" p-id="12852"></path><path d="M686.2 754.2c2.1-0.9 2.4-1.1 2.8-1.1 29.8-3 29.5-2.9 37.6 25.3 2.9 10.2 6.8 20.1 11.1 29.8 4.1 9.2 9.4 17.9 14.3 27.2-10.3 2.8-17.8 0.7-24.9-7-19.7-21.3-33-45.9-40.9-74.2zM414.1 753.1h31.4c10.9 28.2 21.4 55.5 32 82.9-7.2 2.1-14.5 0.8-21.4-6.6-20.1-21.6-33.7-46.3-42-76.3zM316.4 752.6c-7.4 16.5-12.8 30.9-20.3 44.2-6.2 11.1-14.9 20.9-22.5 31.2-6.1 8.2-14.1 10.8-25.4 7.4 3.6-6.4 7.8-12.1 10.2-18.5 6.9-18.3 13.5-36.8 19.3-55.5 1.9-6 3.5-9.2 10.3-8.8 8.2 0.4 16.4 0 28.4 0zM586.6 752.5c-9.4 32.4-23.5 59.5-47.4 80.6-4 3.5-11.6 2.9-18.5 4.4 8.2-18.6 15.7-35 22.6-51.6 2.6-6.2 5.3-13 5.4-19.6 0.2-12.7 6.8-15 17.5-13.9 6.2 0.6 12.6 0.1 20.4 0.1z" fill="#FFFFFF" p-id="12853"></path></svg>