<?xml version="1.0" encoding="utf-8"?>
<!-- Generator: Adobe Illustrator 16.0.0, SVG Export Plug-In . SVG Version: 6.00 Build 0)  -->
<!DOCTYPE svg PUBLIC "-//W3C//DTD SVG 1.1//EN" "http://www.w3.org/Graphics/SVG/1.1/DTD/svg11.dtd">
<svg version="1.1" xmlns="http://www.w3.org/2000/svg" xmlns:xlink="http://www.w3.org/1999/xlink" x="0px" y="0px" width="256px"
	 height="256px" viewBox="0 0 256 256" enable-background="new 0 0 256 256" xml:space="preserve">
<g id="图层_3">
	<path fill="#FC1010" d="M89.688,216.613c0.538-4.042-1.156-11.219-1.156-11.219h19.622c0,0,3.157,5.657,4.568,8.941
		s-0.4,14.071-1.472,14.084s-6.295-8.244-6.295-8.244s-2.001-4.3-0.893,9.307c-3.024-0.604-9.21-9.86-10.211-10.211
		c-1.002-0.351-1.237,9.427-2.867,13.878C90.396,231.974,89.15,220.655,89.688,216.613z"/>
	<path fill="#FFEC06" stroke="#000000" stroke-width="2" stroke-miterlimit="10" d="M134.083,110.158
		c0.052-0.149,8.585,2.504,10.418,4.504s10.999,17.57,12.416,23.663c0.948,4.078-16.5-2.871-16.5-2.871l-7-25.296H134.083z"/>
	<path opacity="0.4" fill="#FC1010" d="M86.519,221.669c0.705-6.381,1.805-17.712,1.805-17.712h25.708c0,0,4.138,8.931,5.986,14.116
		c1.849,5.187-2.596,21.017-4,21.017s-8.331-11.797-8.331-11.797s-0.515-6.291,0.938,15.189
		c-3.962-0.955-12.02-16.063-13.332-16.617c-1.313-0.554-1.784,11.028-3.918,18.055C90.604,242.064,85.814,228.051,86.519,221.669z"
		/>
	<path fill="#FFEC06" stroke="#000000" stroke-width="6" stroke-miterlimit="10" d="M63.779,114.086c0,0-11.766,9.141-14.834,13
		c-3.007,3.782-8.909,16.613-7.833,17.667s15,0,15,0L63.779,114.086z"/>
</g>
<g id="图层_2">
	<path fill="#FF5533" stroke="#000000" stroke-width="6" stroke-miterlimit="10" d="M97.422,57.727
		c-39.839,0-47.338,112.093-44.505,121.756c-0.834,10.329,25.417,29.34,48.75,29.668s44.001-15.664,46-24.668
		S137.261,57.727,97.422,57.727z"/>
	<path d="M57.19,184.318c0,0,43.584,17.414,90.084,1.414c-15.816,22.75-35.816,23.418-45.607,23.418
		C67.333,209.15,57.19,184.318,57.19,184.318z"/>
	<polyline stroke="#000000" stroke-miterlimit="10" points="88.598,209.905 88.765,213.649 105.64,213.107 101.331,208.899 
		88.598,209.69 	"/>
</g>
<g id="图层_7">
	<path opacity="0.6" fill="#FC1010" d="M111.453,84.753c-11.051,21.561-20.442,78.685-18.695,80.173
		c1.747,1.488-22.789-17.594-16.644-41.52C80.196,102.961,94.209,87.312,111.453,84.753z"/>
	<path opacity="0.6" fill="#FC1010" d="M61.558,140c5.015,5.015,39.308,46.775,35.225,54.275
		c-11.58-0.295-38.424-6.838-40.549-10.837C54.227,179.662,56.542,134.985,61.558,140z"/>
</g>
<g id="图层_9">
	
		<ellipse transform="matrix(0.9212 0.3892 -0.3892 0.9212 33.7354 -30.3037)" opacity="0.5" fill="#FFFFFF" cx="91.666" cy="68.117" rx="3" ry="3.719"/>
	<ellipse opacity="0.5" fill="#FFFFFF" cx="58.179" cy="180.982" rx="2.667" ry="4.646"/>
</g>
<g id="图层_4">
	<g id="图层_6">
	</g>
	<g id="图层_5">
	</g>
</g>
<g id="图层_1">
	<g>
		<defs>
			<rect id="SVGID_1_" x="11.313" y="-5.83" width="256" height="256"/>
		</defs>
		<clipPath id="SVGID_2_">
			<use xlink:href="#SVGID_1_"  overflow="visible"/>
		</clipPath>
		<g clip-path="url(#SVGID_2_)">
			<defs>
				<rect id="SVGID_3_" x="11.313" y="-5.83" width="256" height="256"/>
			</defs>
			<clipPath id="SVGID_4_">
				<use xlink:href="#SVGID_3_"  overflow="visible"/>
			</clipPath>
			<path clip-path="url(#SVGID_4_)" fill="#5BBAF2" d="M94.313,141.17c0.187,5.579-0.553,17.377-0.553,17.377
				s-5.742,75.385,61.641,76.061c45.26-4.223,31.506-10.91,43.909-16.043c4.77-1.96-4.429-59.652,0-62.317
				c-0.37-4.75-0.982-11.285-1.189-16.055c-0.249-5.259-3.172-11.015-3.328-16.157c-0.155-5.143-0.342-10.308-0.55-15.462
				c-0.208-5.154,1.545-10.374,1.07-15.403c-0.413-4.948-3.272-9.748-4.625-14.525c-0.709-2.354-1.559-4.664-2.541-6.917
				c-1.017-2.354-2.033-4.615-3.2-6.761c-2.235-4.27-5.213-8.108-8.794-11.334c-1.829-1.582-3.786-3.011-5.849-4.272
				c-2.07-1.285-4.229-2.422-6.462-3.4c-2.192-0.951-4.475-1.68-6.813-2.178c-2.405-0.474-4.836-0.803-7.28-0.985
				c-4.894-0.411-9.82-0.174-14.653,0.705c-4.743,0.885-9.295,2.594-13.449,5.05c-4.084,2.569-7.665,5.862-10.567,9.717
				c-1.515,1.955-2.914,3.998-4.189,6.118c-0.633,1.058-1.307,2.178-1.846,3.215c-0.57,1.037-1.047,2.136-1.524,3.235
				c-0.91,2.288-1.692,4.625-2.344,7c-0.622,2.416-1.213,4.853-1.67,7.342c-1.784,10.034-2.913,20.173-3.381,30.353
				c0.467,0.674,0.881,1.255,1.213,1.67c2.51,3.173,6.823,7.912,6.865,7.964l-4.6,4.179c-0.187-0.199-4.49-4.945-7.135-8.275
				c-2.687-3.715-5.186-7.564-7.487-11.53c-3.505-6.6-7.947-6.9-5.915-5.017c0.031,0.031,0,5.017,0,5.017s7.561,13.219,9.056,15.628
				c3.681,5.921,4.054,11.064,6.19,12.002 M170.381,98.929c0,15.223-11.169,27.615-24.888,27.615s-24.888-12.392-24.888-27.615
				c0-15.223,11.169-27.6,24.888-27.6S170.381,83.705,170.381,98.929z M172.062,154.44c0.158,0.93,0.391,1.845,0.694,2.737
				c0.156,0.446,0.332,0.871,0.529,1.358c0.101,0.249,0.207,0.508,0.332,0.871c0.162,0.482,0.23,0.992,0.2,1.5
				c-0.021,0.298-0.084,0.591-0.188,0.871c-0.144,0.373-0.354,0.718-0.622,1.016c-0.337,0.341-0.721,0.631-1.141,0.861
				c-0.581,0.302-1.188,0.548-1.814,0.735c-1.094,0.324-2.205,0.58-3.329,0.768c-2.156,0.334-4.331,0.532-6.513,0.591
				c-4.349,0.175-8.703-0.161-12.973-1c-2.163-0.416-4.286-1.016-6.346-1.794c-1.063-0.398-2.1-0.865-3.1-1.4
				c-0.986-0.54-1.938-1.139-2.853-1.794c-3.529-2.666-6.497-6.003-8.731-9.819c-1.158-1.888-2.117-3.89-2.863-5.974
				c-0.71-2.044-1.285-4.133-1.721-6.253c-0.436-2.104-0.747-4.221-0.975-6.336c-0.114-1.068-0.2-2.126-0.259-3.194l-0.073-1.6
				l-0.021-0.809v-0.634c-0.001-0.059,0.002-0.117,0.01-0.176c0.015-0.135,0.049-0.268,0.1-0.394
				c0.102-0.237,0.272-0.439,0.487-0.581c0.232-0.102,0.489-0.126,0.736-0.073c0.166,0.048,0.324,0.121,0.467,0.218l0.083,0.063
				l0.166,0.114l0.332,0.237l0.684,0.467c0.446,0.312,0.913,0.622,1.379,0.913c0.925,0.614,1.884,1.176,2.872,1.681
				c1.95,1.047,3.951,2.021,5.984,2.914c4.029,1.813,8.243,3.188,12.567,4.1c4.348,0.872,8.768,1.327,13.2,1.358
				c4.428,0.081,8.855-0.221,13.232-0.9c0.571-0.097,1.113,0.288,1.211,0.859c0.001,0.004,0.001,0.008,0.002,0.012
				c0.037,0.196,0.015,0.397-0.063,0.581l-0.031,0.062l-0.342,1.349c-0.124,0.477-0.237,0.964-0.353,1.462
				c-0.218,0.975-0.395,1.98-0.539,2.986c-0.29,2.022-0.446,4.075-0.591,6.149C171.716,150.508,171.773,152.487,172.062,154.44
				L172.062,154.44z"/>
			<g opacity="0.17" clip-path="url(#SVGID_4_)">
				<g>
					<defs>
						<rect id="SVGID_5_" x="120.606" y="68.213" width="49.776" height="29.16"/>
					</defs>
					<clipPath id="SVGID_6_">
						<use xlink:href="#SVGID_5_"  overflow="visible"/>
					</clipPath>
					<path clip-path="url(#SVGID_6_)" d="M145.494,68.213c-13.72,0-24.888,12.382-24.888,27.605c0,0.523,0.016,1.041,0.041,1.555
						c0.731-14.5,11.6-26.049,24.847-26.049s24.116,11.548,24.847,26.049c0.026-0.514,0.041-1.033,0.041-1.555
						C170.382,80.595,159.214,68.213,145.494,68.213"/>
				</g>
			</g>
			<path clip-path="url(#SVGID_4_)" fill="#3A70F9" d="M197.209,14.652c-0.003,2.409-1.957,4.359-4.365,4.356
				c-2.409-0.003-4.359-1.957-4.356-4.366c0.003-2.409,1.957-4.359,4.366-4.356h0.001C195.262,10.291,197.21,12.245,197.209,14.652"
				/>
			<path clip-path="url(#SVGID_4_)" fill="#225DD3" d="M192.854,16.944c-2.007-0.006-3.751-1.38-4.229-3.329
				c-0.602,2.332,0.801,4.711,3.132,5.313c2.332,0.602,4.712-0.8,5.313-3.132c0.185-0.715,0.185-1.466,0-2.181
				C196.6,15.563,194.858,16.938,192.854,16.944"/>
			<path clip-path="url(#SVGID_4_)" fill="#5BBAF2" d="M214.02,101.584c-1.601,1.483-1.394,5.466-1.394,5.466
				s-0.95,2.747-0.972,2.809c-1.2,2.292-2.024,4.728-3.112,7.114c-2.128,4.192-4.68,8.156-7.618,11.827
				c-0.021-0.399,0.642-4.6,0.632-4.994c-0.041-1.037-0.101-2.083-0.146-3.132c1.535-3.215,2.344-4.677,3.185-6.191
				c0.332-0.612,0.674-1.234,1.067-1.97c0.529-0.985,1.006-1.856,1.441-2.655c2.478-4.552,2.159-5.356,3.888-7.424
				c0.517-0.619,0.776-1.128,1.635-0.851C214.256,102.102,216.025,99.715,214.02,101.584"/>
			<path clip-path="url(#SVGID_4_)" d="M145.494,71.324c-13.72,0-24.888,12.382-24.888,27.6c0,15.218,11.169,27.615,24.888,27.615
				s24.888-12.392,24.888-27.615C170.382,83.701,159.214,71.324,145.494,71.324 M145.494,122.396
				c-11.438,0-20.74-10.526-20.74-23.467c0-12.941,9.301-23.457,20.74-23.457c1.586,0.003,3.166,0.208,4.7,0.612
				c-8.195,0.982-14.043,8.421-13.062,16.617c0.982,8.195,8.423,14.043,16.617,13.061c5.639-0.676,10.406-4.488,12.307-9.84
				c0.115,0.998,0.175,2.002,0.176,3.007c0.002,12.942-9.3,23.465-20.738,23.465V122.396z"/>
			<path clip-path="url(#SVGID_4_)" fill="#D0E8EF" d="M166.234,98.929c0,12.942-9.3,23.467-20.74,23.467
				c-11.439,0-20.74-10.526-20.74-23.467s9.301-23.457,20.74-23.457c1.586,0.003,3.166,0.208,4.7,0.612
				c-8.195,0.984-14.04,8.425-13.056,16.62c0.983,8.195,8.425,14.041,16.619,13.057c5.638-0.677,10.403-4.489,12.303-9.839
				C166.177,96.92,166.234,97.924,166.234,98.929"/>
			<path clip-path="url(#SVGID_4_)" fill="#D8808B" d="M159.189,159.345c-0.322,0.801-0.767,1.545-1.317,2.209l-0.124,0.124
				c-3.254,0.035-6.505-0.242-9.706-0.83c-1.967-0.353-3.904-0.849-5.8-1.482c-0.912-0.306-1.803-0.673-2.665-1.101
				c-0.866-0.438-1.705-0.93-2.51-1.473c-0.3-0.207-0.581-0.415-0.871-0.622c-0.29-1.887,0-3.8,1.172-4.915
				c1.183-1.141,3.235-1.431,5.2-1.286c1.996,0.116,3.938,0.695,5.672,1.69c1.746,1.119,3.428,2.335,5.04,3.64
				c-0.348-0.922-0.856-1.774-1.5-2.52c0.135-0.099,0.277-0.185,0.425-0.259c0.363-0.152,0.742-0.264,1.13-0.332
				c0.811-0.158,1.643-0.176,2.458-0.053c0.77,0.097,1.508,0.365,2.157,0.788c0.286,0.2,0.541,0.441,0.757,0.716
				c0.226,0.306,0.413,0.637,0.561,0.985C159.849,156.15,159.82,157.84,159.189,159.345"/>
			<path clip-path="url(#SVGID_4_)" fill="#C1707A" d="M138.36,152.293c1.182-1.141,3.235-1.431,5.2-1.286
				c1.996,0.116,3.938,0.695,5.672,1.69c1.746,1.119,3.428,2.335,5.04,3.64c-0.349-0.922-0.856-1.774-1.5-2.52
				c0.135-0.099,0.276-0.185,0.425-0.26c0.363-0.151,0.742-0.263,1.13-0.332c0.811-0.156,1.643-0.175,2.458-0.052
				c0.723,0.097,1.418,0.341,2.041,0.72c-0.054-0.085-0.105-0.172-0.164-0.253c-0.216-0.273-0.471-0.516-0.757-0.716
				c-0.65-0.423-1.388-0.691-2.157-0.788c-0.815-0.123-1.647-0.105-2.458,0.053c-0.388,0.068-0.767,0.18-1.13,0.332
				c-0.147,0.074-0.291,0.16-0.425,0.259c0.644,0.745,1.152,1.598,1.5,2.52c-1.612-1.305-3.294-2.521-5.04-3.64
				c-1.734-0.995-3.676-1.574-5.672-1.69c-1.96-0.145-4.014,0.146-5.2,1.286c-1.172,1.12-1.462,3.028-1.172,4.915
				c0.29,0.207,0.569,0.415,0.871,0.622c0.041,0.029,0.086,0.053,0.128,0.081C136.829,155.242,137.275,153.553,138.36,152.293"/>
			<path clip-path="url(#SVGID_4_)" fill="#C14F58" d="M169.822,160.206c-0.304,0.127-0.615,0.235-0.933,0.321
				c-0.925,0.25-1.862,0.439-2.811,0.569c-1.998,0.282-4.009,0.459-6.024,0.529h-0.021c0.366-0.433,0.683-0.906,0.944-1.41
				c1.105-1.991,1.276-4.37,0.467-6.5c-0.22-0.544-0.505-1.06-0.85-1.535c-0.372-0.492-0.824-0.921-1.339-1.265
				c-0.979-0.623-2.098-0.997-3.256-1.089c-1.104-0.109-2.219,0.007-3.276,0.342c-0.552,0.175-1.072,0.435-1.545,0.768
				c-0.248,0.169-0.475,0.366-0.675,0.591c-0.477-0.419-0.978-0.811-1.5-1.172c-1.897-1.22-4.053-1.982-6.295-2.23
				c-1.143-0.149-2.302-0.14-3.443,0.031c-1.244,0.173-2.418,0.686-3.391,1.482c-0.972,0.859-1.65,2.001-1.938,3.267
				c-0.103,0.4-0.169,0.811-0.2,1.224c-1.833-1.805-3.477-3.792-4.905-5.932c-1.104-1.648-2.036-3.407-2.778-5.247
				c-0.627-1.642-1.164-3.318-1.607-5.02c6.634,3.354,13.656,5.879,20.906,7.519c5.212,1.088,10.521,1.637,15.845,1.638
				c2.593,0,5.185-0.145,7.767-0.399c-0.072,0.519-0.135,1.047-0.207,1.565c-0.345,2.202-0.429,4.438-0.249,6.658
				c0.121,1.152,0.347,2.29,0.675,3.4c0.155,0.55,0.353,1.109,0.528,1.6C169.75,160.02,169.793,160.113,169.822,160.206"/>
			<path clip-path="url(#SVGID_4_)" fill="#A8353D" d="M168.462,154.228c-0.093,1.263-0.079,2.529,0.04,3.789
				c0.093,0.84,0.242,1.672,0.449,2.49c0.295-0.082,0.585-0.183,0.868-0.3c-0.031-0.093-0.073-0.188-0.114-0.3
				c-0.176-0.487-0.373-1.047-0.528-1.601c-0.328-1.109-0.554-2.248-0.675-3.399C168.482,154.679,168.481,154.453,168.462,154.228"
				/>
			<path clip-path="url(#SVGID_4_)" fill="#A8353D" d="M161.784,157.995c-0.159,0.775-0.432,1.523-0.808,2.22
				c-0.262,0.504-0.578,0.978-0.944,1.41h0.021c0.541-0.024,1.083-0.053,1.624-0.086
				C161.989,160.382,162.026,159.168,161.784,157.995"/>
			<path clip-path="url(#SVGID_4_)" fill="#FFFFFF" d="M153.487,78.905c1.98,0,3.586,1.605,3.586,3.586
				c0,1.98-1.605,3.586-3.586,3.586s-3.586-1.606-3.586-3.586C149.901,80.51,151.507,78.905,153.487,78.905"/>
			<path clip-path="url(#SVGID_4_)" fill="#FFFFFF" d="M157.83,89.123c0.704,0,1.275,0.571,1.275,1.275
				c0,0.704-0.571,1.275-1.275,1.275s-1.274-0.571-1.274-1.275C156.556,89.694,157.126,89.123,157.83,89.123"/>
			<path clip-path="url(#SVGID_4_)" d="M121.906,73.469c-2.576-0.068-4.609-2.211-4.541-4.787c0.03-1.146,0.48-2.24,1.265-3.074
				c4.663-4.993,10.651-8.554,17.264-10.267c12.786-3.263,23.323,1.681,27.259,3.959c2.229,1.291,2.992,4.146,1.701,6.376
				c-1.291,2.23-4.146,2.992-6.376,1.701c-6.125-3.561-13.383-4.633-20.276-2.994c-4.894,1.275-9.323,3.917-12.771,7.616
				C124.521,72.971,123.237,73.506,121.906,73.469"/>
			<g opacity="0.18" clip-path="url(#SVGID_4_)">
				<g>
					<defs>
						<rect id="SVGID_7_" x="96.131" y="42.606" width="71.458" height="82.561"/>
					</defs>
					<clipPath id="SVGID_8_">
						<use xlink:href="#SVGID_7_"  overflow="visible"/>
					</clipPath>
					<path clip-path="url(#SVGID_8_)" d="M162.982,45.613c0.439,0.077,0.88,0.153,1.307,0.242c1.114,0.234,2.216,0.525,3.3,0.871
						c-0.553-0.267-1.107-0.522-1.667-0.767c-2.192-0.951-4.475-1.68-6.813-2.178c-2.405-0.474-4.836-0.803-7.28-0.985
						c-1.913-0.148-3.831-0.208-5.74-0.177c-3.683-0.082-7.364,0.213-10.986,0.882c-4.744,0.885-9.296,2.594-13.45,5.05
						c-4.084,2.569-7.665,5.862-10.567,9.717c-1.515,1.955-2.914,3.998-4.189,6.118c-0.633,1.058-1.307,2.178-1.846,3.215
						c-0.57,1.037-1.047,2.136-1.524,3.235c-0.91,2.288-1.692,4.625-2.344,7c-0.622,2.416-1.213,4.853-1.67,7.342
						c-1.784,10.034-2.913,20.173-3.381,30.353c0.456,0.658,0.862,1.227,1.19,1.641c-0.077,0.991-0.146,1.965-0.2,2.889
						c0.467,0.674,1.806,2.017,2.138,2.432l1.748,0.7c-0.01,0.164-0.021,0.339-0.031,0.5l3.233,1.475
						c-0.013-0.017-0.494-0.545-1.213-1.352c0.615-10.237,1.877-26.709,3.775-36.562c0.456-2.489,1.047-4.926,1.67-7.342
						c0.652-2.375,1.434-4.712,2.344-7c0.477-1.1,0.954-2.2,1.524-3.235c0.539-1.037,1.213-2.157,1.846-3.215
						c1.275-2.12,2.674-4.163,4.189-6.118c2.902-3.855,6.483-7.148,10.567-9.717c4.151-2.457,8.7-4.169,13.441-5.057
						c2.94-0.546,5.922-0.841,8.913-0.882c1.221,0.023,2.442,0.082,3.666,0.177c2.443,0.182,4.875,0.511,7.279,0.985
						c1.114,0.234,2.217,0.525,3.301,0.871c-0.554-0.267-1.108-0.522-1.667-0.767C163.554,45.837,163.265,45.728,162.982,45.613"/>
				</g>
			</g>
			<g opacity="0.2" clip-path="url(#SVGID_4_)">
				<g>
					<defs>
						<rect id="SVGID_9_" x="79.413" y="105.114" width="17.097" height="49.119"/>
					</defs>
					<clipPath id="SVGID_10_">
						<use xlink:href="#SVGID_9_"  overflow="visible"/>
					</clipPath>
					<path clip-path="url(#SVGID_10_)" d="M93.313,146.17c-1.105-7.176,0-5,0-5l1,7c-0.164-0.056,3.005-12.406,2-15
						s-7.827-10.547-10.369-15.354c-2.542-4.806-1.518-3.5-3.232-6.506c-1.714-3.007-3.286-5.755-3.252-6.17
						c0.034-0.415-0.12,4.257,0,4.673c0.169,0.6,1.252,5.428,2.827,6.9c0.024,0.023,2.922,6.232,3.42,7.76
						c2.7,8.3,4.818,4.669,7.173,8.485c1.663,2.673-0.909,3.109,1.433,5.212c-1.066,0.391-0.711,2.881-1,3
						c-3.148,1.311-6.187,2.555-2,8c1.647,2.141,0.795,5.266,1.565,4.698c0.154-0.113,0.452,0.567,0.435,0.302c0.956,0.567-1-4-1-4
						S93.5,147.38,93.313,146.17"/>
				</g>
			</g>
			<g opacity="0.18" clip-path="url(#SVGID_4_)">
				<g>
					<defs>
						<rect id="SVGID_11_" x="91.387" y="147.641" width="99.576" height="86.954"/>
					</defs>
					<clipPath id="SVGID_12_">
						<use xlink:href="#SVGID_11_"  overflow="visible"/>
					</clipPath>
					<path clip-path="url(#SVGID_12_)" d="M103.008,179.863c-2.894-10.655-7.596-27.295-8.696-31.693c-1-4-2,16-2,16l-0.925,6.588
						l16.888,42.783h-1.065l31.633,21.054h30.925l21.193-14.778c0,0-16.032,4.571-30.16,3.261
						c-14.301-1.327-26.774-8.589-31.639-12.3c-8.851-4.607-16.851-13.607-16.851-13.607S105.902,190.519,103.008,179.863"/>
				</g>
			</g>
			<path clip-path="url(#SVGID_4_)" d="M84.974,109.537c2.301,3.966,4.8,7.814,7.487,11.531c2.644,3.329,6.948,8.078,7.135,8.274
				l4.6-4.179c-0.041-0.052-4.355-4.791-6.865-7.964c-0.332-0.415-0.747-1-1.213-1.669c0.468-10.18,1.597-20.319,3.381-30.353
				c0.456-2.489,1.047-4.926,1.67-7.342c0.652-2.375,1.434-4.712,2.344-7c0.477-1.1,0.954-2.2,1.524-3.235
				c0.539-1.037,1.213-2.157,1.846-3.215c1.275-2.12,2.674-4.163,4.189-6.118c2.902-3.855,6.483-7.148,10.567-9.717
				c4.154-2.456,8.707-4.165,13.451-5.05c4.831-0.879,14.652-0.705,14.652-0.705s4.875,0.511,7.28,0.985
				c2.338,0.498,4.62,1.227,6.813,2.178c2.231,0.979,4.391,2.115,6.46,3.4c2.063,1.261,4.021,2.69,5.85,4.272
				c3.581,3.226,6.559,7.064,8.794,11.334c2.146,4.458,4.064,9.024,5.745,13.678c4.953,13.72,3.628,27.008,3.557,29.928
				c-0.539,22.092,2.476,15.457,4.072,75.599c0.451,16.995,0.286,20.39-2,25c-7.883,15.895-29.372,22.814-46.113,22.057
				c-20.977-0.947-34.851-13.965-38.887-18.057c-10.61-14.007-13.891-26.027-15-34c-0.797-5.735-0.865-14.156-1-31
				c-0.05-6.274-0.028-11.464,0-15c-1.375-2.114-3.282-4.945-5.685-8.207c-1.214-1.647-3.049-3.57-5.804-8.027
				c-1.355-2.19-2.74-5.034-4.136-9.3C79.047,105.679,81.469,102.942,84.974,109.537 M211.274,106.903c0,0-2.378,7.09-3.467,9.475
				c-1.743,3.935-3.889,7.677-6.4,11.17c-0.021-0.399,0.156-3.348,0.146-3.742c-0.042-1.037-0.101-2.083-0.146-3.132
				c1.535-3.215,2.344-4.677,3.184-6.191c0.332-0.612,0.675-1.234,1.068-1.97c0.529-0.985,1.006-1.856,1.441-2.655
				c2.479-4.55,4.174-2.95,4.174-2.95V106.903z M201.906,133.917c1.512-1.497,2.945-3.072,4.293-4.718
				c2.458-2.924,4.511-7.426,6.678-12.186c1.059-2.312,1.926-7.048,2.223-12.088c0.297-5.04-5.273-4.337-5.273-4.337
				c-2.599,1.513-4.746,3.693-6.22,6.314c-0.238,0.436-3.082,4.9-3.082,4.9s-0.164-13.92-0.7-19.188
				c-0.492-5.357-1.506-10.654-3.028-15.814c-0.799-2.596-1.755-5.141-2.861-7.622c-1.059-2.375-2.179-4.832-3.505-7.207
				c-2.616-4.894-6.086-9.28-10.246-12.952c-2.025-1.733-4.188-3.298-6.468-4.679c1.77-5.31,4.317-10.329,7.561-14.891
				c1.854-2.484,3.942-4.786,6.231-6.875c4.389,2.977,10.357,1.833,13.335-2.555c2.976-4.387,1.833-10.357-2.556-13.334
				c-4.387-2.976-10.356-1.832-13.334,2.555c-1.878,2.769-2.18,6.316-0.795,9.362c-2.59,2.354-4.951,4.947-7.052,7.746
				c-3.387,4.728-6.069,9.922-7.964,15.42c-0.964-0.487-1.93-0.954-2.924-1.379c-2.561-1.096-5.221-1.94-7.943-2.52
				c-2.668-0.528-5.366-0.892-8.078-1.089c-5.426-0.438-10.887-0.159-16.24,0.83c-5.447,1.03-10.67,3.009-15.431,5.849
				c-2.313,1.422-4.478,3.072-6.461,4.926c-1.849-5.206-4.429-10.122-7.663-14.6c-2.129-2.855-4.536-5.491-7.186-7.871
				c0.771-1.505,1.173-3.173,1.172-4.864c0.011-5.95-4.803-10.783-10.753-10.795C81.684,10.245,76.851,15.06,76.84,21.01
				c-0.011,5.95,4.803,10.783,10.753,10.794c2.232,0.005,4.409-0.684,6.232-1.97c2.363,2.134,4.512,4.492,6.419,7.041
				c3.386,4.807,6.029,10.096,7.84,15.69c-0.581,0.674-1.151,1.358-1.69,2.064c-1.653,2.129-3.187,4.348-4.594,6.647
				c-0.695,1.161-1.369,2.261-2.033,3.505c-0.664,1.244-1.234,2.5-1.794,3.764c-1.978,4.998-3.465,10.176-4.438,15.462
				c-1.42,7.509-2.424,15.09-3.007,22.71c-0.025-0.036-0.045-0.074-0.062-0.114c-3.287-6.16-6.445-6.4-10.78-5.905
				c-2.219,0.252-3.132,0.678-4.075,2.086c-1.215,1.956-1.602,4.315-1.074,6.557c1.165,6.888,6.617,13.782,9.811,18.9
				c1.359,2.169,2.881,4.23,4.552,6.17c-0.425,6.107-7.271,66.354,20.891,89.373c28.162,23.019,72.292,20.565,93.811-8.819
				C210.629,205.008,201.969,135.701,201.906,133.917z M188.487,14.651c0.003-2.409,1.957-4.359,4.366-4.356
				c2.408,0.003,4.358,1.958,4.355,4.366c-0.003,2.405-1.951,4.353-4.355,4.356C190.443,19.013,188.491,17.061,188.487,14.651
				 M83.316,17.34c5.493-1.085,6.743-0.553,8.033,1.059c0.94,1.173,1.959,2.766,1.623,4.329c-1.5,3.114-3.6,3.89-5.335,3.89
				c-3.077,0-5.573-2.492-5.579-5.569"/>
			<path clip-path="url(#SVGID_4_)" fill="#B3CCF4" d="M174.33,69.06c1.14-1.648,3.564-1.947,5.415-0.667
				c1.853,1.28,2.43,3.654,1.289,5.302c-1.139,1.648-3.563,1.947-5.415,0.667C173.769,73.082,173.191,70.708,174.33,69.06"/>
			<g opacity="0.2" clip-path="url(#SVGID_4_)">
				<g>
					<defs>
						<rect id="SVGID_13_" x="150.971" y="193.381" width="13.505" height="13.078"/>
					</defs>
					<clipPath id="SVGID_14_">
						<use xlink:href="#SVGID_13_"  overflow="visible"/>
					</clipPath>
					<path clip-path="url(#SVGID_14_)" d="M152.052,194.781c2.022-2.232,6.201-1.741,9.335,1.097c3.132,2.839,4.03,6.95,2.008,9.182
						c-2.023,2.233-6.202,1.741-9.334-1.097C150.928,201.124,150.028,197.013,152.052,194.781"/>
				</g>
			</g>
			<path clip-path="url(#SVGID_4_)" fill="#F2B6BE" d="M144.874,154.859c0.202-0.945,1.293-1.514,2.437-1.27
				c1.144,0.245,1.907,1.21,1.704,2.155c-0.202,0.945-1.293,1.514-2.437,1.27C145.436,156.77,144.673,155.806,144.874,154.859"/>
			<path clip-path="url(#SVGID_4_)" fill="#F2B6BE" d="M150.017,157.093c0.12-0.561,0.645-0.924,1.172-0.811s0.858,0.659,0.739,1.22
				c-0.12,0.561-0.646,0.923-1.174,0.811C150.228,158.2,149.896,157.654,150.017,157.093"/>
			<path clip-path="url(#SVGID_4_)" fill="#A8353D" d="M168.477,152.159c0,0,0.188-2.9-1.147-3.44
				c-0.95-0.386-10.687-1.826-10.687-1.826l-14-3.823l-7.454-0.519c0,0-5.558-1.037-6.205,0.454s0.122,4.869,0.973,6.8
				c0.851,1.932-4.489-2.722-4.489-2.722l-1.943-9.981l18.018,0.325l21.647,4.731l6.547,0.647l0.518,6.87L168.477,152.159z"/>
			<path clip-path="url(#SVGID_4_)" d="M173.286,158.536c-0.2-0.487-0.373-0.913-0.529-1.358c-0.304-0.893-0.536-1.808-0.694-2.738
				c-0.286-1.949-0.342-3.927-0.166-5.89c0.145-2.074,0.3-4.127,0.591-6.148c0.145-1.007,0.321-2.013,0.539-2.987
				c0.114-0.5,0.228-0.985,0.353-1.462l0.343-1.349l0.03-0.062c0.077-0.183,0.1-0.385,0.063-0.581
				c-0.091-0.573-0.629-0.964-1.201-0.873c-0.004,0.001-0.008,0.001-0.012,0.002c-4.377,0.68-8.805,0.981-13.232,0.9
				c-4.433-0.031-8.853-0.486-13.2-1.359c-4.323-0.912-8.538-2.287-12.567-4.1c-2.033-0.893-4.034-1.867-5.984-2.914
				c-0.988-0.505-1.947-1.066-2.872-1.681c-0.467-0.29-0.933-0.6-1.379-0.913l-0.684-0.467l-0.332-0.238l-0.166-0.114l-0.083-0.063
				c-0.143-0.097-0.301-0.17-0.467-0.218c-0.247-0.053-0.504-0.028-0.736,0.073c-0.215,0.142-0.385,0.344-0.487,0.581
				c-0.051,0.126-0.085,0.259-0.1,0.394c-0.008,0.059-0.011,0.117-0.01,0.176v0.634l0.021,0.809l0.073,1.6
				c0.062,1.068,0.145,2.127,0.259,3.194c0.228,2.115,0.539,4.231,0.975,6.336c0.436,2.12,1.011,4.208,1.721,6.253
				c0.746,2.084,1.705,4.086,2.863,5.974c2.234,3.816,5.203,7.153,8.731,9.819c0.914,0.655,1.866,1.254,2.853,1.794
				c1,0.535,2.036,1.002,3.1,1.4c2.06,0.778,4.183,1.378,6.346,1.794c4.271,0.839,8.624,1.175,12.973,1
				c2.182-0.059,4.356-0.257,6.513-0.591c1.124-0.188,2.235-0.443,3.329-0.768c0.627-0.188,1.233-0.434,1.814-0.735
				c0.42-0.23,0.805-0.521,1.142-0.861c0.267-0.298,0.478-0.643,0.622-1.016c0.103-0.28,0.166-0.573,0.187-0.871
				c0.03-0.508-0.038-1.019-0.2-1.5C173.493,159.044,173.391,158.785,173.286,158.536 M150.41,137.571
				c2.844,0.374,5.708,0.579,8.576,0.611l0.342,6.801c-3.013-0.074-6.018-0.33-9-0.768L150.41,137.571z M145.733,136.813
				c0.861,0.177,1.731,0.322,2.613,0.468l-0.083,6.605c-0.83-0.145-1.67-0.29-2.489-0.467c-1.753-0.373-3.502-0.816-5.247-1.327
				l-0.135-6.637c1.763,0.524,3.547,0.992,5.341,1.354V136.813z M132.698,132.552c1.828,0.85,3.7,1.597,5.61,2.24l0.135,6.646
				c-2.541-0.818-5-1.741-7.28-2.699l-0.653-7.238c0.726,0.353,1.451,0.716,2.188,1.048V132.552z M123.075,131.09
				c-0.145-1.016-0.27-2.043-0.363-3.07l-0.093-0.943c0.342,0.218,0.684,0.436,1.037,0.633c1.006,0.55,1.95,1.182,2.955,1.732
				c0.561,0.32,1.141,0.621,1.721,0.933l0.664,7.425c-1.918-0.861-3.66-1.721-5.175-2.53c-0.291-1.397-0.55-2.782-0.747-4.183
				L123.075,131.09z M159.146,159.345c-0.322,0.8-0.767,1.545-1.317,2.209l-0.124,0.124c-3.254,0.035-6.505-0.242-9.706-0.83
				c-1.967-0.353-3.904-0.849-5.8-1.482c-0.912-0.306-1.803-0.673-2.665-1.101c-0.865-0.438-1.705-0.93-2.51-1.473
				c-0.301-0.207-0.581-0.415-0.871-0.622c-0.29-1.887,0-3.8,1.172-4.915c1.182-1.141,3.235-1.431,5.2-1.286
				c1.996,0.116,3.938,0.695,5.672,1.69c1.746,1.119,3.428,2.335,5.04,3.64c-0.348-0.922-0.856-1.775-1.5-2.52
				c0.135-0.098,0.277-0.185,0.425-0.26c0.363-0.151,0.742-0.263,1.13-0.332c0.811-0.157,1.643-0.175,2.458-0.052
				c0.77,0.096,1.507,0.365,2.157,0.788c0.286,0.2,0.541,0.441,0.757,0.716c0.226,0.306,0.413,0.637,0.561,0.985
				C159.805,156.15,159.776,157.84,159.146,159.345 M168.894,160.527c-0.924,0.25-1.862,0.439-2.811,0.569
				c-1.998,0.282-4.009,0.459-6.024,0.529h-0.021c0.366-0.433,0.684-0.906,0.944-1.41c1.105-1.992,1.276-4.37,0.467-6.5
				c-0.22-0.544-0.505-1.06-0.85-1.535c-0.372-0.493-0.824-0.921-1.338-1.265c-0.98-0.623-2.099-0.997-3.257-1.089
				c-1.104-0.109-2.219,0.007-3.276,0.342c-0.551,0.175-1.072,0.434-1.545,0.767c-0.248,0.169-0.475,0.367-0.675,0.592
				c-0.477-0.419-0.978-0.811-1.5-1.173c-1.897-1.219-4.053-1.981-6.295-2.229c-1.143-0.15-2.302-0.14-3.442,0.031
				c-1.245,0.173-2.418,0.686-3.392,1.482c-0.972,0.859-1.649,2.002-1.938,3.268c-0.103,0.4-0.169,0.811-0.2,1.224
				c-1.833-1.805-3.477-3.792-4.904-5.932c-1.105-1.648-2.037-3.407-2.779-5.247c-0.627-1.643-1.164-3.318-1.607-5.02
				c6.635,3.354,13.656,5.878,20.906,7.519c5.212,1.088,10.521,1.637,15.845,1.638c2.592,0,5.186-0.145,7.767-0.4
				c-0.072,0.519-0.135,1.048-0.206,1.566c-0.346,2.202-0.43,4.438-0.249,6.658c0.12,1.151,0.346,2.29,0.674,3.399
				c0.155,0.551,0.353,1.11,0.528,1.601c0.041,0.114,0.083,0.207,0.114,0.3c-0.306,0.126-0.619,0.231-0.938,0.315H168.894z
				 M170.563,138.771c-0.312,1.048-0.561,2.096-0.778,3.152c-0.2,0.881-0.353,1.773-0.5,2.655c-2.618,0.281-5.248,0.423-7.881,0.425
				l-0.332-6.834c3.324-0.023,6.643-0.269,9.934-0.736c-0.167,0.438-0.313,0.881-0.446,1.338H170.563z"/>
			<path clip-path="url(#SVGID_4_)" fill="#FFFFFF" d="M128.995,137.796c-1.918-0.861-3.661-1.721-5.175-2.53
				c-0.29-1.39-0.55-2.778-0.747-4.179c-0.145-1.016-0.27-2.043-0.363-3.07l-0.093-0.943c0.342,0.218,0.684,0.436,1.037,0.633
				c1.006,0.55,1.95,1.182,2.955,1.732c0.561,0.32,1.141,0.621,1.721,0.933L128.995,137.796z"/>
			<path clip-path="url(#SVGID_4_)" fill="#FFFFFF" d="M138.442,141.437c-2.541-0.819-5-1.742-7.28-2.7l-0.652-7.238
				c0.726,0.354,1.451,0.716,2.188,1.047c1.828,0.85,3.7,1.598,5.609,2.24L138.442,141.437z"/>
			<path clip-path="url(#SVGID_4_)" fill="#FFFFFF" d="M148.347,137.277l-0.084,6.605c-0.83-0.145-1.671-0.29-2.489-0.467
				c-1.753-0.373-3.502-0.815-5.247-1.327l-0.135-6.637c1.763,0.529,3.547,1,5.341,1.358
				C146.594,136.983,147.462,137.132,148.347,137.277"/>
			<path clip-path="url(#SVGID_4_)" fill="#FFFFFF" d="M159.327,144.983c-3.013-0.074-6.018-0.33-9-0.768l0.083-6.646
				c2.844,0.374,5.708,0.579,8.576,0.611L159.327,144.983z"/>
			<path clip-path="url(#SVGID_4_)" fill="#FFFFFF" d="M170.999,137.433c-0.166,0.436-0.311,0.882-0.445,1.339
				c-0.312,1.047-0.561,2.095-0.778,3.151c-0.2,0.881-0.354,1.773-0.5,2.655c-2.618,0.281-5.248,0.423-7.881,0.425l-0.332-6.834
				C164.388,138.146,167.707,137.9,170.999,137.433"/>
			<path clip-path="url(#SVGID_4_)" fill="#3A70F9" d="M93.49,20.73c-0.004,3.353-2.725,6.068-6.078,6.064s-6.068-2.725-6.064-6.078
				c0.004-3.353,2.725-6.068,6.078-6.064h0.001C90.779,14.659,93.492,17.378,93.49,20.73"/>
			<path clip-path="url(#SVGID_4_)" fill="#225DD3" d="M87.425,23.696c-2.6,0.059-4.943-1.561-5.806-4.015
				c-0.17,0.502-0.261,1.028-0.27,1.558c0.289,3.353,3.241,5.836,6.594,5.547c2.952-0.254,5.293-2.595,5.547-5.547
				c-0.009-0.53-0.1-1.056-0.27-1.558C92.361,22.133,90.022,23.753,87.425,23.696"/>
		</g>
	</g>
</g>
<g id="图层_8">
</g>
</svg>
