<?xml version="1.0" standalone="no"?><!DOCTYPE svg PUBLIC "-//W3C//DTD SVG 1.1//EN" "http://www.w3.org/Graphics/SVG/1.1/DTD/svg11.dtd"><svg t="1635845238902" class="icon" viewBox="0 0 1024 1024" version="1.1" xmlns="http://www.w3.org/2000/svg" p-id="3227" xmlns:xlink="http://www.w3.org/1999/xlink" width="200" height="200"><defs><style type="text/css"></style></defs><path d="M791.2 1018.4c-8.8 0-16.8-2.4-24.8-6.4l-224-123.2c-9.6-4.8-20-8-30.4-8-10.4 0-20.8 2.4-30.4 8l-224 123.2c-8 4-16 6.4-24.8 6.4-15.2 0-30.4-7.2-40.8-19.2-11.2-12.8-15.2-29.6-12.8-47.2l43.2-260.8c4-21.6-3.2-44-18.4-59.2L21.6 446.4A57.6 57.6 0 0 1 8 387.2c6.4-20 23.2-34.4 43.2-37.6l250.4-38.4c20.8-3.2 39.2-16.8 48.8-36.8l112-237.6C472 16.8 489.6 5.6 511.2 5.6c20.8 0 39.2 12 48 31.2l112 237.6c9.6 20 28 33.6 48.8 36.8l250.4 38.4c20 3.2 36.8 16.8 43.2 37.6 7.2 20.8 1.6 44-13.6 59.2l-181.6 184.8c-15.2 15.2-22.4 37.6-18.4 59.2l43.2 260.8c3.2 17.6-1.6 34.4-12.8 47.2-8.8 12.8-23.2 20-39.2 20zM512 831.2c19.2 0 37.6 4.8 54.4 13.6l236.8 130.4-6.4-14.4v-0.8l-42.4-260.8c-6.4-37.6 5.6-76 32-102.4L968 412c2.4-2.4 3.2-6.4 1.6-9.6v-3.2l-256-39.2c-37.6-5.6-69.6-29.6-86.4-64.8L512 50.4 396 295.2c-16.8 35.2-48.8 59.2-86.4 64.8L49.6 400l5.6 5.6c0 1.6 0.8 4 2.4 6.4l181.6 184.8c26.4 26.4 38.4 64.8 32 102.4L228 960v4l1.6 7.2 228.8-125.6c16-9.6 34.4-14.4 53.6-14.4z" fill="" p-id="3228"></path></svg>