<?xml version="1.0" standalone="no"?><!DOCTYPE svg PUBLIC "-//W3C//DTD SVG 1.1//EN" "http://www.w3.org/Graphics/SVG/1.1/DTD/svg11.dtd"><svg t="1636105463252" class="icon" viewBox="0 0 1024 1024" version="1.1" xmlns="http://www.w3.org/2000/svg" p-id="12380" xmlns:xlink="http://www.w3.org/1999/xlink" width="200" height="200"><defs><style type="text/css"></style></defs><path d="M512 73.28A438.72 438.72 0 1 0 950.72 512 438.72 438.72 0 0 0 512 73.28zM301.44 266.4a52.64 52.64 0 1 1-52.64 52.64 52.64 52.64 0 0 1 52.64-52.64z m-23.68 464l-89.12-64s124.96-102.56 117.92-136.64-93.12-76.64-93.12-76.64l40-56.48s102.56 67.04 109.6 120.16-85.28 213.44-85.28 213.44z m529.44-100.16s-8.32 67.2-65.92 90.72-146.24 5.92-146.24 5.92l4.8-36.64s52.96 11.84 85.92 1.28a67.2 67.2 0 0 0 42.56-36.64V392a75.04 75.04 0 0 0-35.36-45.92c-30.72-18.72-46.08-16-79.04-11.68a393.44 393.44 0 0 0-83.68 28.16l-28.16 55.36h190.88v37.76H576v47.2h121.6v32.96l-119.04 4.64v89.6l56.64-24.8-4.64-38.88 45.92-9.44 34.08 89.6L654.08 672l-7.2-32s-106.88 45.12-149.76 48-84.96-6.72-105.44-35.68-16-87.2-16-87.2l76.16 1.92a82.08 82.08 0 0 0 9.12 54.08c15.04 20.96 48.96 16 48.96 16v-99.04l-117.76-3.52v-32H512l-1.28-47.2-36.96-7.36s-30.56 48-50.72 46.56S400 466.24 400 466.24l64.8-80-35.2-3.68-53.12 62.56-40-35.36a294.56 294.56 0 0 0 51.84-64 281.28 281.28 0 0 0 30.56-75.36l64.8 25.92-18.88 36.48s4.8 4.8 21.28 2.4 124.96-56.48 199.04-43.52 121.44 71.84 121.44 117.76z" fill="#FC8848" p-id="12381"></path></svg>