<?xml version="1.0" encoding="UTF-8"?>
<svg width="26px" height="26px" viewBox="0 0 26 26" version="1.1" xmlns="http://www.w3.org/2000/svg" xmlns:xlink="http://www.w3.org/1999/xlink">
    <title>矩形</title>
    <g id="页面-1" stroke="none" stroke-width="1" fill="none" fill-rule="evenodd">
        <g id="编组">
            <rect id="矩形" fill="#4E8DF6" x="0" y="0" width="25.950096" height="26"></rect>
            <path d="M12.549904,26 C19.4534634,26 25.049904,20.1797017 25.049904,13 C25.049904,5.82029825 19.4534634,0 12.549904,0 C5.64634466,0 0.0499040307,5.82029825 0.0499040307,13 C0.0499040307,20.1797017 5.64634466,26 12.549904,26 Z" id="椭圆形" fill="#4E8DF6"></path>
            <path d="M4.04222649,13.2 C4.04222649,16.4689802 5.78285921,19.4896425 8.6084453,21.1241326 C11.4340313,22.7586227 14.9152969,22.7586227 17.7408829,21.1241326 C20.566469,19.4896425 22.3071017,16.4689802 22.3071017,13.2 C22.3071017,8.14659454 18.2183702,4.05 13.1746641,4.05 C8.13095804,4.05 4.04222649,8.14659454 4.04222649,13.2 Z" id="路径" fill="#2166CC" fill-rule="nonzero"></path>
            <path d="M5.63915547,13.2 C5.63915547,15.8973552 7.07541525,18.3898143 9.40690979,19.7384919 C11.7384042,21.0871695 14.610924,21.0871695 16.9424184,19.7384919 C19.273913,18.3898143 20.7101727,15.8973552 20.7101727,13.2 C20.7101727,9.03025014 17.3364106,5.65 13.1746641,5.65 C9.01291757,5.65 5.63915547,9.03025014 5.63915547,13.2 Z" id="路径" fill="#FFFFFF" fill-rule="nonzero"></path>
            <path d="M17.5787406,11.859528 L14.8665738,11.4567308 L13.629445,8.83854895 C13.5818632,8.73784965 13.4866994,8.6875 13.3915357,8.6875 C13.2963719,8.6875 13.2012082,8.73784965 13.1536263,8.83854895 L11.8689157,11.4567308 L9.109167,11.859528 C9.01400325,11.859528 8.9188395,11.9602273 8.87125763,12.0609266 C8.82367575,12.1616259 8.87125763,12.3126748 8.96642138,12.3630245 L10.9648601,14.4273601 L10.4890413,17.3476399 C10.4890413,17.4483392 10.4890413,17.5490385 10.5842051,17.6497378 C10.6793688,17.7000874 10.7745326,17.7000874 10.8696963,17.6497378 L13.3439538,16.2902972 L15.8182112,17.6497378 C15.913375,17.7000874 16.0085387,17.7000874 16.1037025,17.6497378 C16.1988662,17.5993881 16.2464481,17.4483392 16.1988662,17.3476399 L15.7230475,14.4273601 L17.7214862,12.3630245 C17.81665,12.3126748 17.8642318,12.1616259 17.81665,12.0609266 C17.7690681,11.9602273 17.6739043,11.859528 17.5787406,11.859528 Z" id="路径" fill="#4E8DF6" fill-rule="nonzero"></path>
        </g>
    </g>
</svg>