<?xml version="1.0" encoding="UTF-8"?>
<svg width="31px" height="25px" viewBox="0 0 31 25" version="1.1" xmlns="http://www.w3.org/2000/svg" xmlns:xlink="http://www.w3.org/1999/xlink">
    <title>勋章</title>
    <g id="页面-1" stroke="none" stroke-width="1" fill="none" fill-rule="evenodd">
        <g id="勋章" transform="translate(0.950000, 0.000000)" fill-rule="nonzero">
            <path d="M26.35,16.45 L3.75,16.45 C1.65,16.45 0,14.75 0,12.7 C0,10.6 1.7,8.95 3.75,8.95 L26.3,8.95 C28.4,8.95 30.05,10.65 30.05,12.7 C30.1,14.75 28.4,16.45 26.35,16.45 Z" id="路径" fill="#E1E1DF"></path>
            <path d="M3,12.2 C3,18.9378739 8.46212605,24.4 15.2,24.4 C21.9378739,24.4 27.4,18.9378739 27.4,12.2 C27.4,5.46212605 21.9378739,0 15.2,0 C8.46212605,0 3,5.46212605 3,12.2 Z" id="路径" fill="#4E8DF6"></path>
            <path d="M6.05,12.2 C6.05,15.4689802 7.79398009,18.4896425 10.625,20.1241326 C13.4560198,21.7586227 16.9439802,21.7586227 19.775,20.1241326 C22.6060199,18.4896425 24.35,15.4689802 24.35,12.2 C24.35,7.14659454 20.2534055,3.05 15.2,3.05 C10.1465945,3.05 6.05,7.14659454 6.05,12.2 Z" id="路径" fill="#2166CC"></path>
            <path d="M7.65,12.2 C7.65,14.8973552 9.08902182,17.3898143 11.425,18.7384919 C13.7609781,20.0871695 16.6390219,20.0871695 18.975,18.7384919 C21.3109782,17.3898143 22.75,14.8973552 22.75,12.2 C22.75,8.03025014 19.3697499,4.65 15.2,4.65 C11.0302501,4.65 7.65,8.03025014 7.65,12.2 Z" id="路径" fill="#FFFFFF"></path>
            <path d="M19.85,11.1 C19.8,11 19.7,10.9 19.6,10.9 L16.75,10.5 L15.45,7.9 C15.4,7.8 15.3,7.75 15.2,7.75 C15.1,7.75 15,7.8 14.95,7.9 L13.6,10.5 L10.7,10.9 C10.6,10.9 10.5,11 10.45,11.1 C10.4,11.2 10.45,11.35 10.55,11.4 L12.65,13.45 L12.15,16.35 C12.15,16.45 12.15,16.55 12.25,16.65 C12.35,16.7 12.45,16.7 12.55,16.65 L15.15,15.3 L17.75,16.65 C17.85,16.7 17.95,16.7 18.05,16.65 C18.15,16.6 18.2,16.45 18.15,16.35 L17.65,13.45 L19.75,11.4 C19.85,11.35 19.9,11.2 19.85,11.1 L19.85,11.1 Z" id="路径" fill="#4E8DF6"></path>
        </g>
    </g>
</svg>