<?xml version="1.0" encoding="UTF-8"?>
<svg width="108px" height="108px" viewBox="0 0 108 108" version="1.1" xmlns="http://www.w3.org/2000/svg" xmlns:xlink="http://www.w3.org/1999/xlink">
    <title>新合体</title>
    <g id="页面-1" stroke="none" stroke-width="1" fill="none" fill-rule="evenodd">
        <g id="编组">
            <circle id="椭圆形" fill="#4E8DF6" cx="54" cy="54" r="54"></circle>
            <circle id="椭圆形" fill="#2166CC" cx="54" cy="54" r="42"></circle>
            <circle id="椭圆形" fill="#FFFFFF" cx="54.5" cy="53.5" r="36.5"></circle>
            <path d="M78.4481808,45.9748252 L63.0792355,43.6923077 L56.0688394,28.8559441 C55.7992088,28.2853147 55.2599475,28 54.7206863,28 C54.181425,28 53.6421638,28.2853147 53.3725332,28.8559441 L46.0925064,43.6923077 L30.4539305,45.9748252 C29.9146693,45.9748252 29.375408,46.5454545 29.1057774,47.1160839 C28.8361468,47.6867133 29.1057774,48.5426573 29.6450386,48.827972 L40.9695247,60.5258741 L38.2732185,77.0741259 C38.2732185,77.6447552 38.2732185,78.2153846 38.8124797,78.786014 C39.351741,79.0713287 39.8910022,79.0713287 40.4302634,78.786014 L54.4510557,71.0825175 L68.4718479,78.786014 C69.0111091,79.0713287 69.5503704,79.0713287 70.0896316,78.786014 C70.6288929,78.5006993 70.8985235,77.6447552 70.6288929,77.0741259 L67.9325867,60.5258741 L79.2570727,48.827972 C79.7963339,48.5426573 80.0659645,47.6867133 79.7963339,47.1160839 C79.5267033,46.5454545 78.9874421,45.9748252 78.4481808,45.9748252 Z" id="路径" fill="#4E8DF6" fill-rule="nonzero"></path>
        </g>
    </g>
</svg>