<?xml version="1.0" standalone="no"?><!DOCTYPE svg PUBLIC "-//W3C//DTD SVG 1.1//EN" "http://www.w3.org/Graphics/SVG/1.1/DTD/svg11.dtd"><svg t="1646968929225" class="icon" viewBox="0 0 1024 1024" version="1.1" xmlns="http://www.w3.org/2000/svg" p-id="23508" xmlns:xlink="http://www.w3.org/1999/xlink" width="32" height="32"><defs><style type="text/css"></style></defs><path d="M168 32c-12 0-24.8 4.8-33.6 14.4C124.8 55.2 120 68 120 80v864c0 12 4.8 24.8 14.4 33.6 9.6 9.6 21.6 14.4 33.6 14.4h704c12 0 24.8-4.8 33.6-14.4 9.6-9.6 14.4-21.6 14.4-33.6V304L648 32H168z" fill="#8095FF" p-id="23509"></path><path d="M920 304H696c-12 0-24.8-4.8-33.6-14.4-9.6-8.8-14.4-21.6-14.4-33.6V32l272 272z" fill="#CCD5FF" p-id="23510"></path><path d="M504 550.4c4.8-2.4 10.4-4 16-4s11.2 1.6 16 4l184.8 107.2c4.8 2.4 8 8 8 13.6s-3.2 11.2-8 13.6L534.4 792.8c-4.8 2.4-10.4 4-16 4s-11.2-1.6-16-4L317.6 685.6c-4.8-2.4-8-8-8-13.6s3.2-11.2 8-13.6L504 550.4z" fill="#C0CAFF" p-id="23511"></path><path d="M504 390.4c4.8-2.4 10.4-4 16-4s11.2 1.6 16 4l184.8 107.2c4.8 2.4 8 8 8 13.6s-3.2 11.2-8 13.6L534.4 632.8c-4.8 2.4-10.4 4-16 4s-11.2-1.6-16-4L317.6 525.6c-4.8-2.4-8-8-8-13.6s3.2-11.2 8-13.6L504 390.4z" fill="#FFFFFF" p-id="23512"></path></svg>