<?xml version="1.0" encoding="UTF-8"?>
<svg width="52px" height="52px" viewBox="0 0 52 52" version="1.1" xmlns="http://www.w3.org/2000/svg" xmlns:xlink="http://www.w3.org/1999/xlink">
    <title>logo/AI助手</title>
    <defs>
        <linearGradient x1="5.77662918e-13%" y1="-1.51267887e-13%" x2="100%" y2="100%" id="linearGradient-1">
            <stop stop-color="#EEA8A8" offset="0%"></stop>
            <stop stop-color="#DA3333" offset="100%"></stop>
        </linearGradient>
    </defs>
    <g id="🆗-应用图标（1）" stroke="none" stroke-width="1" fill="none" fill-rule="evenodd">
        <g id="酷应用图标" transform="translate(-40, -736)">
            <g id="logo/AI助手" transform="translate(40, 736)">
                <path d="M16.6652366,-4.00157735e-15 L35.3347634,6.73295504e-16 C41.1296292,-3.91204078e-16 43.2309876,0.603365849 45.3495039,1.73636078 C47.4680203,2.86935571 49.1306443,4.53197973 50.2636392,6.65049606 C51.3966342,8.76901239 52,10.8703708 52,16.6652366 L52,35.3347634 C52,41.1296292 51.3966342,43.2309876 50.2636392,45.3495039 C49.1306443,47.4680203 47.4680203,49.1306443 45.3495039,50.2636392 C43.2309876,51.3966342 41.1296292,52 35.3347634,52 L16.6652366,52 C10.8703708,52 8.76901239,51.3966342 6.65049606,50.2636392 C4.53197973,49.1306443 2.86935571,47.4680203 1.73636078,45.3495039 C0.603365849,43.2309876 -3.42231232e-15,41.1296292 -3.77714551e-15,35.3347634 L4.4886367e-16,16.6652366 C-2.60802718e-16,10.8703708 0.603365849,8.76901239 1.73636078,6.65049606 C2.86935571,4.53197973 4.53197973,2.86935571 6.65049606,1.73636078 C8.76901239,0.603365849 10.8703708,-3.29191096e-15 16.6652366,-4.00157735e-15 Z" id="bg" fill="url(#linearGradient-1)"></path>
                <g id="icon/fluent:bot-24-filled" transform="translate(13, 13)">
                    <rect id="矩形" x="0" y="0" width="26" height="26"></rect>
                    <path d="M19.2324167,15.1666667 C19.8788819,15.1666667 20.4988695,15.423474 20.9559894,15.8805939 C21.4131094,16.3377138 21.6699168,16.9577015 21.6699168,17.6041667 L21.6699168,18.5835 C21.6702201,19.7685456 21.1530672,20.894649 20.254,21.6666667 C18.5585833,23.1226667 16.1308333,23.8333333 13,23.8333333 C9.86916667,23.8333333 7.44466667,23.1226667 5.7525,21.6666667 C4.85469694,20.895186 4.33803943,19.7704867 4.33766667,18.58675 L4.33766667,17.6030833 C4.33826479,16.2573123 5.42939554,15.1666667 6.77516667,15.1666667 L19.2335,15.1666667 L19.2324167,15.1666667 Z M12.8916667,2.17316667 L13,2.16666667 C13.4060179,2.16666667 13.7496982,2.46642112 13.8049167,2.86866667 L13.8125,2.97916667 L13.8114167,3.79058333 L17.6030833,3.79058333 C18.9492774,3.79058333 20.0405833,4.88188926 20.0405833,6.22808333 L20.0405833,11.1085 C20.0405833,11.7549652 19.783776,12.3749529 19.3266561,12.8320728 C18.8695362,13.2891927 18.2495485,13.546 17.6030833,13.546 L8.39475,13.546 C7.04855592,13.546 5.95725,12.4546941 5.95725,11.1085 L5.95725,6.22916667 C5.95725,5.58251373 6.21420594,4.96236183 6.67156019,4.50521076 C7.12891445,4.04805968 7.74918046,3.79137927 8.39583333,3.79166667 L12.1875,3.79058333 L12.1875,2.97916667 C12.1875911,2.5727893 12.4879077,2.22897548 12.8905833,2.17425 L13,2.16666667 L12.8895,2.17425 L12.8916667,2.17316667 Z M10.5614167,7.04166667 C10.0650915,7.02180174 9.59772554,7.27526521 9.34365047,7.70208971 C9.0895754,8.12891421 9.0895754,8.66058579 9.34365047,9.08741029 C9.59772554,9.51423479 10.0650915,9.76769826 10.5614167,9.74783333 C11.2876526,9.71876645 11.8614275,9.12156736 11.8614275,8.39475 C11.8614275,7.66793264 11.2876526,7.07073355 10.5614167,7.04166667 L10.5614167,7.04166667 Z M15.4288333,7.04166667 C14.9325082,7.02180174 14.4651422,7.27526521 14.2110671,7.70208971 C13.9569921,8.12891421 13.9569921,8.66058579 14.2110671,9.08741029 C14.4651422,9.51423479 14.9325082,9.76769826 15.4288333,9.74783333 C16.1550692,9.71876645 16.7288442,9.12156736 16.7288442,8.39475 C16.7288442,7.66793264 16.1550692,7.07073355 15.4288333,7.04166667 L15.4288333,7.04166667 Z" id="形状" fill-opacity="0.85" fill="#FFFFFF" fill-rule="nonzero"></path>
                </g>
            </g>
        </g>
    </g>
</svg>