<?xml version="1.0" encoding="UTF-8"?>
<svg width="52px" height="52px" viewBox="0 0 52 52" version="1.1" xmlns="http://www.w3.org/2000/svg" xmlns:xlink="http://www.w3.org/1999/xlink">
    <title>logo/应用中心</title>
    <defs>
        <linearGradient x1="5.77662918e-13%" y1="-1.51267887e-13%" x2="100%" y2="100%" id="linearGradient-1">
            <stop stop-color="#CEA8EE" offset="0%"></stop>
            <stop stop-color="#333ADA" offset="100%"></stop>
        </linearGradient>
    </defs>
    <g id="🆗-应用图标（1）" stroke="none" stroke-width="1" fill="none" fill-rule="evenodd">
        <g id="酷应用图标" transform="translate(-124, -652)">
            <g id="logo/应用中心" transform="translate(124, 652)">
                <path d="M16.6652366,-4.00157735e-15 L35.3347634,6.73295504e-16 C41.1296292,-3.91204078e-16 43.2309876,0.603365849 45.3495039,1.73636078 C47.4680203,2.86935571 49.1306443,4.53197973 50.2636392,6.65049606 C51.3966342,8.76901239 52,10.8703708 52,16.6652366 L52,35.3347634 C52,41.1296292 51.3966342,43.2309876 50.2636392,45.3495039 C49.1306443,47.4680203 47.4680203,49.1306443 45.3495039,50.2636392 C43.2309876,51.3966342 41.1296292,52 35.3347634,52 L16.6652366,52 C10.8703708,52 8.76901239,51.3966342 6.65049606,50.2636392 C4.53197973,49.1306443 2.86935571,47.4680203 1.73636078,45.3495039 C0.603365849,43.2309876 -3.42231232e-15,41.1296292 -3.77714551e-15,35.3347634 L4.4886367e-16,16.6652366 C-2.60802718e-16,10.8703708 0.603365849,8.76901239 1.73636078,6.65049606 C2.86935571,4.53197973 4.53197973,2.86935571 6.65049606,1.73636078 C8.76901239,0.603365849 10.8703708,-3.29191096e-15 16.6652366,-4.00157735e-15 Z" id="bg备份" fill="url(#linearGradient-1)"></path>
                <g id="icon/fluent:grid-16-filled" transform="translate(13, 13)">
                    <rect id="矩形" x="0" y="0" width="26" height="26"></rect>
                    <path d="M5.6875,3.25 C4.34130592,3.25 3.25,4.34130592 3.25,5.6875 L3.25,8.9375 C3.25,10.2836941 4.34130592,11.375 5.6875,11.375 L8.9375,11.375 C10.2836941,11.375 11.375,10.2836941 11.375,8.9375 L11.375,5.6875 C11.375,4.34130592 10.2836941,3.25 8.9375,3.25 L5.6875,3.25 L5.6875,3.25 Z M17.0625,3.25 C15.7163059,3.25 14.625,4.34130592 14.625,5.6875 L14.625,8.9375 C14.625,10.2836941 15.7163059,11.375 17.0625,11.375 L20.3125,11.375 C21.6586941,11.375 22.75,10.2836941 22.75,8.9375 L22.75,5.6875 C22.75,4.34130592 21.6586941,3.25 20.3125,3.25 L17.0625,3.25 L17.0625,3.25 Z M5.6875,14.625 C4.34130592,14.625 3.25,15.7163059 3.25,17.0625 L3.25,20.3125 C3.25,21.6586941 4.34130592,22.75 5.6875,22.75 L8.9375,22.75 C10.2836941,22.75 11.375,21.6586941 11.375,20.3125 L11.375,17.0625 C11.375,15.7163059 10.2836941,14.625 8.9375,14.625 L5.6875,14.625 Z M17.0625,14.625 C15.7163059,14.625 14.625,15.7163059 14.625,17.0625 L14.625,20.3125 C14.625,21.6586941 15.7163059,22.75 17.0625,22.75 L20.3125,22.75 C21.6586941,22.75 22.75,21.6586941 22.75,20.3125 L22.75,17.0625 C22.75,15.7163059 21.6586941,14.625 20.3125,14.625 L17.0625,14.625 L17.0625,14.625 Z" id="形状" fill-opacity="0.85" fill="#FFFFFF" fill-rule="nonzero"></path>
                </g>
            </g>
        </g>
    </g>
</svg>