<?xml version="1.0" encoding="UTF-8"?>
<svg width="52px" height="52px" viewBox="0 0 52 52" version="1.1" xmlns="http://www.w3.org/2000/svg" xmlns:xlink="http://www.w3.org/1999/xlink">
    <title>logo/浏览器</title>
    <defs>
        <linearGradient x1="5.77662918e-13%" y1="-1.51267887e-13%" x2="100%" y2="100%" id="linearGradient-1">
            <stop stop-color="#A8A9EE" offset="0%"></stop>
            <stop stop-color="#3398DA" offset="100%"></stop>
        </linearGradient>
    </defs>
    <g id="🆗-应用图标（1）" stroke="none" stroke-width="1" fill="none" fill-rule="evenodd">
        <g id="酷应用图标" transform="translate(-208, -820)">
            <g id="logo/浏览器" transform="translate(208, 820)">
                <path d="M16.6652366,-4.00157735e-15 L35.3347634,6.73295504e-16 C41.1296292,-3.91204078e-16 43.2309876,0.603365849 45.3495039,1.73636078 C47.4680203,2.86935571 49.1306443,4.53197973 50.2636392,6.65049606 C51.3966342,8.76901239 52,10.8703708 52,16.6652366 L52,35.3347634 C52,41.1296292 51.3966342,43.2309876 50.2636392,45.3495039 C49.1306443,47.4680203 47.4680203,49.1306443 45.3495039,50.2636392 C43.2309876,51.3966342 41.1296292,52 35.3347634,52 L16.6652366,52 C10.8703708,52 8.76901239,51.3966342 6.65049606,50.2636392 C4.53197973,49.1306443 2.86935571,47.4680203 1.73636078,45.3495039 C0.603365849,43.2309876 -3.42231232e-15,41.1296292 -3.77714551e-15,35.3347634 L4.4886367e-16,16.6652366 C-2.60802718e-16,10.8703708 0.603365849,8.76901239 1.73636078,6.65049606 C2.86935571,4.53197973 4.53197973,2.86935571 6.65049606,1.73636078 C8.76901239,0.603365849 10.8703708,-3.29191096e-15 16.6652366,-4.00157735e-15 Z" id="bg" fill="url(#linearGradient-1)"></path>
                <g id="icon/brand/fluent:globe-32-filled" transform="translate(13, 13)">
                    <rect id="矩形" x="0" y="0" width="26" height="26"></rect>
                    <path d="M8.93748454,13 C8.93748454,11.8681875 9.000875,10.778625 9.117875,9.75 L16.882125,9.75 C16.999125,10.778625 17.0625,11.8681875 17.0625,13 C17.0625,14.1318125 16.999125,15.221375 16.882125,16.25 L9.117875,16.25 C8.99659655,15.1709277 8.93637561,14.0858656 8.93748454,13 L8.93748454,13 Z M7.483125,16.25 C7.36857357,15.1704655 7.31161785,14.0855947 7.3125,13 C7.3125,11.8795625 7.3718125,10.79 7.483125,9.75 L2.09625,9.75 C1.78281244,10.8048408 1.62407572,11.8995768 1.62499599,13 C1.62499599,14.129375 1.7899375,15.2205625 2.09625,16.25 L7.483125,16.25 L7.483125,16.25 Z M2.7194375,17.875 L7.7065625,17.875 C7.9616875,19.38625 8.333,20.7569375 8.7985625,21.919625 C9.098375,22.66875 9.442875,23.348 9.8320625,23.928125 C6.70579524,23.0182774 4.11750515,20.8155402 2.7194375,17.875 L2.7194375,17.875 Z M9.3559375,17.875 L16.6440625,17.875 C16.4084375,19.175 16.0834375,20.3385 15.6934375,21.3159375 C15.2741875,22.3624375 14.7964375,23.1538125 14.3073125,23.6721875 C13.8198125,24.1873125 13.3778125,24.375 13,24.375 C12.6221875,24.375 12.1801875,24.1873125 11.6926875,23.671375 C11.2035625,23.1538125 10.7258125,22.3624375 10.307375,21.3159375 C9.9165625,20.3385 9.5915625,19.1741875 9.3559375,17.875 L9.3559375,17.875 Z M18.2934375,17.875 C18.0383125,19.38625 17.667,20.7569375 17.2014375,21.919625 C16.901625,22.66875 16.557125,23.348 16.1679375,23.928125 C19.2942048,23.0182774 21.8824949,20.8155402 23.2805625,17.875 L18.2934375,17.875 L18.2934375,17.875 Z M23.90375,16.25 C24.2100625,15.2205625 24.375,14.129375 24.375,13 C24.375,11.870625 24.2100625,10.7794375 23.90375,9.75 L18.516875,9.75 C18.6281875,10.79 18.6875,11.8795625 18.6875,13 C18.6875,14.1204375 18.6281875,15.21 18.516875,16.25 L23.90375,16.25 Z M15.692625,4.6840625 C16.0834375,5.6615 16.4084375,6.8258125 16.6440625,8.125 L9.3559375,8.125 C9.5915625,6.825 9.9165625,5.6615 10.3065625,4.6840625 C10.7258125,3.6375625 11.2035625,2.845375 11.6926875,2.3278125 C12.1785625,1.815125 12.6189375,1.626625 12.9959375,1.625 L13.0024375,1.625 C13.3794375,1.625 13.820625,1.8143125 14.3073125,2.328625 C14.7964375,2.845375 15.2741875,3.6375625 15.692625,4.6840625 Z M18.2934375,8.125 L23.2805625,8.125 C21.8824949,5.18445982 19.2942048,2.98172264 16.1679375,2.071875 C16.557125,2.652 16.901625,3.33125 17.2014375,4.080375 C17.667,5.2430625 18.0383125,6.61375 18.2934375,8.125 L18.2934375,8.125 Z M2.7194375,8.125 L7.7065625,8.125 C7.9616875,6.61375 8.333,5.2430625 8.7985625,4.080375 C9.098375,3.33125 9.442875,2.652 9.8320625,2.071875 C6.70579524,2.98172264 4.11750515,5.18445982 2.7194375,8.125 L2.7194375,8.125 Z" id="形状" fill-opacity="0.85" fill="#FFFFFF" fill-rule="nonzero"></path>
                </g>
            </g>
        </g>
    </g>
</svg>