<?xml version="1.0" encoding="UTF-8"?>
<svg width="52px" height="52px" viewBox="0 0 52 52" version="1.1" xmlns="http://www.w3.org/2000/svg" xmlns:xlink="http://www.w3.org/1999/xlink">
    <title>logo/剪贴板</title>
    <defs>
        <linearGradient x1="5.77662918e-13%" y1="-1.51267887e-13%" x2="100%" y2="100%" id="linearGradient-1">
            <stop stop-color="#EEDAA8" offset="0%"></stop>
            <stop stop-color="#DA6733" offset="100%"></stop>
        </linearGradient>
    </defs>
    <g id="🆗-应用图标（1）" stroke="none" stroke-width="1" fill="none" fill-rule="evenodd">
        <g id="酷应用图标" transform="translate(-292, -736)">
            <g id="logo/剪贴板" transform="translate(292, 736)">
                <path d="M16.6652366,-4.00157735e-15 L35.3347634,6.73295504e-16 C41.1296292,-3.91204078e-16 43.2309876,0.603365849 45.3495039,1.73636078 C47.4680203,2.86935571 49.1306443,4.53197973 50.2636392,6.65049606 C51.3966342,8.76901239 52,10.8703708 52,16.6652366 L52,35.3347634 C52,41.1296292 51.3966342,43.2309876 50.2636392,45.3495039 C49.1306443,47.4680203 47.4680203,49.1306443 45.3495039,50.2636392 C43.2309876,51.3966342 41.1296292,52 35.3347634,52 L16.6652366,52 C10.8703708,52 8.76901239,51.3966342 6.65049606,50.2636392 C4.53197973,49.1306443 2.86935571,47.4680203 1.73636078,45.3495039 C0.603365849,43.2309876 -3.42231232e-15,41.1296292 -3.77714551e-15,35.3347634 L4.4886367e-16,16.6652366 C-2.60802718e-16,10.8703708 0.603365849,8.76901239 1.73636078,6.65049606 C2.86935571,4.53197973 4.53197973,2.86935571 6.65049606,1.73636078 C8.76901239,0.603365849 10.8703708,-3.29191096e-15 16.6652366,-4.00157735e-15 Z" id="bg" fill="url(#linearGradient-1)"></path>
                <g id="icon/fluent:clipboard-bullet-list-16-filled" transform="translate(13, 13)">
                    <rect id="矩形" x="0" y="0" width="26" height="26"></rect>
                    <path d="M8.263125,3.25 C8.60760492,2.27566321 9.52905997,1.62445823 10.5625,1.62499966 L15.4375,1.62499966 C16.47094,1.62445823 17.3923951,2.27566321 17.736875,3.25 L18.6875,3.25 C20.0336941,3.25 21.125,4.34130592 21.125,5.6875 L21.125,21.9375 C21.125,23.2836941 20.0336941,24.375 18.6875,24.375 L7.3125,24.375 C5.96630592,24.375 4.875,23.2836941 4.875,21.9375 L4.875,5.6875 C4.875,4.34130592 5.96630592,3.25 7.3125,3.25 L8.263125,3.25 Z M10.5625,3.25 C10.1137686,3.25 9.75,3.61376864 9.75,4.0625 C9.75,4.51123136 10.1137686,4.875 10.5625,4.875 L15.4375,4.875 C15.8862314,4.875 16.25,4.51123136 16.25,4.0625 C16.25,3.61376864 15.8862314,3.25 15.4375,3.25 L10.5625,3.25 Z M11.375,12.1875 C11.375,12.6362314 11.7387686,13 12.1875,13 L17.0625,13 C17.5112314,13 17.875,12.6362314 17.875,12.1875 C17.875,11.7387686 17.5112314,11.375 17.0625,11.375 L12.1875,11.375 C11.7387686,11.375 11.375,11.7387686 11.375,12.1875 Z M11.375,17.0625 C11.375,17.5112314 11.7387686,17.875 12.1875,17.875 L17.0625,17.875 C17.5112314,17.875 17.875,17.5112314 17.875,17.0625 C17.875,16.6137686 17.5112314,16.25 17.0625,16.25 L12.1875,16.25 C11.7387686,16.25 11.375,16.6137686 11.375,17.0625 Z M8.9375,13 C9.38623136,13 9.75,12.6362314 9.75,12.1875 C9.75,11.7387686 9.38623136,11.375 8.9375,11.375 C8.48876864,11.375 8.125,11.7387686 8.125,12.1875 C8.125,12.6362314 8.48876864,13 8.9375,13 Z M8.9375,17.875 C9.38623136,17.875 9.75,17.5112314 9.75,17.0625 C9.75,16.6137686 9.38623136,16.25 8.9375,16.25 C8.48876864,16.25 8.125,16.6137686 8.125,17.0625 C8.125,17.5112314 8.48876864,17.875 8.9375,17.875 Z" id="形状" fill-opacity="0.85" fill="#FFFFFF" fill-rule="nonzero"></path>
                </g>
            </g>
        </g>
    </g>
</svg>