<?xml version="1.0" encoding="UTF-8"?>
<svg width="52px" height="52px" viewBox="0 0 52 52" version="1.1" xmlns="http://www.w3.org/2000/svg" xmlns:xlink="http://www.w3.org/1999/xlink">
    <title>logo/社群</title>
    <defs>
        <linearGradient x1="5.77662918e-13%" y1="-1.51267887e-13%" x2="100%" y2="100%" id="linearGradient-1">
            <stop stop-color="#549FA6" offset="0%"></stop>
            <stop stop-color="#33DA9E" offset="100%"></stop>
        </linearGradient>
    </defs>
    <g id="🆗-应用图标（1）" stroke="none" stroke-width="1" fill="none" fill-rule="evenodd">
        <g id="酷应用图标" transform="translate(-208, -652)">
            <g id="logo/社群" transform="translate(208, 652)">
                <path d="M16.6652366,-4.00157735e-15 L35.3347634,6.73295504e-16 C41.1296292,-3.91204078e-16 43.2309876,0.603365849 45.3495039,1.73636078 C47.4680203,2.86935571 49.1306443,4.53197973 50.2636392,6.65049606 C51.3966342,8.76901239 52,10.8703708 52,16.6652366 L52,35.3347634 C52,41.1296292 51.3966342,43.2309876 50.2636392,45.3495039 C49.1306443,47.4680203 47.4680203,49.1306443 45.3495039,50.2636392 C43.2309876,51.3966342 41.1296292,52 35.3347634,52 L16.6652366,52 C10.8703708,52 8.76901239,51.3966342 6.65049606,50.2636392 C4.53197973,49.1306443 2.86935571,47.4680203 1.73636078,45.3495039 C0.603365849,43.2309876 -3.42231232e-15,41.1296292 -3.77714551e-15,35.3347634 L4.4886367e-16,16.6652366 C-2.60802718e-16,10.8703708 0.603365849,8.76901239 1.73636078,6.65049606 C2.86935571,4.53197973 4.53197973,2.86935571 6.65049606,1.73636078 C8.76901239,0.603365849 10.8703708,-3.29191096e-15 16.6652366,-4.00157735e-15 Z" id="bg" fill="url(#linearGradient-1)"></path>
                <g id="icon/fluent:chat-16-filled" transform="translate(13, 13)">
                    <rect id="矩形" x="0" y="0" width="26" height="26"></rect>
                    <path d="M13,3.24999945 C9.55864743,3.24884145 6.37156596,5.06194085 4.61406726,8.0206749 C2.85656856,10.9794089 2.78898895,14.6455037 4.43625,17.667 L3.2825,21.71325 C3.19976687,22.002799 3.2839643,22.3143588 3.50128226,22.5228205 C3.71860021,22.7312823 4.03339165,22.8024516 4.31925,22.70775 L8.1185,21.441875 C11.6675021,23.4927093 16.1202358,23.1048309 19.2611763,20.4712345 C22.4021168,17.8376381 23.5604834,13.5207556 22.1599135,9.66851721 C20.7593435,5.81627879 17.0989432,3.25137001 13,3.24999945 L13,3.24999945 Z M9.75,11.375 C9.75,10.9262686 10.1137686,10.5625 10.5625,10.5625 L15.4375,10.5625 C15.8862314,10.5625 16.25,10.9262686 16.25,11.375 C16.25,11.8237314 15.8862314,12.1875 15.4375,12.1875 L10.5625,12.1875 C10.1137686,12.1875 9.75,11.8237314 9.75,11.375 Z M10.5625,13.8125 L13.8125,13.8125 C14.2612314,13.8125 14.625,14.1762686 14.625,14.625 C14.625,15.0737314 14.2612314,15.4375 13.8125,15.4375 L10.5625,15.4375 C10.1137686,15.4375 9.75,15.0737314 9.75,14.625 C9.75,14.1762686 10.1137686,13.8125 10.5625,13.8125 Z" id="形状" fill-opacity="0.85" fill="#FFFFFF" fill-rule="nonzero"></path>
                </g>
            </g>
        </g>
    </g>
</svg>