<?xml version="1.0" encoding="UTF-8"?>
<svg width="52px" height="52px" viewBox="0 0 52 52" version="1.1" xmlns="http://www.w3.org/2000/svg" xmlns:xlink="http://www.w3.org/1999/xlink">
    <title>logo/设备设置</title>
    <defs>
        <linearGradient x1="50%" y1="-1.99840144e-13%" x2="50%" y2="100%" id="linearGradient-1">
            <stop stop-color="#D2E1E8" offset="0%"></stop>
            <stop stop-color="#92928F" offset="100%"></stop>
        </linearGradient>
    </defs>
    <g id="🆗-应用图标（1）" stroke="none" stroke-width="1" fill="none" fill-rule="evenodd">
        <g id="酷应用图标" transform="translate(-40, -988)">
            <g id="logo/设备设置" transform="translate(40, 988)">
                <path d="M16.6652366,-4.00157735e-15 L35.3347634,6.73295504e-16 C41.1296292,-3.91204078e-16 43.2309876,0.603365849 45.3495039,1.73636078 C47.4680203,2.86935571 49.1306443,4.53197973 50.2636392,6.65049606 C51.3966342,8.76901239 52,10.8703708 52,16.6652366 L52,35.3347634 C52,41.1296292 51.3966342,43.2309876 50.2636392,45.3495039 C49.1306443,47.4680203 47.4680203,49.1306443 45.3495039,50.2636392 C43.2309876,51.3966342 41.1296292,52 35.3347634,52 L16.6652366,52 C10.8703708,52 8.76901239,51.3966342 6.65049606,50.2636392 C4.53197973,49.1306443 2.86935571,47.4680203 1.73636078,45.3495039 C0.603365849,43.2309876 -3.42231232e-15,41.1296292 -3.77714551e-15,35.3347634 L4.4886367e-16,16.6652366 C-2.60802718e-16,10.8703708 0.603365849,8.76901239 1.73636078,6.65049606 C2.86935571,4.53197973 4.53197973,2.86935571 6.65049606,1.73636078 C8.76901239,0.603365849 10.8703708,-3.29191096e-15 16.6652366,-4.00157735e-15 Z" id="bg" fill="url(#linearGradient-1)"></path>
                <g id="icon/fluent:slide-settings-24-filled" transform="translate(13, 13)">
                    <rect id="矩形" x="0" y="0" width="26" height="26"></rect>
                    <path d="M5.6875,4.33333333 C3.74299744,4.33333333 2.16666667,5.90966411 2.16666667,7.85416667 L2.16666667,18.1458333 C2.16666667,20.0903359 3.74299744,21.6666667 5.6875,21.6666667 L12.4561667,21.6666667 C11.1717354,18.587658 12.2242234,15.0298908 14.977052,13.1452177 C17.7298806,11.2605445 21.4274427,11.5662777 23.8333333,13.8775 L23.8333333,7.85416667 C23.8333333,6.92038361 23.4623895,6.02484587 22.8021051,5.36456154 C22.1418208,4.70427721 21.2462831,4.33333333 20.3125,4.33333333 L5.6875,4.33333333 Z M15.4678333,15.1406667 C15.6311713,15.7066025 15.5570519,16.3146482 15.2625443,16.8247737 C14.9680368,17.3348992 14.4785282,17.7031308 13.90675,17.8446667 L13.2740833,18.0006667 C13.1725463,18.6497827 13.1747403,19.3109055 13.2805833,19.9593333 L13.8655833,20.1001667 C14.4426384,20.2391647 14.9374021,20.6088144 15.2343125,21.1227766 C15.531223,21.6367389 15.6042789,22.2500045 15.4364167,22.8193333 L15.2338333,23.5029167 C15.7105,23.9210833 16.2521667,24.2601667 16.8415,24.50175 L17.3766667,23.9395 C17.7856883,23.509263 18.3533233,23.2656925 18.9469583,23.2656925 C19.5405933,23.2656925 20.1082284,23.509263 20.51725,23.9395 L21.05675,24.50825 C21.6433692,24.2698259 22.1862915,23.935579 22.6633333,23.5191667 L22.4488333,22.776 C22.2854953,22.2100641 22.3596148,21.6020185 22.6541223,21.091893 C22.9486299,20.5817675 23.4381385,20.2135359 24.0099167,20.072 L24.6425833,19.916 C24.7443409,19.2669007 24.7421468,18.6057429 24.6360833,17.9573333 L24.0510833,17.8165 C23.4740283,17.6775019 22.9792646,17.3078523 22.6823541,16.79389 C22.3854437,16.2799278 22.3123878,15.6666621 22.48025,15.0973333 L22.6828333,14.4148333 C22.2061045,13.9949564 21.662785,13.6573954 21.0751667,13.416 L20.5410833,13.9771667 C20.1320297,14.4077501 19.5641582,14.6515441 18.97025,14.6515441 C18.3763418,14.6515441 17.8084703,14.4077501 17.3994167,13.9771667 L16.8599167,13.4084167 C16.2734083,13.6465825 15.7305018,13.9804535 15.2533333,14.3964167 L15.4678333,15.1406667 L15.4678333,15.1406667 Z M18.9583333,20.5833333 C18.0916667,20.5833333 17.3875,19.8553333 17.3875,18.9583333 C17.3875,18.0613333 18.0916667,17.3333333 18.9583333,17.3333333 C19.825,17.3333333 20.5291667,18.0613333 20.5291667,18.9583333 C20.5291667,19.8553333 19.825,20.5833333 18.9583333,20.5833333 Z" id="形状" fill-opacity="0.4" fill="#000000" fill-rule="nonzero"></path>
                </g>
            </g>
        </g>
    </g>
</svg>