<?xml version="1.0" encoding="UTF-8"?>
<svg width="52px" height="52px" viewBox="0 0 52 52" version="1.1" xmlns="http://www.w3.org/2000/svg" xmlns:xlink="http://www.w3.org/1999/xlink">
    <title>logo/快捷指令</title>
    <defs>
        <linearGradient x1="5.77662918e-13%" y1="-1.51267887e-13%" x2="100%" y2="100%" id="linearGradient-1">
            <stop stop-color="#D55E5E" offset="0%"></stop>
            <stop stop-color="#DA6733" offset="100%"></stop>
        </linearGradient>
    </defs>
    <g id="🆗-应用图标（1）" stroke="none" stroke-width="1" fill="none" fill-rule="evenodd">
        <g id="酷应用图标" transform="translate(-292, -652)">
            <g id="logo/快捷指令" transform="translate(292, 652)">
                <path d="M16.6652366,-4.00157735e-15 L35.3347634,6.73295504e-16 C41.1296292,-3.91204078e-16 43.2309876,0.603365849 45.3495039,1.73636078 C47.4680203,2.86935571 49.1306443,4.53197973 50.2636392,6.65049606 C51.3966342,8.76901239 52,10.8703708 52,16.6652366 L52,35.3347634 C52,41.1296292 51.3966342,43.2309876 50.2636392,45.3495039 C49.1306443,47.4680203 47.4680203,49.1306443 45.3495039,50.2636392 C43.2309876,51.3966342 41.1296292,52 35.3347634,52 L16.6652366,52 C10.8703708,52 8.76901239,51.3966342 6.65049606,50.2636392 C4.53197973,49.1306443 2.86935571,47.4680203 1.73636078,45.3495039 C0.603365849,43.2309876 -3.42231232e-15,41.1296292 -3.77714551e-15,35.3347634 L4.4886367e-16,16.6652366 C-2.60802718e-16,10.8703708 0.603365849,8.76901239 1.73636078,6.65049606 C2.86935571,4.53197973 4.53197973,2.86935571 6.65049606,1.73636078 C8.76901239,0.603365849 10.8703708,-3.29191096e-15 16.6652366,-4.00157735e-15 Z" id="bg" fill="url(#linearGradient-1)"></path>
                <g id="icon/fluent:flash-16-filled" transform="translate(13, 13)">
                    <rect id="矩形" x="0" y="0" width="26" height="26"></rect>
                    <path d="M9.543625,1.62499951 C8.82470273,1.62444622 8.19086162,2.09635712 7.98525,2.78525 L4.925375,13.0585 C4.81556328,13.4273551 4.88642479,13.8264064 5.11651721,14.1349031 C5.34660962,14.4433997 5.70889589,14.6250917 6.09375,14.6249995 L8.666125,14.6249995 L6.586125,21.757125 C5.962125,23.895625 8.737625,25.332125 10.125375,23.590125 L20.86175,10.102625 C21.1533181,9.73622091 21.2091812,9.2351686 21.0054717,8.81354518 C20.8017621,8.39192175 20.3745057,8.1242912 19.90625,8.12499951 L16.6075,8.12499951 L18.22275,3.820375 C18.40967,3.32172338 18.3404014,2.76312998 18.0373452,2.32523798 C17.7342889,1.88734598 17.2359085,1.62573229 16.703375,1.62499951 L9.543625,1.62499951 Z" id="路径" fill-opacity="0.85" fill="#FFFFFF" fill-rule="nonzero"></path>
                </g>
            </g>
        </g>
    </g>
</svg>