<?xml version="1.0" encoding="UTF-8"?>
<svg width="52px" height="52px" viewBox="0 0 52 52" version="1.1" xmlns="http://www.w3.org/2000/svg" xmlns:xlink="http://www.w3.org/1999/xlink">
    <title>logo/效率助手</title>
    <defs>
        <linearGradient x1="5.77662918e-13%" y1="-1.51267887e-13%" x2="100%" y2="100%" id="linearGradient-1">
            <stop stop-color="#EEA8A8" offset="0%"></stop>
            <stop stop-color="#DA337A" offset="100%"></stop>
        </linearGradient>
    </defs>
    <g id="🆗-应用图标（1）" stroke="none" stroke-width="1" fill="none" fill-rule="evenodd">
        <g id="酷应用图标" transform="translate(-40, -904)">
            <g id="logo/效率助手" transform="translate(40, 904)">
                <path d="M16.6652366,-4.00157735e-15 L35.3347634,6.73295504e-16 C41.1296292,-3.91204078e-16 43.2309876,0.603365849 45.3495039,1.73636078 C47.4680203,2.86935571 49.1306443,4.53197973 50.2636392,6.65049606 C51.3966342,8.76901239 52,10.8703708 52,16.6652366 L52,35.3347634 C52,41.1296292 51.3966342,43.2309876 50.2636392,45.3495039 C49.1306443,47.4680203 47.4680203,49.1306443 45.3495039,50.2636392 C43.2309876,51.3966342 41.1296292,52 35.3347634,52 L16.6652366,52 C10.8703708,52 8.76901239,51.3966342 6.65049606,50.2636392 C4.53197973,49.1306443 2.86935571,47.4680203 1.73636078,45.3495039 C0.603365849,43.2309876 -3.42231232e-15,41.1296292 -3.77714551e-15,35.3347634 L4.4886367e-16,16.6652366 C-2.60802718e-16,10.8703708 0.603365849,8.76901239 1.73636078,6.65049606 C2.86935571,4.53197973 4.53197973,2.86935571 6.65049606,1.73636078 C8.76901239,0.603365849 10.8703708,-3.29191096e-15 16.6652366,-4.00157735e-15 Z" id="bg" fill="url(#linearGradient-1)"></path>
                <g id="icon/fluent:text-bullet-list-square-sparkle-16-filled" transform="translate(13, 13)">
                    <rect id="矩形" x="0" y="0.00157960731" width="26" height="25.9984204"></rect>
                    <path d="M17.67675,0.459801767 L18.24225,2.20007103 C18.5989906,3.2727122 19.4410387,4.11410685 20.514,4.47005811 L22.256,5.03552376 L22.290125,5.04527316 C22.5652196,5.14210637 22.7492584,5.40198484 22.7492584,5.69360877 C22.7492584,5.98523271 22.5652196,6.24511117 22.290125,6.34194438 L20.54975,6.90741002 C19.4765834,7.26360134 18.6341229,8.10480633 18.276375,9.1773971 L17.710875,10.9160415 C17.6140359,11.1911194 17.3541417,11.3751469 17.0625,11.3751469 C16.7708583,11.3751469 16.5109641,11.1911194 16.414125,10.9160415 L15.848625,9.1773971 C15.4943844,8.10052604 14.6511707,7.25495285 13.57525,6.89766062 L11.83325,6.33219497 C11.5581554,6.23536176 11.3741166,5.9754833 11.3741166,5.68385936 C11.3741166,5.39223543 11.5581554,5.13235697 11.83325,5.03552376 L13.57525,4.47005811 C14.6347595,4.1044088 15.4625184,3.26467823 15.812875,2.20007103 L16.378375,0.461426668 C16.474526,0.185151204 16.7350178,0 17.0275625,0 C17.3201072,0 17.580599,0.185151204 17.67675,0.461426668 L17.67675,0.459801767 Z M25.647375,13.3468938 L24.40425,12.9439183 C23.6368216,12.6894556 23.0344958,12.0877687 22.77925,11.3206419 L22.37625,10.0792173 C22.3072962,9.8825042 22.1215845,9.75081655 21.913125,9.75081655 C21.7046655,9.75081655 21.5189538,9.8825042 21.45,10.0792173 L21.04375,11.3206419 C20.7944333,12.0817321 20.2033872,12.682362 19.446375,12.9439183 L18.20325,13.3468938 C18.0081039,13.4173328 17.8780527,13.6025322 17.8780527,13.8099906 C17.8780527,14.0174491 18.0081039,14.2026485 18.20325,14.2730875 L19.446375,14.6776879 C20.2147626,14.933377 20.8172061,15.5369888 21.071375,16.305839 L21.474375,17.5472636 C21.5433288,17.7439767 21.7290405,17.8756643 21.9375,17.8756643 C22.1459595,17.8756643 22.3316712,17.7439767 22.400625,17.5472636 L22.80525,16.305839 C23.059937,15.5389393 23.6616787,14.9372342 24.428625,14.6825626 L25.67175,14.2795871 C25.8668961,14.2091481 25.9969473,14.0239487 25.9969473,13.8164902 C25.9969473,13.6090318 25.8668961,13.4238324 25.67175,13.3533934 L25.647375,13.3468938 L25.647375,13.3468938 Z M20.7285,19.1266676 C20.371,18.8666834 20.111,18.5238292 19.9485,18.1176039 L19.526,16.8144331 C19.4817623,16.677886 19.4034671,16.5548583 19.2985,16.4569548 C19.1963256,16.3572494 19.0746008,16.2797928 18.941,16.2294686 L17.70275,15.8232433 C17.264,15.6607532 16.9065,15.3991441 16.6465,15.0416658 C16.3865,14.6841875 16.2565,14.2600883 16.2565,13.81974 L16.2565,13.8132404 L11.375,13.8132404 C10.9262686,13.8132404 10.5625,13.4494939 10.5625,13.0007898 C10.5625,12.5520857 10.9262686,12.1883392 11.375,12.1883392 L15.299375,12.1883392 C15.1136362,11.9741189 14.9692746,11.7272866 14.873625,11.4603834 L14.288625,9.6859912 C14.142375,9.31226391 13.996125,9.10102674 13.817375,8.9222876 C13.5988215,8.71198788 13.3378786,8.55077817 13.052,8.44944133 L11.327875,7.88072589 C10.840375,7.71823576 10.450375,7.40787962 10.174125,7.01627841 C9.897875,6.6263021 9.75,6.17132975 9.75,5.68385936 C9.75,5.19476408 9.89625,4.73816682 10.1725,4.34819052 C10.44875,3.95821421 10.83875,3.66573198 11.29375,3.50161695 L12.07375,3.25138216 L7.3125,3.25138216 C5.0688432,3.25138216 3.25,5.07011486 3.25,7.31363534 L3.25,18.6879443 C3.25,20.9314647 5.0688432,22.7501975 7.3125,22.7501975 L18.6875,22.7501975 C20.6590555,22.7501975 22.345988,21.3346534 22.68825,19.3931514 C22.4462203,19.4677456 22.1939907,19.5039329 21.94075,19.5003949 C21.5083479,19.5000755 21.0860132,19.3698729 20.7285,19.1266676 L20.7285,19.1266676 Z M7.71875,6.90741002 C8.39184704,6.90741002 8.9375,7.45302983 8.9375,8.12608598 C8.9375,8.79914213 8.39184704,9.34476194 7.71875,9.34476194 C7.04565296,9.34476194 6.5,8.79914213 6.5,8.12608598 C6.5,7.45302983 7.04565296,6.90741002 7.71875,6.90741002 Z M7.71875,11.7821138 C8.39184704,11.7821138 8.9375,12.3277337 8.9375,13.0007898 C8.9375,13.6738459 8.39184704,14.2194658 7.71875,14.2194658 C7.04565296,14.2194658 6.5,13.6738459 6.5,13.0007898 C6.5,12.3277337 7.04565296,11.7821138 7.71875,11.7821138 Z M8.9375,17.8754936 C8.9375,18.5485498 8.39184704,19.0941696 7.71875,19.0941696 C7.04565296,19.0941696 6.5,18.5485498 6.5,17.8754936 C6.5,17.2024375 7.04565296,16.6568177 7.71875,16.6568177 C8.39184704,16.6568177 8.9375,17.2024375 8.9375,17.8754936 Z M11.375,18.6879443 C10.9262686,18.6879443 10.5625,18.3241977 10.5625,17.8754936 C10.5625,17.4267895 10.9262686,17.063043 11.375,17.063043 L18.6875,17.063043 C19.1362314,17.063043 19.5,17.4267895 19.5,17.8754936 C19.5,18.3241977 19.1362314,18.6879443 18.6875,18.6879443 L11.375,18.6879443 Z" id="形状" fill-opacity="0.85" fill="#FFFFFF" fill-rule="nonzero"></path>
                </g>
            </g>
        </g>
    </g>
</svg>