<?xml version="1.0" encoding="UTF-8"?>
<svg width="52px" height="52px" viewBox="0 0 52 52" version="1.1" xmlns="http://www.w3.org/2000/svg" xmlns:xlink="http://www.w3.org/1999/xlink">
    <title>logo/文件传输助手</title>
    <defs>
        <linearGradient x1="5.77662918e-13%" y1="-1.51267887e-13%" x2="100%" y2="100%" id="linearGradient-1">
            <stop stop-color="#E8A8EE" offset="0%"></stop>
            <stop stop-color="#DA7233" offset="100%"></stop>
        </linearGradient>
    </defs>
    <g id="🆗-应用图标（1）" stroke="none" stroke-width="1" fill="none" fill-rule="evenodd">
        <g id="酷应用图标" transform="translate(-124, -820)">
            <g id="logo/文件传输助手" transform="translate(124, 820)">
                <path d="M16.6652366,-4.00157735e-15 L35.3347634,6.73295504e-16 C41.1296292,-3.91204078e-16 43.2309876,0.603365849 45.3495039,1.73636078 C47.4680203,2.86935571 49.1306443,4.53197973 50.2636392,6.65049606 C51.3966342,8.76901239 52,10.8703708 52,16.6652366 L52,35.3347634 C52,41.1296292 51.3966342,43.2309876 50.2636392,45.3495039 C49.1306443,47.4680203 47.4680203,49.1306443 45.3495039,50.2636392 C43.2309876,51.3966342 41.1296292,52 35.3347634,52 L16.6652366,52 C10.8703708,52 8.76901239,51.3966342 6.65049606,50.2636392 C4.53197973,49.1306443 2.86935571,47.4680203 1.73636078,45.3495039 C0.603365849,43.2309876 -3.42231232e-15,41.1296292 -3.77714551e-15,35.3347634 L4.4886367e-16,16.6652366 C-2.60802718e-16,10.8703708 0.603365849,8.76901239 1.73636078,6.65049606 C2.86935571,4.53197973 4.53197973,2.86935571 6.65049606,1.73636078 C8.76901239,0.603365849 10.8703708,-3.29191096e-15 16.6652366,-4.00157735e-15 Z" id="bg" fill="url(#linearGradient-1)"></path>
                <g id="icon/fluent:cloud-sync-16-filled" transform="translate(13, 13)">
                    <rect id="矩形" x="0" y="0" width="26" height="26"></rect>
                    <path d="M6.54875,8.948875 C6.93706611,5.79057898 9.554782,3.37773646 12.7341953,3.24752846 C15.9136086,3.11732046 18.7198561,5.30803287 19.365125,8.424 C16.2585387,7.59433215 12.945728,8.49738859 10.6899371,10.7888149 C8.43414622,13.0802412 7.58312091,16.4067983 8.461375,19.5000122 L6.90625,19.5000122 C4.05475303,19.5060712 1.71334549,17.2474701 1.61678443,14.3976021 C1.52022337,11.547734 3.70338181,9.13582862 6.54875,8.948875 L6.54875,8.948875 Z M17.0625,24.375 C19.6750047,24.375 22.0890585,22.9812454 23.3953109,20.71875 C24.7015632,18.4562546 24.7015632,15.6687454 23.3953109,13.40625 C22.0890585,11.1437546 19.6750047,9.75 17.0625,9.75 C13.0239178,9.75 9.75000011,13.0239178 9.75000011,17.0625 C9.75000011,21.1010822 13.0239178,24.375 17.0625,24.375 L17.0625,24.375 Z M21.125,13 L21.125,15.4375 C21.125,15.8862314 20.7612314,16.25 20.3125,16.25 L17.875,16.25 C17.4262686,16.25 17.0625,15.8862314 17.0625,15.4375 C17.0625,14.9887686 17.4262686,14.625 17.875,14.625 L18.63875,14.625 C17.2192735,13.8350668 15.4343515,14.217054 14.4625,15.51875 C14.1932612,15.8777351 13.6839851,15.9504888 13.325,15.68125 C12.9660149,15.4120112 12.8932612,14.9027351 13.1625,14.54375 C14.6400221,12.5665454 17.3633909,12.0079056 19.5,13.24375 L19.5,13 C19.5,12.5512686 19.8637686,12.1875 20.3125,12.1875 C20.7612314,12.1875 21.125,12.5512686 21.125,13 Z M13.8125,21.9375 C13.3637686,21.9375 13,21.5737314 13,21.125 L13,19.11 C12.9998264,19.0991679 12.9998264,19.0883321 13,19.0775 L13,18.6875 C13,18.2387686 13.3637686,17.875 13.8125,17.875 L16.25,17.875 C16.6987314,17.875 17.0625,18.2387686 17.0625,18.6875 C17.0625,19.1362314 16.6987314,19.5 16.25,19.5 L15.48625,19.5 C16.9057265,20.2899332 18.6906485,19.907946 19.6625,18.60625 C19.836667,18.3740274 20.1214932,18.2523618 20.4096874,18.2870835 C20.6978816,18.3218052 20.9456602,18.5076391 21.0596874,18.7745835 C21.1737146,19.0415278 21.136667,19.3490274 20.9625,19.58125 C19.4845025,21.5578913 16.7612161,22.1158158 14.625,20.879625 L14.625,21.125 C14.625,21.5737314 14.2612314,21.9375 13.8125,21.9375 L13.8125,21.9375 Z" id="形状" fill-opacity="0.85" fill="#FFFFFF" fill-rule="nonzero"></path>
                </g>
            </g>
        </g>
    </g>
</svg>