<?xml version="1.0" encoding="UTF-8"?>
<svg width="52px" height="52px" viewBox="0 0 52 52" version="1.1" xmlns="http://www.w3.org/2000/svg" xmlns:xlink="http://www.w3.org/1999/xlink">
    <title>logo/全屏</title>
    <defs>
        <linearGradient x1="50%" y1="-1.99840144e-13%" x2="50%" y2="100%" id="linearGradient-1">
            <stop stop-color="#D2E1E8" offset="0%"></stop>
            <stop stop-color="#92928F" offset="100%"></stop>
        </linearGradient>
    </defs>
    <g id="🆗-应用图标（1）" stroke="none" stroke-width="1" fill="none" fill-rule="evenodd">
        <g id="酷应用图标" transform="translate(-208, -988)">
            <g id="logo/全屏" transform="translate(208, 988)">
                <path d="M16.6652366,-4.00157735e-15 L35.3347634,6.73295504e-16 C41.1296292,-3.91204078e-16 43.2309876,0.603365849 45.3495039,1.73636078 C47.4680203,2.86935571 49.1306443,4.53197973 50.2636392,6.65049606 C51.3966342,8.76901239 52,10.8703708 52,16.6652366 L52,35.3347634 C52,41.1296292 51.3966342,43.2309876 50.2636392,45.3495039 C49.1306443,47.4680203 47.4680203,49.1306443 45.3495039,50.2636392 C43.2309876,51.3966342 41.1296292,52 35.3347634,52 L16.6652366,52 C10.8703708,52 8.76901239,51.3966342 6.65049606,50.2636392 C4.53197973,49.1306443 2.86935571,47.4680203 1.73636078,45.3495039 C0.603365849,43.2309876 -3.42231232e-15,41.1296292 -3.77714551e-15,35.3347634 L4.4886367e-16,16.6652366 C-2.60802718e-16,10.8703708 0.603365849,8.76901239 1.73636078,6.65049606 C2.86935571,4.53197973 4.53197973,2.86935571 6.65049606,1.73636078 C8.76901239,0.603365849 10.8703708,-3.29191096e-15 16.6652366,-4.00157735e-15 Z" id="bg" fill="url(#linearGradient-1)"></path>
                <g id="icon/fluent:full-screen-maximize-16-filled" transform="translate(13, 13)">
                    <rect id="矩形" x="0" y="0" width="26" height="26"></rect>
                    <path d="M6.5,5.6875 C6.05126864,5.6875 5.6875,6.05126864 5.6875,6.5 L5.6875,9.12275 C5.68749999,9.79584703 5.14184703,10.3415 4.46875,10.3415 C3.79565297,10.3415 3.25,9.79584703 3.25,9.12275 L3.25,6.5 C3.25,4.70507456 4.70507456,3.25 6.5,3.25 L9.12275,3.25 C9.79584703,3.25 10.3415,3.79565297 10.3415,4.46875 C10.3415,5.14184703 9.79584703,5.68749999 9.12275,5.6875 L6.5,5.6875 Z M15.6585,4.46875 C15.6585,3.79565296 16.204153,3.25 16.87725,3.25 L19.5,3.25 C21.2949254,3.25 22.75,4.70507456 22.75,6.5 L22.75,9.12275 C22.75,9.79584704 22.204347,10.3415 21.53125,10.3415 C20.858153,10.3415 20.3125,9.79584704 20.3125,9.12275 L20.3125,6.5 C20.3125,6.05126864 19.9487314,5.6875 19.5,5.6875 L16.87725,5.6875 C16.204153,5.6875 15.6585,5.14184704 15.6585,4.46875 L15.6585,4.46875 Z M4.46875,15.6585 C5.14184704,15.6585 5.6875,16.204153 5.6875,16.87725 L5.6875,19.5 C5.6875,19.9487314 6.05126864,20.3125 6.5,20.3125 L9.12275,20.3125 C9.79584704,20.3125 10.3415,20.858153 10.3415,21.53125 C10.3415,22.204347 9.79584704,22.75 9.12275,22.75 L6.5,22.75 C4.70507456,22.75 3.25,21.2949254 3.25,19.5 L3.25,16.87725 C3.25,16.204153 3.79565296,15.6585 4.46875,15.6585 L4.46875,15.6585 Z M21.53125,15.6585 C22.204347,15.6585 22.75,16.204153 22.75,16.87725 L22.75,19.5 C22.75,21.2949254 21.2949254,22.75 19.5,22.75 L16.87725,22.75 C16.204153,22.75 15.6585,22.204347 15.6585,21.53125 C15.6585,20.858153 16.204153,20.3125 16.87725,20.3125 L19.5,20.3125 C19.9487314,20.3125 20.3125,19.9487314 20.3125,19.5 L20.3125,16.87725 C20.3125,16.204153 20.858153,15.6585 21.53125,15.6585 L21.53125,15.6585 Z" id="形状" fill-opacity="0.4" fill="#000000" fill-rule="nonzero"></path>
                </g>
            </g>
        </g>
    </g>
</svg>