<?xml version="1.0" encoding="UTF-8"?>
<svg width="52px" height="52px" viewBox="0 0 52 52" version="1.1" xmlns="http://www.w3.org/2000/svg" xmlns:xlink="http://www.w3.org/1999/xlink">
    <title>logo/游戏助手</title>
    <defs>
        <linearGradient x1="5.77662918e-13%" y1="-1.51267887e-13%" x2="100%" y2="100%" id="linearGradient-1">
            <stop stop-color="#EEA8A8" offset="0%"></stop>
            <stop stop-color="#33B4DA" offset="100%"></stop>
        </linearGradient>
    </defs>
    <g id="🆗-应用图标（1）" stroke="none" stroke-width="1" fill="none" fill-rule="evenodd">
        <g id="酷应用图标" transform="translate(-376, -736)">
            <g id="logo/游戏助手" transform="translate(376, 736)">
                <path d="M16.6652366,-4.00157735e-15 L35.3347634,6.73295504e-16 C41.1296292,-3.91204078e-16 43.2309876,0.603365849 45.3495039,1.73636078 C47.4680203,2.86935571 49.1306443,4.53197973 50.2636392,6.65049606 C51.3966342,8.76901239 52,10.8703708 52,16.6652366 L52,35.3347634 C52,41.1296292 51.3966342,43.2309876 50.2636392,45.3495039 C49.1306443,47.4680203 47.4680203,49.1306443 45.3495039,50.2636392 C43.2309876,51.3966342 41.1296292,52 35.3347634,52 L16.6652366,52 C10.8703708,52 8.76901239,51.3966342 6.65049606,50.2636392 C4.53197973,49.1306443 2.86935571,47.4680203 1.73636078,45.3495039 C0.603365849,43.2309876 -3.42231232e-15,41.1296292 -3.77714551e-15,35.3347634 L4.4886367e-16,16.6652366 C-2.60802718e-16,10.8703708 0.603365849,8.76901239 1.73636078,6.65049606 C2.86935571,4.53197973 4.53197973,2.86935571 6.65049606,1.73636078 C8.76901239,0.603365849 10.8703708,-3.29191096e-15 16.6652366,-4.00157735e-15 Z" id="bg" fill="url(#linearGradient-1)"></path>
                <g id="fluent:games-16-filled" transform="translate(13, 13)">
                    <rect id="矩形" x="0" y="0" width="26" height="26"></rect>
                    <path d="M8.94075,4.875 C4.90216777,4.875 1.62825,8.14891777 1.62825,12.1875 C1.62825,16.2260822 4.90216777,19.5 8.94075,19.5 L17.07875,19.5 C21.1173322,19.5 24.39125,16.2260822 24.39125,12.1875 C24.39125,8.14891777 21.1173322,4.875 17.07875,4.875 L8.94075,4.875 L8.94075,4.875 Z M5.694,12.1875 C5.694,11.7387686 6.05776864,11.375 6.5065,11.375 L8.1315,11.375 L8.1315,9.75 C8.1315,9.30126864 8.49526864,8.9375 8.944,8.9375 C9.39273136,8.9375 9.7565,9.30126864 9.7565,9.75 L9.7565,11.375 L11.3815,11.375 C11.8302314,11.375 12.194,11.7387686 12.194,12.1875 C12.194,12.6362314 11.8302314,13 11.3815,13 L9.7565,13 L9.7565,14.625 C9.7565,15.0737314 9.39273136,15.4375 8.944,15.4375 C8.49526864,15.4375 8.1315,15.0737314 8.1315,14.625 L8.1315,13 L6.5065,13 C6.05776864,13 5.694,12.6362314 5.694,12.1875 L5.694,12.1875 Z M17.875,14.625 C17.875,15.5224627 17.1474627,16.25 16.25,16.25 C15.3525373,16.25 14.625,15.5224627 14.625,14.625 C14.625,13.7275373 15.3525373,13 16.25,13 C17.1474627,13 17.875,13.7275373 17.875,14.625 Z M17.875,11.375 C16.9775373,11.375 16.25,10.6474627 16.25,9.75 C16.25,8.85253728 16.9775373,8.125 17.875,8.125 C18.7724627,8.125 19.5,8.85253728 19.5,9.75 C19.5,10.6474627 18.7724627,11.375 17.875,11.375 Z" id="形状" fill-opacity="0.85" fill="#FFFFFF" fill-rule="nonzero"></path>
                </g>
            </g>
        </g>
    </g>
</svg>