<?xml version="1.0" encoding="UTF-8"?>
<svg width="52px" height="52px" viewBox="0 0 52 52" version="1.1" xmlns="http://www.w3.org/2000/svg" xmlns:xlink="http://www.w3.org/1999/xlink">
    <title>logo/桌面主页</title>
    <defs>
        <linearGradient x1="5.77662918e-13%" y1="-1.51267887e-13%" x2="100%" y2="100%" id="linearGradient-1">
            <stop stop-color="#A8A9EE" offset="0%"></stop>
            <stop stop-color="#3398DA" offset="100%"></stop>
        </linearGradient>
    </defs>
    <g id="🆗-应用图标（1）" stroke="none" stroke-width="1" fill="none" fill-rule="evenodd">
        <g id="酷应用图标" transform="translate(-40, -652)">
            <g id="logo/桌面主页" transform="translate(40, 652)">
                <path d="M16.6652366,-4.00157735e-15 L35.3347634,6.73295504e-16 C41.1296292,-3.91204078e-16 43.2309876,0.603365849 45.3495039,1.73636078 C47.4680203,2.86935571 49.1306443,4.53197973 50.2636392,6.65049606 C51.3966342,8.76901239 52,10.8703708 52,16.6652366 L52,35.3347634 C52,41.1296292 51.3966342,43.2309876 50.2636392,45.3495039 C49.1306443,47.4680203 47.4680203,49.1306443 45.3495039,50.2636392 C43.2309876,51.3966342 41.1296292,52 35.3347634,52 L16.6652366,52 C10.8703708,52 8.76901239,51.3966342 6.65049606,50.2636392 C4.53197973,49.1306443 2.86935571,47.4680203 1.73636078,45.3495039 C0.603365849,43.2309876 -3.42231232e-15,41.1296292 -3.77714551e-15,35.3347634 L4.4886367e-16,16.6652366 C-2.60802718e-16,10.8703708 0.603365849,8.76901239 1.73636078,6.65049606 C2.86935571,4.53197973 4.53197973,2.86935571 6.65049606,1.73636078 C8.76901239,0.603365849 10.8703708,-3.29191096e-15 16.6652366,-4.00157735e-15 Z" id="bg" fill="url(#linearGradient-1)"></path>
                <g id="icon/fluent:home-16-filled" transform="translate(13, 13)">
                    <rect id="矩形" x="0" y="0" width="26" height="26"></rect>
                    <path d="M14.116375,2.05075 C13.4899453,1.45850773 12.5100547,1.45850773 11.883625,2.05075 L4.012125,9.49 C3.52501166,9.9509519 3.24933557,10.5922368 3.2499988,11.262875 L3.2499988,20.314125 C3.25089704,21.6596844 4.34194027,22.75 5.6875,22.75 L8.125,22.75 C9.47119408,22.75 10.5625,21.6586941 10.5625,20.3125 L10.5625,16.25 C10.5625,15.8012686 10.9262686,15.4375 11.375,15.4375 L14.625,15.4375 C15.0737314,15.4375 15.4375,15.8012686 15.4375,16.25 L15.4375,20.3125 C15.4375,21.6586941 16.5288059,22.75 17.875,22.75 L20.3125,22.75 C21.6586941,22.75 22.7499988,21.6586941 22.7499988,20.3125 L22.7499988,11.26125 C22.749795,10.5909331 22.4735519,9.95028425 21.98625,9.49 L14.116375,2.0475 L14.116375,2.05075 Z" id="路径" fill-opacity="0.85" fill="#FFFFFF" fill-rule="nonzero"></path>
                </g>
            </g>
        </g>
    </g>
</svg>