<?xml version="1.0" encoding="UTF-8"?>
<svg width="52px" height="52px" viewBox="0 0 52 52" version="1.1" xmlns="http://www.w3.org/2000/svg" xmlns:xlink="http://www.w3.org/1999/xlink">
    <title>logo/锁屏</title>
    <defs>
        <linearGradient x1="50%" y1="-1.99840144e-13%" x2="50%" y2="100%" id="linearGradient-1">
            <stop stop-color="#D2E1E8" offset="0%"></stop>
            <stop stop-color="#92928F" offset="100%"></stop>
        </linearGradient>
    </defs>
    <g id="🆗-应用图标（1）" stroke="none" stroke-width="1" fill="none" fill-rule="evenodd">
        <g id="酷应用图标" transform="translate(-124, -988)">
            <g id="logo/锁屏" transform="translate(124, 988)">
                <path d="M16.6652366,-4.00157735e-15 L35.3347634,6.73295504e-16 C41.1296292,-3.91204078e-16 43.2309876,0.603365849 45.3495039,1.73636078 C47.4680203,2.86935571 49.1306443,4.53197973 50.2636392,6.65049606 C51.3966342,8.76901239 52,10.8703708 52,16.6652366 L52,35.3347634 C52,41.1296292 51.3966342,43.2309876 50.2636392,45.3495039 C49.1306443,47.4680203 47.4680203,49.1306443 45.3495039,50.2636392 C43.2309876,51.3966342 41.1296292,52 35.3347634,52 L16.6652366,52 C10.8703708,52 8.76901239,51.3966342 6.65049606,50.2636392 C4.53197973,49.1306443 2.86935571,47.4680203 1.73636078,45.3495039 C0.603365849,43.2309876 -3.42231232e-15,41.1296292 -3.77714551e-15,35.3347634 L4.4886367e-16,16.6652366 C-2.60802718e-16,10.8703708 0.603365849,8.76901239 1.73636078,6.65049606 C2.86935571,4.53197973 4.53197973,2.86935571 6.65049606,1.73636078 C8.76901239,0.603365849 10.8703708,-3.29191096e-15 16.6652366,-4.00157735e-15 Z" id="bg" fill="url(#linearGradient-1)"></path>
                <g id="icon/fluent:lock-closed-16-filled" transform="translate(13, 13)">
                    <rect id="矩形" x="0" y="0" width="26" height="26"></rect>
                    <path d="M8.125,5.6875 C8.125,2.99511184 10.3076118,0.8125 13,0.8125 C15.6923882,0.8125 17.875,2.99511184 17.875,5.6875 L17.875,6.5 L18.6875,6.5 C20.9311568,6.5 22.75,8.3188432 22.75,10.5625 L22.75,18.6875 C22.75,19.764942 22.3219878,20.7982548 21.5601213,21.5601213 C20.7982548,22.3219878 19.764942,22.75 18.6875,22.75 L7.3125,22.75 C6.23505801,22.75 5.20174524,22.3219878 4.4398787,21.5601213 C3.67801216,20.7982548 3.25,19.764942 3.25,18.6875 L3.25,10.5625 C3.25,9.48505801 3.67801216,8.45174524 4.4398787,7.6898787 C5.20174524,6.92801216 6.23505801,6.5 7.3125,6.5 L8.125,6.5 L8.125,5.6875 Z M13,2.4375 C11.2050746,2.4375 9.75,3.89257456 9.75,5.6875 L9.75,6.5 L16.25,6.5 L16.25,5.6875 C16.25,3.89257456 14.7949254,2.4375 13,2.4375 Z M13,16.25 C13.8974627,16.25 14.625,15.5224627 14.625,14.625 C14.625,13.7275373 13.8974627,13 13,13 C12.1025373,13 11.375,13.7275373 11.375,14.625 C11.375,15.5224627 12.1025373,16.25 13,16.25 Z" id="形状" fill-opacity="0.4" fill="#000000" fill-rule="nonzero"></path>
                </g>
            </g>
        </g>
    </g>
</svg>