<?xml version="1.0" encoding="UTF-8"?>
<svg width="52px" height="52px" viewBox="0 0 52 52" version="1.1" xmlns="http://www.w3.org/2000/svg" xmlns:xlink="http://www.w3.org/1999/xlink">
    <title>logo/备忘录</title>
    <defs>
        <linearGradient x1="5.77662918e-13%" y1="-1.51267887e-13%" x2="100%" y2="100%" id="linearGradient-1">
            <stop stop-color="#A8BCEE" offset="0%"></stop>
            <stop stop-color="#3363DA" offset="100%"></stop>
        </linearGradient>
    </defs>
    <g id="🆗-应用图标（1）" stroke="none" stroke-width="1" fill="none" fill-rule="evenodd">
        <g id="酷应用图标" transform="translate(-208, -736)">
            <g id="logo/备忘录" transform="translate(208, 736)">
                <path d="M16.6652366,-4.00157735e-15 L35.3347634,6.73295504e-16 C41.1296292,-3.91204078e-16 43.2309876,0.603365849 45.3495039,1.73636078 C47.4680203,2.86935571 49.1306443,4.53197973 50.2636392,6.65049606 C51.3966342,8.76901239 52,10.8703708 52,16.6652366 L52,35.3347634 C52,41.1296292 51.3966342,43.2309876 50.2636392,45.3495039 C49.1306443,47.4680203 47.4680203,49.1306443 45.3495039,50.2636392 C43.2309876,51.3966342 41.1296292,52 35.3347634,52 L16.6652366,52 C10.8703708,52 8.76901239,51.3966342 6.65049606,50.2636392 C4.53197973,49.1306443 2.86935571,47.4680203 1.73636078,45.3495039 C0.603365849,43.2309876 -3.42231232e-15,41.1296292 -3.77714551e-15,35.3347634 L4.4886367e-16,16.6652366 C-2.60802718e-16,10.8703708 0.603365849,8.76901239 1.73636078,6.65049606 C2.86935571,4.53197973 4.53197973,2.86935571 6.65049606,1.73636078 C8.76901239,0.603365849 10.8703708,-3.29191096e-15 16.6652366,-4.00157735e-15 Z" id="bg" fill="url(#linearGradient-1)"></path>
                <g id="icon/fluent:notepad-16-filled" transform="translate(13, 13)">
                    <rect id="矩形" x="0" y="0" width="26" height="26"></rect>
                    <path d="M8.125,1.625 C8.57373136,1.625 8.9375,1.98876864 8.9375,2.4375 L8.9375,3.25 L12.1875,3.25 L12.1875,2.4375 C12.1875,1.98876864 12.5512686,1.625 13,1.625 C13.4487314,1.625 13.8125,1.98876864 13.8125,2.4375 L13.8125,3.25 L17.0625,3.25 L17.0625,2.4375 C17.0625,1.98876864 17.4262686,1.625 17.875,1.625 C18.3237314,1.625 18.6875,1.98876864 18.6875,2.4375 L18.6875,3.25 C20.0336941,3.25 21.125,4.34130592 21.125,5.6875 L21.125,16.25 L15.4375,16.25 C14.0913059,16.25 13,17.3413059 13,18.6875 L13,24.375 L7.3125,24.375 C5.96630592,24.375 4.875,23.2836941 4.875,21.9375 L4.875,5.6875 C4.875,4.34130592 5.96630592,3.25 7.3125,3.25 L7.3125,2.4375 C7.3125,1.98876864 7.67626864,1.625 8.125,1.625 Z M8.9375,8.9375 C8.9375,9.38623136 9.30126864,9.75 9.75,9.75 L16.25,9.75 C16.6987314,9.75 17.0625,9.38623136 17.0625,8.9375 C17.0625,8.48876864 16.6987314,8.125 16.25,8.125 L9.75,8.125 C9.30126864,8.125 8.9375,8.48876864 8.9375,8.9375 Z M8.9375,13.8125 C8.9375,14.2612314 9.30126864,14.625 9.75,14.625 L16.25,14.625 C16.6987314,14.625 17.0625,14.2612314 17.0625,13.8125 C17.0625,13.3637686 16.6987314,13 16.25,13 L9.75,13 C9.30126864,13 8.9375,13.3637686 8.9375,13.8125 Z M8.9375,18.6875 C8.9375,19.1362314 9.30126864,19.5 9.75,19.5 L10.5625,19.5 C11.0112314,19.5 11.375,19.1362314 11.375,18.6875 C11.375,18.2387686 11.0112314,17.875 10.5625,17.875 L9.75,17.875 C9.30126864,17.875 8.9375,18.2387686 8.9375,18.6875 Z M14.625,23.87125 C14.707875,23.80625 14.7875,23.736375 14.86225,23.66 L20.411625,18.11225 C20.4861111,18.037837 20.555596,17.9585809 20.619625,17.875 L15.4375,17.875 C14.9887686,17.875 14.625,18.2387686 14.625,18.6875 L14.625,23.87125 L14.625,23.87125 Z" id="形状" fill-opacity="0.85" fill="#FFFFFF" fill-rule="nonzero"></path>
                </g>
            </g>
        </g>
    </g>
</svg>