<?xml version="1.0" encoding="UTF-8"?>
<svg width="52px" height="52px" viewBox="0 0 52 52" version="1.1" xmlns="http://www.w3.org/2000/svg" xmlns:xlink="http://www.w3.org/1999/xlink">
    <title>logo/网易云音乐</title>
    <defs>
        <linearGradient x1="5.77662918e-13%" y1="-1.51267887e-13%" x2="100%" y2="100%" id="linearGradient-1">
            <stop stop-color="#EEA8A8" offset="0%"></stop>
            <stop stop-color="#DA3333" offset="100%"></stop>
        </linearGradient>
    </defs>
    <g id="🆗-应用图标（1）" stroke="none" stroke-width="1" fill="none" fill-rule="evenodd">
        <g id="酷应用图标" transform="translate(-292, -820)">
            <g id="logo/网易云音乐" transform="translate(292, 820)">
                <path d="M16.6652366,-4.00157735e-15 L35.3347634,6.73295504e-16 C41.1296292,-3.91204078e-16 43.2309876,0.603365849 45.3495039,1.73636078 C47.4680203,2.86935571 49.1306443,4.53197973 50.2636392,6.65049606 C51.3966342,8.76901239 52,10.8703708 52,16.6652366 L52,35.3347634 C52,41.1296292 51.3966342,43.2309876 50.2636392,45.3495039 C49.1306443,47.4680203 47.4680203,49.1306443 45.3495039,50.2636392 C43.2309876,51.3966342 41.1296292,52 35.3347634,52 L16.6652366,52 C10.8703708,52 8.76901239,51.3966342 6.65049606,50.2636392 C4.53197973,49.1306443 2.86935571,47.4680203 1.73636078,45.3495039 C0.603365849,43.2309876 -3.42231232e-15,41.1296292 -3.77714551e-15,35.3347634 L4.4886367e-16,16.6652366 C-2.60802718e-16,10.8703708 0.603365849,8.76901239 1.73636078,6.65049606 C2.86935571,4.53197973 4.53197973,2.86935571 6.65049606,1.73636078 C8.76901239,0.603365849 10.8703708,-3.29191096e-15 16.6652366,-4.00157735e-15 Z" id="bg" fill="url(#linearGradient-1)"></path>
                <g id="icon/fluent:music-note-2-16-filled" transform="translate(13, 13)">
                    <rect id="矩形" x="0" y="0" width="26" height="26"></rect>
                    <path d="M19.5,8.46625 L19.5,16.6855 C18.2260973,15.9500119 16.617019,16.1618563 15.5768884,17.2020001 C14.5367578,18.2421439 14.3249338,19.851225 15.0604381,21.1251183 C15.7959423,22.3990117 17.2953751,23.0200692 18.7162217,22.6393255 C20.1370683,22.2585818 21.1250009,20.9709761 21.1250009,19.5 L21.1250009,3.12975 C21.1254973,2.70643996 20.919859,2.30939602 20.573831,2.06555947 C20.227803,1.82172292 19.7847227,1.76163247 19.38625,1.9045 L8.98625,5.61925 C8.46967651,5.80446069 8.12504145,6.29410258 8.125,6.842875 L8.125,18.308875 C6.85122801,17.5734626 5.24232942,17.7851812 4.20217575,18.8250883 C3.16202208,19.8649955 2.94992205,21.4738438 3.68503243,22.7477901 C4.42014282,24.0217364 5.91920173,24.6431878 7.34004505,24.2630159 C8.76088837,23.8828439 9.74930205,22.5958249 9.75,21.125 L9.75,11.948625 L19.5,8.467875 L19.5,8.46625 Z" id="路径" fill-opacity="0.85" fill="#FFFFFF" fill-rule="nonzero"></path>
                </g>
            </g>
        </g>
    </g>
</svg>