<?xml version="1.0" encoding="UTF-8"?>
<svg width="52px" height="52px" viewBox="0 0 52 52" version="1.1" xmlns="http://www.w3.org/2000/svg" xmlns:xlink="http://www.w3.org/1999/xlink">
    <title>logo/电源控制</title>
    <defs>
        <linearGradient x1="50%" y1="-1.99840144e-13%" x2="50%" y2="100%" id="linearGradient-1">
            <stop stop-color="#D2E1E8" offset="0%"></stop>
            <stop stop-color="#92928F" offset="100%"></stop>
        </linearGradient>
    </defs>
    <g id="🆗-应用图标（1）" stroke="none" stroke-width="1" fill="none" fill-rule="evenodd">
        <g id="酷应用图标" transform="translate(-292, -988)">
            <g id="logo/电源控制" transform="translate(292, 988)">
                <path d="M16.6652366,-4.00157735e-15 L35.3347634,6.73295504e-16 C41.1296292,-3.91204078e-16 43.2309876,0.603365849 45.3495039,1.73636078 C47.4680203,2.86935571 49.1306443,4.53197973 50.2636392,6.65049606 C51.3966342,8.76901239 52,10.8703708 52,16.6652366 L52,35.3347634 C52,41.1296292 51.3966342,43.2309876 50.2636392,45.3495039 C49.1306443,47.4680203 47.4680203,49.1306443 45.3495039,50.2636392 C43.2309876,51.3966342 41.1296292,52 35.3347634,52 L16.6652366,52 C10.8703708,52 8.76901239,51.3966342 6.65049606,50.2636392 C4.53197973,49.1306443 2.86935571,47.4680203 1.73636078,45.3495039 C0.603365849,43.2309876 -3.42231232e-15,41.1296292 -3.77714551e-15,35.3347634 L4.4886367e-16,16.6652366 C-2.60802718e-16,10.8703708 0.603365849,8.76901239 1.73636078,6.65049606 C2.86935571,4.53197973 4.53197973,2.86935571 6.65049606,1.73636078 C8.76901239,0.603365849 10.8703708,-3.29191096e-15 16.6652366,-4.00157735e-15 Z" id="bg" fill="url(#linearGradient-1)"></path>
                <g id="icon/fluent:power-20-filled" transform="translate(13, 13)">
                    <rect id="矩形" x="0" y="0" width="26" height="26"></rect>
                    <path d="M13.975,3.25 C13.975,2.71152237 13.5384776,2.275 13,2.275 C12.4615224,2.275 12.025,2.71152237 12.025,3.25 L12.025,11.05 C12.025,11.5884776 12.4615224,12.025 13,12.025 C13.5384776,12.025 13.975,11.5884776 13.975,11.05 L13.975,3.25 Z M17.8659,5.2 C17.5636252,5.02004975 17.187852,5.01688449 16.8825887,5.19171726 C16.5773254,5.36655002 16.3899126,5.69226754 16.3921727,6.04404455 C16.3944328,6.39582156 16.5860154,6.71910407 16.8935,6.89 C19.9537731,8.65148834 21.449002,12.2491278 20.5387716,15.6608126 C19.6285412,19.0724973 16.5399111,21.4471727 13.0088908,21.4501177 C9.47787062,21.4530626 6.38528369,19.0835426 5.46936366,15.6733809 C4.55344362,12.2632191 6.04266944,8.6630906 9.1,6.8965 C9.40188943,6.72233303 9.58792979,6.40034001 9.58804148,6.05181261 C9.58815317,5.70328521 9.40231922,5.38117302 9.10054148,5.2068126 C8.79876374,5.03245218 8.42688942,5.03233302 8.125,5.2065 C4.30216101,7.41291196 2.43843039,11.9123089 3.58138558,16.1756416 C4.72434077,20.4389742 8.588854,23.4026885 13.0027353,23.4009221 C17.4166167,23.3991541 21.2787555,20.4323462 22.4182965,16.1680998 C23.5578374,11.9038533 21.6905045,7.40595012 17.8659,5.2026 L17.8659,5.2 Z" id="形状" fill-opacity="0.4" fill="#000000" fill-rule="nonzero"></path>
                </g>
            </g>
        </g>
    </g>
</svg>