<?xml version="1.0" encoding="UTF-8"?>
<svg width="52px" height="52px" viewBox="0 0 52 52" version="1.1" xmlns="http://www.w3.org/2000/svg" xmlns:xlink="http://www.w3.org/1999/xlink">
    <title>logo/设置中心</title>
    <defs>
        <linearGradient x1="50%" y1="-1.99840144e-13%" x2="50%" y2="100%" id="linearGradient-1">
            <stop stop-color="#D2E1E8" offset="0%"></stop>
            <stop stop-color="#92928F" offset="100%"></stop>
        </linearGradient>
    </defs>
    <g id="🆗-应用图标（1）" stroke="none" stroke-width="1" fill="none" fill-rule="evenodd">
        <g id="酷应用图标" transform="translate(-376, -988)">
            <g id="logo/设置中心" transform="translate(376, 988)">
                <path d="M16.6652366,-4.00157735e-15 L35.3347634,6.73295504e-16 C41.1296292,-3.91204078e-16 43.2309876,0.603365849 45.3495039,1.73636078 C47.4680203,2.86935571 49.1306443,4.53197973 50.2636392,6.65049606 C51.3966342,8.76901239 52,10.8703708 52,16.6652366 L52,35.3347634 C52,41.1296292 51.3966342,43.2309876 50.2636392,45.3495039 C49.1306443,47.4680203 47.4680203,49.1306443 45.3495039,50.2636392 C43.2309876,51.3966342 41.1296292,52 35.3347634,52 L16.6652366,52 C10.8703708,52 8.76901239,51.3966342 6.65049606,50.2636392 C4.53197973,49.1306443 2.86935571,47.4680203 1.73636078,45.3495039 C0.603365849,43.2309876 -3.42231232e-15,41.1296292 -3.77714551e-15,35.3347634 L4.4886367e-16,16.6652366 C-2.60802718e-16,10.8703708 0.603365849,8.76901239 1.73636078,6.65049606 C2.86935571,4.53197973 4.53197973,2.86935571 6.65049606,1.73636078 C8.76901239,0.603365849 10.8703708,-3.29191096e-15 16.6652366,-4.00157735e-15 Z" id="bg" fill="url(#linearGradient-1)"></path>
                <g id="icon/fluent:settings-16-filled" transform="translate(13, 13)">
                    <rect id="矩形" x="0" y="0" width="26" height="26"></rect>
                    <path d="M3.683875,9.998625 C4.11040027,8.68960397 4.80994307,7.48603588 5.73625,6.4675 C5.8930798,6.2955316 6.1378872,6.23465018 6.357,6.313125 L8.567,7.099625 C8.88469473,7.2122462 9.23575188,7.18030675 9.52790585,7.01220104 C9.82005983,6.84409533 10.0240908,6.55663646 10.086375,6.225375 L10.508875,3.924375 C10.5510177,3.69566625 10.7267234,3.51483044 10.954125,3.466125 C12.3041055,3.17975732 13.6991445,3.17975732 15.049125,3.466125 C15.276625,3.514875 15.452125,3.69525 15.494375,3.924375 L15.916875,6.225375 C15.9781325,6.55721389 16.1819847,6.84542917 16.4744677,7.0137242 C16.7669507,7.18201924 17.118572,7.213424 17.43625,7.099625 L19.64625,6.313125 C19.8653628,6.23465018 20.1101702,6.2955316 20.267,6.4675 C21.1925633,7.48630317 21.8915249,8.68982421 22.31775,9.998625 C22.3896872,10.2200114 22.3202876,10.46291 22.14225,10.612875 L20.3515,12.12575 C20.0934357,12.3428068 19.9444532,12.6627896 19.9444532,13 C19.9444532,13.3372104 20.0934357,13.6571932 20.3515,13.87425 L22.14225,15.387125 C22.321,15.53825 22.38925,15.780375 22.31775,16.001375 C21.8917514,17.310277 21.1927635,18.5138434 20.267,19.5325 C20.1101702,19.7044684 19.8653628,19.7653498 19.64625,19.686875 L17.43625,18.900375 C17.1185553,18.7877538 16.7674981,18.8196933 16.4753441,18.987799 C16.1831902,19.1559047 15.9791592,19.4433635 15.916875,19.774625 L15.494375,22.075625 C15.4524074,22.3050075 15.2757554,22.4861562 15.0475,22.533875 C13.6980632,22.8202057 12.3035618,22.8202057 10.954125,22.533875 C10.7260924,22.4857508 10.5496283,22.304795 10.50725,22.075625 L10.086375,19.774625 C10.0251175,19.4427861 9.82126529,19.1545708 9.52878228,18.9862758 C9.23629928,18.8179808 8.884678,18.786576 8.567,18.900375 L6.357,19.686875 C6.1378872,19.7653498 5.8930798,19.7044684 5.73625,19.5325 C4.81052657,18.513814 4.11154394,17.3102568 3.6855,16.001375 C3.61356279,15.7799886 3.68296239,15.53709 3.861,15.387125 L5.65175,13.87425 C5.90929856,13.656884 6.05789979,13.3370152 6.05789979,13 C6.05789979,12.6629848 5.90929856,12.343116 5.65175,12.12575 L3.861,10.612875 C3.68296239,10.46291 3.61356279,10.2200114 3.6855,9.998625 L3.683875,9.998625 Z M10.15625,13 C10.15625,14.5705598 11.4294402,15.84375 13,15.84375 C14.5705598,15.84375 15.84375,14.5705598 15.84375,13 C15.84375,11.4294402 14.5705598,10.15625 13,10.15625 C11.4294402,10.15625 10.15625,11.4294402 10.15625,13 Z" id="形状" fill-opacity="0.4" fill="#000000" fill-rule="nonzero"></path>
                </g>
            </g>
        </g>
    </g>
</svg>