<?xml version="1.0" encoding="UTF-8"?>
<svg width="52px" height="52px" viewBox="0 0 52 52" version="1.1" xmlns="http://www.w3.org/2000/svg" xmlns:xlink="http://www.w3.org/1999/xlink">
    <title>logo/快捷键</title>
    <defs>
        <linearGradient x1="5.77662918e-13%" y1="-1.51267887e-13%" x2="100%" y2="100%" id="linearGradient-1">
            <stop stop-color="#A8E3EE" offset="0%"></stop>
            <stop stop-color="#3A83D6" offset="100%"></stop>
        </linearGradient>
    </defs>
    <g id="🆗-应用图标（1）" stroke="none" stroke-width="1" fill="none" fill-rule="evenodd">
        <g id="酷应用图标" transform="translate(-124, -736)">
            <g id="logo/快捷键" transform="translate(124, 736)">
                <path d="M16.6652366,-4.00157735e-15 L35.3347634,6.73295504e-16 C41.1296292,-3.91204078e-16 43.2309876,0.603365849 45.3495039,1.73636078 C47.4680203,2.86935571 49.1306443,4.53197973 50.2636392,6.65049606 C51.3966342,8.76901239 52,10.8703708 52,16.6652366 L52,35.3347634 C52,41.1296292 51.3966342,43.2309876 50.2636392,45.3495039 C49.1306443,47.4680203 47.4680203,49.1306443 45.3495039,50.2636392 C43.2309876,51.3966342 41.1296292,52 35.3347634,52 L16.6652366,52 C10.8703708,52 8.76901239,51.3966342 6.65049606,50.2636392 C4.53197973,49.1306443 2.86935571,47.4680203 1.73636078,45.3495039 C0.603365849,43.2309876 -3.42231232e-15,41.1296292 -3.77714551e-15,35.3347634 L4.4886367e-16,16.6652366 C-2.60802718e-16,10.8703708 0.603365849,8.76901239 1.73636078,6.65049606 C2.86935571,4.53197973 4.53197973,2.86935571 6.65049606,1.73636078 C8.76901239,0.603365849 10.8703708,-3.29191096e-15 16.6652366,-4.00157735e-15 Z" id="bg" fill="url(#linearGradient-1)"></path>
                <g id="fluent:keyboard-16-filled" transform="translate(13, 13)">
                    <rect id="矩形" x="0" y="0" width="26" height="26"></rect>
                    <path d="M4.46875,4.875 C2.89819024,4.875 1.625,6.14819024 1.625,7.71875 L1.625,18.28125 C1.625,19.851 2.899,21.125 4.46875,21.125 L21.53125,21.125 C23.1018098,21.125 24.375,19.8518098 24.375,18.28125 L24.375,7.71875 C24.375,6.14819024 23.1018098,4.875 21.53125,4.875 L4.46875,4.875 L4.46875,4.875 Z M4.875,17.0625 C4.875,16.6137686 5.23876864,16.25 5.6875,16.25 L20.3125,16.25 C20.7612314,16.25 21.125,16.6137686 21.125,17.0625 C21.125,17.5112314 20.7612314,17.875 20.3125,17.875 L5.6875,17.875 C5.23876864,17.875 4.875,17.5112314 4.875,17.0625 Z M5.28125,11.375 C4.84583255,11.375 4.44349024,11.1427076 4.22578151,10.765625 C4.00807278,10.3885424 4.00807278,9.92395756 4.22578151,9.54687499 C4.44349024,9.16979242 4.84583255,8.9375 5.28125,8.9375 C5.95434704,8.9375 6.5,9.48315296 6.5,10.15625 C6.5,10.829347 5.95434704,11.375 5.28125,11.375 L5.28125,11.375 Z M16.25,10.15625 C16.25,10.829347 15.704347,11.375 15.03125,11.375 C14.358153,11.375 13.8125,10.829347 13.8125,10.15625 C13.8125,9.48315296 14.358153,8.9375 15.03125,8.9375 C15.704347,8.9375 16.25,9.48315296 16.25,10.15625 L16.25,10.15625 Z M10.15625,11.375 C9.72083255,11.375 9.31849024,11.1427076 9.10078151,10.765625 C8.88307278,10.3885424 8.88307278,9.92395756 9.10078151,9.54687499 C9.31849024,9.16979242 9.72083255,8.9375 10.15625,8.9375 C10.829347,8.9375 11.375,9.48315296 11.375,10.15625 C11.375,10.829347 10.829347,11.375 10.15625,11.375 L10.15625,11.375 Z M21.125,10.15625 C21.125,10.829347 20.579347,11.375 19.90625,11.375 C19.233153,11.375 18.6875,10.829347 18.6875,10.15625 C18.6875,9.48315296 19.233153,8.9375 19.90625,8.9375 C20.579347,8.9375 21.125,9.48315296 21.125,10.15625 L21.125,10.15625 Z M8.53125,14.625 C7.85815296,14.625 7.3125,14.079347 7.3125,13.40625 C7.3125,12.733153 7.85815296,12.1875 8.53125,12.1875 C9.20434704,12.1875 9.75,12.733153 9.75,13.40625 C9.75,14.079347 9.20434704,14.625 8.53125,14.625 Z M14.625,13.40625 C14.625,14.079347 14.079347,14.625 13.40625,14.625 C12.733153,14.625 12.1875,14.079347 12.1875,13.40625 C12.1875,12.733153 12.733153,12.1875 13.40625,12.1875 C14.079347,12.1875 14.625,12.733153 14.625,13.40625 Z M18.28125,14.625 C17.608153,14.625 17.0625,14.079347 17.0625,13.40625 C17.0625,12.733153 17.608153,12.1875 18.28125,12.1875 C18.954347,12.1875 19.5,12.733153 19.5,13.40625 C19.5,14.079347 18.954347,14.625 18.28125,14.625 Z" id="形状" fill-opacity="0.85" fill="#FFFFFF" fill-rule="nonzero"></path>
                </g>
            </g>
        </g>
    </g>
</svg>