<?xml version="1.0" encoding="UTF-8"?>
<svg width="52px" height="52px" viewBox="0 0 52 52" version="1.1" xmlns="http://www.w3.org/2000/svg" xmlns:xlink="http://www.w3.org/1999/xlink">
    <title>logo/待办事项</title>
    <defs>
        <linearGradient x1="5.77662918e-13%" y1="-1.51267887e-13%" x2="100%" y2="100%" id="linearGradient-1">
            <stop stop-color="#C0EEA8" offset="0%"></stop>
            <stop stop-color="#DAAD33" offset="100%"></stop>
        </linearGradient>
    </defs>
    <g id="🆗-应用图标（1）" stroke="none" stroke-width="1" fill="none" fill-rule="evenodd">
        <g id="酷应用图标" transform="translate(-376, -652)">
            <g id="logo/待办事项" transform="translate(376, 652)">
                <path d="M16.6652366,-4.00157735e-15 L35.3347634,6.73295504e-16 C41.1296292,-3.91204078e-16 43.2309876,0.603365849 45.3495039,1.73636078 C47.4680203,2.86935571 49.1306443,4.53197973 50.2636392,6.65049606 C51.3966342,8.76901239 52,10.8703708 52,16.6652366 L52,35.3347634 C52,41.1296292 51.3966342,43.2309876 50.2636392,45.3495039 C49.1306443,47.4680203 47.4680203,49.1306443 45.3495039,50.2636392 C43.2309876,51.3966342 41.1296292,52 35.3347634,52 L16.6652366,52 C10.8703708,52 8.76901239,51.3966342 6.65049606,50.2636392 C4.53197973,49.1306443 2.86935571,47.4680203 1.73636078,45.3495039 C0.603365849,43.2309876 -3.42231232e-15,41.1296292 -3.77714551e-15,35.3347634 L4.4886367e-16,16.6652366 C-2.60802718e-16,10.8703708 0.603365849,8.76901239 1.73636078,6.65049606 C2.86935571,4.53197973 4.53197973,2.86935571 6.65049606,1.73636078 C8.76901239,0.603365849 10.8703708,-3.29191096e-15 16.6652366,-4.00157735e-15 Z" id="bg" fill="url(#linearGradient-1)"></path>
                <g id="icon/fluent:checkmark-square-24-filled" transform="translate(13, 13)">
                    <rect id="矩形" x="0" y="0" width="26" height="26"></rect>
                    <path d="M6.77083333,3.25 C4.82633078,3.25 3.25,4.82633078 3.25,6.77083333 L3.25,19.2291667 C3.25,21.1736692 4.82633078,22.75 6.77083333,22.75 L19.2291667,22.75 C21.1736692,22.75 22.75,21.1736692 22.75,19.2291667 L22.75,6.77083333 C22.75,4.82633078 21.1736692,3.25 19.2291667,3.25 L6.77083333,3.25 Z M17.6366667,10.595 L12.22,16.0116667 C11.902781,16.3284912 11.3888857,16.3284912 11.0716667,16.0116667 L8.90066667,13.8406667 C8.68329239,13.6381152 8.59381339,13.3330648 8.66733233,13.045187 C8.74085127,12.7573092 8.96564254,12.5325179 9.25352035,12.458999 C9.54139816,12.3854801 9.84644854,12.4749591 10.049,12.6923333 L11.6458333,14.2880833 L16.4883333,9.44558333 C16.6924314,9.23446701 16.9945605,9.14990312 17.278598,9.22439364 C17.5626354,9.29888415 17.7843788,9.5208367 17.8586014,9.80494428 C17.9328241,10.0890519 17.8479754,10.3911011 17.6366667,10.595 Z" id="形状" fill-opacity="0.85" fill="#FFFFFF" fill-rule="nonzero"></path>
                </g>
            </g>
        </g>
    </g>
</svg>