<?xml version="1.0" encoding="UTF-8"?>
<svg width="52px" height="52px" viewBox="0 0 52 52" version="1.1" xmlns="http://www.w3.org/2000/svg" xmlns:xlink="http://www.w3.org/1999/xlink">
    <title>logo/番茄时间</title>
    <defs>
        <linearGradient x1="5.77662918e-13%" y1="-1.51267887e-13%" x2="100%" y2="100%" id="linearGradient-1">
            <stop stop-color="#EEA8E4" offset="0%"></stop>
            <stop stop-color="#A033DA" offset="100%"></stop>
        </linearGradient>
    </defs>
    <g id="🆗-应用图标（1）" stroke="none" stroke-width="1" fill="none" fill-rule="evenodd">
        <g id="酷应用图标" transform="translate(-292, -736)">
            <g id="logo/番茄时间" transform="translate(292, 736)">
                <path d="M16.6652366,-4.00157735e-15 L35.3347634,6.73295504e-16 C41.1296292,-3.91204078e-16 43.2309876,0.603365849 45.3495039,1.73636078 C47.4680203,2.86935571 49.1306443,4.53197973 50.2636392,6.65049606 C51.3966342,8.76901239 52,10.8703708 52,16.6652366 L52,35.3347634 C52,41.1296292 51.3966342,43.2309876 50.2636392,45.3495039 C49.1306443,47.4680203 47.4680203,49.1306443 45.3495039,50.2636392 C43.2309876,51.3966342 41.1296292,52 35.3347634,52 L16.6652366,52 C10.8703708,52 8.76901239,51.3966342 6.65049606,50.2636392 C4.53197973,49.1306443 2.86935571,47.4680203 1.73636078,45.3495039 C0.603365849,43.2309876 -3.42231232e-15,41.1296292 -3.77714551e-15,35.3347634 L4.4886367e-16,16.6652366 C-2.60802718e-16,10.8703708 0.603365849,8.76901239 1.73636078,6.65049606 C2.86935571,4.53197973 4.53197973,2.86935571 6.65049606,1.73636078 C8.76901239,0.603365849 10.8703708,-3.29191096e-15 16.6652366,-4.00157735e-15 Z" id="bg" fill="url(#linearGradient-1)"></path>
                <g id="icon/fluent:clock-16-filled" transform="translate(13, 13)">
                    <rect id="矩形" x="0" y="0" width="26" height="26"></rect>
                    <path d="M13,3.25 C16.4833395,3.25 19.702078,5.10833944 21.4437478,8.12499996 C23.1854176,11.1416605 23.1854176,14.8583395 21.4437478,17.875 C19.702078,20.8916606 16.4833395,22.75 13,22.75 C7.61522375,22.75 3.25000015,18.3847763 3.25000015,13 C3.25000015,7.61522375 7.61522375,3.25 13,3.25 Z M12.19075,8.125 C11.7420186,8.125 11.37825,8.48876864 11.37825,8.9375 L11.37825,13.8125 C11.37825,14.2612314 11.7420186,14.625 12.19075,14.625 L15.4375,14.625 C15.8862314,14.625 16.25,14.2612314 16.25,13.8125 C16.25,13.3637686 15.8862314,13 15.4375,13 L13.00325,13 L13.00325,8.9375 C13.00325,8.48876864 12.6394814,8.125 12.19075,8.125 Z" id="形状" fill-opacity="0.85" fill="#FFFFFF" fill-rule="nonzero"></path>
                </g>
            </g>
        </g>
    </g>
</svg>