<?xml version="1.0" encoding="UTF-8"?>
<svg width="52px" height="52px" viewBox="0 0 52 52" version="1.1" xmlns="http://www.w3.org/2000/svg" xmlns:xlink="http://www.w3.org/1999/xlink">
    <title>logo/壁纸</title>
    <defs>
        <linearGradient x1="5.77662918e-13%" y1="-1.51267887e-13%" x2="100%" y2="100%" id="linearGradient-1">
            <stop stop-color="#E8EEA8" offset="0%"></stop>
            <stop stop-color="#DA6F33" offset="100%"></stop>
        </linearGradient>
    </defs>
    <g id="🆗-应用图标（1）" stroke="none" stroke-width="1" fill="none" fill-rule="evenodd">
        <g id="酷应用图标" transform="translate(-376, -820)">
            <g id="logo/壁纸" transform="translate(376, 820)">
                <path d="M16.6652366,-4.00157735e-15 L35.3347634,6.73295504e-16 C41.1296292,-3.91204078e-16 43.2309876,0.603365849 45.3495039,1.73636078 C47.4680203,2.86935571 49.1306443,4.53197973 50.2636392,6.65049606 C51.3966342,8.76901239 52,10.8703708 52,16.6652366 L52,35.3347634 C52,41.1296292 51.3966342,43.2309876 50.2636392,45.3495039 C49.1306443,47.4680203 47.4680203,49.1306443 45.3495039,50.2636392 C43.2309876,51.3966342 41.1296292,52 35.3347634,52 L16.6652366,52 C10.8703708,52 8.76901239,51.3966342 6.65049606,50.2636392 C4.53197973,49.1306443 2.86935571,47.4680203 1.73636078,45.3495039 C0.603365849,43.2309876 -3.42231232e-15,41.1296292 -3.77714551e-15,35.3347634 L4.4886367e-16,16.6652366 C-2.60802718e-16,10.8703708 0.603365849,8.76901239 1.73636078,6.65049606 C2.86935571,4.53197973 4.53197973,2.86935571 6.65049606,1.73636078 C8.76901239,0.603365849 10.8703708,-3.29191096e-15 16.6652366,-4.00157735e-15 Z" id="bg" fill="url(#linearGradient-1)"></path>
                <g id="icon/fluent:image-multiple-16-filled" transform="translate(13, 13)">
                    <rect id="矩形" x="0" y="0" width="26" height="26"></rect>
                    <path d="M7.3125,3.25 C5.0688432,3.25 3.25,5.0688432 3.25,7.3125 L3.25,15.4375 C3.25,16.26625 3.497,17.034875 3.92275,17.67675 L9.410375,12.19075 C10.4954876,11.1059112 12.2545124,11.1059112 13.339625,12.19075 L18.82725,17.678375 C19.2672777,17.0139638 19.5013136,16.2344096 19.5000055,15.4375 L19.5000055,7.3125 C19.5000055,6.23505801 19.0719878,5.20174524 18.3101213,4.4398787 C17.5482548,3.67801216 16.514942,3.25 15.4375,3.25 L7.3125,3.25 Z M16.25,8.125 C16.25,9.02246272 15.5224627,9.75 14.625,9.75 C13.7275373,9.75 13,9.02246272 13,8.125 C13,7.22753728 13.7275373,6.5 14.625,6.5 C15.5224627,6.5 16.25,7.22753728 16.25,8.125 Z M17.678375,18.82725 L12.19075,13.339625 C11.7401996,12.8891569 11.0098004,12.8891569 10.55925,13.339625 L5.07,18.82725 C5.711875,19.251375 6.48375,19.5 7.310875,19.5 L15.435875,19.5 C16.264625,19.5 17.03325,19.253 17.67675,18.82725 L17.678375,18.82725 Z M8.123375,21.125 C8.89059593,22.1479612 10.0946735,22.7500002 11.373375,22.7500002 L15.435875,22.7500002 C17.3755521,22.750431 19.2359326,21.9801994 20.6076438,20.6087929 C21.9793551,19.2373865 22.75,17.3771772 22.75,15.4375 L22.75,9.75 C22.75,8.42075 22.113,7.241 21.125,6.5 L21.125,15.4375 C21.125,18.5786195 18.5786195,21.125 15.4375,21.125 L8.125,21.125 L8.123375,21.125 Z" id="形状" fill-opacity="0.85" fill="#FFFFFF" fill-rule="nonzero"></path>
                </g>
            </g>
        </g>
    </g>
</svg>