<?xml version="1.0" standalone="no"?><!DOCTYPE svg PUBLIC "-//W3C//DTD SVG 1.1//EN" "http://www.w3.org/Graphics/SVG/1.1/DTD/svg11.dtd"><svg t="1661263114317" class="icon" viewBox="0 0 1024 1024" version="1.1" xmlns="http://www.w3.org/2000/svg" p-id="1091" xmlns:xlink="http://www.w3.org/1999/xlink" width="128" height="128"><defs><style type="text/css">@font-face { font-family: feedback-iconfont; src: url("//at.alicdn.com/t/font_1031158_u69w8yhxdu.woff2?t=1630033759944") format("woff2"), url("//at.alicdn.com/t/font_1031158_u69w8yhxdu.woff?t=1630033759944") format("woff"), url("//at.alicdn.com/t/font_1031158_u69w8yhxdu.ttf?t=1630033759944") format("truetype"); }
</style></defs><path d="M512 512m-432.3328 0a432.3328 432.3328 0 1 0 864.6656 0 432.3328 432.3328 0 1 0-864.6656 0Z" fill="#F66755" p-id="1092"></path><path d="M287.0272 417.8432c-85.0432 0-160.4096 41.3696-207.104 105.0624 4.5568 182.7328 122.368 337.3056 285.952 396.032 103.2192-33.28 177.92-130.048 177.92-244.3776 0-141.7728-114.944-256.7168-256.768-256.7168z" fill="#FF7D73" p-id="1093"></path><path d="M455.3728 240.4352c-3.072 42.8544-20.2752 135.4752-104.9088 233.7792 2.816-25.1904 0.4608-45.6192-3.84-61.4912-3.7888-13.9776-23.4496-14.1824-27.1872-0.2048-5.632 21.1456-16.7936 50.2784-38.5536 87.6544-43.4176 74.752-51.2512 204.1856 108.7488 277.4528 67.2256 30.7712 144.6912 32.512 212.7872 3.7888 190.3104-80.2304 150.528-261.12 137.5232-298.5984-13.2096-40.0384-52.3264-104.7552-91.9552-143.9744-6.7584-6.7072-18.1248-1.5872-17.6128 7.8848 1.8944 33.6896-4.096 63.3856-18.8928 81.9712-1.1264-33.0752-9.3696-136.0896-131.9936-201.6256-10.496-5.5808-23.296 1.4336-24.1152 13.3632z" fill="#FFFFFF" p-id="1094"></path><path d="M437.8624 526.5408c-5.632-5.632-15.2576-2.2528-16.0256 5.632-1.8432 18.7392-8.192 48.9984-29.1328 76.288-33.28 43.4176-39.8336 154.624 101.6832 189.44 151.6544-24.1152 137.9328-166.0416 122.7776-208.4352-11.008-30.8224-48.4352-80.5376-123.7504-122.368-6.9632-3.8912-15.3088 2.048-13.824 9.8816 7.5264 40.2944 3.5328 91.6992-20.8896 123.1872 2.7648-36.1984-4.9152-57.6512-20.8384-73.6256z" fill="#FFCAC7" p-id="1095"></path></svg>