<svg xmlns="http://www.w3.org/2000/svg" xmlns:xlink="http://www.w3.org/1999/xlink" width="119.755" height="133" viewBox="0 0 119.755 133">
  <defs>
    <linearGradient id="linear-gradient" x1="-0.269" y1="0.015" x2="0.966" y2="0.831" gradientUnits="objectBoundingBox">
      <stop offset="0" stop-color="#d8d8d8"/>
      <stop offset="1"/>
    </linearGradient>
  </defs>
  <g id="组_4" data-name="组 4" transform="translate(-857 -218)">
    <path id="路径_5" data-name="路径 5" d="M916.341,287.768l-51.38-32.112-1.036,58.424,53.451,32.527v-2.072Z" fill="rgba(112,112,112,0.3)"/>
    <path id="路径_4" data-name="路径 4" d="M918.62,285.9l53.7-28.59,1.284,57.388L918.62,345.984Z" transform="translate(-1.742)" fill="rgba(93,93,93,0.56)"/>
    <path id="路径_2" data-name="路径 2" d="M115.347,23.623a17.065,17.065,0,0,1,17.065,0l42.811,24.716a17.065,17.065,0,0,1,8.533,14.781v49.432a17.066,17.066,0,0,1-8.535,14.783L132.412,152.05a17.065,17.065,0,0,1-17.065,0L72.533,127.337A17.065,17.065,0,0,1,64,112.558V63.118a17.066,17.066,0,0,1,8.535-14.782Zm11.377,9.852a5.688,5.688,0,0,0-5.688,0L83.95,54.884l-5.729,3.307a5.688,5.688,0,0,0-2.844,4.929v49.432a5.688,5.688,0,0,0,2.844,4.929L121.035,142.2a5.688,5.688,0,0,0,5.688,0l42.811-24.716a5.688,5.688,0,0,0,2.844-4.926V63.118a5.688,5.688,0,0,0-2.844-4.926Z" transform="translate(793 196.663)" fill="url(#linear-gradient)"/>
    <path id="路径_3" data-name="路径 3" d="M97.761,67.136l.4.2,25.717,14.022L149.6,67.336a5.688,5.688,0,0,1,5.831,9.758l-.384.228L140.024,85.51l-10.459,5.7v30.754a5.688,5.688,0,0,1-11.36.427l-.014-.427,0-30.754L92.712,77.324a5.688,5.688,0,0,1,5.048-10.188Z" transform="translate(793.015 197.663)" fill="#2c40c1"/>
  </g>
</svg>
