<?xml version="1.0" standalone="no"?><!DOCTYPE svg PUBLIC "-//W3C//DTD SVG 1.1//EN" "http://www.w3.org/Graphics/SVG/1.1/DTD/svg11.dtd"><svg t="1636189776287" class="icon" viewBox="0 0 1024 1024" version="1.1" xmlns="http://www.w3.org/2000/svg" p-id="20839" xmlns:xlink="http://www.w3.org/1999/xlink" width="200" height="200"><defs><style type="text/css"></style></defs><path d="M512 512m-448 0a448 448 0 1 0 896 0 448 448 0 1 0-896 0Z" fill="#2264E9" p-id="20840"></path><path d="M512 512m-256 0a256 256 0 1 0 512 0 256 256 0 1 0-512 0Z" fill="#FFFFFF" p-id="20841"></path><path d="M364.922 364.922l217.082 77.074 77.074 217.082-217.082-77.074z" fill="#F3F5F6" p-id="20842"></path><path d="M582.464 442.457L659.54 659.54l-217.082-77.075z" fill="#E1E8F3" p-id="20843"></path><path d="M364.46 364.46l217.083 77.076-140.007 140.007z" fill="#C4CFE2" p-id="20844"></path><path d="M512 512m-48 0a48 48 0 1 0 96 0 48 48 0 1 0-96 0Z" fill="#FFFFFF" p-id="20845"></path></svg>