<?xml version="1.0" standalone="no"?><!DOCTYPE svg PUBLIC "-//W3C//DTD SVG 1.1//EN" "http://www.w3.org/Graphics/SVG/1.1/DTD/svg11.dtd"><svg t="1635410071497" class="icon" viewBox="0 0 1024 1024" version="1.1" xmlns="http://www.w3.org/2000/svg" p-id="4074" xmlns:xlink="http://www.w3.org/1999/xlink" width="200" height="200"><defs><style type="text/css"></style></defs><path d="M896.9216 510.4128c26.7264-26.0608 36.1472-64.256 24.6272-99.7376s-41.6256-60.8256-78.5408-66.2016l-144.4352-20.992a46.21824 46.21824 0 0 1-34.7136-25.1904l-64.6144-130.9184c-16.4864-33.4336-49.92-54.2208-87.2448-54.2208-37.2736 0-70.7072 20.7872-87.2448 54.2208L360.1408 298.2912a45.89056 45.89056 0 0 1-34.7136 25.1904l-144.4352 20.992c-36.9152 5.376-67.0208 30.72-78.5408 66.2016s-2.0992 73.6768 24.6272 99.7376l104.5504 101.888a46.1568 46.1568 0 0 1 13.2608 40.8064l-24.6784 143.872c-6.2976 36.7616 8.4992 73.216 38.7072 95.1296 30.208 21.9648 69.4272 24.7808 102.4512 7.424l129.2288-67.9424a46.07488 46.07488 0 0 1 42.9056 0l129.2288 67.9424c14.336 7.5264 29.9008 11.264 45.3632 11.264 20.0704 0 40.0384-6.2976 57.088-18.688 30.1568-21.9136 45.0048-58.368 38.7072-95.1296l-24.6784-143.872c-2.56-14.9504 2.4064-30.208 13.2608-40.8064l104.448-101.888z m-228.8128 157.696c-41.6768 41.6768-97.1264 64.6656-156.1088 64.6656s-114.3808-22.9376-156.1088-64.6656a25.61536 25.61536 0 0 1 0-36.1984 25.61536 25.61536 0 0 1 36.1984 0c32.0512 32 74.5984 49.664 119.9104 49.664s87.8592-17.6128 119.9104-49.664a25.61536 25.61536 0 0 1 36.1984 0 25.61536 25.61536 0 0 1 0 36.1984z" fill="#9fc6ff" p-id="4075"></path></svg>