<?xml version="1.0" standalone="no"?><!DOCTYPE svg PUBLIC "-//W3C//DTD SVG 1.1//EN" "http://www.w3.org/Graphics/SVG/1.1/DTD/svg11.dtd"><svg t="1632571034663" class="icon" viewBox="0 0 1024 1024" version="1.1" xmlns="http://www.w3.org/2000/svg" p-id="6101" width="32" height="32" xmlns:xlink="http://www.w3.org/1999/xlink"><defs><style type="text/css"></style></defs><path d="M924.43 424.54h-73.14A315.87 315.87 0 0 0 812.08 330l51.7-51.7a18.46 18.46 0 0 0 0-26l-77.66-77.66a18.46 18.46 0 0 0-26 0l-51.7 51.7a317.65 317.65 0 0 0-94.68-39.21v-73a18.48 18.48 0 0 0-18.42-18.42H485.59a18.48 18.48 0 0 0-18.42 18.42v73.14a315.87 315.87 0 0 0-94.58 39.21l-51.7-51.7a18.46 18.46 0 0 0-26 0l-77.63 77.62a18.46 18.46 0 0 0 0 26l51.7 51.7a315.87 315.87 0 0 0-39.21 94.58h-73.13a18.48 18.48 0 0 0-18.42 18.42v109.73a18.48 18.48 0 0 0 18.42 18.42h73a317.65 317.65 0 0 0 39.21 94.68l-51.6 51.6a18.46 18.46 0 0 0 0 26l77.66 77.66a18.46 18.46 0 0 0 26 0l51.6-51.7a317.34 317.34 0 0 0 94.79 39.32v72.92a18.48 18.48 0 0 0 18.42 18.42h109.76a18.48 18.48 0 0 0 18.42-18.42v-73a315.09 315.09 0 0 0 94.68-39.32l51.6 51.6a18.46 18.46 0 0 0 26 0l77.66-77.66a18.46 18.46 0 0 0 0-26l-51.7-51.6A317.65 317.65 0 0 0 851.29 571h72.92a18.48 18.48 0 0 0 18.42-18.42V443a18.3 18.3 0 0 0-18.2-18.46z m-162.55 146.6a222.38 222.38 0 0 1-13 31.45 235.21 235.21 0 0 1-103.55 103.62 222.38 222.38 0 0 1-31.45 13A232.46 232.46 0 0 1 540.52 731a234.81 234.81 0 0 1-73.25-11.63 243.3 243.3 0 0 1-31.56-13 233.51 233.51 0 0 1-116.76-281.73 221.09 221.09 0 0 1 13-31.35 233.9 233.9 0 0 1 43.52-60.11 231.37 231.37 0 0 1 60.11-43.52 234.74 234.74 0 0 1 177.95-13.14 222.38 222.38 0 0 1 31.45 13 231.79 231.79 0 0 1 60.11 43.63 235.23 235.23 0 0 1 43.52 60 222.38 222.38 0 0 1 13 31.45 232.46 232.46 0 0 1 11.8 73.4 225.5 225.5 0 0 1-11.53 73.14z" fill="#4D4D4D" p-id="6102"></path><path d="M540.52 357.86c-77.23 0-140 62.8-140 140s62.8 140 140 140 140-62.8 140-140-62.76-140-140-140z m0 193.89a53.86 53.86 0 1 1 53.86-53.86 53.88 53.88 0 0 1-53.86 53.86z" fill="#5E9EFC" p-id="6103"></path></svg>