<?xml version="1.0" standalone="no"?><!DOCTYPE svg PUBLIC "-//W3C//DTD SVG 1.1//EN" "http://www.w3.org/Graphics/SVG/1.1/DTD/svg11.dtd"><svg t="1636609868650" class="icon" viewBox="0 0 1024 1024" version="1.1" xmlns="http://www.w3.org/2000/svg" p-id="7411" xmlns:xlink="http://www.w3.org/1999/xlink" width="200" height="200"><defs><style type="text/css"></style></defs><path d="M795.794286 938.203429l-3.876572 2.56a512.438857 512.438857 0 0 1-180.882285 73.654857l-9.069715 1.682285-5.412571 0.950858-2.413714 0.365714-6.729143 1.097143-7.68 1.024-2.194286 0.292571 1.755429-0.219428c-16.310857 2.194286-32.914286 3.510857-49.737143 4.096L512 1024c-26.404571 0-52.370286-1.974857-77.750857-5.851429l-4.388572-0.731428-2.925714-0.438857a509.878857 509.878857 0 0 1-11.702857-2.121143l-2.194286-0.438857-1.024-0.146286a510.098286 510.098286 0 0 1-3.218285-0.731429l-7.314286-1.536-5.193143-1.170285a504.100571 504.100571 0 0 1-26.331429-6.802286l-7.094857-2.121143a403.163429 403.163429 0 0 1-10.532571-3.291428l-6.802286-2.340572a488.813714 488.813714 0 0 1-25.892571-9.654857l-5.558857-2.267429a507.977143 507.977143 0 0 1-68.681143-35.108571l-4.681143-2.925714-8.630857-5.558857-3.876572-2.56-2.486857-1.609143a514.633143 514.633143 0 0 1-155.062857-164.864l-0.731429-1.316572a511.049143 511.049143 0 0 1-22.454857-42.788571l-0.512-1.170286a509.147429 509.147429 0 0 1-25.161143-66.267428l0.512 1.901714a512 512 0 1 1 979.382858 0l0.512-1.901714a508.050286 508.050286 0 0 1-25.161143 66.267428l-0.512 1.170286a510.025143 510.025143 0 0 1-22.454857 42.788571l-0.731429 1.316572a513.462857 513.462857 0 0 1-155.062857 164.864l-2.413714 1.609143zM648.045714 602.331429H375.954286a240.932571 240.932571 0 0 0-231.131429 172.763428 451.510857 451.510857 0 0 0 734.208 0A240.932571 240.932571 0 0 0 648.045714 602.331429zM512 180.736a180.662857 180.662857 0 1 0 0 361.325714 180.662857 180.662857 0 0 0 0-361.325714z" p-id="7412"></path></svg>