<?xml version="1.0" standalone="no"?><!DOCTYPE svg PUBLIC "-//W3C//DTD SVG 1.1//EN" "http://www.w3.org/Graphics/SVG/1.1/DTD/svg11.dtd"><svg t="1646667884341" class="icon" viewBox="0 0 1024 1024" version="1.1" xmlns="http://www.w3.org/2000/svg" p-id="11647" xmlns:xlink="http://www.w3.org/1999/xlink" width="32" height="32"><defs><style type="text/css"></style></defs><path d="M604.672 407.04h-23.04v-46.592c0-64-52.224-116.224-116.224-116.224S349.184 296.448 349.184 360.448v46.592h-23.04c-25.6 0-46.592 20.992-46.592 46.592v231.936c0 25.6 20.992 46.592 46.592 46.592h278.528c25.6 0 46.592-20.992 46.592-46.592V453.12c0-25.6-20.992-46.08-46.592-46.08z m-121.856 170.496v51.712h-34.816v-51.712c-16.896-6.656-29.184-23.552-29.184-43.008 0-25.6 20.992-46.592 46.592-46.592s46.592 20.992 46.592 46.592c0 19.456-11.776 35.84-29.184 43.008zM537.6 407.04H393.728v-46.592c0-39.936 32.256-72.192 72.192-72.192s72.192 32.256 72.192 72.192v46.592z" fill="#99E999" p-id="11648"></path><path d="M697.856 464.896h-23.04v-46.592c0-64-52.224-116.224-116.224-116.224S442.368 354.304 442.368 418.304v46.592h-23.04c-25.6 0-46.592 20.992-46.592 46.592v231.936c0 25.6 20.992 46.592 46.592 46.592h278.528c25.6 0 46.592-20.992 46.592-46.592V511.488c-0.512-25.6-20.992-46.592-46.592-46.592z m-121.856 170.496v51.712h-34.816v-51.712c-16.896-6.656-29.184-23.552-29.184-43.008 0-25.6 20.992-46.592 46.592-46.592s46.592 20.992 46.592 46.592c-0.512 19.456-12.288 36.352-29.184 43.008z m54.272-170.496H486.4v-46.592c0-39.936 32.256-72.192 72.192-72.192s72.192 32.256 72.192 72.192v46.592z" fill="#01C700" p-id="11649"></path><path d="M803.1744 705.65376l46.34624-46.34112 46.336 46.336-46.336 46.34624zM154.112 398.848h65.536v65.536H154.112z" fill="#EAF9E8" p-id="11650"></path><path d="M233.472 763.392m-32.768 0a32.768 32.768 0 1 0 65.536 0 32.768 32.768 0 1 0-65.536 0Z" fill="#EAF9E8" p-id="11651"></path><path d="M171.52 601.6l-49.664-49.664c-3.584-3.584-9.216-3.584-12.8 0l-49.664 49.664c-3.584 3.584-3.584 9.216 0 12.8l49.664 49.664c3.584 3.584 9.216 3.584 12.8 0l49.664-49.664c3.584-3.584 3.584-9.216 0-12.8z m-56.32 43.52l-36.864-36.864 36.864-36.864 36.864 36.864-36.864 36.864zM863.232 227.84H737.28c-4.608 0-8.704 3.072-10.752 7.168-2.048 4.096-1.024 9.216 2.56 12.8l62.976 62.976c2.048 2.048 5.12 3.584 8.192 3.584s6.144-1.024 8.192-3.584l62.976-62.976c3.072-3.072 4.096-8.192 2.56-12.8-2.048-4.608-6.144-7.168-10.752-7.168z m-62.976 57.856l-34.816-34.816h69.632l-34.816 34.816zM932.352 482.304c-30.72 0-56.32 25.088-56.32 56.32s25.088 56.32 56.32 56.32 56.32-25.088 56.32-56.32-25.6-56.32-56.32-56.32z m0 89.088c-17.92 0-32.768-14.848-32.768-32.768s14.848-32.768 32.768-32.768c17.92 0 32.768 14.848 32.768 32.768s-14.848 32.768-32.768 32.768z" fill="#BEEEB9" p-id="11652"></path></svg>