<?xml version="1.0" standalone="no"?><!DOCTYPE svg PUBLIC "-//W3C//DTD SVG 1.1//EN" "http://www.w3.org/Graphics/SVG/1.1/DTD/svg11.dtd"><svg t="1662110809740" class="icon" viewBox="0 0 1024 1024" version="1.1" xmlns="http://www.w3.org/2000/svg" p-id="1371" xmlns:xlink="http://www.w3.org/1999/xlink" width="128" height="128"><path d="M920 768h-72v-72c0-22.092-17.908-40-40-40s-40 17.908-40 40v72h-72c-22.092 0-40 17.908-40 40 0 22.091 17.908 40 40 40h72v72c0 22.091 17.908 40 40 40s40-17.909 40-40v-72h72c22.092 0 40-17.909 40-40 0-22.092-17.908-40-40-40zM719.607 662.43l0.091-0.131c14.207-20.363 6.608-48.567-15.821-59.218a444.826 444.826 0 0 0-67.265-25.482C724.094 532.381 784 441.268 784 336c0-150.222-121.778-272-272-272S240 185.778 240 336c0 105.4 60.063 196.603 147.725 241.761-156.442 45.13-277.806 172.98-313.165 333.333C69.032 936.161 88.002 960 113.671 960h0.124c18.886 0 34.931-13.284 39.019-31.723C189.335 763.571 336.462 640 512 640c56.202 0 109.475 12.705 157.158 35.345 17.856 8.476 39.14 3.295 50.449-12.915zM320 336c0-105.869 86.131-192 192-192s192 86.131 192 192-86.131 192-192 192-192-86.131-192-192z" fill="#ffffff" p-id="1372"></path></svg>