<?xml version="1.0" standalone="no"?><!DOCTYPE svg PUBLIC "-//W3C//DTD SVG 1.1//EN" "http://www.w3.org/Graphics/SVG/1.1/DTD/svg11.dtd"><svg t="1662357484502" class="icon" viewBox="0 0 1024 1024" version="1.1" xmlns="http://www.w3.org/2000/svg" p-id="10959" width="64" height="64" xmlns:xlink="http://www.w3.org/1999/xlink"><path d="M592 199.496H288c-106.038 0-192 85.961-192 192v368c0 106.039 85.962 192 192 192h304c106.039 0 192-85.961 192-192v-368c0-106.039-85.961-192-192-192z m112 560c0 61.757-50.242 112-112 112H288c-61.757 0-112-50.243-112-112v-368c0-61.757 50.243-112 112-112h304c61.758 0 112 50.243 112 112v368z" fill="#ffffff" p-id="10960"></path><path d="M736 55.496H376c-22.091 0-40 17.908-40 40s17.909 40 40 40h360c61.856 0 112 50.145 112 112v472c0 22.092 17.909 40 40 40 22.092 0 40-17.908 40-40v-472c0-106.039-85.961-192-192-192z" fill="#ffffff" p-id="10961"></path></svg>