<?xml version="1.0" standalone="no"?><!DOCTYPE svg PUBLIC "-//W3C//DTD SVG 1.1//EN" "http://www.w3.org/Graphics/SVG/1.1/DTD/svg11.dtd"><svg t="1662357908076" class="icon" viewBox="0 0 1024 1024" version="1.1" xmlns="http://www.w3.org/2000/svg" p-id="11593" xmlns:xlink="http://www.w3.org/1999/xlink" width="64" height="64"><path d="M512 64C264.576 64 64 264.576 64 512s200.576 448 448 448 448-200.576 448-448S759.424 64 512 64z m0 816c-202.916 0-368-165.084-368-368s165.084-368 368-368 368 165.084 368 368-165.084 368-368 368z" fill="#333333" p-id="11594"></path><path d="M512 512c70.692 0 128-57.308 128-128s-57.308-128-128-128-128 57.308-128 128 57.308 128 128 128z m0-176c26.467 0 48 21.533 48 48s-21.533 48-48 48-48-21.533-48-48 21.533-48 48-48zM660.93 580.891C616.484 557.352 565.832 544 512 544s-104.484 13.352-148.93 36.891c-76.134 40.322-77.927 150.616-3.508 194.019C404.341 801.024 456.393 816 512 816s107.659-14.976 152.438-41.091c74.418-43.402 72.625-153.696-3.508-194.018z m-36.796 124.912C590.262 725.559 551.486 736 512 736s-78.262-10.441-112.134-30.197c-13.9-8.106-15.133-22.122-15.018-27.772 0.141-6.852 2.362-19.397 15.664-26.442C435.077 633.282 472.586 624 512 624s76.923 9.282 111.487 27.588c13.302 7.045 15.523 19.591 15.664 26.442 0.116 5.651-1.117 19.666-15.017 27.773z" fill="#333333" p-id="11595"></path></svg>