<?xml version="1.0" standalone="no"?><!DOCTYPE svg PUBLIC "-//W3C//DTD SVG 1.1//EN" "http://www.w3.org/Graphics/SVG/1.1/DTD/svg11.dtd"><svg t="1662110872362" class="icon" viewBox="0 0 1024 1024" version="1.1" xmlns="http://www.w3.org/2000/svg" p-id="1581" xmlns:xlink="http://www.w3.org/1999/xlink" width="128" height="128"><path d="M512 64C264.577 64 64 264.576 64 512c0 247.423 200.577 448 448 448 247.424 0 448-200.577 448-448 0-247.424-200.576-448-448-448z m0 816c-202.916 0-368-165.084-368-368s165.084-368 368-368 368 165.084 368 368-165.084 368-368 368z" fill="#ffffff" p-id="1582"></path><path d="M560 504.681V280c0-22.092-17.908-40-40-40-22.091 0-40 17.908-40 40v240c0 11.156 4.586 21.226 11.953 28.48 0.271 0.319 0.449 0.684 0.731 0.997l122.402 135.941c7.899 8.772 18.796 13.235 29.739 13.235a39.863 39.863 0 0 0 26.752-10.274c16.417-14.782 17.742-40.074 2.961-56.491L560 504.681z" fill="#ffffff" p-id="1583"></path></svg>