<?xml version="1.0" standalone="no"?><!DOCTYPE svg PUBLIC "-//W3C//DTD SVG 1.1//EN" "http://www.w3.org/Graphics/SVG/1.1/DTD/svg11.dtd"><svg t="1662110904876" class="icon" viewBox="0 0 1024 1024" version="1.1" xmlns="http://www.w3.org/2000/svg" p-id="1796" xmlns:xlink="http://www.w3.org/1999/xlink" width="128" height="128"><path d="M768 64H256C149.961 64 64 149.961 64 256v352c0 106.039 85.961 192 192 192h128v80h-40c-22.092 0-40 17.908-40 40 0 22.091 17.908 40 40 40h336c22.092 0 40-17.909 40-40 0-22.092-17.908-40-40-40h-40v-80h128c106.039 0 192-85.961 192-192V256c0-106.039-85.961-192-192-192z m-512 80h512c61.757 0 112 50.243 112 112v304H144V256c0-61.757 50.243-112 112-112z m304 736h-96v-80h96v80z m208-160H256c-50.634 0-93.475-33.797-107.283-80h726.566c-13.808 46.203-56.649 80-107.283 80z" fill="#ffffff" p-id="1797"></path></svg>