<?xml version="1.0" standalone="no"?><!DOCTYPE svg PUBLIC "-//W3C//DTD SVG 1.1//EN" "http://www.w3.org/Graphics/SVG/1.1/DTD/svg11.dtd"><svg t="1662358894551" class="icon" viewBox="0 0 1024 1024" version="1.1" xmlns="http://www.w3.org/2000/svg" p-id="11754" xmlns:xlink="http://www.w3.org/1999/xlink" width="64" height="64"><path d="M693.99 351.951L460.117 585.823c-6.248 6.248-16.379 6.248-22.627-0.001L330.01 478.343c-15.621-15.621-40.947-15.621-56.568 0s-15.621 40.947 0 56.568L403.549 665.02c24.993 24.993 65.517 24.993 90.51 0l256.5-256.5c15.621-15.621 15.621-40.947 0-56.568s-40.948-15.622-56.569-0.001z" fill="#333333" p-id="11755"></path><path d="M768 64H256C149.961 64 64 149.961 64 256v512c0 106.038 85.961 192 192 192h512c106.039 0 192-85.962 192-192V256c0-106.039-85.961-192-192-192z m112 704c0 61.757-50.243 112-112 112H256c-61.757 0-112-50.243-112-112V256c0-61.758 50.243-112 112-112h512c61.757 0 112 50.242 112 112v512z" fill="#333333" p-id="11756"></path></svg>