<?xml version="1.0" standalone="no"?><!DOCTYPE svg PUBLIC "-//W3C//DTD SVG 1.1//EN" "http://www.w3.org/Graphics/SVG/1.1/DTD/svg11.dtd"><svg t="1662357888989" class="icon" viewBox="0 0 1024 1024" version="1.1" xmlns="http://www.w3.org/2000/svg" p-id="11435" xmlns:xlink="http://www.w3.org/1999/xlink" width="64" height="64"><path d="M791.188 623.375c-55.099 0-103.843 26.675-134.439 67.684L436.89 574.158c6.804-19.66 10.681-40.683 10.681-62.658 0-25.166-4.98-49.136-13.791-71.155l220.151-112.173c30.365 43.17 80.468 71.452 137.256 71.452 92.681 0 167.813-75.133 167.813-167.813C959 139.132 883.868 64 791.188 64s-167.813 75.132-167.813 167.813c0 7.291 0.622 14.421 1.524 21.467L388.838 373.56c-34.494-33.278-81.336-53.845-133.052-53.845C149.866 319.714 64 405.579 64 511.5c0 105.92 85.866 191.786 191.786 191.786 55.136 0 104.696-23.399 139.681-60.649l230.151 122.374c-1.343 8.551-2.243 17.249-2.243 26.177 0 92.68 75.133 167.813 167.813 167.813C883.868 959 959 883.867 959 791.188c0-92.681-75.132-167.813-167.812-167.813z m0-479.464c48.469 0 87.902 39.432 87.902 87.902s-39.432 87.902-87.902 87.902-87.902-39.433-87.902-87.902 39.432-87.902 87.902-87.902zM255.786 623.375c-61.688 0-111.875-50.187-111.875-111.875s50.187-111.875 111.875-111.875S367.661 449.812 367.661 511.5s-50.187 111.875-111.875 111.875z m535.402 255.714c-48.469 0-87.902-39.432-87.902-87.902s39.432-87.902 87.902-87.902 87.902 39.432 87.902 87.902-39.433 87.902-87.902 87.902z" fill="#333333" p-id="11436"></path></svg>