<?xml version="1.0" standalone="no"?><!DOCTYPE svg PUBLIC "-//W3C//DTD SVG 1.1//EN" "http://www.w3.org/Graphics/SVG/1.1/DTD/svg11.dtd"><svg t="1645712646499" class="icon" viewBox="0 0 1024 1024" version="1.1" xmlns="http://www.w3.org/2000/svg" p-id="1163" xmlns:xlink="http://www.w3.org/1999/xlink" width="200" height="200"><defs><style type="text/css"></style></defs><path d="M536.953154 464.455014m-448.014129 0a448.014129 448.014129 0 1 0 896.028258 0 448.014129 448.014129 0 1 0-896.028258 0Z" fill="#FFE585" p-id="1164"></path><path d="M547.508202 24.443486c-4.204756 0-8.421844 0.073984-12.597828 0.189071 223.698798 6.374953 403.068858 189.703157 403.068858 414.943287 0 229.268148-185.8601 415.132358-415.132358 415.132358-229.259927 0-415.132358-185.86421-415.132358-415.132358 0-36.108295 4.619889-71.143822 13.284236-104.5517-13.958312 43.305292-21.504678 89.483629-21.504679 137.433471 0 247.427106 200.595244 448.014129 448.014129 448.014129 247.431216 0 448.014129-200.587023 448.014129-448.014129 0-247.431216-200.582913-448.014129-448.014129-448.014129z" fill="#FF9900" opacity=".24" p-id="1165"></path><path d="M437.757071 1024h197.290626a16.440885 16.440885 0 0 0 0-32.881771h-197.290626a16.440885 16.440885 0 0 0 0 32.881771z" fill="#6E6E96" opacity=".29" p-id="1166"></path><path d="M708.480912 1024h57.543099a16.440885 16.440885 0 0 0 0-32.881771h-57.543099a16.440885 16.440885 0 0 0 0 32.881771zM359.112096 991.118229h-45.212435a16.440885 16.440885 0 0 0 0 32.881771h45.212435a16.440885 16.440885 0 0 0 0-32.881771z" fill="#6E6E96" opacity=".17" p-id="1167"></path><path d="M125.931017 487.061232c0-234.948474 190.459438-425.407911 425.407912-425.407912 229.851799 0 451.487266 147.898095 425.107865 410.187762 0.18085-5.182989 0.300046-10.378309 0.300046-15.60651 0-247.427106-200.595244-448.014129-448.014129-448.014129-247.431216 0-448.014129 200.587023-448.014129 448.014129 0 205.963193 138.987135 379.443306 328.308042 431.819856-164.955514-58.558324-283.095607-215.955141-283.095607-400.993196z" fill="#FFEFB5" p-id="1168"></path><path d="M802.103534 804.990965C725.731511 864.548072 634.040693 896.028258 536.953154 896.028258c-217.24164 0-401.342565-162.292091-428.227523-377.511502-1.12209-9.009605-9.338423-15.400999-18.352139-14.274799a16.440885 16.440885 0 0 0-14.274799 18.352139C105.038762 754.233841 303.163763 928.910029 536.953154 928.910029c104.485937 0 203.168242-33.884665 285.372669-97.991788a16.440885 16.440885 0 1 0-20.222289-25.927276zM966.195902 419.26313c1.549553 14.920104 2.334606 30.123812 2.334606 45.195995 0 25.598459-2.260622 51.24213-6.711992 76.219945a16.440885 16.440885 0 0 0 32.367993 5.778971 468.380276 468.380276 0 0 0 7.225769-81.990696c0-16.198382-0.846706-32.548843-2.511345-48.595147a16.440885 16.440885 0 0 0-32.705031 3.390932zM162.092745 250.435788C238.8799 116.245281 382.519807 32.881771 536.953154 32.881771c133.434226 0 257.262866 60.284617 339.726237 165.391197a16.440885 16.440885 0 0 0 25.865623-20.296273C813.809445 64.867514 680.556068 0 536.953154 0 370.756353 0 216.179148 89.705581 133.555478 234.105878a16.440885 16.440885 0 0 0 28.537267 16.32991z" fill="#6E6E96" p-id="1169"></path><path d="M193.975732 288.471776s-245.762466 63.67966-152.612519 155.247172c93.145837 91.559291 152.612519-155.247171 152.612519-155.247172z" fill="#89E0F5" p-id="1170"></path><path d="M189.85318 272.556999C172.988942 276.926165 24.556518 317.263877 5.859121 387.067766c-4.336284 16.181942-3.690979 41.180308 23.974921 68.377643 27.66179 27.193225 52.664266 27.406956 68.768113 22.799398 69.475072-19.885251 107.268557-168.987641 111.345897-185.921753 1.352263-5.614562-0.341148-11.529171-4.45548-15.577739s-10.049491-5.639224-15.639392-4.188316z m-136.964907 159.439597c-19.794826-19.466008-16.387453-32.220025-15.265362-36.412451 10.370089-38.771718 103.939278-76.511771 160.479483-91.197592a16.440885 16.440885 0 0 1-20.111313-19.766054c-13.711698 56.778598-49.848765 150.980761-88.439633 162.012596-4.167764 1.191964-16.864238 4.8254-36.663175-14.636499z" fill="#6E6E96" p-id="1171"></path><path d="M881.241736 534.756241s222.646581 217.948598 67.555599 258.491821c-155.090983 40.526783-67.555598-258.491822-67.555599-258.491821z" fill="#89E0F5" p-id="1172"></path><path d="M869.741337 546.507363c-0.00411 0 0 0 0 0 37.259157 36.515207 130.766693 143.405623 116.060321 198.745644-4.097891 15.421551-17.562976 25.914946-41.172088 32.084388s-40.48568 3.604664-51.603829-7.846412c-35.479431-36.527537-16.383342-160.532916 3.986915-230.106633a16.436775 16.436775 0 0 1-27.271319 7.123013z m83.211432 262.647256c35.578076-9.305541 57.325257-27.970056 64.633231-55.467437 22.219857-83.667666-109.722359-215.872936-124.843864-230.673844a16.453216 16.453216 0 0 0-15.659944-4.159544 16.399783 16.399783 0 0 0-11.619595 11.286668c-5.94338 20.300383-56.330584 200.15545 3.986914 262.265005 19.823598 20.411359 47.921071 26.046473 83.503258 16.749152z" fill="#6E6E96" p-id="1173"></path><path d="M640.982857 708.133598c-66.951396 72.105613-65.060694-65.011371-193.65308-101.403271-138.785735-39.277275-194.084653 84.391065-206.329002-9.708343-11.282558-86.659907 122.990154-166.328328 251.689405-130.581733 138.608995 38.508664 207.755249 177.651988 148.292677 241.693347z" fill="#C7A17B" p-id="1174"></path><path d="M628.931688 696.949686c-13.123937 14.130941-19.815377 15.466763-22.08422 15.380448-7.439501-0.275385-19.322151-15.174937-30.82255-29.581263-24.661328-30.904754-58.435017-73.215373-124.22322-91.838786-75.097855-21.249844-127.227792 1.455018-161.72899 16.490208-9.868641 4.295181-23.378939 10.185129-27.238437 9.358974a1.759175 1.759175 0 0 1 0.620643 0.308267c-0.152078-0.131527-3.732081-3.510129-6.161222-22.178755-3.300508-25.335404 9.10003-51.628491 34.920441-74.025087 40.432248-35.08485 116.738507-60.625765 196.074-38.590868 85.615911 23.785851 138.674759 86.491388 153.278375 138.086997 8.808204 31.130817 4.319843 58.328151-12.63482 76.589865z m-131.843571-246.346118c-91.082505-25.298413-179.349509 4.591117-226.423875 45.434387-34.414883 29.864868-50.748903 66.47872-45.976936 103.109014 2.342826 18.00688 6.835298 37.600305 22.351384 46.392068 16.432665 9.305541 34.846457 1.286499 56.166175-7.99438 32.014514-13.950091 75.858246-33.04207 139.644771-14.989978 55.627736 15.742148 84.374624 51.768238 107.478178 80.708307 17.595858 22.047227 32.795456 41.093993 55.290698 41.928368 20.267502 0.764501 36.75771-14.398105 47.407293-25.865623 25.06824-26.987713 32.232356-65.315528 20.172967-107.905641-17.094411-60.449026-78.184631-133.615076-176.110655-160.816522zM758.703707 353.298188c-0.727509-1.812608-18.232942-44.513697-58.49256-56.531985-25.845072-7.714886-53.963096-1.138531-83.581352 19.548213a16.440885 16.440885 0 0 0 18.833034 26.958942c20.900476-14.603617 39.466346-19.663299 55.175612-15.047521 24.998366 7.349076 37.444117 37.061866 37.571534 37.361913l-0.028772-0.061654a16.440885 16.440885 0 1 0 30.522504-12.227908z" fill="#6E6E96" p-id="1175"></path><path d="M491.046091 268.86191c-0.727509-1.812608-18.228832-44.513697-58.484339-56.536095-25.849182-7.714886-53.971317-1.138531-83.589572 19.548213a16.440885 16.440885 0 0 0 18.828924 26.958942c20.97857-14.652939 39.601983-19.700291 55.352351-14.998198 24.813406 7.410729 37.250936 36.95089 37.370133 37.246826a16.440885 16.440885 0 1 0 30.522503-12.219688z" fill="#6E6E96" p-id="1176"></path><path d="M355.811588 532.549052s123.306641-67.818653 234.282618 67.818652l39.939021-39.939021c-29.075706-40.810388-76.511771-77.087202-137.338937-93.988432-56.223718-15.614731-113.499653-9.202786-159.250527 10.189239l22.367825 55.919562z" fill="#FFFFFF" p-id="1177"></path><path d="M363.736095 546.955378l-0.053433 0.028771c4.574676-2.474353 113.154394-59.080322 213.690409 63.794746a16.473767 16.473767 0 0 0 11.903201 6.005033 16.408004 16.408004 0 0 0 12.44164-4.792518l39.939021-39.939021a16.440885 16.440885 0 0 0 1.767395-21.16764c-34.16416-47.941622-86.133799-83.55669-146.327991-100.281181-56.25249-15.618841-116.643972-11.751123-170.068629 10.892087a16.440885 16.440885 0 0 0-8.849307 21.241624l22.367825 55.915451a16.449106 16.449106 0 0 0 23.189869 8.302648z m-23.876276-55.187943c45.931724-19.466008 100.034568-22.922705 148.436534-9.48228 52.960202 14.714592 98.542557 45.85363 128.349883 87.683352a16.424445 16.424445 0 0 1 1.767395-21.15942l-39.939021 39.939021a16.399783 16.399783 0 0 1 12.44164-4.800738 16.469657 16.469657 0 0 1 11.903201 6.013254c-118.263399-144.548265-253.571887-72.553628-254.924149-71.817898a16.449106 16.449106 0 0 1 23.181648 8.298537l-22.367824-55.919562a16.444996 16.444996 0 0 1-8.849307 21.245734z" fill="#6E6E96" p-id="1178"></path><path d="M827.537584 254.619993s90.568728 162.111241 138.119879 79.245068c47.53471-82.862063-138.119879-79.245068-138.119879-79.245068z" fill="#89E0F5" p-id="1179"></path><path d="M813.180581 262.634925c10.349537 18.524768 64.715435 110.943095 118.933365 111.255472 13.428093 0.078094 32.622827-5.3885 47.797765-31.845995 15.174937-26.457495 10.20568-45.779646 3.366271-57.333478-27.633018-46.646902-134.856363-46.946948-156.065105-46.531816a16.465547 16.465547 0 0 0-13.945982 8.253324 16.449106 16.449106 0 0 0-0.086314 16.202493z m138.206193 63.046685c-8.824645 15.384559-16.547751 15.339346-19.091978 15.327016-26.067024-0.147968-68.562603-55.298918-90.412539-94.407675a16.432665 16.432665 0 0 1-14.032296 24.451707c44.813744-0.838485 113.890124 8.043703 127.137367 30.419749 1.29472 2.186638 5.228202 8.828755-3.600554 24.209203z" fill="#6E6E96" p-id="1180"></path></svg>