<?xml version="1.0" standalone="no"?><!DOCTYPE svg PUBLIC "-//W3C//DTD SVG 1.1//EN" "http://www.w3.org/Graphics/SVG/1.1/DTD/svg11.dtd"><svg t="1645712674820" class="icon" viewBox="0 0 1024 1024" version="1.1" xmlns="http://www.w3.org/2000/svg" p-id="1320" xmlns:xlink="http://www.w3.org/1999/xlink" width="200" height="200"><defs><style type="text/css"></style></defs><path d="M536.953154 464.455014m-448.014129 0a448.014129 448.014129 0 1 0 896.028258 0 448.014129 448.014129 0 1 0-896.028258 0Z" fill="#FFE585" p-id="1321"></path><path d="M547.508202 24.443486c-4.200646 0-8.421844 0.078094-12.593718 0.193181 223.698798 6.374953 403.064748 189.699047 403.064748 414.939177 0 229.268148-185.8601 415.132358-415.132358 415.132358-229.255817 0-415.132358-185.86421-415.132358-415.132358 0-36.104184 4.619889-71.143822 13.284236-104.5517-13.958312 43.305292-21.504678 89.483629-21.504679 137.433471 0 247.427106 200.599354 448.014129 448.014129 448.014129 247.431216 0 448.014129-200.587023 448.014129-448.014129 0-247.431216-200.582913-448.014129-448.014129-448.014129z" fill="#FF9900" opacity=".24" p-id="1322"></path><path d="M437.757071 1024h197.290626a16.440885 16.440885 0 0 0 0-32.881771h-197.290626a16.440885 16.440885 0 0 0 0 32.881771z" fill="#6E6E96" opacity=".29" p-id="1323"></path><path d="M708.480912 1024h57.543099a16.440885 16.440885 0 0 0 0-32.881771h-57.543099a16.440885 16.440885 0 0 0 0 32.881771zM359.112096 991.118229h-45.212435a16.440885 16.440885 0 0 0 0 32.881771h45.212435a16.440885 16.440885 0 0 0 0-32.881771z" fill="#6E6E96" opacity=".17" p-id="1324"></path><path d="M125.931017 487.061232c0-234.948474 190.459438-425.407911 425.407912-425.407912 229.851799 0 417.092934 182.300648 425.107865 410.187762 0.18085-5.182989 0.300046-10.378309 0.300046-15.60651 0-247.427106-200.599354-448.014129-448.014129-448.014129-247.431216 0-448.014129 200.587023-448.014129 448.014129 0 205.954972 138.983025 379.435085 328.308042 431.819856-164.955514-58.558324-283.095607-215.955141-283.095607-400.993196z" fill="#FFEFB5" p-id="1325"></path><path d="M244.531455 452.979276c-4.151324 144.252329 45.985157 270.925241 166.768122 304.933213 120.778855 34.007972 274.945038-35.121842 346.688951-160.331515L244.531455 452.979276z" fill="#C7A17B" p-id="1326"></path><path d="M228.09468 452.506601c-4.841841 168.264242 61.982138 288.35258 178.749417 321.234351 129.956979 36.593301 290.465234-37.189283 365.406899-167.984748a16.449106 16.449106 0 0 0-9.815208-23.999582l-513.448853-144.601698a16.436775 16.436775 0 0 0-20.892255 15.351677z m515.62727 136.903253c-66.66368 116.348036-213.789054 184.836655-327.962783 152.678283-146.019724-41.114544-156.89537-215.544119-154.790937-288.636185a16.453216 16.453216 0 0 1-20.892255 15.351677l513.457073 144.605808a16.444996 16.444996 0 0 1-9.811098-23.999583z" fill="#6E6E96" p-id="1327"></path><path d="M401.430935 311.945251c14.402216-20.123644 45.939944-40.448688 70.202581-45.245317l0.094535-0.016441c24.361282-4.722644 30.123812-23.103554 12.81156-40.872041l-0.069874-0.090425c-17.209497-17.739715-33.379108-50.629707-35.931555-73.063295-2.531896-22.46236-16.823136-26.938391-31.74735-9.950846-14.887222 16.991655-46.955169 34.747811-71.30412 39.445794l-0.123307 0.053433c-24.299629 4.722644-30.058049 23.091224-12.81567 40.867931l0.086315 0.073984c17.304032 17.768487 31.521288 52.487527 31.800783 77.206398l0.275384 17.521874c0.291826 24.747643 12.141594 28.459173 26.560251 8.319088l10.160467-14.250137z" fill="#FFFFFF" p-id="1328"></path><path d="M414.801485 321.513846c11.911422-16.642286 39.963682-34.71904 60.025673-38.685404l-0.485006 0.086315 0.213731-0.036992 0.312377-0.057543c17.731495-3.440255 30.341654-13.197921 34.595733-26.778092 4.249969-13.576061-0.538439-28.77566-13.136267-41.710527l1.718072 2.083883-0.764501-1.09743c-0.065764-0.086315-0.994674-1.052217-0.994673-1.052216-14.587176-15.04341-29.260666-44.706878-31.397981-63.478259-2.696305-23.892717-15.339346-31.303446-22.630879-33.592839-7.295643-2.289393-21.91159-3.432035-37.797596 14.648829-12.466301 14.225476-41.459803 30.177245-62.064342 34.151829l-1.672861 0.324708-1.570104 0.657635 3.094997-0.9248c-17.694503 3.436145-30.275891 13.18559-34.53408 26.745211-4.2623 13.563731 0.497337 28.767439 13.054063 41.710526l0.657635 0.678187 0.73162 0.600092-1.278279-1.183744c14.221366 14.607727 26.909619 45.413836 27.143902 65.927951l0.275384 17.591747c0.295936 25.109342 10.76056 33.666823 19.48245 36.412451 8.73011 2.745628 22.211636 1.713962 36.885126-18.779601 0.012331-0.028772 10.156357-14.274799 10.135806-14.241917z m-36.885126-4.895274c-3.863608 5.396721-6.070797 6.650338-6.091348 6.662669 0.583651-0.320597 2.893596-1.023445 5.815963-0.102755 2.918257 0.92069 4.410268 2.823722 4.710313 3.415594-0.012331-0.020551-1.10565-2.305834-1.179633-8.915071l-0.275385-17.583527c-0.332928-28.894856-16.350461-67.761109-36.465884-88.419082l-0.645305-0.665856-0.723399-0.587761 1.302941 1.204295c-5.051462-5.211761-5.421382-8.524599-5.285745-8.964393 0.135637-0.435683 2.326385-2.938808 9.437068-4.319843l1.66053-0.320597 1.557773-0.653525-3.119658 0.92891c27.900183-5.38028 63.280968-25.039469 80.556229-44.75209 2.996351-3.403263 5.129556-4.615779 5.704987-4.796629-1.282389 0.402802-3.769073-0.382251-4.591117-1.442687 0.36581 0.472675 1.426247 2.683975 1.935914 7.196997 2.959359 26.017701 20.736067 62.323287 40.46924 82.668882l-1.697522-2.05922 0.772722 1.11387c0.065764 0.090425 1.011114 1.064547 1.011115 1.064547 5.063793 5.20354 5.446043 8.504048 5.310406 8.935621-0.135637 0.435683-2.330496 2.938808-9.478171 4.323953-28.442732 5.618673-63.749533 28.372858-80.543898 51.829891-0.028772 0.024661-10.168688 14.270689-10.148136 14.237807z" fill="#6E6E96" p-id="1329"></path><path d="M260.791491 594.53119s251.730508-113.355795 386.081313 118.867602c0 0 111.115724-89.820668 111.115724-115.809597L244.531455 452.979276s-29.030494 96.269605 16.260036 141.551914z" fill="#6E6E96" opacity=".25" p-id="1330"></path><path d="M689.277958 392.217874c14.402216-20.123644 45.935834-40.448688 70.202581-45.241207l0.094535-0.020551c24.361282-4.722644 30.115592-23.107665 12.803339-40.872041l-0.061653-0.094535c-17.213607-17.735605-33.379108-50.625597-35.931555-73.059185-2.540117-22.46236-16.827246-26.942501-31.74735-9.950846-14.887222 16.995765-46.955169 34.751922-71.316451 39.449905l-0.110976 0.049322c-24.303739 4.726755-30.058049 23.095334-12.81567 40.872042l0.086315 0.069873c17.304032 17.772597 31.521288 52.491637 31.809003 77.210509l0.275384 17.513653c0.283605 24.747643 12.137484 28.467393 26.556141 8.323198l10.156357-14.250137z" fill="#FFFFFF" p-id="1331"></path><path d="M702.648508 401.786469c11.907311-16.642286 39.955462-34.71493 60.025673-38.677183 17.768487-3.448476 30.382756-13.210251 34.632725-26.790423 4.249969-13.576061-0.538439-28.77566-13.140378-41.706416l2.166087 2.757959-0.92891-1.47968c-0.061653-0.094535-1.278279-1.352263-1.278279-1.352263-14.591286-15.03519-29.260666-44.694547-31.397981-63.470038-2.704526-23.896827-15.347567-31.307556-22.65143-33.59695-7.291533-2.289393-21.90748-3.427925-37.785265 14.65705-12.462191 14.225476-41.459803 30.177245-62.072563 34.151829l-1.631758 0.316487-1.537223 0.637084 3.025123-0.896028c-17.690393 3.440255-30.27178 13.1897-34.525859 26.749321-4.258189 13.563731 0.497337 28.767439 13.054063 41.710526l0.686407 0.706958 0.772721 0.620644-1.352262-1.241287c14.225476 14.607727 26.91373 45.417946 27.143901 65.936171l0.275385 17.579417c0.291826 25.113453 10.756449 33.670933 19.474229 36.416561 8.73011 2.745628 22.211636 1.713962 36.893347-18.783712l10.152247-14.246027z m-36.889237-4.891163c-3.859498 5.396721-6.074907 6.650338-6.087238 6.662669 0.583651-0.320597 2.893596-1.023445 5.811853-0.102756 2.922367 0.92069 4.414378 2.823722 4.710314 3.415594-0.012331-0.020551-1.10565-2.305834-1.175523-8.91918l-0.279495-17.579417c-0.337038-28.890746-16.354571-67.761109-36.465884-88.419082l-0.678187-0.694628-0.760391-0.612423 1.372814 1.261838c-5.051462-5.211761-5.421382-8.528709-5.285745-8.964392s2.326385-2.938808 9.441179-4.323953l1.627648-0.316487 1.524892-0.628864-3.058005 0.904249c27.904293-5.38028 63.289189-25.039469 80.568559-44.760311 2.992241-3.403263 5.125446-4.615779 5.696767-4.796628-1.282389 0.402802-3.769073-0.37814-4.587007-1.442688 0.36992 0.472675 1.430357 2.688085 1.940024 7.201108 2.96347 26.021811 20.736067 62.327397 40.46924 82.660662l-2.141425-2.737408 0.93713 1.496121c0.065764 0.094535 1.286499 1.360483 1.286499 1.360483 5.063793 5.20354 5.441933 8.504048 5.310406 8.935621-0.135637 0.435683-2.330496 2.938808-9.47817 4.323953-28.438622 5.618673-63.749533 28.372858-80.539788 51.834002-0.032882 0.024661-10.181018 14.270689-10.160467 14.241917z" fill="#6E6E96" p-id="1332"></path><path d="M536.953154 32.881771c115.275268 0 223.653585 44.891838 305.167495 126.405748s126.405748 189.892227 126.405748 305.167495c0 115.279379-44.891838 223.653585-126.405748 305.167496S652.228422 896.028258 536.953154 896.028258s-223.657696-44.891838-305.167496-126.405748C150.271748 688.1086 105.37991 579.734393 105.37991 464.455014c0-237.969486 193.603757-431.573243 431.573244-431.573243z m-464.455014 431.573243c0 124.067032 48.311542 240.702784 136.035996 328.419018S412.894342 928.910029 536.953154 928.910029c124.058811 0 240.694563-48.311542 328.410797-136.035997 87.732675-87.728565 136.044217-204.364317 136.044217-328.419018 0-124.058811-48.311542-240.694563-136.044217-328.419017C777.647717 48.311542 661.011965 0 536.953154 0c-256.099673 0-464.455014 208.355341-464.455014 464.455014z" fill="#6E6E96" p-id="1333"></path></svg>