<?xml version="1.0" standalone="no"?><!DOCTYPE svg PUBLIC "-//W3C//DTD SVG 1.1//EN" "http://www.w3.org/Graphics/SVG/1.1/DTD/svg11.dtd"><svg t="1645710269715" class="icon" viewBox="0 0 1024 1024" version="1.1" xmlns="http://www.w3.org/2000/svg" p-id="1186" xmlns:xlink="http://www.w3.org/1999/xlink" width="64" height="64"><defs><style type="text/css"></style></defs><path d="M767.1808 946.3296c-27.1872 0-54.2208-8.1408-77.5168-24.2176l-150.3744-103.68c-12.032-8.2944-28.2112-8.2944-40.2944 0L348.672 922.112a136.2432 136.2432 0 0 1-141.056 8.4992 136.21248 136.21248 0 0 1-73.1136-120.9344V217.2416c0-74.8032 60.8256-135.6288 135.6288-135.6288h498.0736c74.8032 0 135.6288 60.8256 135.6288 135.6288v592.4352c0 50.944-28.0064 97.28-73.1136 120.9344a136.61696 136.61696 0 0 1-63.5392 15.7184z m-248.0128-195.4816c19.3024 0 38.5536 5.6832 54.9888 16.9984l150.3744 103.68c23.4496 16.128 52.4288 17.8688 77.6192 4.6592s40.192-38.0928 40.192-66.56V217.2416c0-40.9088-33.28-74.1888-74.1888-74.1888H270.1824c-40.9088 0-74.1888 33.28-74.1888 74.1888v592.4352c0 28.4672 15.0528 53.2992 40.192 66.56 25.1904 13.2096 54.1696 11.4688 77.6192-4.6592l150.3744-103.68c16.4352-11.3664 35.7376-17.0496 54.9888-17.0496z" fill="#474747" p-id="1187"></path><path d="M606.8224 633.7024c-8.448 0-16.9984-2.048-24.832-6.1952l-62.8224-33.024-62.8224 33.024c-18.0736 9.5232-39.5776 7.936-56.1152-4.0448-16.5376-11.9808-24.6272-32-21.1968-52.1216l11.9808-69.9392-50.7904-49.5104c-14.6432-14.2848-19.8144-35.1744-13.4656-54.6304 6.2976-19.4048 22.784-33.3312 43.008-36.2496l70.1952-10.1888 31.3856-63.6416c9.0624-18.3296 27.3408-29.696 47.7696-29.696s38.7584 11.3664 47.7696 29.696l31.3856 63.6416 70.1952 10.1888c20.224 2.9184 36.7104 16.8448 43.008 36.2496 6.2976 19.4048 1.1264 40.3456-13.4656 54.6304l-50.7904 49.5104 11.9808 69.9392c3.4304 20.1216-4.6592 40.0896-21.1968 52.1216-9.216 6.8096-20.1728 10.24-31.1808 10.24zM395.008 419.4816l42.0352 40.96c12.544 12.2368 18.2784 29.8496 15.3088 47.1552l-9.9328 57.856 51.968-27.3408c15.5136-8.1408 34.048-8.1408 49.5616 0l51.968 27.3408-9.9328-57.856c-2.9696-17.3056 2.7648-34.9184 15.3088-47.1552l42.0352-40.96-58.112-8.448a53.1456 53.1456 0 0 1-40.0896-29.1328L519.168 329.216l-25.9584 52.6336a53.1456 53.1456 0 0 1-40.0896 29.1328l-58.112 8.4992z m205.2608-64.8192z m-88.3712-40.2432z" fill="#336BFF" p-id="1188"></path></svg>