<?xml version="1.0" standalone="no"?><!DOCTYPE svg PUBLIC "-//W3C//DTD SVG 1.1//EN" "http://www.w3.org/Graphics/SVG/1.1/DTD/svg11.dtd"><svg t="1645712683116" class="icon" viewBox="0 0 1024 1024" version="1.1" xmlns="http://www.w3.org/2000/svg" p-id="1473" xmlns:xlink="http://www.w3.org/1999/xlink" width="200" height="200"><defs><style type="text/css"></style></defs><path d="M512 464.455014m-448.014129 0a448.014129 448.014129 0 1 0 896.028258 0 448.014129 448.014129 0 1 0-896.028258 0Z" fill="#FFE585" p-id="1474"></path><path d="M412.803918 1024h197.290625a16.440885 16.440885 0 0 0 0-32.881771h-197.290625a16.440885 16.440885 0 0 0 0 32.881771z" fill="#6E6E96" opacity=".29" p-id="1475"></path><path d="M683.527758 1024h57.543099a16.440885 16.440885 0 0 0 0-32.881771h-57.543099a16.440885 16.440885 0 0 0 0 32.881771zM334.158942 991.118229h-45.212435a16.440885 16.440885 0 0 0 0 32.881771h45.212435a16.440885 16.440885 0 0 0 0-32.881771z" fill="#6E6E96" opacity=".17" p-id="1476"></path><path d="M522.555048 24.443486c-4.217087 0-8.421844 0.069874-12.610159 0.18496 223.698798 6.374953 403.081189 189.707267 403.081189 414.947398 0 229.272258-185.8601 415.132358-415.132358 415.132358s-415.132358-185.8601-415.132358-415.132358c0-36.112405 4.619889-71.143822 13.284236-104.54759a447.586666 447.586666 0 0 0-21.504678 137.429361c0 247.431216 200.582913 448.014129 448.014128 448.014129s448.014129-200.582913 448.014129-448.014129-200.578803-448.014129-448.014129-448.014129z" fill="#FF9900" opacity=".24" p-id="1477"></path><path d="M100.977863 487.061232C100.977863 252.112758 291.437301 61.65332 526.385775 61.65332c229.851799 0 417.092934 182.300648 425.107865 410.187762 0.18085-5.182989 0.300046-10.378309 0.300046-15.60651C951.793686 208.807466 751.210773 8.220443 503.779557 8.220443S55.765428 208.807466 55.765428 456.234572c0 205.963193 138.999466 379.443306 328.308042 431.819856C219.117956 829.496105 100.977863 672.099288 100.977863 487.061232z" fill="#FFEFB5" p-id="1478"></path><path d="M430.995757 40.465129A435.617701 435.617701 0 0 1 512 32.881771c193.973677 0 365.176727 130.511859 416.307881 317.383073A432.567917 432.567917 0 0 1 943.573243 464.455014c0 115.279379-44.891838 223.653585-126.405747 305.167496S627.279379 896.028258 512 896.028258c-115.275268 0-223.657696-44.891838-305.167496-126.405748C125.318594 688.1086 80.426757 579.734393 80.426757 464.455014c0-65.225103 14.180264-127.885428 42.142099-186.24646a432.872073 432.872073 0 0 1 26.420503-47.263436 16.440885 16.440885 0 1 0-27.637128-17.813699 465.433247 465.433247 0 0 0-28.438622 50.868099C62.810348 326.828362 47.544986 394.272985 47.544986 464.455014c0 124.067032 48.311542 240.702784 136.035996 328.419018C271.305437 880.594377 387.937078 928.910029 512 928.910029c124.062922 0 240.698673-48.311542 328.414908-136.035997C928.139362 705.149578 976.455014 588.513826 976.455014 464.455014c0-41.689975-5.532358-83.026472-16.428554-122.870957C904.982375 140.466815 720.754033 0 512 0c-29.285327 0-58.603536 2.745628-87.136693 8.1629a16.440885 16.440885 0 0 0 6.13245 32.302229z" fill="#6E6E96" p-id="1479"></path><path d="M219.578301 452.979276c-4.151324 144.252329 70.432753 270.925241 191.211608 304.941434 120.782965 34.007972 250.501551-35.121842 322.245465-160.331515L219.578301 452.979276z" fill="#C7A17B" p-id="1480"></path><path d="M203.141526 452.506601c-4.504803 156.644646 77.148855 285.742589 203.188793 321.242571 126.035828 35.491761 263.058278-32.014514 340.971634-167.984747a16.477877 16.477877 0 0 0 0.953571-14.393995 16.461437 16.461437 0 0 0-10.76467-9.605588L224.033781 437.154924a16.440885 16.440885 0 0 0-20.892255 15.351677z m515.63138 136.911474c-70.280675 122.657226-192.251494 184.014611-303.523407 152.678282-111.271913-31.340438-183.299432-147.339105-179.234423-288.644405a16.453216 16.453216 0 0 1-20.892255 15.351677l513.457073 144.614028a16.436775 16.436775 0 0 1-9.806988-23.999582z" fill="#6E6E96" p-id="1481"></path><path d="M437.90915 641.621996c-60.966914-17.172505-121.103562-15.068072-168.96298 2.198969 30.481402 54.653614 77.568098 95.546206 136.738844 112.221373 59.174857 16.666948 120.68432 6.350292 175.198186-24.365392-31.809003-39.704738-82.003026-72.886555-142.97405-90.05495z" fill="#FF8CA4" p-id="1482"></path><path d="M442.36463 625.797644c-62.253413-17.530094-125.826207-16.621735-178.996031 2.560668a16.440885 16.440885 0 0 0-8.779432 23.473474c33.592839 60.231184 85.669344 102.854179 146.636257 120.039015 60.971024 17.176615 127.642925 7.98205 187.72203-25.861513a16.449106 16.449106 0 0 0 4.763747-24.607895c-35.343794-44.127337-89.093158-78.073655-151.346571-95.603749z m130.450205 91.559291c-53.173934 29.951183-109.422313 37.859249-162.674341 22.861051-53.252028-14.998198-97.10809-51.102382-126.837321-104.395512a16.428555 16.428555 0 0 1-8.779433 23.473474c46.774319-16.872459 103.215879-17.534204 158.92993-1.837269 55.70172 15.676384 103.503594 45.697441 134.597419 84.514372a16.486098 16.486098 0 0 1-3.308728-13.407542 16.412114 16.412114 0 0 1 8.072474-11.208574z" fill="#6E6E96" p-id="1483"></path><path d="M222.985674 516.708259l473.883863 133.475328a388.457021 388.457021 0 0 0 36.165837-52.590282L219.578301 452.979276a387.643197 387.643197 0 0 0 3.407373 63.728983z" fill="#FFFFFF" p-id="1484"></path><path d="M218.530194 532.532611l473.883863 133.471218a16.453216 16.453216 0 0 0 17.193056-5.421382 406.155634 406.155634 0 0 0 37.69895-54.818022 16.440885 16.440885 0 0 0-9.815209-24.003693L224.033781 437.154924a16.444996 16.444996 0 0 0-20.892255 15.355787 405.600755 405.600755 0 0 0 3.555341 66.433508 16.440885 16.440885 0 0 0 11.833327 13.588392z m-3.407373-63.728982l513.457073 144.609918a16.465547 16.465547 0 0 1-9.811098-24.003693 372.920385 372.920385 0 0 1-34.632725 50.358432 16.444996 16.444996 0 0 1 17.188946-5.417271L227.445265 500.883906a16.432665 16.432665 0 0 1 11.829217 13.588392 372.114781 372.114781 0 0 1-3.259406-61.024456 16.440885 16.440885 0 0 1-20.892255 15.355787z" fill="#6E6E96" p-id="1485"></path><path d="M222.985674 516.708259s21.607434 182.530821 169.024634 232.737174c147.413089 50.206354 298.636354-101.016911 298.636353-101.01691l-467.660987-131.720264z m170.8208 197.212531c-105.073699-31.147258-119.414261-140.688767-119.414261-140.688767l333.507472 82.298962c0 0.012331-109.015401 89.532952-214.093211 58.389805z" fill="#6E6E96" opacity=".15" p-id="1486"></path><path d="M399.227856 64.419499c-23.506356-7.98205-47.756662-4.689763-68.542051 7.028479-7.492934-20.514115-22.65965-38.019548-43.753307-45.183663-39.092315-13.280125-83.684107 13.92954-96.495667 51.636711C157.526289 174.754282 262.312272 278.837417 262.312272 278.837417l2.868935-5.94749-0.813824 6.650338s147.014398-18.537098 179.92083-115.390354c12.81156-37.707171-5.972152-86.450286-45.060357-99.730412z" fill="#FF94B3" p-id="1487"></path><path d="M404.517711 48.849981c-27.053477-9.186345-56.141514-6.251647-81.904381 8.273876a16.436775 16.436775 0 0 1 23.518687 8.680787C336.374351 39.104646 316.727493 19.017994 292.222353 10.694796 270.976619 3.477247 247.256532 5.421382 225.439477 16.173721c-23.966701 11.812776-42.396933 32.380324-50.568054 56.433339C139.071395 177.972585 246.150882 285.956321 250.729669 290.498115a16.440885 16.440885 0 0 0 26.391731-4.521243l2.868935-5.94749a16.444996 16.444996 0 0 1-31.126707-9.141133l-0.813824 6.650339a16.440885 16.440885 0 0 0 18.3768 18.311036c6.420166-0.809714 157.626989-21.036113 193.431128-126.413969 8.17112-24.053015 6.087238-51.591499-5.721428-75.558199-10.752339-21.817055-28.372858-37.805816-49.618593-45.027475z m24.200984 110.010075C399.462139 244.981524 263.676866 263.054167 262.308162 263.226797a16.453216 16.453216 0 0 1 18.3768 18.311036l0.813824-6.650338a16.440885 16.440885 0 0 0-31.126707-9.141133l-2.868934 5.947491a16.428555 16.428555 0 0 1 26.391731-4.521244c-0.961792-0.961792-97.075208-98.106874-67.896746-183.985839 5.310406-15.627062 18.00688-29.651137 33.970979-37.5181 13.937761-6.86818 28.738668-8.232773 41.669424-3.838947 15.03108 5.104895 27.279539 17.957557 33.59695 35.257479a16.453216 16.453216 0 0 0 23.518686 8.680787c17.505433-9.868641 37.102968-11.919642 55.179722-5.783081 12.930756 4.389716 23.831063 14.48853 30.699244 28.426291 7.871074 15.9641 9.395966 34.821795 4.08556 50.448857z" fill="#6E6E96" p-id="1488"></path><path d="M854.882887 114.527208c-33.087282-10.386529-66.84864-4.998029-95.496883 12.042949-11.126369-28.40985-32.881771-52.356-62.578121-61.686203-55.031754-17.279371-116.42613 22.174644-133.097188 75.258154-42.812066 136.340153 106.919188 278.307199 106.919188 278.307199l3.814286-8.405403-0.93302 9.309651s204.734236-30.654031 247.554522-166.994184c16.662837-53.083509-11.151031-120.548682-66.182784-137.832163z" fill="#FF94B3" p-id="1489"></path><path d="M859.806932 98.842603c-36.280924-11.389423-74.925225-6.564024-108.830441 13.596613a16.440885 16.440885 0 0 1 23.715977 8.134128c-13.752801-35.113621-40.337712-61.131322-72.956429-71.373994-61.435479-19.293379-133.269818 20.900476-153.705839 86.014602-45.368623 144.470171 104.876408 289.080089 111.288354 295.163217a16.440885 16.440885 0 0 0 26.284866-5.137777l3.818395-8.405402c-3.329279 7.328525-11.471628 11.175692-19.248166 9.083589s-12.885544-9.502832-12.084051-17.513653l-0.93713 9.309651a16.453216 16.453216 0 0 0 18.804262 17.895904c8.775323-1.315271 215.420812-33.839453 260.801766-178.326064 20.4278-65.110017-15.520196-139.147434-76.951564-158.440814z m45.570024 148.584503C866.177775 372.242198 673.013812 402.797584 671.065567 403.089409a16.428555 16.428555 0 0 1 18.808373 17.895904l0.93713-9.309651a16.449106 16.449106 0 0 0-31.332217-8.430064l-3.814286 8.405402a16.453216 16.453216 0 0 1 26.288976-5.137776c-1.418026-1.344042-141.745094-136.619648-102.545913-261.451181 13.465085-42.89016 64.440051-79.582106 112.484429-64.493484 23.062452 7.24632 42.088667 26.198551 52.19159 51.9943a16.436775 16.436775 0 0 0 23.720088 8.134129c25.750537-15.314685 54.924888-19.038545 82.163325-10.485175 48.036157 15.092733 68.870869 74.333353 55.409894 117.215293z" fill="#6E6E96" p-id="1490"></path><path d="M623.247251 666.460064s222.650691 217.944488 67.559709 258.487711c-155.086873 40.530893-67.559709-258.487711-67.559709-258.487711z" fill="#89E0F5" p-id="1491"></path><path d="M611.755073 678.215297c-0.00822 0 0 0 0 0 37.263267 36.519317 130.766693 143.401513 116.06032 198.745644-4.097891 15.421551-17.558866 25.919056-41.167977 32.088498s-40.48157 3.604664-51.599719-7.842302c-35.483541-36.527537-16.387453-160.532916 3.974584-230.106633a16.428555 16.428555 0 0 1-27.267208 7.114793z m83.215541 262.639035c35.578076-9.301431 57.325257-27.965946 64.633231-55.467437 22.211636-83.663556-109.72647-215.872936-124.847974-230.669734a16.461437 16.461437 0 0 0-15.664053-4.159544 16.399783 16.399783 0 0 0-11.615486 11.286668c-5.94338 20.300383-56.330584 200.16367 3.991025 262.265005 19.815377 20.411359 47.91285 26.046473 83.503257 16.745042z" fill="#6E6E96" p-id="1492"></path><path d="M733.69712 106.232781a116.911137 116.911137 0 0 1 11.936083-6.185883c-11.977185-19.527662-29.663468-35.171164-51.916206-42.557232 18.3768 10.95785 32.088498 28.615361 39.980123 48.743115z m116.730287 0.419243a116.512445 116.512445 0 0 0-9.991948-2.614101c37.563313 23.555679 54.879676 75.525318 41.648873 117.646866-39.306047 125.131579-227.208927 153.274265-227.208927 153.274265l0.850816-8.54515-3.497799 7.714886s-73.050964-69.286002-97.395805-155.329376c18.668625 103.877625 111.341787 191.774708 111.341786 191.774708l3.814286-8.405402-0.93302 9.309651s204.734236-30.654031 247.554522-166.994184c16.662837-53.083509-11.151031-120.548682-66.182784-137.832163z" fill="#6E6E96" opacity=".15" p-id="1493"></path><path d="M306.168334 62.828844a83.067574 83.067574 0 0 1 8.253325-4.27463c-8.277986-13.497967-20.501784-24.307849-35.882233-29.416855 12.700584 7.575138 22.178754 19.778385 27.628908 33.691485z m80.683646 0.287715a79.812278 79.812278 0 0 0-6.905172-1.804387c25.960158 16.284697 37.929123 52.195701 28.78388 81.308399-27.164453 86.487278-157.035118 105.932735-157.035117 105.932735l0.587761-5.906388-2.41681 5.330957s-50.489959-47.884079-67.317205-107.358982c12.901985 71.805567 76.955675 132.546419 76.955674 132.546419l2.634652-5.811853-0.641194 6.432496S402.996929 252.597764 432.590523 158.366829c11.52095-36.679615-7.706665-83.305967-45.738543-95.25027z" fill="#6E6E96" opacity=".15" p-id="1494"></path></svg>