<?xml version="1.0" standalone="no"?><!DOCTYPE svg PUBLIC "-//W3C//DTD SVG 1.1//EN" "http://www.w3.org/Graphics/SVG/1.1/DTD/svg11.dtd"><svg t="1645768927129" class="icon" viewBox="0 0 1024 1024" version="1.1" xmlns="http://www.w3.org/2000/svg" p-id="20554" xmlns:xlink="http://www.w3.org/1999/xlink" width="32" height="32"><defs><style type="text/css"></style></defs><path d="M510.9248 520.96m-450.816 0a450.816 450.816 0 1 0 901.632 0 450.816 450.816 0 1 0-901.632 0Z" fill="#59ADF8" p-id="20555"></path><path d="M489.4208 456.1408h259.3792c25.088 0 45.4144-20.3264 45.4144-45.4144V275.8144c0-25.088-20.3264-45.4144-45.4144-45.4144H489.4208c-25.088 0-45.4144 20.3264-45.4144 45.4144v134.912c0 25.088 20.3264 45.4144 45.4144 45.4144zM527.4112 581.7344H268.032c-25.088 0-45.4144 20.3264-45.4144 45.4144v134.912c0 25.088 20.3264 45.4144 45.4144 45.4144h259.3792c25.088 0 45.4144-20.3264 45.4144-45.4144v-134.912c0.0512-25.088-20.3264-45.4144-45.4144-45.4144zM818.5344 540.8768l-53.1456-54.9376a30.21312 30.21312 0 0 0-40.2432-2.816l-58.8288 45.7728c-13.1584 10.24-15.5136 29.2352-5.2736 42.3936 10.24 13.1584 29.2352 15.5136 42.3936 5.2736l6.5024-5.0688c-0.7168 5.7344-1.6896 11.7248-3.1744 17.8176-11.1104 45.6704-42.3424 78.2848-92.7744 96.9216a30.19264 30.19264 0 0 0-17.8688 38.8096 30.21312 30.21312 0 0 0 28.3136 19.7632c3.4816 0 7.0144-0.6144 10.4448-1.8944 94.2592-34.816 128.1536-105.1648 135.5264-164.9152l4.7616 4.9152c5.9392 6.144 13.824 9.216 21.7088 9.216 7.5776 0 15.104-2.816 20.992-8.4992 11.9296-11.6224 12.2368-30.72 0.6656-42.752zM288.0512 560.384c7.4752 0 14.9504-2.7648 20.7872-8.2944l54.1184-51.2512a30.2336 30.2336 0 0 0 1.1776-42.7008 30.18752 30.18752 0 0 0-42.7008-1.1776l-5.9904 5.6832c0.1536-5.7856 0.5632-11.8272 1.4336-18.0736 6.656-46.5408 34.56-82.0224 82.944-105.472a30.21824 30.21824 0 0 0 14.0288-40.3456 30.21824 30.21824 0 0 0-40.3456-14.0288c-90.4704 43.776-117.3504 117.0432-118.8864 177.3056l-5.2224-4.4544a30.1824 30.1824 0 1 0-39.1168 45.9776l58.2144 49.5616c5.632 4.864 12.5952 7.2704 19.5584 7.2704z" fill="#FFFFFF" p-id="20556"></path></svg>