<?xml version="1.0" standalone="no"?><!DOCTYPE svg PUBLIC "-//W3C//DTD SVG 1.1//EN" "http://www.w3.org/Graphics/SVG/1.1/DTD/svg11.dtd"><svg t="1645710314604" class="icon" viewBox="0 0 1024 1024" version="1.1" xmlns="http://www.w3.org/2000/svg" p-id="1326" xmlns:xlink="http://www.w3.org/1999/xlink" width="64" height="64"><defs><style type="text/css"></style></defs><path d="M898.7648 397.7728c-16.9472 0-30.72-13.7728-30.72-30.72V197.376c0-26.9824-21.9648-48.9984-48.9984-48.9984h-170.9568c-16.9472 0-30.72-13.7728-30.72-30.72s13.7728-30.72 30.72-30.72h170.9568c60.8768 0 110.4384 49.5104 110.4384 110.4384v169.6768c0 16.9984-13.7728 30.72-30.72 30.72zM818.432 923.1872h-169.6768c-16.9472 0-30.72-13.7728-30.72-30.72s13.7728-30.72 30.72-30.72h169.6768c26.9824 0 48.9984-21.9648 48.9984-48.9984v-170.9568c0-16.9472 13.7728-30.72 30.72-30.72s30.72 13.7728 30.72 30.72v170.9568c-0.0512 60.928-49.5616 110.4384-110.4384 110.4384zM128.0512 397.7728c-16.9472 0-30.72-13.7728-30.72-30.72V197.376c0-60.8768 49.5104-110.4384 110.4384-110.4384h170.9568c16.9472 0 30.72 13.7728 30.72 30.72s-13.7728 30.72-30.72 30.72h-171.008c-26.9824 0-48.9984 21.9648-48.9984 48.9984v169.6768c0.0512 16.9984-13.7216 30.72-30.6688 30.72zM378.0608 923.1872H208.384c-60.8768 0-110.4384-49.5104-110.4384-110.4384v-170.9568c0-16.9472 13.7728-30.72 30.72-30.72s30.72 13.7728 30.72 30.72v170.9568c0 27.0336 21.9648 48.9984 48.9984 48.9984h169.6768c16.9472 0 30.72 13.7728 30.72 30.72s-13.7728 30.72-30.72 30.72z" fill="#474747" p-id="1327"></path><path d="M527.8208 565.4016c-94.7712 0-171.9296-77.1072-171.9296-171.9296 0-94.7712 77.1072-171.8784 171.9296-171.8784 94.7712 0 171.8784 77.1072 171.8784 171.8784 0 94.7712-77.1072 171.9296-171.8784 171.9296z m0-282.368c-60.928 0-110.4896 49.5616-110.4896 110.4384s49.5616 110.4896 110.4896 110.4896 110.4384-49.5616 110.4384-110.4896-49.5104-110.4384-110.4384-110.4384z" fill="#336BFF" p-id="1328"></path><path d="M751.6672 793.4976c-16.9472 0-30.72-13.7728-30.72-30.72 0-106.496-86.6304-193.1264-193.1264-193.1264s-193.1776 86.6304-193.1776 193.1264c0 16.9472-13.7728 30.72-30.72 30.72s-30.72-13.7728-30.72-30.72c0-140.3904 114.2272-254.5664 254.6176-254.5664 140.3904 0 254.5664 114.2272 254.5664 254.5664 0 16.9472-13.7216 30.72-30.72 30.72z" fill="#336BFF" p-id="1329"></path></svg>