<?xml version="1.0" standalone="no"?><!DOCTYPE svg PUBLIC "-//W3C//DTD SVG 1.1//EN" "http://www.w3.org/Graphics/SVG/1.1/DTD/svg11.dtd"><svg t="1639112580294" class="icon" viewBox="0 0 1024 1024" version="1.1" xmlns="http://www.w3.org/2000/svg" p-id="11443" xmlns:xlink="http://www.w3.org/1999/xlink" width="32" height="32"><defs><style type="text/css"></style></defs><path d="M690.858667 497.28L509.866667 316.288l-181.034667 180.992a42.666667 42.666667 0 1 1-60.330667-60.330667l211.2-211.2a42.453333 42.453333 0 0 1 22.613334-11.818666L507.349333 213.333333h5.034667c10.069333 0.597333 19.968 4.693333 27.648 12.416l211.2 211.2a42.666667 42.666667 0 0 1-60.373333 60.330667z m0 298.666667l-180.992-180.992-181.034667 180.992a42.666667 42.666667 0 1 1-60.330667-60.330667l211.2-211.2a42.453333 42.453333 0 0 1 22.613334-11.818667l5.034666-0.597333h5.034667c10.069333 0.597333 19.968 4.693333 27.648 12.416l211.2 211.2a42.666667 42.666667 0 0 1-60.373333 60.330667z" fill="#666666" p-id="11444"></path></svg>