<?xml version="1.0" encoding="UTF-8"?>
<svg width="41px" height="36px" viewBox="0 0 41 36" version="1.1" xmlns="http://www.w3.org/2000/svg" xmlns:xlink="http://www.w3.org/1999/xlink">
    <title>Code</title>
    <g id="页面-1" stroke="none" stroke-width="1" fill="none" fill-rule="evenodd">
        <g id="Code" transform="translate(1.207477, 1.050467)" fill-rule="nonzero">
            <path d="M0,3.9494041 L0,31.4113436 C0,32.6793311 0.893812059,33.6803738 2.02597401,33.6803738 L36.974026,33.6803738 C38.1061879,33.6803738 39,32.645963 39,31.4113436 L39,4.08287645 C39,2.74815278 38.0466005,1.68037384 36.854851,1.68037384 L2.02597401,1.68037384 L0,3.9494041 Z" id="路径" stroke="#4988FD" fill="#FFFFFF"></path>
            <path d="M25.9205501,8 L0,8 L0,3.16279071 C0,1.39534886 0.893812059,0 2.02597401,0 L36.974026,0 C38.1061879,0 39,1.39534881 39,3.16279071 L39,8 L25.9205501,8 Z" id="路径" stroke="#4988FD" fill="#4988FD"></path>
            <path d="M2.15514019,4.23457941 C2.15514019,4.77047779 2.44103855,5.26566831 2.90514016,5.5336175 C3.36924176,5.8015667 3.94103852,5.8015667 4.40514013,5.5336175 C4.86924174,5.26566831 5.15514019,4.77047779 5.15514019,4.23457941 C5.15514019,3.69868103 4.86924174,3.2034905 4.40514013,2.93554131 C3.94103853,2.66759211 3.36924176,2.66759211 2.90514015,2.93554131 C2.44103854,3.2034905 2.15514019,3.69868103 2.15514019,4.23457941 L2.15514019,4.23457941 Z" id="路径" fill="#FFFFFF"></path>
            <path d="M6.65514005,4.23457941 C6.65514005,4.77047779 6.94103841,5.26566832 7.40514002,5.53361752 C7.86924163,5.80156671 8.44103839,5.80156671 8.90514,5.53361752 C9.36924161,5.26566832 9.65514005,4.77047779 9.65514005,4.23457941 C9.65514005,3.69868103 9.36924161,3.2034905 8.90514,2.93554131 C8.44103839,2.66759211 7.86924163,2.66759211 7.40514002,2.93554131 C6.94103841,3.2034905 6.65514005,3.69868103 6.65514005,4.23457941 L6.65514005,4.23457941 Z" id="路径" fill="#DFECFD"></path>
            <path d="M12.6551399,5.73457943 C13.483567,5.73457943 14.1551399,5.06300653 14.1551399,4.23457943 C14.1551399,3.4061523 13.483567,2.73457943 12.6551399,2.73457943 C11.8267128,2.73457943 11.1551399,3.4061523 11.1551399,4.23457943 C11.1551399,5.06300653 11.8267128,5.73457943 12.6551399,5.73457943 Z" id="路径" fill="#C4D9F2"></path>
            <path d="M14.0280374,26.1607477 C13.6990654,26.1607477 13.4,26.0411215 13.1906542,25.7719626 L9.60186916,21.5252337 C9.24299064,21.1140187 9.24299064,20.5009346 9.60186916,20.0897196 L13.1906542,15.8429907 C13.5794393,15.364486 14.2971963,15.3046729 14.7457944,15.7233645 C15.2242991,16.1121495 15.2841122,16.8299066 14.8654206,17.2785047 L11.8747664,20.8074767 L14.8654206,24.3364486 C15.2542056,24.8149533 15.1943925,25.5028037 14.7457944,25.8915888 C14.5364486,26.1009346 14.2672897,26.1607477 14.0280374,26.1607477 L14.0280374,26.1607477 Z M24.3457944,26.1607477 C24.1065421,26.1607477 23.8373832,26.0710281 23.6280374,25.8915888 C23.1495327,25.5028037 23.0897197,24.7850467 23.5084112,24.3364486 L26.4990654,20.8074767 L23.5084112,17.2785047 C23.1196262,16.8 23.1794393,16.1121496 23.6280374,15.7233645 C24.1065421,15.3345795 24.7943925,15.3943925 25.1831776,15.8429907 L28.7719626,20.0897196 C29.1308411,20.5084112 29.1308411,21.1065421 28.7719626,21.5252337 L25.1831776,25.7719626 C24.9738318,26.0411215 24.6747664,26.1607477 24.3457944,26.1607477 L24.3457944,26.1607477 Z M17.6168224,26.4897196 C17.4971963,26.4897196 17.3775701,26.4598131 17.2579439,26.4299066 C16.6897196,26.2205608 16.3607477,25.5925234 16.5700935,25.0242991 L19.7102804,16.1121495 C19.9196262,15.5439252 20.5476636,15.2149533 21.1158879,15.4242991 C21.6841122,15.6336448 22.0130841,16.2616822 21.8037383,16.8299066 L18.6635514,25.7420561 C18.5140187,26.1906542 18.0654206,26.4897196 17.6168224,26.4897196 Z" id="形状" fill="#3973F4"></path>
        </g>
    </g>
</svg>