<?xml version="1.0" standalone="no"?><!DOCTYPE svg PUBLIC "-//W3C//DTD SVG 1.1//EN" "http://www.w3.org/Graphics/SVG/1.1/DTD/svg11.dtd"><svg t="1639103611154" class="icon" viewBox="0 0 1024 1024" version="1.1" xmlns="http://www.w3.org/2000/svg" p-id="11296" xmlns:xlink="http://www.w3.org/1999/xlink" width="32" height="32"><defs><style type="text/css"></style></defs><path d="M929.28 358.656l0.341333 0.426667a42.368 42.368 0 0 1 9.045334 26.282666V853.333333a128 128 0 0 1-128 128H213.333333a128 128 0 0 1-128-128V384.512c0-1.024 0.085333-2.090667 0.170667-3.114667L85.333333 385.365333a43.008 43.008 0 0 1 9.045334-26.325333c2.048-2.56 4.394667-4.906667 6.954666-6.954667l0.426667-0.341333 384-300.032a42.666667 42.666667 0 0 1 52.48 0l384 300.032 0.426667 0.341333c2.474667 1.92 4.693333 4.138667 6.613333 6.570667zM512 139.434667l-341.333333 266.666666V853.333333a42.538667 42.538667 0 0 0 36.864 42.24L213.333333 896l128-0.042667v-382.592a42.666667 42.666667 0 0 1 42.666667-42.666666h256a42.666667 42.666667 0 0 1 42.666667 42.666666v382.592L810.666667 896a42.538667 42.538667 0 0 0 42.24-36.864L853.333333 853.333333V406.144l-341.333333-266.709333z m85.333333 416.597333h-170.666666v339.925333h170.666666v-339.925333z" fill="#666666" p-id="11297"></path></svg>