<?xml version="1.0" standalone="no"?><!DOCTYPE svg PUBLIC "-//W3C//DTD SVG 1.1//EN" "http://www.w3.org/Graphics/SVG/1.1/DTD/svg11.dtd"><svg t="1661414879618" class="icon" viewBox="0 0 1024 1024" version="1.1" xmlns="http://www.w3.org/2000/svg" p-id="3703" xmlns:xlink="http://www.w3.org/1999/xlink" width="128" height="128"><defs><style type="text/css">@font-face { font-family: feedback-iconfont; src: url("//at.alicdn.com/t/font_1031158_u69w8yhxdu.woff2?t=1630033759944") format("woff2"), url("//at.alicdn.com/t/font_1031158_u69w8yhxdu.woff?t=1630033759944") format("woff"), url("//at.alicdn.com/t/font_1031158_u69w8yhxdu.ttf?t=1630033759944") format("truetype"); }
</style></defs><path d="M879.555 310.718l-218.756-194.44c-42.437-37.72-95.622-56.578-148.813-56.576-53.19 0.001-106.387 18.862-148.821 56.584L144.438 310.718A192.002 192.002 0 0 0 80 454.218V768c0 106.038 85.961 192 192 192h480c106.039 0 192-85.962 192-192V454.224a192.001 192.001 0 0 0-64.445-143.506zM416 880V720c0-52.935 43.065-96 96-96s96 43.065 96 96v160H416z m448-112c0 61.757-50.243 112-112 112h-64V720c0-97.202-78.798-176-176-176s-176 78.798-176 176v160h-64c-61.757 0-112-50.243-112-112V454.218a112.09 112.09 0 0 1 37.589-83.708l218.727-194.433a143.868 143.868 0 0 1 95.677-36.376 143.846 143.846 0 0 1 95.659 36.371L826.407 370.51A112.096 112.096 0 0 1 864 454.224V768z" fill="#333333" p-id="3704"></path></svg>