<?xml version="1.0" standalone="no"?><!DOCTYPE svg PUBLIC "-//W3C//DTD SVG 1.1//EN" "http://www.w3.org/Graphics/SVG/1.1/DTD/svg11.dtd"><svg t="1661414587435" class="icon" viewBox="0 0 1024 1024" version="1.1" xmlns="http://www.w3.org/2000/svg" p-id="2269" xmlns:xlink="http://www.w3.org/1999/xlink" width="128" height="128"><defs><style type="text/css">@font-face { font-family: feedback-iconfont; src: url("//at.alicdn.com/t/font_1031158_u69w8yhxdu.woff2?t=1630033759944") format("woff2"), url("//at.alicdn.com/t/font_1031158_u69w8yhxdu.woff?t=1630033759944") format("woff"), url("//at.alicdn.com/t/font_1031158_u69w8yhxdu.ttf?t=1630033759944") format("truetype"); }
</style></defs><path d="M120 224h784c22.092 0 40-17.909 40-40 0-22.092-17.908-40-40-40H120c-22.092 0-40 17.908-40 40 0 22.091 17.908 40 40 40zM904 800H120c-22.092 0-40 17.908-40 40 0 22.091 17.908 40 40 40h784c22.092 0 40-17.909 40-40 0-22.092-17.908-40-40-40zM904 472H440c-22.092 0-40 17.908-40 40 0 22.091 17.908 40 40 40h464c22.092 0 40-17.909 40-40 0-22.092-17.908-40-40-40zM308.284 325.323c-15.621-15.621-40.947-15.621-56.568 0L93.324 483.716c-15.621 15.621-15.621 40.947 0 56.568l158.392 158.392c15.621 15.621 40.947 15.621 56.568 0s15.621-40.947 0-56.568L178.177 512l130.107-130.108c15.621-15.621 15.621-40.948 0-56.569z" fill="#333333" p-id="2270"></path></svg>