<?xml version="1.0" encoding="UTF-8"?>
<svg width="93px" height="106px" viewBox="0 0 93 106" version="1.1" xmlns="http://www.w3.org/2000/svg" xmlns:xlink="http://www.w3.org/1999/xlink">
    <title>路径 3</title>
    <g id="控件" stroke="none" stroke-width="1" fill="none" fill-rule="evenodd" stroke-linecap="round" stroke-linejoin="round">
        <path d="M41.6666667,5 L78.5,5 C83.4705627,5 87.5,9.02943725 87.5,14 L87.5,21.6666667 C87.5,27.1895142 83.0228475,31.6666667 77.5,31.6666667 L66.3728027,31.6666667 C65.7132329,31.6667749 65.0552917,31.7321373 64.4087049,31.8623607 C55.8161666,33.5877465 51.6799316,38.9669596 52,48 C52.3324788,57.3832917 56.8102894,62.0132697 65.4334318,61.889934 C65.47934,61.8892149 65.5252532,61.8888938 65.571167,61.8888889 L77.5,61.8888889 C83.0228475,61.8888889 87.5,66.3660414 87.5,71.8888889 L87.5,88.5555556 L87.5,88.5555556 L87.5,91 C87.5,96.5228475 83.0228475,101 77.5,101 L15,101 C9.4771525,101 5,96.5228475 5,91 L5,61.8888889 L5,61.8888889 L5,15 C5,9.4771525 9.4771525,5 15,5 L41.6666667,5 L41.6666667,5 Z" id="路径-3" stroke="#333333" stroke-width="10"></path>
    </g>
</svg>