<?xml version="1.0" standalone="no"?><!DOCTYPE svg PUBLIC "-//W3C//DTD SVG 1.1//EN" "http://www.w3.org/Graphics/SVG/1.1/DTD/svg11.dtd"><svg t="1656645212254" class="icon" viewBox="0 0 1024 1024" version="1.1" xmlns="http://www.w3.org/2000/svg" p-id="164345" width="16" height="16" xmlns:xlink="http://www.w3.org/1999/xlink"><defs><style type="text/css">@font-face { font-family: feedback-iconfont; src: url("//at.alicdn.com/t/font_1031158_u69w8yhxdu.woff2?t=1630033759944") format("woff2"), url("//at.alicdn.com/t/font_1031158_u69w8yhxdu.woff?t=1630033759944") format("woff"), url("//at.alicdn.com/t/font_1031158_u69w8yhxdu.ttf?t=1630033759944") format("truetype"); }
</style></defs><path d="M365.340153 565.68798c52.070793 0 94.28133 42.210537 94.28133 94.281329v243.560103c0 52.070793-42.210537 94.28133-94.28133 94.28133H121.780051c-52.070793 0-94.28133-42.210537-94.28133-94.28133V659.969309c0-52.070793 42.210537-94.28133 94.28133-94.281329h243.560102z m0 78.567774H121.780051c-8.544246 0-15.496184 6.820992-15.708317 15.314169L106.066496 659.969309v243.560103c0 8.544246 6.820992 15.496184 15.314169 15.708317L121.780051 919.242967h243.560102c8.544246 0 15.496184-6.820992 15.708318-15.314169L381.053708 903.529412V659.969309c0-8.544246-6.820992-15.496184-15.314168-15.708317L365.340153 644.255754zM365.340153 26.189258c52.070793 0 94.28133 42.210537 94.28133 94.28133v243.560103c0 52.070793-42.210537 94.28133-94.28133 94.281329H121.780051c-52.070793 0-94.28133-42.210537-94.28133-94.281329V120.470588c0-52.070793 42.210537-94.28133 94.28133-94.28133h243.560102z m0 78.567775H121.780051c-8.544246 0-15.496184 6.820992-15.708317 15.314169-0.003928 0.265821-0.005238 0.532951-0.005238 0.798772V364.030691c0 8.544246 6.820992 15.496184 15.314169 15.708317L121.780051 379.744246h243.560102c8.544246 0 15.496184-6.820992 15.708318-15.314169L381.053708 364.030691V120.470588c0-8.544246-6.820992-15.496184-15.314168-15.708317L365.340153 104.757033z" fill="#707070" p-id="164346"></path><path d="M566.285618 772.988801m27.777903-27.777904l0 0q27.777903-27.777903 55.555807 0l107.407892 107.407893q27.777903 27.777903 0 55.555806l0 0q-27.777903 27.777903-55.555806 0l-107.407893-107.407892q-27.777903-27.777903 0-55.555807Z" fill="#707070" p-id="164347"></path><path d="M942.441395 612.377674m27.777903 27.777903l0 0q27.777903 27.777903 0 55.555806l-212.963925 212.963925q-27.777903 27.777903-55.555806 0l0 0q-27.777903-27.777903 0-55.555807l212.963924-212.963924q27.777903-27.777903 55.555807 0Z" fill="#707070" p-id="164348"></path><path d="M903.529412 26.189258c52.070793 0 94.28133 42.210537 94.28133 94.28133v243.560103c0 52.070793-42.210537 94.28133-94.28133 94.281329H659.969309c-52.070793 0-94.28133-42.210537-94.281329-94.281329V120.470588c0-52.070793 42.210537-94.28133 94.281329-94.28133h243.560103z m0 78.567775H659.969309c-8.544246 0-15.496184 6.820992-15.708317 15.314169L644.255754 120.470588v243.560103c0 8.544246 6.820992 15.496184 15.314169 15.708317L659.969309 379.744246h243.560103c8.544246 0 15.496184-6.820992 15.708317-15.314169L919.242967 364.030691V120.470588c0-8.544246-6.820992-15.496184-15.314169-15.708317L903.529412 104.757033z" fill="#707070" p-id="164349"></path></svg>