<?xml version="1.0" standalone="no"?><!DOCTYPE svg PUBLIC "-//W3C//DTD SVG 1.1//EN" "http://www.w3.org/Graphics/SVG/1.1/DTD/svg11.dtd"><svg t="1639538806002" class="icon" viewBox="0 0 1024 1024" version="1.1" xmlns="http://www.w3.org/2000/svg" p-id="11246" xmlns:xlink="http://www.w3.org/1999/xlink" width="32" height="32"><defs><style type="text/css"></style></defs><path d="M426.666667 597.333333h0.810666c0.938667 0 1.877333 0.085333 2.773334 0.170667L426.666667 597.333333a43.008 43.008 0 0 1 7.509333 0.682667l0.981333 0.170667a42.368 42.368 0 0 1 8.746667 2.773333l0.853333 0.384 0.682667 0.341333a42.538667 42.538667 0 0 1 7.381333 4.608l0.085334 0.042667 0.426666 0.384c2.56 2.048 4.906667 4.394667 6.912 6.954667l-3.413333-3.84a43.008 43.008 0 0 1 12.458667 28.757333L469.333333 640v256a42.666667 42.666667 0 0 1-85.333333 0v-153.002667l-228.864 228.864a42.666667 42.666667 0 1 1-60.330667-60.330666L323.584 682.666667H170.666667a42.666667 42.666667 0 0 1 0-85.333334h256zM929.194667 137.472a42.666667 42.666667 0 0 1 0 60.330667L700.330667 426.666667H853.333333a42.666667 42.666667 0 0 1 0 85.333333h-257.408l-2.218666-0.170667-1.365334-0.128-1.578666-0.213333a42.752 42.752 0 0 1-0.938667-0.170667l-0.981333-0.170666a42.368 42.368 0 0 1-25.173334-15.573334l3.498667 3.925334A43.008 43.008 0 0 1 554.666667 470.186667 42.24 42.24 0 0 1 554.666667 469.333333V213.333333a42.666667 42.666667 0 0 1 85.333333 0v152.917334l228.864-228.778667a42.666667 42.666667 0 0 1 60.330667 0z" fill="#666666" p-id="11247"></path></svg>