<?xml version="1.0" standalone="no"?><!DOCTYPE svg PUBLIC "-//W3C//DTD SVG 1.1//EN" "http://www.w3.org/Graphics/SVG/1.1/DTD/svg11.dtd"><svg t="1639103540610" class="icon" viewBox="0 0 1024 1024" version="1.1" xmlns="http://www.w3.org/2000/svg" p-id="11149" xmlns:xlink="http://www.w3.org/1999/xlink" width="32" height="32"><defs><style type="text/css"></style></defs><path d="M477.44 85.333333c-235.648 0-426.666667 191.018667-426.666667 426.666667s191.018667 426.666667 426.666667 426.666667c184.32 0 341.418667-116.906667 401.066667-280.661334l-0.128-0.085333a42.666667 42.666667 0 1 0-80.213334-29.184l-1.92 5.418667-2.133333 5.461333A341.461333 341.461333 0 0 1 136.106667 512a341.333333 341.333333 0 0 1 582.698666-241.365333l108.202667 108.16h-153.002667a42.666667 42.666667 0 1 0 0 85.333333h257.408l2.432-0.128 1.109334-0.128 1.066666-0.128 1.493334-0.256 1.109333-0.213333a42.368 42.368 0 0 0 3.84-0.981334l0.469333-0.128a42.325333 42.325333 0 0 0 1.450667-0.512l2.090667-0.810666a42.368 42.368 0 0 0 17.109333-13.056l-3.413333 3.84a42.965333 42.965333 0 0 0 12.501333-30.122667v-256a42.666667 42.666667 0 1 0-85.333333 0v152.917333L779.093333 210.304A425.344 425.344 0 0 0 477.44 85.333333z" fill="#666666" p-id="11150"></path></svg>