<?xml version="1.0" standalone="no"?><!DOCTYPE svg PUBLIC "-//W3C//DTD SVG 1.1//EN" "http://www.w3.org/Graphics/SVG/1.1/DTD/svg11.dtd"><svg t="1665305249681" class="icon" viewBox="0 0 1024 1024" version="1.1" xmlns="http://www.w3.org/2000/svg" p-id="11425" xmlns:xlink="http://www.w3.org/1999/xlink" width="128" height="128"><path d="M947.326 890.96L798.428 742.061c134.463-162.838 125.561-404.285-26.806-556.652C690.682 104.469 584.599 64 478.515 64s-212.167 40.469-293.107 121.409c-161.878 161.878-161.878 424.335 0 586.213 80.94 80.94 187.023 121.409 293.107 121.409 93.619 0 187.209-31.567 263.546-94.603l148.898 148.898c7.783 7.783 17.983 11.674 28.183 11.674 10.201 0 20.401-3.891 28.183-11.674 15.566-15.565 15.566-40.801 0.001-56.366z m-468.811-77.643c-89.428 0-173.504-34.826-236.74-98.061-130.538-130.539-130.538-342.942 0-473.48 63.235-63.235 147.311-98.061 236.74-98.061s173.505 34.826 236.74 98.061c130.538 130.538 130.538 342.941 0 473.48-63.235 63.235-147.311 98.061-236.74 98.061z" fill="#333333" p-id="11426"></path></svg>