<?xml version="1.0" encoding="UTF-8"?>
<svg width="28px" height="28px" viewBox="0 0 28 28" version="1.1" xmlns="http://www.w3.org/2000/svg" xmlns:xlink="http://www.w3.org/1999/xlink">
    <title>sideopen</title>
    <g id="页面-1" stroke="none" stroke-width="1" fill="none" fill-rule="evenodd">
        <g id="layout" transform="translate(0.666667, 0.666667)" fill="#666666" fill-rule="nonzero">
            <path d="M22.6666667,4.4408921e-16 C24.8758057,4.4408921e-16 26.6666667,1.790861 26.6666667,4 L26.6666667,22.6666667 C26.6666667,24.8758057 24.8758057,26.6666667 22.6666667,26.6666667 L4,26.6666667 C1.790861,26.6666667 -8.8817842e-16,24.8758057 -8.8817842e-16,22.6666667 L-8.8817842e-16,4 C-8.8817842e-16,1.790861 1.790861,4.4408921e-16 4,4.4408921e-16 L22.6666667,4.4408921e-16 Z M5.66666669,10.6666667 L2.66666669,10.6666667 L2.66666669,22.6666667 C2.66671685,23.3426331 2.95129702,23.9115786 3.32891668,23.9906667 L3.41666668,24 L5.66666669,24 L5.66666669,10.6666667 L5.66666669,10.6666667 Z M24,10.6666667 L7,10.6666667 L7,24 L22.3,24 C23.1618572,24 23.8872627,23.4939905 23.9881,22.8226667 L24,22.6666667 L24,10.6666667 Z M22.6666667,2.66666669 L4,2.66666669 C3.32403357,2.66675586 2.75508808,3.17267616 2.676,3.844 L2.66666669,4 L2.66666669,8 L24,8 L24,4 C24,3.26362035 23.4030463,2.66666669 22.6666667,2.66666669 Z" id="形状"></path>
        </g>
        <path id="直线" d="M13.5,15.5 L13.5,19.5 L9.5,17.5 L13.5,15.5 Z M16.5,15.5 L20.5,17.5 L16.5,19.5 L16.5,15.5 Z" fill="#666666" fill-rule="nonzero"></path>
    </g>
</svg>