<?xml version="1.0" standalone="no"?><!DOCTYPE svg PUBLIC "-//W3C//DTD SVG 1.1//EN" "http://www.w3.org/Graphics/SVG/1.1/DTD/svg11.dtd"><svg t="1700448501615" class="icon" viewBox="0 0 1024 1024" version="1.1" xmlns="http://www.w3.org/2000/svg" p-id="6818" xmlns:xlink="http://www.w3.org/1999/xlink" width="64" height="64"><path d="M976.896 587.776l-104.448-28.16 36.352-20.992c21.504-12.288 31.744-38.912 20.992-61.44-11.776-25.6-43.008-35.328-67.072-21.504L742.4 525.312 657.408 501.76c-24.064-6.656-32.256-36.352-14.336-54.272l64.512-64.512h135.168c24.576 0 46.592-17.92 49.152-42.496 2.56-28.16-19.456-52.224-47.104-52.224h-42.496l74.24-74.24c17.92-17.92 20.992-48.128 3.584-67.072-18.432-20.48-49.664-20.992-68.608-2.048l-77.824 77.824v-41.984c0-24.576-17.92-46.592-42.496-49.152-28.16-2.56-52.224 19.456-52.224 47.104V317.44l-62.976 62.976c-17.408 17.408-47.616 9.728-54.272-14.336l-23.552-87.552 67.072-116.736c12.8-22.016 7.68-51.712-13.824-65.536-23.04-14.848-53.248-7.168-67.072 15.872l-21.504 36.864-26.112-101.888C430.08 23.552 407.04 6.656 382.464 10.752c-28.16 4.608-45.056 32.256-37.888 58.88l28.672 105.984-37.376-21.504c-19.456-11.264-45.056-8.192-59.904 8.704-20.48 23.552-13.824 57.856 11.776 72.704l120.32 69.632 23.04 85.504c6.656 24.064-15.36 46.08-39.424 39.424l-88.064-23.552L235.52 289.792c-12.288-21.504-38.912-31.744-61.44-20.992-25.6 11.776-35.328 43.008-21.504 66.56l21.504 36.864-103.936-27.648c-26.624-7.168-54.272 10.24-58.88 37.888-4.608 24.576 12.288 47.616 35.84 54.272l103.936 28.16-36.352 20.992c-22.016 12.8-32.256 40.96-20.48 64 8.704 16.384 25.088 25.6 41.984 25.6 8.192 0 16.384-2.048 23.552-6.144l120.32-69.632 85.504 23.04c24.064 6.656 32.256 36.352 14.336 54.272l-64.512 64.512H180.224c-24.576 0-46.592 17.92-49.152 42.496-2.56 28.16 19.456 52.224 47.104 52.224h42.496l-74.24 74.24c-19.456 19.456-20.48 52.224 0 70.144 9.216 8.192 20.48 12.288 31.744 12.288 12.288 0 24.064-4.608 33.28-13.824l77.824-77.824v41.984c0 24.576 17.92 46.592 42.496 49.152 28.16 2.56 52.224-19.456 52.224-47.104V706.56l62.976-62.976c17.408-17.408 47.616-9.728 54.272 14.336l23.552 88.064-67.584 117.248c-12.288 21.504-7.68 49.152 12.288 63.488 8.704 6.144 17.92 9.216 27.648 9.216 16.384 0 32.256-8.704 40.96-23.552l21.504-36.864 27.648 103.936c5.632 20.992 24.576 35.328 45.568 35.328 5.632 0 11.776-1.024 17.408-3.072 23.04-8.704 34.304-34.816 27.648-58.368l-27.648-103.936 37.376 21.504c19.456 11.264 45.056 8.192 59.904-8.704 20.48-23.552 13.824-57.856-11.776-72.704l-120.32-69.632-23.04-85.504c-6.656-24.064 15.36-46.08 39.424-39.424l88.064 23.552L788.48 737.28c8.704 15.36 24.576 23.552 40.96 23.552 9.728 0 19.456-3.072 27.648-9.216 19.968-14.336 24.576-42.496 12.288-63.488l-20.48-35.328 103.936 27.648c4.096 1.024 8.192 1.536 12.288 1.536 23.04 0 44.032-17.408 47.104-42.496 4.096-24.064-12.288-45.568-35.328-51.712z m-409.6-76.288c0 30.208-24.576 54.784-54.784 54.784s-54.784-24.576-54.784-54.784 24.576-54.784 54.784-54.784 54.784 24.576 54.784 54.784z" fill="#aed0ee" p-id="6819"></path></svg>