<?xml version="1.0" encoding="UTF-8"?>
<svg width="495px" height="495px" viewBox="0 0 495 495" version="1.1" xmlns="http://www.w3.org/2000/svg" xmlns:xlink="http://www.w3.org/1999/xlink">
    <title>编组</title>
    <g id="页面-1" stroke="none" stroke-width="1" fill="none" fill-rule="evenodd">
        <g id="编组" transform="translate(0.000000, -0.000000)">
            <circle id="椭圆形" stroke="#060146" stroke-width="19" fill="#FFFFFF" cx="247.5" cy="247.5" r="238"></circle>
            <path d="M216.612846,171.104353 C233.973869,163.351742 254.740154,160.26248 279.524594,163.431363 C279.707633,163.454766 279.890375,163.478444 280.074786,163.502065 C280.250417,163.500689 280.426357,163.5 280.602609,163.5 C294.353627,163.5 306.20947,167.692082 316.507031,175.7135 C327.946849,184.624695 337.451442,198.061065 345.688138,215.334248 C365.465183,256.808713 377.604115,319.698833 387.567869,398.071996 C389.502624,412.595847 390.285567,426.647977 389.97364,440.14898 C350.364298,469.287654 301.441957,486.5 248.5,486.5 C205.847728,486.5 165.803991,475.329601 131.143438,455.747822 C128.681742,437.500534 127.5,417.84823 127.5,397 C127.5,356.870982 132.004736,269.084081 169.923185,212.301182 C181.785748,194.536987 196.986709,179.868458 216.612846,171.104353 Z" id="形状结合" stroke="#030029" stroke-width="17" fill="#67A7FF"></path>
            <path d="M258,267.939094 C281.285698,267.939094 302.33516,278.480251 317.64052,295.126644 C333.314827,312.174311 343,335.628136 343,361 C343,385.257261 334.090262,405.285286 319.435899,419.403615 C303.925034,434.347115 282.102052,442.634778 258,442.634778 C233.897948,442.634778 212.074966,434.347115 196.564101,419.403615 C181.909738,405.285286 173,385.257261 173,361 C173,335.628136 182.685173,312.174311 198.35948,295.126644 C213.66484,278.480251 234.714302,267.939094 258,267.939094 Z" id="椭圆形" stroke="#302F34" stroke-width="14" fill="#D0E8EF"></path>
            <path d="M186.098334,244.952549 C202.232984,226.35755 223.834807,217.06005 250.903805,217.06005 C277.972803,217.06005 295.570005,224.474703 303.695412,239.304009" id="直线" stroke="#130C75" stroke-width="21" stroke-linecap="round" transform="translate(244.896873, 231.006300) rotate(-8.000000) translate(-244.896873, -231.006300) "></path>
            <circle id="椭圆形" fill="#302F34" cx="270.5" cy="335.5" r="52.5"></circle>
            <circle id="椭圆形" fill="#FFFFFF" cx="289.5" cy="310.5" r="12.5"></circle>
            <path d="M171.003906,201.5 C169.700131,183.546734 160.741797,169.880068 144.128906,160.5 C127.516015,151.119932 107.807682,151.119932 85.0039063,160.5" id="直线-3" stroke="#060146" stroke-width="13" stroke-linecap="round" transform="translate(128.003906, 177.482475) rotate(-11.000000) translate(-128.003906, -177.482475) "></path>
            <path d="M378.003906,160.5 C376.700131,142.546734 367.741797,128.880068 351.128906,119.5 C334.516015,110.119932 314.807682,110.119932 292.003906,119.5" id="直线-3" stroke="#030029" stroke-width="15" stroke-linecap="round" transform="translate(335.003906, 136.482475) rotate(-51.000000) translate(-335.003906, -136.482475) "></path>
            <circle id="椭圆形" fill="#3A70F9" cx="382" cy="123" r="22"></circle>
            <circle id="椭圆形" fill="#3A70F9" cx="75.5" cy="165.5" r="19.5"></circle>
            <path d="M258.5,472 C379.726503,472 478,373.726503 478,252.5 C478,131.273497 379.726503,33 258.5,33 C137.273497,33 39,131.273497 39,252.5 C39,319.996244 69.4649503,380.377018 117.394375,420.641845 C155.548504,452.694586 204.769742,472 258.5,472 Z" id="椭圆形" fill-opacity="0.165127841" fill="#D2F2FF"></path>
            <path d="M97.3931304,109.5 C81.0580918,123.021045 69.0201528,140.620606 61.2793135,162.298685 C53.5384741,183.976764 51.4962655,214.043869 55.1526876,252.5" id="直线-2" stroke-opacity="0.563182911" stroke="#AADCF7" stroke-width="20" stroke-linecap="round"></path>
        </g>
    </g>
</svg>