<?xml version="1.0" standalone="no"?><!DOCTYPE svg PUBLIC "-//W3C//DTD SVG 1.1//EN" "http://www.w3.org/Graphics/SVG/1.1/DTD/svg11.dtd"><svg t="1650619182301" class="icon" viewBox="0 0 1024 1024" version="1.1" xmlns="http://www.w3.org/2000/svg" p-id="9959" xmlns:xlink="http://www.w3.org/1999/xlink" width="32" height="32"><defs><style type="text/css"></style></defs><path d="M977.6 238.4c-9.6-9.6-21.6-14.4-33.6-14.4H472L366.4 118.4c-4-4-9.6-8-15.2-10.4-6.4-2.4-12-4-18.4-4H80c-12 0-24.8 4.8-33.6 14.4S32 140 32 152v280h960V272c0-12-4.8-24.8-14.4-33.6z" fill="#FFD766" p-id="9960"></path><path d="M944 912H80c-26.4 0-48-21.6-48-48V352h960v512c0 26.4-21.6 48-48 48z" fill="#FFAC33" p-id="9961"></path></svg>