<?xml version="1.0" standalone="no"?><!DOCTYPE svg PUBLIC "-//W3C//DTD SVG 1.1//EN" "http://www.w3.org/Graphics/SVG/1.1/DTD/svg11.dtd"><svg t="1636963830625" class="icon" viewBox="0 0 1024 1024" version="1.1" xmlns="http://www.w3.org/2000/svg" p-id="10105" xmlns:xlink="http://www.w3.org/1999/xlink" width="200" height="200"><defs><style type="text/css"></style></defs><path d="M839.3728 116.9408H197.2224c-54.6816 0-99.0208 44.3392-99.0208 99.0208v479.2832c0 54.6816 44.3392 99.0208 99.0208 99.0208h40.5504c21.0432 0 38.0928 17.0496 38.0928 38.0928v87.1936c0 31.0784 35.2256 49.1008 60.416 30.8224l205.4656-148.8384c6.5024-4.7104 14.336-7.2192 22.3232-7.2192h275.3024c54.6816 0 99.0208-44.3392 99.0208-99.0208V215.9616c0-54.6816-44.3392-99.0208-99.0208-99.0208z m-99.2768 379.2384c-66.1504 69.376-139.6224 104.5504-218.2656 104.5504h-2.6112c-130.2528-1.28-223.1296-101.0176-227.0208-105.2672-18.944-20.6336-17.5616-52.736 3.1232-71.68a50.75456 50.75456 0 0 1 71.5776 2.9696c1.3312 1.4336 68.608 72.0384 154.0608 72.4992 50.176 0.256 99.2768-24.32 145.7664-73.1136 19.3536-20.2752 51.456-21.0432 71.7312-1.6896 20.224 19.3024 20.992 51.456 1.6384 71.7312z" fill="#05C46D" p-id="10106"></path><path d="M907.52 144.2304c-17.7664-16.8448-41.6768-27.2896-68.096-27.2896H197.2224c-54.6816 0-99.0208 44.3392-99.0208 99.0208v479.2832c0 54.6816 44.3392 99.0208 99.0208 99.0208h40.5504c21.0432 0 38.0928 17.0496 38.0928 38.0928v56.576c69.9904-2.9696 137.1648-16.6912 199.8848-39.6288l65.9968-47.8208c6.5024-4.7104 14.336-7.2192 22.3232-7.2192h26.4704c192.8704-116.4288 321.792-327.9872 321.792-569.7024 0-27.2384-1.6384-54.016-4.8128-80.3328z m-167.424 351.9488c-66.1504 69.376-139.6224 104.5504-218.2656 104.5504h-2.6112c-130.2528-1.28-223.1296-101.0176-227.0208-105.2672-18.944-20.6336-17.5616-52.736 3.1232-71.68a50.75456 50.75456 0 0 1 71.5776 2.9696c1.3312 1.4336 68.608 72.0384 154.0608 72.4992 50.176 0.256 99.2768-24.32 145.7664-73.1136 19.3536-20.2752 51.456-21.0432 71.7312-1.6896 20.224 19.3024 20.992 51.456 1.6384 71.7312z" fill="#1DCE75" p-id="10107"></path><path d="M391.424 568.064c-59.4944-29.9008-96.8192-69.9904-99.2768-72.6528-18.944-20.6336-17.5616-52.736 3.1232-71.68a50.75456 50.75456 0 0 1 71.5776 2.9696c1.2288 1.28 54.9888 57.5488 127.3344 69.9904 113.3056-95.6928 194.2016-228.5056 223.8464-379.7504H197.2224c-54.6816 0-99.0208 44.3392-99.0208 99.0208v436.6336c106.1888-5.1712 205.824-35.2768 293.2224-84.5312z" fill="#3CD38E" p-id="10108"></path><path d="M454.7584 116.9408h-257.536c-54.6816 0-99.0208 44.3392-99.0208 99.0208v171.4688c147.8656-46.6432 273.3568-143.4624 356.5568-270.4896z" fill="#48E1AA" p-id="10109"></path></svg>