<?xml version="1.0" standalone="no"?><!DOCTYPE svg PUBLIC "-//W3C//DTD SVG 1.1//EN" "http://www.w3.org/Graphics/SVG/1.1/DTD/svg11.dtd"><svg t="1636963750068" class="icon" viewBox="0 0 1024 1024" version="1.1" xmlns="http://www.w3.org/2000/svg" p-id="8679" xmlns:xlink="http://www.w3.org/1999/xlink" width="200" height="200"><defs><style type="text/css"></style></defs><path d="M324.5568 912.8448H164.2496c-14.7968 0-26.7776-11.9808-26.7776-26.7776V655.872c0-14.7968 11.9808-26.7776 26.7776-26.7776h160.3072c14.7968 0 26.7776 11.9808 26.7776 26.7776v230.2464c0 14.7456-11.9808 26.7264-26.7776 26.7264z" fill="#3A9CED" p-id="8680"></path><path d="M598.1696 912.8448H437.8624c-14.7968 0-26.7776-11.9808-26.7776-26.7776V509.4912c0-14.7968 11.9808-26.7776 26.7776-26.7776h160.3072c14.7968 0 26.7776 11.9808 26.7776 26.7776v376.576c0 14.7968-11.9808 26.7776-26.7776 26.7776zM871.7824 912.8448h-160.3072c-14.7968 0-26.7776-11.9808-26.7776-26.7776V303.0016c0-14.7968 11.9808-26.7776 26.7776-26.7776h160.3072c14.7968 0 26.7776 11.9808 26.7776 26.7776v583.1168c0 14.7456-11.9808 26.7264-26.7776 26.7264z" fill="#2595E8" p-id="8681"></path><path d="M380.928 114.8416h234.5472c5.9904 0 10.8544 4.864 10.8544 10.8544v242.7904c0 9.728-11.8784 14.5408-18.6368 7.5264l-63.1296-65.3824c-3.584-3.6864-9.2672-4.352-13.6192-1.5872L205.1072 516.608c-10.1376 6.4512-21.7088-5.9392-14.4896-15.616l230.9632-310.3744c3.328-4.4544 2.7136-10.7008-1.3824-14.4896l-46.5408-42.4448c-7.3728-6.7072-2.6624-18.8416 7.2704-18.8416z" fill="#59ADF8" p-id="8682"></path><path d="M587.4176 482.7136h-138.752c-20.736 0-37.5296 16.7936-37.5296 37.5296v355.0208c0 20.736 16.7936 37.5296 37.5296 37.5296h50.688c44.3904-14.592 86.528-34.1504 125.6448-58.2144v-334.336c-0.0512-20.6848-16.8448-37.5296-37.5808-37.5296zM898.56 461.1072V313.7536c0-20.736-16.7936-37.5296-37.5296-37.5296h-138.752c-20.736 0-37.5296 16.7936-37.5296 37.5296v498.7904c108.4416-86.528 186.0608-209.9712 213.8112-351.4368z" fill="#3A9CED" p-id="8683"></path><path d="M729.1904 276.224h-6.912c-20.736 0-37.5296 16.7936-37.5296 37.5296v84.3264c18.9952-38.4512 33.9968-79.2576 44.4416-121.856zM619.6224 501.2992c-6.5536-11.0592-18.432-18.5856-32.2048-18.5856h-138.752c-20.736 0-37.5296 16.7936-37.5296 37.5296v150.0672c81.7152-39.8848 152.9344-98.048 208.4864-169.0112zM313.8048 629.0944h-138.752c-20.736 0-37.5296 16.7936-37.5296 37.5296v63.744c3.9424 0.1024 7.8848 0.3072 11.8272 0.3072 70.912 0 138.9056-12.4416 201.984-35.1232v-28.928c0-20.736-16.7936-37.5296-37.5296-37.5296z" fill="#59ADF8" p-id="8684"></path><path d="M203.5712 483.4816c169.2672-61.6448 302.592-197.7856 360.8064-368.64H380.928c-9.8816 0-14.592 12.1856-7.3216 18.8416l46.5408 42.4448c4.096 3.7376 4.7104 9.984 1.3824 14.4896l-217.9584 292.864z" fill="#6BC2FC" p-id="8685"></path></svg>