<?xml version="1.0" standalone="no"?><!DOCTYPE svg PUBLIC "-//W3C//DTD SVG 1.1//EN" "http://www.w3.org/Graphics/SVG/1.1/DTD/svg11.dtd"><svg t="1636963704670" class="icon" viewBox="0 0 1024 1024" version="1.1" xmlns="http://www.w3.org/2000/svg" p-id="8393" xmlns:xlink="http://www.w3.org/1999/xlink" width="200" height="200"><defs><style type="text/css"></style></defs><path d="M222.9248 222.208h574.464c24.1664 0 43.7248-19.5584 43.7248-43.7248 0-24.1664-19.5584-43.7248-43.7248-43.7248H222.9248c-24.1664 0-43.7248 19.5584-43.7248 43.7248-0.0512 24.1664 19.5584 43.7248 43.7248 43.7248z" fill="#757BF2" p-id="8394"></path><path d="M918.784 421.12l-70.2976-153.5488a2.1504 2.1504 0 0 0-1.8944-1.2288H180.5312c-0.8192 0-1.5872 0.512-1.8944 1.2288L111.6672 422.5024c-12.2368 28.2624-10.3424 61.1328 6.656 86.784 19.5584 29.4912 53.0944 48.9472 91.136 48.9472 44.9536 0 83.5072-27.2384 100.2496-66.048a2.048 2.048 0 0 1 3.7888 0c16.7424 38.8096 55.296 66.048 100.2496 66.048s83.5072-27.2384 100.2496-66.048a2.048 2.048 0 0 1 3.7888 0c16.7424 38.8096 55.2448 66.048 100.2496 66.048s83.5072-27.2384 100.2496-66.048a2.048 2.048 0 0 1 3.7888 0c16.7424 38.8096 55.296 66.048 100.2496 66.048 35.6864 0 67.3792-17.1008 87.296-43.5712 20.1728-26.8288 23.1424-62.976 9.1648-93.5424zM720.128 575.9488c-28.3648 22.8864-64.1536 36.0448-102.144 36.0448s-73.7792-13.1584-102.144-36.0448a162.42176 162.42176 0 0 1-102.144 36.0448c-37.9904 0-73.7792-13.1584-102.144-36.0448a162.42176 162.42176 0 0 1-102.144 36.0448c-10.24 0-20.3776-0.9728-30.2592-2.816v222.3104c0 31.8976 25.856 57.7536 57.7536 57.7536H786.944c31.8976 0 57.7536-25.856 57.7536-57.7536v-221.184c-7.424 1.024-14.8992 1.6384-22.4256 1.6384-37.9904 0.0512-73.7792-13.1584-102.144-35.9936z" fill="#6C6CEA" p-id="8395"></path><path d="M846.592 266.3424H180.5312c-0.8192 0-1.5872 0.512-1.8944 1.2288L111.6672 422.5024c-12.2368 28.2624-10.3424 61.1328 6.656 86.784 19.5584 29.4912 53.0944 48.9472 91.136 48.9472 44.9536 0 83.5072-27.2384 100.2496-66.048a2.048 2.048 0 0 1 3.7888 0c16.7424 38.8096 55.296 66.048 100.2496 66.048s83.5072-27.2384 100.2496-66.048a2.048 2.048 0 0 1 3.7888 0c16.7424 38.8096 55.2448 66.048 100.2496 66.048 44.9536 0 83.5072-27.2384 100.2496-66.048a2.048 2.048 0 0 1 3.7888 0c14.8992 34.5088 46.9504 59.8016 85.4528 65.024 36.0448-76.544 56.2688-161.9968 56.2688-252.2112 0-1.3824-0.0512-2.816-0.0512-4.1984l-15.2064-33.1776a2.24768 2.24768 0 0 0-1.9456-1.28zM720.128 575.9488c-28.3648 22.8864-64.1536 36.0448-102.144 36.0448s-73.7792-13.1584-102.144-36.0448a162.42176 162.42176 0 0 1-102.144 36.0448c-37.9904 0-73.7792-13.1584-102.144-36.0448a162.42176 162.42176 0 0 1-102.144 36.0448c-10.24 0-20.3776-0.9728-30.2592-2.816v222.3104c0 31.8976 25.856 57.7536 57.7536 57.7536h133.0176c175.0528-29.3888 324.0448-135.4752 411.2384-282.5216-22.3744-5.888-43.1616-16.384-61.0304-30.7712z" fill="#757BF2" p-id="8396"></path><path d="M700.2624 134.7584H222.9248c-24.1664 0-43.7248 19.5584-43.7248 43.7248 0 24.1664 19.5584 43.7248 43.7248 43.7248h464.896a592.5888 592.5888 0 0 0 12.4416-87.4496zM676.3008 266.3424H180.5312c-0.8192 0-1.5872 0.512-1.8944 1.2288L111.6672 422.5024c-12.2368 28.2624-10.3424 61.1328 6.656 86.784 19.5584 29.4912 53.0944 48.9472 91.136 48.9472 44.9536 0 83.5072-27.2384 100.2496-66.048a2.048 2.048 0 0 1 3.7888 0c16.7424 38.8096 55.296 66.048 100.2496 66.048s83.5072-27.2384 100.2496-66.048a2.048 2.048 0 0 1 3.7888 0c3.072 7.168 6.9632 13.9264 11.4176 20.224 67.4816-67.8912 118.6304-152.0128 147.0976-246.0672zM399.1552 611.2768a162.48832 162.48832 0 0 1-87.552-35.3792 162.42176 162.42176 0 0 1-102.144 36.0448c-10.24 0-20.3776-0.9728-30.2592-2.816v73.7792c79.104-9.3184 153.4976-34.2528 219.9552-71.6288z" fill="#8486F8" p-id="8397"></path><path d="M497.408 134.7584H222.9248c-24.1664 0-43.7248 19.5584-43.7248 43.7248 0 24.1664 19.5584 43.7248 43.7248 43.7248h224.3072c19.0976-27.5456 35.8912-56.7808 50.176-87.4496zM413.3888 266.3424H180.5312c-0.8192 0-1.5872 0.512-1.8944 1.2288L111.6672 422.5024c-5.1712 11.8784-7.6288 24.6272-7.68 37.2736 122.7264-30.6688 230.3488-99.584 309.4016-193.4336z" fill="#8D92F8" p-id="8398"></path></svg>