<?xml version="1.0" standalone="no"?><!DOCTYPE svg PUBLIC "-//W3C//DTD SVG 1.1//EN" "http://www.w3.org/Graphics/SVG/1.1/DTD/svg11.dtd"><svg t="1636963794907" class="icon" viewBox="0 0 1024 1024" version="1.1" xmlns="http://www.w3.org/2000/svg" p-id="9535" xmlns:xlink="http://www.w3.org/1999/xlink" width="200" height="200"><defs><style type="text/css"></style></defs><path d="M923.4432 394.5984c0-153.1392-118.5792-277.2992-264.8064-277.2992-32.3072 0-63.2832 6.0928-91.904 17.2032 72.7552 61.0816 119.3984 154.88 119.3984 260.096s-46.6432 199.0144-119.3984 260.096c9.984 3.8912 20.2752 7.0656 30.7712 9.6768l-35.7376 42.1376c-9.0112 11.8272-2.7136 32.2048 9.984 32.2048h55.6544v25.5488c0 35.6864 28.7232 74.5984 39.7824 86.5792 4.3008 4.7104 7.1168 8.448 8.9088 11.7248a40.704 40.704 0 0 0-33.9968 39.2704 40.71936 40.71936 0 0 0 39.7824 41.6256h1.1264c16.0768 0 40.4992-7.424 57.5488-24.1152 12.8-12.544 19.8656-28.928 19.8656-46.2336 0-37.0176-19.0464-62.0032-33.4336-77.5168-8.1408-8.8064-17.152-25.4976-18.176-31.9488v-24.9856h51.0464c12.6976 0 18.9952-20.3264 10.0352-32.1536l-38.2976-45.4656c110.7456-33.0752 191.8464-139.776 191.8464-266.4448z" fill="#F23D4F" p-id="9536"></path><path d="M632.6784 394.5984c0-153.1392-118.5792-277.2992-264.8064-277.2992S103.0656 241.4592 103.0656 394.5984c0 131.1232 86.9376 240.896 203.6736 269.7728L271.0016 706.56c-9.0112 11.8272-2.7136 32.2048 9.984 32.2048h55.6544v25.5488c0 35.6864 28.7232 74.5984 39.7824 86.5792 4.3008 4.7104 7.1168 8.448 8.9088 11.7248a40.704 40.704 0 0 0-33.9968 39.2704 40.71936 40.71936 0 0 0 39.7824 41.6256h1.1264c16.0768 0 40.4992-7.424 57.5488-24.1152 12.8-12.544 19.8656-28.928 19.8656-46.2336 0-37.0176-19.0464-62.0032-33.4336-77.5168-8.1408-8.8064-17.152-25.4976-18.176-31.9488v-24.9856h51.0464c12.6976 0 18.9952-20.3264 10.0352-32.1536l-38.2976-45.4656c110.7456-33.1264 191.8464-139.8272 191.8464-266.496zM275.0976 317.0304c-1.3824 1.4336-33.3824 36.4544-10.24 111.5648 6.6048 21.504-5.4272 44.288-26.9312 50.8928-3.9936 1.2288-8.0384 1.8432-12.032 1.8432-17.408 0-33.4848-11.264-38.912-28.7232C151.3472 337.0496 204.8 272.7936 215.8592 261.12a40.69888 40.69888 0 0 1 57.5488-1.5872 40.5504 40.5504 0 0 1 1.6896 57.4976z" fill="#F23D4F" p-id="9537"></path><path d="M367.872 117.3504c-146.2272 0-264.8064 124.16-264.8064 277.2992 0 131.1232 86.9376 240.896 203.6736 269.7728L271.0016 706.56c-9.0112 11.8272-2.7136 32.2048 9.984 32.2048h55.6544v25.5488c0 26.7776 16.1792 55.3984 28.928 73.0624 28.4672-7.0144 56.1664-16.0256 82.944-26.88-4.096-5.6832-8.3456-10.5984-12.2368-14.848-8.1408-8.8064-17.152-25.4976-18.176-31.9488v-24.9856h51.0464c12.6976 0 18.9952-20.3264 10.0352-32.1536l-38.2976-45.4656c110.7456-33.1776 191.8464-139.9296 191.8464-266.5472-0.0512-153.088-118.6304-277.1968-264.8576-277.1968z m-92.7744 199.68c-1.3824 1.4336-33.3824 36.4544-10.24 111.5648 6.6048 21.504-5.4272 44.288-26.9312 50.8928-3.9936 1.2288-8.0384 1.8432-12.032 1.8432-17.408 0-33.4848-11.264-38.912-28.7232C151.3472 337.0496 204.8 272.7936 215.8592 261.12a40.69888 40.69888 0 0 1 57.5488-1.5872 40.5504 40.5504 0 0 1 1.6896 57.4976z" fill="#FC4956" p-id="9538"></path><path d="M566.7328 134.5024c72.7552 61.0816 119.3984 154.88 119.3984 260.096s-46.6432 199.0144-119.3984 260.096c9.984 3.8912 20.2752 7.0656 30.7712 9.6768l-35.7376 42.1376c-9.0112 11.8272-2.7136 32.2048 9.984 32.2048h5.888c152.8832-111.0528 252.3136-291.1744 252.3136-494.592 0-21.5552-1.1264-42.9056-3.328-63.8976-45.7216-39.3216-104.192-62.976-167.9872-62.976-32.3072 0.1024-63.2832 6.1952-91.904 17.2544z" fill="#FC4956" p-id="9539"></path><path d="M367.872 117.3504c-146.2272 0-264.8064 124.16-264.8064 277.2992 0 91.2896 42.1888 172.2368 107.264 222.7712 177.7664-47.616 323.584-173.3632 398.2848-338.176-41.8304-95.5392-133.888-161.8944-240.7424-161.8944z m-92.7744 199.68c-1.3824 1.4336-33.3824 36.4544-10.24 111.5648 6.6048 21.504-5.4272 44.288-26.9312 50.8928-3.9936 1.2288-8.0384 1.8432-12.032 1.8432-17.408 0-33.4848-11.264-38.912-28.7232C151.3472 337.0496 204.8 272.7936 215.8592 261.12a40.69888 40.69888 0 0 1 57.5488-1.5872 40.5504 40.5504 0 0 1 1.6896 57.4976zM566.7328 134.5024c26.2144 22.016 48.9984 48.3328 67.4816 77.8752a601.856 601.856 0 0 0 21.9648-95.0272c-31.4368 0.3584-61.5424 6.3488-89.4464 17.152z" fill="#FF5C64" p-id="9540"></path><path d="M103.2704 386.6624c25.088-8.96 49.4592-19.456 72.9088-31.4368 5.888-54.7328 32.3072-86.272 39.7312-94.1056a40.69888 40.69888 0 0 1 57.5488-1.5872c6.9632 6.6048 10.9056 15.104 12.1344 23.9104a615.168 615.168 0 0 0 137.6256-159.8976c-17.8688-3.9936-36.4032-6.144-55.3984-6.144-143.6672-0.0512-260.5056 119.808-264.5504 269.2608z" fill="#FF716E" p-id="9541"></path></svg>