<?xml version="1.0" standalone="no"?><!DOCTYPE svg PUBLIC "-//W3C//DTD SVG 1.1//EN" "http://www.w3.org/Graphics/SVG/1.1/DTD/svg11.dtd"><svg t="1636962824350" class="icon" viewBox="0 0 1024 1024" version="1.1" xmlns="http://www.w3.org/2000/svg" p-id="8253" xmlns:xlink="http://www.w3.org/1999/xlink" width="200" height="200"><defs><style type="text/css"></style></defs><path d="M799.488 133.5808H228.5568c-53.5552 0-96.9728 43.4176-96.9728 96.9728V788.992c0 53.5552 43.4176 96.9728 96.9728 96.9728h570.9312c53.5552 0 96.9728-43.4176 96.9728-96.9728V230.5536c0-53.5552-43.4176-96.9728-96.9728-96.9728z m-41.7792 230.5024L657.2032 456.704l40.0384 277.2992c0.5632 3.7888-0.768 7.5776-3.584 10.1888l-26.9312 25.088c-5.4272 5.0688-14.1312 3.7888-17.92-2.6112l-115.6096-195.6864-77.6704 71.5776-17.5104 119.04c-1.4848 10.1888-14.9504 12.8-20.1728 3.8912l-59.2896-101.2224-104.6016-62.2592c-8.8576-5.2736-6.144-18.7392 4.0448-20.1216l121.2928-16.9472 72.3456-75.5712-191.3344-110.5408a11.6224 11.6224 0 0 1-2.6624-18.0224l26.2144-27.7504c2.6624-2.816 6.5024-4.096 10.2912-3.4816l269.1584 43.0592 100.096-104.5504c26.5216-27.6992 70.8096-27.6992 97.3312 0.0512 26.0608 27.136 24.6784 70.4-3.0208 95.9488z" fill="#2595E8" p-id="8254"></path><path d="M799.488 133.5808H228.5568c-53.5552 0-96.9728 43.4176-96.9728 96.9728V788.992c0 31.6928 15.3088 59.8016 38.8096 77.4656 30.5664 4.608 61.8496 7.0144 93.696 7.0144 140.3904 0 269.9264-46.3872 374.1696-124.7232l-105.0624-177.8176-77.6704 71.6288-17.5104 119.04c-1.4848 10.1888-14.9504 12.8-20.1728 3.8912l-59.2896-101.2224-104.6016-62.2592c-8.8576-5.2736-6.144-18.7392 4.0448-20.1216l121.2928-16.9472 72.3456-75.5712-191.3344-110.5408a11.6224 11.6224 0 0 1-2.6624-18.0224l26.2144-27.7504c2.6624-2.816 6.5024-4.096 10.2912-3.4816l269.1584 43.0592 100.096-104.5504c26.5216-27.6992 70.8096-27.6992 97.3312 0.0512 26.0096 27.2384 24.6272 70.5024-3.072 96l-100.5056 92.6208 35.5328 246.1184c120.064-113.664 194.9184-274.5344 194.9184-452.864 0-22.4768-1.2288-44.6464-3.5328-66.5088-16.4864-29.7984-48.1792-49.92-84.5824-49.92z" fill="#3A9CED" p-id="8255"></path><path d="M131.584 230.5536v420.2496a621.056 621.056 0 0 0 155.0848-29.3376l-32.7168-19.5072c-8.8576-5.2736-6.144-18.7392 4.0448-20.1216l121.2928-16.9472 72.3456-75.5712-191.3344-110.4896a11.6224 11.6224 0 0 1-2.6624-18.0224l26.2144-27.7504c2.6624-2.816 6.5024-4.096 10.2912-3.4816l269.1584 43.0592 100.096-104.5504c2.8672-3.0208 5.9904-5.5808 9.216-7.936 16.128-40.2432 28.1088-82.5856 35.584-126.464H228.5568c-53.5552-0.1024-96.9728 43.3152-96.9728 96.8704z" fill="#59ADF8" p-id="8256"></path><path d="M131.584 230.5536v169.6256c141.312-46.4896 260.352-142.08 336.8448-266.6496H228.5568c-53.5552 0.0512-96.9728 43.4688-96.9728 97.024z" fill="#6BC2FC" p-id="8257"></path></svg>