<?xml version="1.0" standalone="no"?><!DOCTYPE svg PUBLIC "-//W3C//DTD SVG 1.1//EN" "http://www.w3.org/Graphics/SVG/1.1/DTD/svg11.dtd"><svg t="1636963817741" class="icon" viewBox="0 0 1024 1024" version="1.1" xmlns="http://www.w3.org/2000/svg" p-id="9961" xmlns:xlink="http://www.w3.org/1999/xlink" width="200" height="200"><defs><style type="text/css"></style></defs><path d="M517.12 96.9728c-231.9872 0-420.7104 188.7232-420.7104 420.7104s188.7232 420.7104 420.7104 420.7104 420.7104-188.7232 420.7104-420.7104S749.1072 96.9728 517.12 96.9728z m212.8896 416.256l-70.4 68.608 16.64 96.8704a49.3568 49.3568 0 0 1-19.7632 48.5888 49.46944 49.46944 0 0 1-52.3264 3.7888l-87.04-45.7216-86.9888 45.7216a49.77152 49.77152 0 0 1-23.1424 5.7344c-10.24 0-20.4288-3.2256-29.1328-9.5232a49.3568 49.3568 0 0 1-19.7632-48.5888l16.5888-96.8704-70.4-68.608a49.50016 49.50016 0 0 1-12.5952-50.8928 49.29024 49.29024 0 0 1 40.0896-33.792l97.28-14.1312 43.52-88.1664a49.3568 49.3568 0 0 1 44.544-27.6992 49.3568 49.3568 0 0 1 44.544 27.6992l43.52 88.1664 97.28 14.1312a49.4592 49.4592 0 0 1 40.0896 33.792c5.888 18.0736 1.0752 37.5808-12.544 50.8928z" fill="#BD50D3" p-id="9962"></path><path d="M537.088 468.736l-19.968-40.448-19.968 40.448a49.792 49.792 0 0 1-37.376 27.1872l-44.6976 6.5024 32.3072 31.488a49.6384 49.6384 0 0 1 14.2848 43.9808l-7.6288 44.4416 39.936-20.992a49.73056 49.73056 0 0 1 23.0912-5.7344c7.936 0 15.9232 1.8944 23.1936 5.7344l39.8848 20.9408-7.6288-44.4416c-2.7648-16.0768 2.56-32.512 14.2336-43.9296l32.3584-31.5392-44.6464-6.5024a49.6128 49.6128 0 0 1-37.376-27.136z" fill="#BF5CD6" p-id="9963"></path><path d="M856.1152 331.52c0-22.9888-1.3824-45.6704-3.9936-67.9936-76.9024-101.12-198.4512-166.5536-335.0016-166.5536-231.9872 0-420.7104 188.7232-420.7104 420.7104 0 172.6976 104.6528 321.3824 253.7984 386.0992 285.0816-34.816 505.9072-277.76 505.9072-572.2624zM291.6864 462.2848a49.29024 49.29024 0 0 1 40.0896-33.792l97.28-14.1312 43.52-88.1664a49.3568 49.3568 0 0 1 44.544-27.6992 49.3568 49.3568 0 0 1 44.544 27.6992l43.52 88.1664 97.28 14.1312a49.4592 49.4592 0 0 1 40.0896 33.792c5.888 18.1248 1.0752 37.632-12.544 50.8928l-70.4 68.608 16.64 96.8704a49.3568 49.3568 0 0 1-19.7632 48.5888 49.46944 49.46944 0 0 1-52.3264 3.7888l-87.04-45.7216-86.9888 45.7216a49.77152 49.77152 0 0 1-23.1424 5.7344c-10.24 0-20.4288-3.2256-29.1328-9.5232a49.3568 49.3568 0 0 1-19.7632-48.5888l16.5888-96.8704-70.4-68.608c-13.6704-13.2608-18.4832-32.768-12.5952-50.8928z" fill="#BF5CD6" p-id="9964"></path><path d="M96.4096 517.6832c0 66.5088 15.5648 129.3824 43.1616 185.344 79.5136-2.4064 154.9824-20.8896 223.2832-52.3776l11.8272-68.8128-70.4-68.608a49.50016 49.50016 0 0 1-12.5952-50.8928 49.29024 49.29024 0 0 1 40.0896-33.792l97.28-14.1312 43.52-88.1664a49.3568 49.3568 0 0 1 44.544-27.6992 49.3568 49.3568 0 0 1 44.544 27.6992l43.52 88.1664 15.2064 2.2016c47.8208-82.1248 75.9808-177.1008 77.8752-278.528-54.8864-26.3168-116.3264-41.0624-181.1456-41.0624-231.9872-0.0512-420.7104 188.672-420.7104 420.6592z" fill="#CA6EE0" p-id="9965"></path><path d="M458.8032 594.6368a581.376 581.376 0 0 0 107.5712-100.6592 49.62816 49.62816 0 0 1-29.2864-25.1904l-19.968-40.448-19.968 40.448a49.792 49.792 0 0 1-37.376 27.1872l-44.6976 6.5024 32.3072 31.488a49.6384 49.6384 0 0 1 14.2848 43.9808l-2.8672 16.6912z" fill="#CA6EE0" p-id="9966"></path><path d="M97.6896 486.5536c203.2128-43.3664 366.7456-193.7408 428.8-389.376-3.1232-0.0512-6.1952-0.256-9.3696-0.256-221.4912 0.0512-403.456 172.1344-419.4304 389.632z" fill="#D786EA" p-id="9967"></path></svg>