<?xml version="1.0" standalone="no"?><!DOCTYPE svg PUBLIC "-//W3C//DTD SVG 1.1//EN" "http://www.w3.org/Graphics/SVG/1.1/DTD/svg11.dtd"><svg t="1636963804315" class="icon" viewBox="0 0 1024 1024" version="1.1" xmlns="http://www.w3.org/2000/svg" p-id="9679" xmlns:xlink="http://www.w3.org/1999/xlink" width="200" height="200"><defs><style type="text/css"></style></defs><path d="M433.7664 798.5152c-40.4992-0.1536-77.568-5.5808-113.8688-16.7424-6.0416-1.8432-12.544-1.792-18.4832 0.4096-35.072 13.1072-69.7856 27.136-104.704 40.6528-20.8896 8.0896-30.208 0.8192-26.8288-21.504 4.5056-29.8496 9.3184-59.648 14.9504-89.344 1.4336-7.68-0.3072-12.3904-5.4784-17.5616-48.7424-49.4592-79.7184-108.4416-92.928-176.5376-27.5456-141.9776 34.5088-283.8016 157.184-360.2432 125.7472-78.3872 289.8944-67.328 404.0704 27.0848 141.9776 117.4016 166.0416 325.9392 58.7264 471.04-68.1984 92.2112-161.28 137.8816-272.64 142.7456z m-0.6144-254.1056h0.768c15.616 0.1024 28.3648-12.4928 28.5184-28.1088 0.0512-2.6624 0.0512-4.7616 0.0512-5.8368 0.2048-29.1328 10.7008-34.7136 34.3552-46.6432 21.0944-10.6496 40.6016-26.624 48.3328-49.7152 15.104-45.312 7.0144-88.7808-26.4704-122.624-35.328-35.6352-88.2176-46.0288-135.0144-27.6992-31.0272 12.1344-52.4288 37.0176-63.744 67.4816-7.0144 18.944 5.7344 39.5264 25.6512 42.8032l0.8704 0.1536c14.4384 2.3552 28.4672-5.2224 34.8672-18.3808 9.6256-19.8144 28.928-44.0832 65.3824-35.4816 21.1968 5.0176 39.68 23.8592 43.1104 44.9536 3.9936 24.6784-2.2528 36.8128-26.0608 50.8416-3.0208 1.792-6.1952 3.4304-9.1648 5.2736-29.3376 18.0736-46.592 44.1344-49.3568 78.4896-0.1024 2.0992-0.1536 8.448-0.2048 16.0256-0.1536 15.616 12.4928 28.3648 28.1088 28.4672z m5.2736 32.1536c-20.992 0.0512-38.5024 17.3568-38.2976 37.8368 0.2048 20.1728 17.408 37.376 37.5296 37.5296 19.7632 0.1536 37.7856-17.664 37.8368-37.2736 0.0512-19.9168-17.7152-38.144-37.0688-38.0928z" fill="#757BF2" p-id="9680"></path><path d="M538.3168 846.5408c109.3632-30.208 192.6144-91.4944 248.576-187.0336 55.8592-95.3856 68.352-197.888 41.1648-307.8656 38.4512 28.7744 66.048 62.6688 85.4016 102.656 54.8864 113.5616 33.7408 240.7424-54.4768 331.6736-5.9904 6.1952-8.6528 11.7248-6.7584 20.48 3.1744 14.5408 5.2736 29.3376 7.3216 44.0832 2.0992 15.104-3.2256 19.2512-17.152 13.5168-16.3328-6.7072-32.3584-14.1312-48.896-20.2752-4.864-1.792-11.8272-2.1504-16.3328 0-66.6112 31.2832-135.2192 34.3552-205.5168 15.36-4.1472-1.1264-8.2432-2.5088-12.288-4.0448-6.1952-2.304-12.288-4.9664-21.0432-8.5504z" fill="#6C6CEA" p-id="9681"></path><path d="M174.3872 772.4544c91.5968-22.8352 174.848-66.6112 244.5312-125.9008-11.008-6.656-18.688-18.7392-18.7904-32.1024-0.2048-20.48 17.3056-37.7344 38.2976-37.8368 13.2608-0.0512 25.7536 8.4992 32.3072 20.224 99.6864-107.6224 160.6656-251.648 160.6656-409.9072 0-4.9664-0.0512-9.984-0.2048-14.9504-113.1008-82.4832-267.776-89.0368-387.584-14.3872-122.6752 76.4416-184.7296 218.2656-157.184 360.2432 13.2096 68.096 44.1344 127.0784 92.928 176.5376 5.12 5.2224 6.912 9.8816 5.4784 17.5616-3.84 20.1216-7.2192 40.2944-10.4448 60.5184z m145.5616-441.2416c11.3152-30.464 32.6656-55.296 63.744-67.4816 46.7968-18.3296 99.7376-7.936 135.0144 27.6992 33.536 33.8432 41.5744 77.312 26.4704 122.624-7.68 23.0912-27.1872 39.1168-48.3328 49.7152-23.6544 11.9296-34.2016 17.5104-34.3552 46.6432 0 1.0752-0.0512 3.1744-0.0512 5.8368-0.1536 15.616-12.9024 28.2112-28.5184 28.1088h-0.768c-15.6672-0.1024-28.3136-12.8512-28.2112-28.5184 0.0512-7.5776 0.1024-13.9776 0.2048-16.0256 2.7136-34.3552 20.0192-60.416 49.3568-78.4896 3.0208-1.8432 6.144-3.4816 9.1648-5.2736 23.8592-14.0288 30.0544-26.1632 26.0608-50.8416-3.4304-21.1456-21.8624-39.9872-43.1104-44.9536-36.4544-8.6016-55.7568 15.6672-65.3824 35.4816-6.4 13.1584-20.4288 20.736-34.8672 18.3808l-0.8704-0.1536c-19.8656-3.1744-32.6144-23.808-25.5488-42.752z" fill="#8486F8" p-id="9682"></path><path d="M332.1344 368.5888c-11.6224-8.0384-17.4592-23.1936-12.1856-37.376 11.3152-30.464 32.6656-55.296 63.744-67.4816 8.2944-3.2256 16.7936-5.5296 25.2928-7.0144a597.9136 597.9136 0 0 0 55.552-149.0944c-75.6224-8.2432-153.7536 8.0896-220.9792 49.9712-122.6752 76.4416-184.7296 218.2656-157.184 360.2432 1.28 6.6048 2.7648 13.1584 4.4032 19.6096a604.34432 604.34432 0 0 0 241.3568-168.8576z" fill="#8D92F8" p-id="9683"></path></svg>