<?xml version="1.0" standalone="no"?><!DOCTYPE svg PUBLIC "-//W3C//DTD SVG 1.1//EN" "http://www.w3.org/Graphics/SVG/1.1/DTD/svg11.dtd"><svg t="1636963743351" class="icon" viewBox="0 0 1024 1024" version="1.1" xmlns="http://www.w3.org/2000/svg" p-id="8536" xmlns:xlink="http://www.w3.org/1999/xlink" width="200" height="200"><defs><style type="text/css"></style></defs><path d="M862.72 305.4592H337.2032c-47.2064 0-85.4528 38.2464-85.4528 85.4528v341.0432c0 47.2064 38.2464 85.4528 85.4528 85.4528h57.856c10.6496 0 19.3024 8.6528 19.3024 19.3024v68.608c0 15.9232 18.1248 24.9856 30.8736 15.4624l133.4272-99.584c3.328-2.5088 7.3728-3.84 11.5712-3.84h272.4352c47.2064 0 85.4528-38.2464 85.4528-85.4528v-340.992c0.0512-47.2064-38.1952-85.4528-85.4016-85.4528z m-86.9888 391.0144H423.424c-22.5792 0-40.9088-18.3296-40.9088-40.9088s18.3296-40.9088 40.9088-40.9088h352.3584c22.5792 0 40.9088 18.3296 40.9088 40.9088-0.0512 22.5792-18.3296 40.9088-40.96 40.9088z m0-161.9456H423.424c-22.5792 0-40.9088-18.3296-40.9088-40.9088s18.3296-40.9088 40.9088-40.9088h352.3584c22.5792 0 40.9088 18.3296 40.9088 40.9088s-18.3296 40.9088-40.96 40.9088z" fill="#FF8E12" p-id="8537"></path><path d="M167.6288 637.5424c-42.24-3.0208-75.7248-38.3488-75.7248-81.3568V300.3392c0-98.6624 79.9744-178.688 178.688-178.688h491.6224c45.056 0 81.5616 36.5056 81.5616 81.5616v26.88c0 22.3744-17.2544 41.9328-39.6288 42.5984-23.1424 0.7168-42.1888-17.8688-42.1888-40.9088 0-15.8208-12.8-28.6208-28.6208-28.5696l-462.7456 0.256c-53.4016 0-96.8704 43.4688-96.8704 96.8704v238.8992c0 8.5504 5.2736 16.3328 13.3632 19.1488 16.384 5.632 27.9552 21.3504 27.4432 39.7824-0.768 23.9616-23.04 41.0624-46.8992 39.3728z" fill="#FCA315" p-id="8538"></path><path d="M862.72 305.4592H337.2032c-47.2064 0-85.4528 38.2464-85.4528 85.4528v341.0432c0 47.2064 38.2464 85.4528 85.4528 85.4528h57.856c10.6496 0 19.3024 8.6528 19.3024 19.3024v68.608c0 0.9728 0.0512 1.8944 0.2048 2.816 25.6512-5.2736 50.7392-12.1344 75.1104-20.48l88.9856-66.4576c3.328-2.5088 7.3728-3.84 11.5712-3.84h41.9328c50.5856-33.5872 96-74.3936 134.7072-120.9344H423.424c-22.5792 0-40.9088-18.3296-40.9088-40.9088s18.3296-40.9088 40.9088-40.9088h352.3584c15.4112 0 28.7744 8.4992 35.7888 21.0944 59.0848-91.5968 94.7712-199.68 98.6624-315.8528a85.504 85.504 0 0 0-47.5136-14.3872z m-86.9376 229.0688H423.424c-22.5792 0-40.9088-18.3296-40.9088-40.9088s18.3296-40.9088 40.9088-40.9088h352.3584c22.5792 0 40.9088 18.3296 40.9088 40.9088-0.0512 22.6304-18.3296 40.9088-40.9088 40.9088z" fill="#FCA315" p-id="8539"></path><path d="M270.592 203.4688l457.1648-0.256c5.4272-26.624 9.1648-53.8624 11.1104-81.5616H270.592c-98.6624 0-178.688 79.9744-178.688 178.688v255.7952c0 43.008 33.4336 78.336 75.7248 81.3568 23.9104 1.6896 46.1824-15.4112 46.848-39.3216 0.5632-18.432-11.0592-34.1504-27.392-39.7824-8.0896-2.7648-13.3632-10.5984-13.3632-19.1488V300.3392c0-53.4016 43.4688-96.8704 96.8704-96.8704z" fill="#FCB138" p-id="8540"></path><path d="M251.7504 390.912v294.7072c46.848-10.24 91.6992-25.7536 133.9392-45.8752a40.89856 40.89856 0 0 1 37.7344-25.088h9.472c38.8096-22.784 74.9568-49.7152 107.776-80.0768H423.424c-22.5792 0-40.9088-18.3296-40.9088-40.9088s18.3296-40.9088 40.9088-40.9088h191.3344c33.8432-44.7488 61.7984-94.208 82.688-147.2512H337.2032c-47.2064-0.0512-85.4528 38.1952-85.4528 85.4016z" fill="#FCB138" p-id="8541"></path><path d="M525.2096 121.7024H270.592c-98.6624 0-178.688 79.9744-178.688 178.688v165.7856a616.9088 616.9088 0 0 0 81.8176-23.3984V300.3904c0-53.4016 43.4688-96.8704 96.8704-96.8704l208.4352-0.1024c17.3568-25.9584 32.8192-53.248 46.1824-81.7152z" fill="#FFC65E" p-id="8542"></path><path d="M251.7504 390.912v17.2544a624.0256 624.0256 0 0 0 141.824-102.7072H337.2032c-47.2064 0-85.4528 38.2464-85.4528 85.4528z" fill="#FFC65E" p-id="8543"></path></svg>