<?xml version="1.0" standalone="no"?><!DOCTYPE svg PUBLIC "-//W3C//DTD SVG 1.1//EN" "http://www.w3.org/Graphics/SVG/1.1/DTD/svg11.dtd"><svg t="1636963756805" class="icon" viewBox="0 0 1024 1024" version="1.1" xmlns="http://www.w3.org/2000/svg" p-id="8821" xmlns:xlink="http://www.w3.org/1999/xlink" width="200" height="200"><defs><style type="text/css"></style></defs><path d="M304.5376 398.2336l419.4304-1.8944c7.4752-0.0512 14.2336-4.608 17.0496-11.5712l77.6192-192.256c4.9152-12.1344-4.0448-25.344-17.1008-25.3952l-574.1568-0.6656c-13.056 0-22.016 13.1072-17.2032 25.2416L287.2832 386.56a18.39616 18.39616 0 0 0 17.2544 11.6736z" fill="#05C46D" p-id="8822"></path><path d="M304.5376 398.2336l419.4304-1.8944c7.4752-0.0512 14.2336-4.608 17.0496-11.5712l77.6192-192.256c4.9152-12.1344-4.0448-25.344-17.1008-25.3952l-574.1568-0.6656c-13.056 0-22.016 13.1072-17.2032 25.2416L287.2832 386.56a18.39616 18.39616 0 0 0 17.2544 11.6736z" fill="#05C46D" p-id="8823"></path><path d="M304.5376 398.2336l419.4304-1.8944c7.4752-0.0512 14.2336-4.608 17.0496-11.5712l77.6192-192.256c4.9152-12.1344-4.0448-25.344-17.1008-25.3952l-574.1568-0.6656c-13.056 0-22.016 13.1072-17.2032 25.2416L287.2832 386.56a18.39616 18.39616 0 0 0 17.2544 11.6736zM939.2128 369.2544l-50.944-112.64c-6.7072-14.7968-27.8528-14.3872-33.9456 0.7168l-45.6704 113.1008c-4.9152 12.1856 4.096 25.4464 17.2032 25.3952l96.6144-0.4608c13.4144-0.1024 22.272-13.9264 16.7424-26.112z" fill="#05C46D" p-id="8824"></path><path d="M220.5184 373.5552L173.056 253.5936c-5.888-14.8992-26.7264-15.7184-33.792-1.3312L80.4352 372.736c-5.9904 12.288 2.9696 26.624 16.6912 26.5728l106.2912-0.4608c13.0048-0.1024 21.8624-13.2096 17.1008-25.2928z" fill="#48E1AA" p-id="8825"></path><path d="M249.1904 454.2464l-132.5056 0.6144c-15.36 0.0512-23.9104 17.7664-14.4384 29.8496l267.9296 341.8112c13.1584 16.7936 39.5264 1.6384 31.6928-18.176L266.4448 465.92a18.32448 18.32448 0 0 0-17.2544-11.6736zM676.7104 452.1984l-326.4 1.4336c-13.0048 0.0512-21.8624 13.1584-17.1008 25.2416l161.2288 407.6544c6.144 15.5136 28.0576 15.5648 34.304 0.1024l165.1712-409.1392c4.9152-12.0832-4.096-25.3952-17.2032-25.2928zM761.6 463.1552l-133.8368 331.52c-8.0384 19.9168 18.6368 35.2256 31.744 18.176l255.6928-332.0832c9.3696-12.1856 0.6656-29.7984-14.6944-29.7472l-121.856 0.5632a18.432 18.432 0 0 0-17.0496 11.5712z" fill="#05C46D" p-id="8826"></path><path d="M266.4448 465.92a18.44736 18.44736 0 0 0-17.2544-11.6736l-132.5056 0.6144c-15.36 0.0512-23.9104 17.7664-14.4384 29.8496l191.0784 243.7632c7.936 0.4096 15.9744 0.6144 24.0128 0.6144 17.5616 0 34.9184-1.0752 51.968-3.0208L266.4448 465.92zM676.7104 452.1984l-326.4 1.4336c-13.0048 0.0512-21.8624 13.1584-17.1008 25.2416l93.696 236.9536c86.4256-21.0944 163.2256-66.6112 222.7712-128.8192l44.2368-109.5168c4.9152-12.0832-4.096-25.3952-17.2032-25.2928zM766.208 167.1168l-538.8288-0.6656c-13.056 0-22.016 13.1072-17.2032 25.2416L287.2832 386.56a18.44736 18.44736 0 0 0 17.2544 11.6736l419.4304-1.8944c7.4752-0.0512 14.2336-4.608 17.0496-11.5712l35.7376-88.576c0.512-9.0624 0.8704-18.176 0.8704-27.392 0-34.9184-4.0448-68.9664-11.4176-101.6832z" fill="#1DCE75" p-id="8827"></path><path d="M647.5264 166.9632l-420.096-0.512c-13.056 0-22.016 13.1072-17.2032 25.2416L287.2832 386.56a18.44736 18.44736 0 0 0 17.2544 11.6736l242.8928-1.0752a458.83392 458.83392 0 0 0 100.096-230.1952zM350.3104 453.632c-13.0048 0.0512-21.8624 13.1584-17.1008 25.2416l22.3232 56.4736c50.7392-19.3536 97.0752-47.4624 137.3696-82.3808l-142.592 0.6656zM266.4448 465.92a18.44736 18.44736 0 0 0-17.2544-11.6736l-132.5056 0.6144c-15.36 0.0512-23.9104 17.7664-14.4384 29.8496l62.8224 80.128c8.7552 0.512 17.5616 0.8192 26.4192 0.8192 37.632 0 74.1888-4.608 109.2608-13.1584L266.4448 465.92z" fill="#3CD38E" p-id="8828"></path><path d="M474.8288 166.7584l-247.4496-0.3072c-13.056 0-22.016 13.1072-17.2032 25.2416l70.2464 177.6128a461.9008 461.9008 0 0 0 194.4064-202.5472z" fill="#48E1AA" p-id="8829"></path></svg>