<?xml version="1.0" standalone="no"?><!DOCTYPE svg PUBLIC "-//W3C//DTD SVG 1.1//EN" "http://www.w3.org/Graphics/SVG/1.1/DTD/svg11.dtd"><svg t="1636962757651" class="icon" viewBox="0 0 1024 1024" version="1.1" xmlns="http://www.w3.org/2000/svg" p-id="7356" xmlns:xlink="http://www.w3.org/1999/xlink" width="200" height="200"><defs><style type="text/css"></style></defs><path d="M841.728 791.1424l88.4224-626.3296c3.6864-26.1632-17.2544-49.2544-43.6736-48.128l-474.2144 20.224a42.20416 42.20416 0 0 0-40.0384 36.3008l-69.8368 494.848c-16.1792-9.2672-34.6112-15.7696-54.5792-18.6368-76.3904-10.8032-146.176 35.9424-155.8016 104.2944-9.6768 68.4032 44.4416 132.608 120.832 143.36s146.176-35.9424 155.8016-104.2944c0.1024-0.768 0.1024-1.536 0.2048-2.2528l0.1024 0.0512 60.0064-424.96 392.0896-13.312-45.9776 325.5296a153.25696 153.25696 0 0 0-55.1424-18.9952c-76.3904-10.8032-146.176 35.9424-155.8016 104.2944-9.6768 68.4032 44.4416 132.608 120.832 143.36 76.3904 10.8032 146.176-35.9424 155.8016-104.2944 0.5632-3.6864 0.8192-7.3728 0.9728-11.0592z" fill="#6C6CEA" p-id="7357"></path><path d="M886.4768 116.6848l-474.2144 20.224a42.20416 42.20416 0 0 0-40.0384 36.3008l-69.8368 494.848c-16.1792-9.2672-34.6112-15.7696-54.5792-18.6368-76.3904-10.8032-146.176 35.9424-155.8016 104.2944-0.4608 3.3792-0.6656 6.7072-0.8704 10.0864 68.5056 47.0016 148.5824 79.4112 236.4416 91.8016 3.1744 0.4608 6.2976 0.7168 9.472 1.0752 16.6912-17.3568 28.1088-39.168 31.5904-63.8976 0.1024-0.768 0.1024-1.536 0.2048-2.2528l0.1024 0.0512 60.0064-424.96 392.0896-13.312-45.9776 325.5296a153.25696 153.25696 0 0 0-55.1424-18.9952c-76.3904-10.8032-146.176 35.9424-155.8016 104.2944-3.5328 24.9344 1.536 49.3056 12.9536 70.7584 117.8624-38.4 220.0576-115.4048 289.4336-218.2144l63.6416-450.9696c3.6864-26.0608-17.2544-49.152-43.6736-48.0256z" fill="#757BF2" p-id="7358"></path><path d="M391.1168 633.6l37.8368-267.9808 341.8112-11.5712a555.15136 555.15136 0 0 0 62.0544-187.9552c2.2528-15.8208 3.6352-31.5904 4.5056-47.2576l-425.0624 18.1248a42.20416 42.20416 0 0 0-40.0384 36.3008l-66.4064 470.528c28.928-1.2288 57.4464-4.6592 85.2992-10.1888z" fill="#8486F8" p-id="7359"></path><path d="M666.88 126.0544l-254.6176 10.8544a42.20416 42.20416 0 0 0-40.0384 36.3008L339.6608 403.968c30.9248-9.8304 60.672-22.4768 89.1904-37.376l0.1536-0.9728 1.8944-0.0512c100.3008-53.1456 183.5008-136.3456 235.9808-239.5136z" fill="#8D92F8" p-id="7360"></path></svg>