<?xml version="1.0" standalone="no"?><!DOCTYPE svg PUBLIC "-//W3C//DTD SVG 1.1//EN" "http://www.w3.org/Graphics/SVG/1.1/DTD/svg11.dtd"><svg t="1636962782120" class="icon" viewBox="0 0 1024 1024" version="1.1" xmlns="http://www.w3.org/2000/svg" p-id="7637" xmlns:xlink="http://www.w3.org/1999/xlink" width="200" height="200"><defs><style type="text/css"></style></defs><path d="M246.784 367.9232c-16.4864-181.6576 139.264-292.4032 264.192-292.4544 124.0576-0.0512 280.2176 109.1584 264.448 292.4032 4.3008 0.512 8.704 1.0752 13.1072 1.536 65.2288 7.3216 110.6432 55.1424 111.2576 120.7296 1.024 107.9808 1.1776 216.0128-0.0512 323.9936-0.768 70.7584-53.9648 121.5488-124.7744 121.6512-176.128 0.256-352.2048 0.2048-528.3328 0-71.68-0.0512-124.2112-50.688-124.8768-122.5216-1.024-107.5712-0.9728-215.1424 0-322.7136 0.6144-66.5088 45.6704-114.0736 111.8208-121.2416 4.096-0.4608 8.192-0.8704 13.2096-1.3824z m81.2032-0.1536h365.3632c11.008-69.12-21.1456-143.5136-79.6672-180.6336-66.9184-42.4448-136.1408-43.8784-202.752-1.1264-65.2288 41.8304-88.832 105.1648-82.944 181.76z m37.888 232.8576c-0.3072 29.7472 6.656 61.3376 28.8768 85.9136 18.3296 20.3264 29.184 40.3456 30.208 68.9152 1.4336 38.0416 32.2048 67.584 69.3248 74.3936 37.9392 7.0144 74.9568-10.8032 93.3888-44.6464 9.8816-18.2272 10.5472-37.9904 11.2128-57.9584 0.2048-5.4784 2.7648-11.6736 6.144-16.0768 9.5232-12.4416 21.8624-22.9888 29.7472-36.3008 27.904-46.9504 28.5184-95.8976 2.5088-143.4624-27.136-49.7152-71.424-75.1104-127.6416-74.9056-79.616 0.256-139.6736 60.5696-143.7696 144.128z" fill="#6C6CEA" p-id="7638"></path><path d="M510.8224 527.3088c32.8192 0 60.6208 20.6336 70.656 52.5312 9.472 30.1056-1.4848 65.3312-28.8256 81.9712-19.4048 11.8272-26.3168 27.136-24.9856 48.4352 0.6656 10.752 0.3584 21.5552-0.1536 32.3072-0.512 10.3936-5.9392 17.7664-16.8448 17.7152-10.8544-0.0512-16.3328-7.0656-16.5376-17.8176-0.2048-12.032-0.4608-24.064-0.1024-36.096 0.6144-18.9952-6.144-32.8704-23.1424-43.264-28.4672-17.4592-40.3456-51.456-30.9248-82.176 10.24-33.2288 37.0688-53.5552 70.8608-53.6064z" fill="#757BF2" p-id="7639"></path><path d="M899.7888 490.1376c-0.6144-65.5872-46.08-113.408-111.2576-120.7296l-13.1072-1.536c15.8208-183.1936-140.3904-292.4032-264.448-292.4032-124.928 0.0512-280.6784 110.7456-264.192 292.4032-4.9664 0.512-9.0624 0.9728-13.2096 1.3824-66.0992 7.168-111.2064 54.7328-111.8208 121.2416-0.9728 107.5712-1.024 215.1424 0 322.7136 0.6656 71.8848 53.1968 122.4704 124.8768 122.5216 110.2336 0.1024 220.416 0.1024 330.6496 0.1024 164.8128-89.5488 285.7472-249.4976 322.5088-439.4496 0.0512-2.048 0.0512-4.1472 0-6.2464z m-265.0112 184.7296c-7.8848 13.312-20.2752 23.8592-29.7472 36.3008-3.3792 4.4032-5.9904 10.5984-6.144 16.0768-0.6656 20.0192-1.28 39.7824-11.2128 57.9584-18.432 33.8432-55.3984 51.6608-93.3376 44.6464-37.12-6.8608-67.8912-36.352-69.3248-74.3936-1.0752-28.5696-11.8784-48.5888-30.208-68.9152-22.2208-24.6272-29.184-56.2176-28.8768-85.9136 4.096-83.5584 64.1536-143.9232 143.7696-144.128 56.2176-0.1536 100.4544 25.2416 127.6416 74.9056 25.9584 47.5648 25.344 96.512-2.56 143.4624z m58.5728-307.0976H327.9872c-5.888-76.5952 17.7152-139.9296 82.8928-181.76 66.6624-42.752 135.8848-41.3184 202.752 1.1264 58.5728 37.12 90.6752 111.5136 79.7184 180.6336z" fill="#757BF2" p-id="7640"></path><path d="M577.4336 569.6c-12.288-25.9584-37.4272-42.24-66.6112-42.24-33.792 0-60.6208 20.3264-70.8608 53.7088-9.4208 30.72 2.4576 64.7168 30.9248 82.176 0.768 0.4608 1.3824 0.9728 2.0992 1.4336 38.2464-27.8016 73.2672-59.6992 104.448-95.0784z" fill="#8486F8" p-id="7641"></path><path d="M510.976 75.4688c-124.928 0.0512-280.6784 110.7456-264.192 292.4032-4.9664 0.512-9.0624 0.9728-13.2096 1.3824-66.0992 7.168-111.2064 54.7328-111.8208 121.2416-0.8704 98.3552-0.8704 196.7616-0.1024 295.1168 104.192-3.7888 201.984-32.4608 287.6416-80.3328-4.1472-6.4-8.9088-12.5952-14.5408-18.7904-22.2208-24.6272-29.184-56.2176-28.8768-85.9136 4.096-83.5584 64.1536-143.9232 143.7696-144.128 47.6672-0.1536 86.6816 18.176 114.0224 53.9648 62.0032-89.6 101.6832-195.7888 111.0016-310.5792-52.2752-79.7696-144.4864-124.3648-223.6928-124.3648z m182.3744 292.3008H327.9872c-5.888-76.5952 17.7152-139.9296 82.8928-181.76 66.6624-42.752 135.8848-41.3184 202.752 1.1264 58.5728 37.12 90.6752 111.5136 79.7184 180.6336z" fill="#8486F8" p-id="7642"></path><path d="M394.2912 367.7696H327.9872c-5.888-76.5952 17.7152-139.9296 82.8928-181.76 39.7312-25.4976 80.3328-35.1744 120.832-29.9008 9.728-24.6272 17.9712-49.9712 24.6272-75.9808-15.36-3.0208-30.5664-4.608-45.312-4.608-124.928 0.0512-280.6784 110.7456-264.192 292.4032-4.9664 0.512-9.0624 0.9728-13.2096 1.3824-66.0992 7.168-111.2064 54.7328-111.8208 121.2416-0.1024 14.1824-0.1024 28.416-0.2048 42.5984 104.7552-31.4368 198.1952-89.1392 272.6912-165.376z" fill="#8D92F8" p-id="7643"></path></svg>