<?xml version="1.0" standalone="no"?><!DOCTYPE svg PUBLIC "-//W3C//DTD SVG 1.1//EN" "http://www.w3.org/Graphics/SVG/1.1/DTD/svg11.dtd"><svg t="1636963772802" class="icon" viewBox="0 0 1024 1024" version="1.1" xmlns="http://www.w3.org/2000/svg" p-id="9109" xmlns:xlink="http://www.w3.org/1999/xlink" width="200" height="200"><defs><style type="text/css"></style></defs><path d="M868.608 344.2176L787.1488 395.776V265.2672c0-45.568-36.9664-82.5344-82.5344-82.5344H186.624c-45.568 0-82.5344 36.9664-82.5344 82.5344v511.5904c0 45.568 36.9664 82.5344 82.5344 82.5344h517.9904c45.568 0 82.5344-36.9664 82.5344-82.5344v-133.9904l80.3328 54.272c30.976 20.9408 72.8064-1.28 72.8064-38.656V383.6416c-0.0512-36.7616-40.6016-59.0848-71.68-39.424z m-279.1424 216.1152l-187.7504 118.784c-27.8016 17.5616-64-2.4064-64-35.2768V398.2336c0-33.4336 37.376-53.2992 65.0752-34.56l187.7504 126.8224c24.9344 16.8448 24.3712 53.76-1.0752 69.8368z m67.9424-216.4736c-23.9104 0-43.3152-19.4048-43.3152-43.3152s19.4048-43.3152 43.3152-43.3152 43.3152 19.4048 43.3152 43.3152-19.4048 43.3152-43.3152 43.3152z" fill="#F23D4F" p-id="9110"></path><path d="M787.1488 395.776V265.2672c0-45.568-36.9664-82.5344-82.4832-82.5344H186.624c-45.568 0-82.4832 36.9664-82.4832 82.5344v511.5904c0 45.568 36.9664 82.5344 82.4832 82.5344h307.3024c164.2496-97.6896 279.6544-268.9024 300.6976-468.3264l-7.4752 4.7104z m-197.6832 164.5568l-187.7504 118.784c-27.8016 17.5616-64-2.4064-64-35.2768V398.2336c0-33.4336 37.376-53.2992 65.0752-34.56l187.7504 126.8224c24.9344 16.8448 24.3712 53.76-1.0752 69.8368z m67.9424-216.4736c-23.9104 0-43.3152-19.4048-43.3152-43.3152s19.4048-43.3152 43.3152-43.3152c23.9104 0 43.3152 19.4048 43.3152 43.3152s-19.4048 43.3152-43.3152 43.3152z" fill="#FC4956" p-id="9111"></path><path d="M104.1408 265.2672v467.9168c84.736-12.3392 163.8912-41.728 233.8816-84.6336-0.1536-1.536-0.3072-3.072-0.3072-4.7104V398.2336c0-33.4336 37.376-53.2992 65.0752-34.56l133.9904 90.5216a617.96352 617.96352 0 0 0 95.1808-271.4112H186.624c-45.5168 0-82.4832 36.9152-82.4832 82.4832z" fill="#FF5C64" p-id="9112"></path><path d="M104.1408 265.2672V468.992c132.096-57.1904 240.4864-158.8736 306.1248-286.208H186.624c-45.5168 0-82.4832 36.9152-82.4832 82.4832z" fill="#FF716E" p-id="9113"></path></svg>