<?xml version="1.0" standalone="no"?><!DOCTYPE svg PUBLIC "-//W3C//DTD SVG 1.1//EN" "http://www.w3.org/Graphics/SVG/1.1/DTD/svg11.dtd"><svg t="1636962768796" class="icon" viewBox="0 0 1024 1024" version="1.1" xmlns="http://www.w3.org/2000/svg" p-id="7495" xmlns:xlink="http://www.w3.org/1999/xlink" width="200" height="200"><defs><style type="text/css"></style></defs><path d="M567.7568 650.7008H454.9632v-50.8928l-349.696-128.9728v330.3424c0 52.9408 42.9056 95.8464 95.8464 95.8464h620.4928c52.9408 0 95.8464-42.9056 95.8464-95.8464V460.9536L567.7568 599.04v51.6608z" fill="#6C6CEA" p-id="7496"></path><path d="M821.6064 264.192h-105.5744V161.0752a37.6832 37.6832 0 0 0-37.6832-37.6832H344.3712a37.6832 37.6832 0 0 0-37.6832 37.6832V264.192H201.1136c-52.9408 0-95.8464 42.9056-95.8464 95.8464v30.464l349.696 128.9728v-49.664h112.7936v48.2304l349.696-138.0864v-19.9168c0-52.9408-42.9056-95.8464-95.8464-95.8464z m-439.552 0V198.7584h258.6112V264.192H382.0544z" fill="#757BF2" p-id="7497"></path><path d="M917.4528 460.9536L567.7568 599.04v51.6608H454.9632v-50.8928l-349.696-128.9728v330.3424c0 52.9408 42.9056 95.8464 95.8464 95.8464H479.744c209.7664-54.784 376.2688-216.6272 437.7088-423.6288v-12.4416z" fill="#757BF2" p-id="7498"></path><path d="M741.9904 264.192h-25.9584V161.0752a37.6832 37.6832 0 0 0-37.6832-37.6832H344.3712a37.6832 37.6832 0 0 0-37.6832 37.6832V264.192H201.1136c-52.9408 0-95.8464 42.9056-95.8464 95.8464v30.464l349.696 128.9728v-49.664h112.7936v48.2304l22.5792-8.9088c68.1984-67.8912 120.7296-151.5008 151.6544-244.9408z m-359.936 0V198.7584h258.6112V264.192H382.0544zM105.2672 687.9232c15.6672 1.1776 31.488 1.792 47.4112 1.792 109.7728 0 212.8384-28.5184 302.2848-78.5408v-11.4176l-349.696-128.9728v217.1392z" fill="#8486F8" p-id="7499"></path><path d="M382.0544 264.192V198.7584h127.5392c16.3328-23.9616 31.0272-49.152 43.9808-75.3664H344.3712a37.6832 37.6832 0 0 0-37.6832 37.6832V264.192H201.1136c-52.9408 0-95.8464 42.9056-95.8464 95.8464v30.464l109.1072 40.2432C308.736 395.3664 392.1408 337.7152 458.24 264.192H382.0544z" fill="#8D92F8" p-id="7500"></path></svg>