<?xml version="1.0" standalone="no"?><!DOCTYPE svg PUBLIC "-//W3C//DTD SVG 1.1//EN" "http://www.w3.org/Graphics/SVG/1.1/DTD/svg11.dtd"><svg t="1636962790670" class="icon" viewBox="0 0 1024 1024" version="1.1" xmlns="http://www.w3.org/2000/svg" p-id="7778" xmlns:xlink="http://www.w3.org/1999/xlink" width="200" height="200"><defs><style type="text/css"></style></defs><path d="M506.9824 740.1984c-177.5616 1.1776-321.3824-141.7216-322.0992-320.1024-0.7168-178.5856 140.6976-321.7408 319.1296-323.072 177.5104-1.3312 322.1504 141.312 323.6864 319.0784 1.536 178.3808-141.4656 322.8672-320.7168 324.096z m204.8512-372.6848c-1.792-26.624-17.2544-40.9088-39.9872-47.0528-15.2064-4.096-31.0784-7.424-46.7456-7.8848-27.4944-0.8704-46.7456-10.3424-54.6816-38.7584-3.072-11.1104-9.9328-21.1456-15.1552-31.6928-9.8304-19.9168-24.576-33.0752-47.7696-34.1504-24.6784-1.1776-39.936 12.3904-50.2272 32.9728-8.6528 17.2544-15.872 35.328-25.856 51.8144-4.1472 6.912-13.056 13.2608-20.8896 15.104-19.4048 4.5568-39.4752 5.9392-59.1872 9.2672-21.8624 3.7376-38.2464 14.592-45.6704 36.8128-7.3728 21.8624 0.9216 39.1168 15.2064 54.5792 8.3968 9.1136 16.7424 18.688 26.7264 25.9072 22.6816 16.4864 31.2832 36.1984 21.1968 63.6928-3.9424 10.8032-3.584 23.0912-5.9904 34.56-4.6592 22.3232 0.6656 41.9328 18.5856 55.6032 18.7904 14.336 39.7824 13.0048 60.5184 2.304 21.4016-11.0592 42.9568-30.3104 64.4096-30.2592 21.4528 0.0512 43.008 19.3536 64.3584 30.464 19.8656 10.2912 39.6288 12.032 58.5728-1.536 19.712-14.1312 24.064-34.4064 20.3264-57.0368-3.0208-18.3296-7.7824-36.5056-9.3696-54.9888-0.7168-8.192 2.4064-18.7904 7.68-24.9856 12.9024-15.2064 29.184-27.5456 41.984-42.8032 9.2672-11.0592 21.9648-21.0944 21.9648-41.9328z" fill="#757BF2" p-id="7779"></path><path d="M418.5088 792.1152c-3.4816 8.2944-5.1712 13.6192-7.8336 18.4832-20.3264 36.9152-40.704 73.8304-61.3888 110.5408-11.4688 20.3776-21.1456 21.504-37.1712 4.352-21.6064-23.0912-41.728-47.7184-64.7168-69.3248-11.52-10.8032-27.136-19.456-42.3936-23.6032-29.7472-8.0896-60.6208-11.776-90.8288-18.2272-21.4528-4.5568-25.4976-13.8752-14.7456-33.024 22.4256-39.7824 45.4144-79.2576 68.2496-118.784 15.9744-27.5968 23.7056-28.9792 45.6192-6.5024 42.6496 43.7248 90.368 80.128 146.5856 104.6528 13.5168 5.888 27.904 9.8304 41.1136 16.2304 6.7072 3.328 11.776 10.1376 17.5104 15.2064zM920.832 799.1296c-7.424 5.0176-14.4384 12.9024-22.8864 14.8992-32.0512 7.424-64.8192 11.8784-96.8192 19.712-12.0832 2.9696-24.6272 10.0352-33.536 18.7392-24.0128 23.552-45.9776 49.152-69.12 73.6256-15.2064 16.0768-25.2928 15.3088-35.9424-3.6864-21.3504-37.888-41.8816-76.1856-62.6176-114.3808-8.6528-15.9232-4.096-26.5216 13.2096-32.2048 74.4448-24.32 136.0384-68.3008 189.8496-124.2624 15.2576-15.8208 25.2416-14.592 36.3008 4.0448 24.6784 41.6256 48.9472 83.456 73.2672 125.2864 2.4576 4.1984 4.0448 8.8576 8.2944 18.2272z" fill="#6C6CEA" p-id="7780"></path><path d="M506.0608 266.8544c10.9568 22.4768 20.2752 40.448 28.5696 58.9824 10.1376 22.6304 27.7504 33.4848 51.712 36.1984 19.456 2.2016 38.8608 5.2224 61.3376 8.2944-14.6944 15.0016-27.0336 28.9792-40.8576 41.3696-20.6848 18.5856-30.0032 39.68-22.7328 67.84 4.6592 18.176 6.3488 37.1712 10.1888 60.7232-20.8896-11.4176-38.1952-20.0704-54.6816-30.0544-22.272-13.4144-43.7248-14.08-66.304-0.4608-16.6912 10.0864-34.4576 18.4832-55.4496 29.5936 3.6352-22.9376 5.9392-42.5472 9.984-61.8496 5.2736-25.2928-0.256-45.6704-20.5824-62.976-14.7968-12.5952-27.2896-27.8528-42.8032-43.9808 21.1968-2.9696 40.8064-6.5024 60.5696-8.3456 24.32-2.2528 41.472-12.8 51.4048-35.8912 8.0896-19.1488 18.3808-37.2224 29.6448-59.4432z" fill="#8486F8" p-id="7781"></path><path d="M400.9472 776.96c-13.2096-6.4-27.5968-10.3424-41.1136-16.2304-56.2176-24.5248-103.936-60.9792-146.5856-104.6528-21.9136-22.4768-29.6448-21.0944-45.6192 6.5024-19.6608 33.9968-39.3728 68.0448-58.7776 102.1952a546.15552 546.15552 0 0 0 252.3136 61.5424c14.08 0 27.9552-0.7168 41.7792-1.7408l7.68-13.9776c2.6624-4.8128 4.352-10.1888 7.8336-18.4832-5.6832-5.0688-10.752-11.8784-17.5104-15.1552z" fill="#757BF2" p-id="7782"></path><path d="M606.8224 411.648c13.7728-12.3904 26.1632-26.368 40.8576-41.3696-22.4768-3.072-41.8816-6.144-61.3376-8.2944-24.0128-2.7136-41.5744-13.568-51.712-36.1984-8.2944-18.4832-17.6128-36.5056-28.5696-58.9824-11.264 22.2208-21.5552 40.3456-29.7472 59.3408-9.9328 23.1424-27.0336 33.6896-51.4048 35.8912-19.7632 1.8432-39.3728 5.376-60.5696 8.3456 15.5648 16.1792 28.0576 31.4368 42.8032 43.9808 20.2752 17.3056 25.856 37.6832 20.5824 62.976-3.9936 19.3024-6.3488 38.912-9.984 61.8496 21.0432-11.1104 38.7584-19.5072 55.4496-29.5936 22.5792-13.6192 44.032-12.9536 66.304 0.4608 4.5568 2.7648 9.2672 5.4272 13.9776 8.0896 11.3152-9.0624 22.272-18.5856 32.8704-28.4672-0.7168-3.4304-1.4336-6.8608-2.304-10.24-7.2192-28.1088 2.0992-49.2032 22.784-67.7888zM475.6992 570.368c-1.0752 0.6144-2.0992 1.1776-3.1744 1.792 1.0752-0.5632 2.0992-1.1776 3.1744-1.792z" fill="#8486F8" p-id="7783"></path><path d="M504.0128 96.9728c-178.432 1.3312-319.8464 144.4864-319.1296 323.072 0.3584 83.1488 31.7952 158.6176 83.2512 215.3472 51.9168-5.376 101.632-18.0736 148.224-36.864-12.0832 1.1264-23.9104-1.7408-34.9696-10.1888-17.92-13.6704-23.2448-33.28-18.5856-55.6032 2.4064-11.4688 2.048-23.7568 5.9904-34.56 10.1376-27.4944 1.536-47.2064-21.1968-63.6928-9.9328-7.2192-18.2784-16.7936-26.7264-25.9072-14.2848-15.4624-22.5792-32.7168-15.2064-54.5792 7.4752-22.2208 23.808-33.0752 45.6704-36.8128 19.712-3.328 39.7824-4.7616 59.1872-9.2672 7.8336-1.8432 16.7424-8.2432 20.8896-15.104 9.9328-16.4352 17.2032-34.5088 25.856-51.8144 10.3424-20.6336 25.6-34.1504 50.2272-32.9728 23.1936 1.0752 37.9392 14.2336 47.7696 34.1504 5.1712 10.496 12.0832 20.5824 15.1552 31.6928 7.8848 28.416 27.136 37.8368 54.6816 38.7584 15.6672 0.512 31.5392 3.7888 46.7456 7.8848 11.8784 3.2256 21.6576 8.704 28.672 16.9472 20.8896-41.1648 36.7104-85.2992 46.6944-131.6352-59.3408-67.3792-146.3808-109.568-243.2-108.8512z" fill="#8486F8" p-id="7784"></path><path d="M305.664 353.9968c7.4752-22.2208 23.808-33.0752 45.6704-36.8128 19.712-3.328 39.7824-4.7616 59.1872-9.2672 7.8336-1.8432 16.7424-8.2432 20.8896-15.104 9.9328-16.4352 17.2032-34.5088 25.856-51.8144 10.3424-20.6336 25.6-34.1504 50.2272-32.9728 5.3248 0.256 10.1888 1.2288 14.6432 2.6624 22.9376-32.6144 42.3936-67.7888 57.856-105.1136a321.1776 321.1776 0 0 0-76.032-8.5504c-178.432 1.3312-319.8464 144.4864-319.1296 323.072 0 4.2496 0.2048 8.4992 0.3584 12.6976 43.1616-8.96 84.4288-22.9888 123.2384-41.4208-5.6832-11.0592-7.5264-23.2448-2.7648-37.376z" fill="#8D92F8" p-id="7785"></path></svg>