<?xml version="1.0" standalone="no"?><!DOCTYPE svg PUBLIC "-//W3C//DTD SVG 1.1//EN" "http://www.w3.org/Graphics/SVG/1.1/DTD/svg11.dtd"><svg t="1636962750941" class="icon" viewBox="0 0 1024 1024" version="1.1" xmlns="http://www.w3.org/2000/svg" p-id="7213" xmlns:xlink="http://www.w3.org/1999/xlink" width="200" height="200"><defs><style type="text/css"></style></defs><path d="M324.5056 294.9632m-173.568 0a173.568 173.568 0 1 0 347.136 0 173.568 173.568 0 1 0-347.136 0Z" fill="#3CD38E" p-id="7214"></path><path d="M549.056863 372.588942a173.568 173.568 0 1 0 310.488016-155.243661 173.568 173.568 0 1 0-310.488016 155.243661Z" fill="#1DCE75" p-id="7215"></path><path d="M705.2288 506.7776c-76.288 0-144.64 34.8672-189.9008 89.4464-45.2608-54.6304-113.5616-89.4464-189.9008-89.4464-135.9872 0-246.5792 110.6432-246.5792 246.5792v143.5136h117.248v-143.5136c0-71.3216 58.0096-129.3312 129.3312-129.3312s129.3312 58.0096 129.3312 129.3312v143.5136h121.088v-143.5136c0-71.3216 58.0096-129.3312 129.3312-129.3312s129.3312 58.0096 129.3312 129.3312v143.5136h117.248v-143.5136c0.1024-135.936-110.5408-246.5792-246.528-246.5792z" fill="#05C46D" p-id="7216"></path><path d="M705.2288 506.7776c-76.288 0-144.64 34.8672-189.9008 89.4464-45.2608-54.6304-113.5616-89.4464-189.9008-89.4464-135.9872 0-246.5792 110.6432-246.5792 246.5792v143.5136h117.248v-143.5136c0-71.3216 58.0096-129.3312 129.3312-129.3312 71.3216 0 129.3312 58.0096 129.3312 129.3312v143.5136h11.9296c37.9904-12.0832 74.496-27.4944 109.1584-45.8752v-97.6384c0-71.3216 58.0096-129.3312 129.3312-129.3312 36.0448 0 68.6592 14.848 92.1088 38.7072 23.9104-31.5392 45.056-65.1776 63.1808-100.7104-42.3424-34.5088-96.4096-55.2448-155.2384-55.2448z" fill="#1DCE75" p-id="7217"></path><path d="M704.3072 121.3952c-95.8464 0-173.568 77.7216-173.568 173.568 0 58.7264 29.184 110.592 73.8304 142.0288 70.2976-88.4224 118.7328-194.9696 137.1136-311.552-12.0832-2.6112-24.576-4.0448-37.376-4.0448zM325.4784 506.7776c-114.176 0-210.4832 78.0288-238.3872 183.552 46.5408-0.512 91.904-5.7344 135.68-15.2576 23.6544-30.9248 60.8256-51.0464 102.7072-51.0464 12.0832 0 23.7568 1.792 34.8672 4.9152 41.5744-19.2 80.8448-42.5472 117.2992-69.4784-41.9328-32.9728-94.8224-52.6848-152.1664-52.6848z" fill="#3CD38E" p-id="7218"></path><path d="M452.6592 177.8688c-31.744-34.7136-77.4144-56.4736-128.1536-56.4736-95.8464 0-173.568 77.7216-173.568 173.568 0 37.5808 11.9808 72.2944 32.256 100.7104 107.8272-47.9744 200.6016-123.5456 269.4656-217.8048z" fill="#48E1AA" p-id="7219"></path></svg>