<?xml version="1.0" standalone="no"?><!DOCTYPE svg PUBLIC "-//W3C//DTD SVG 1.1//EN" "http://www.w3.org/Graphics/SVG/1.1/DTD/svg11.dtd"><svg t="1636963839458" class="icon" viewBox="0 0 1024 1024" version="1.1" xmlns="http://www.w3.org/2000/svg" p-id="10247" xmlns:xlink="http://www.w3.org/1999/xlink" width="200" height="200"><defs><style type="text/css"></style></defs><path d="M505.6 59.4432c-197.1712 2.7648-360.448 160.9728-369.0496 357.9392-7.0656 161.536 88.2176 301.6704 226.3552 361.1648v32.7168c0 15.104 12.2368 27.3408 27.3408 27.3408h241.408c15.104 0 27.3408-12.2368 27.3408-27.3408v-32.7168C792.3712 721.1008 885.76 588.5952 885.76 434.176c0-208.7424-170.7008-377.6512-380.16-374.7328z m99.8912 482.5088h-48.64v128.1536c0 25.344-20.5312 45.8752-45.8752 45.8752-25.344 0-45.8752-20.5312-45.8752-45.8752v-128.1536h-48.64c-25.344 0-45.8752-20.5312-45.8752-45.8752 0-25.344 20.5312-45.8752 45.8752-45.8752h189.0816c25.344 0 45.8752 20.5312 45.8752 45.8752-0.0512 25.344-20.5824 45.8752-45.9264 45.8752zM639.7952 883.0976H382.1056c-25.344 0-45.8752 20.5312-45.8752 45.8752s20.5312 45.8752 45.8752 45.8752h257.6896c25.344 0 45.8752-20.5312 45.8752-45.8752s-20.5312-45.8752-45.8752-45.8752z" fill="#FF8E12" p-id="10248"></path><path d="M362.9056 788.0192c264.6528-28.928 470.0672-239.9232 470.0672-496.0256 0-18.5856-1.1776-36.9664-3.2768-55.04-66.9696-107.9808-187.2384-179.456-324.096-177.5616-197.1712 2.7648-360.448 160.9728-369.0496 357.9392-7.0656 161.536 88.2176 301.6704 226.3552 361.1648v9.5232z m53.504-337.7664h189.0816c25.344 0 45.8752 20.5312 45.8752 45.8752 0 25.344-20.5312 45.8752-45.8752 45.8752h-48.64v128.1536c0 25.344-20.5312 45.8752-45.8752 45.8752-25.344 0-45.8752-20.5312-45.8752-45.8752v-128.1536h-48.64c-25.344 0-45.8752-20.5312-45.8752-45.8752 0-25.344 20.5312-45.8752 45.824-45.8752z" fill="#FCA315" p-id="10249"></path><path d="M687.0528 103.2704c-53.9648-28.7744-115.8144-44.7488-181.4528-43.8272-197.1712 2.7648-360.448 160.9728-369.0496 357.9392-3.1232 71.2192 13.6704 138.2912 45.2608 196.096 90.8288-4.1984 175.7184-29.7984 248.9344-71.5264h-14.336c-25.344 0-45.8752-20.5312-45.8752-45.8752 0-25.344 20.5312-45.8752 45.8752-45.8752h132.864c85.76-88.6784 138.0352-206.4384 138.0352-335.616 0.0512-3.7888-0.1536-7.5264-0.256-11.3152z" fill="#FCB138" p-id="10250"></path><path d="M136.5504 417.3824c-0.1024 2.7136-0.1536 5.376-0.2048 8.0896 196.3008-40.6528 351.8976-182.8864 400.896-365.056-10.4448-0.7168-20.992-1.1264-31.6416-0.9728-197.12 2.7648-360.448 160.9728-369.0496 357.9392z" fill="#FFC65E" p-id="10251"></path></svg>