<?xml version="1.0" standalone="no"?><!DOCTYPE svg PUBLIC "-//W3C//DTD SVG 1.1//EN" "http://www.w3.org/Graphics/SVG/1.1/DTD/svg11.dtd"><svg t="1636963782826" class="icon" viewBox="0 0 1024 1024" version="1.1" xmlns="http://www.w3.org/2000/svg" p-id="9251" xmlns:xlink="http://www.w3.org/1999/xlink" width="200" height="200"><defs><style type="text/css"></style></defs><path d="M821.6064 524.9536h89.5488c23.3984 0 42.3936-19.0464 42.3936-42.3936s-18.9952-42.3936-42.3936-42.3936h-89.5488c-23.3984 0-42.3936 18.9952-42.3936 42.3936s18.9952 42.3936 42.3936 42.3936zM825.0368 392.3968c5.632 0 11.1104-1.1264 16.3328-3.2768l82.5856-34.56a42.0864 42.0864 0 0 0 22.8864-23.04c4.3008-10.496 4.2496-22.016-0.1024-32.4608a41.83552 41.83552 0 0 0-23.04-22.8352c-10.496-4.3008-22.016-4.2496-32.4608 0.1024l-82.5856 34.56a42.0864 42.0864 0 0 0-22.8864 23.04c-4.3008 10.496-4.2496 22.016 0.1024 32.4608a42.55744 42.55744 0 0 0 39.168 26.0096zM924.0064 613.376l-82.5856-34.56c-21.5552-9.0112-46.4384 1.1776-55.4496 22.7328-9.0112 21.5552 1.1776 46.4384 22.7328 55.4496l82.5856 34.56c5.2224 2.2016 10.7008 3.2768 16.3328 3.2768 17.152 0 32.512-10.24 39.1168-26.0608 9.0112-21.504-1.1776-46.3872-22.7328-55.3984zM667.0336 122.7776L397.2608 279.04H166.2976c-50.7904 0-92.0064 41.1648-92.0064 92.0064v235.776c0 50.7904 41.1648 92.0064 92.0064 92.0064v97.28c0 59.4432 46.1312 110.1824 105.5744 112.4352 62.464 2.3552 114.0736-47.7696 114.0736-109.7216V698.88h9.6768l271.9744 143.8208c27.392 14.4896 60.416-5.376 60.416-36.4032V158.8736c0-31.3344-33.536-51.1488-60.9792-36.096z m-12.6464 523.264c0 23.1936-18.7904 41.984-41.984 41.984s-41.984-18.7904-41.984-41.984v-278.016c0-23.1936 18.7904-41.984 41.984-41.984s41.984 18.7904 41.984 41.984v278.016z" fill="#F23D4F" p-id="9252"></path><path d="M728.0128 532.0704V158.8736c0-31.2832-33.536-51.1488-60.9792-36.096L397.2608 279.04H166.2976c-50.7904 0-92.0064 41.216-92.0064 92.0064v235.776c0 50.7904 41.1648 92.0064 92.0064 92.0064v97.28c0 2.8672 0.2048 5.632 0.4096 8.448a497.5104 497.5104 0 0 0 112.2304 12.9024c36.608 0 72.2432-4.096 106.5984-11.6224 0.1536-2.3552 0.3584-4.6592 0.3584-7.0656v-99.9424h9.6768L510.976 759.808a497.664 497.664 0 0 0 102.0928-71.8336c-0.2048 0-0.4608 0.0512-0.6656 0.0512-23.1936 0-41.984-18.7904-41.984-41.984v-278.016c0-23.1936 18.7904-41.984 41.984-41.984s41.984 18.7904 41.984 41.984v277.2992a497.10592 497.10592 0 0 0 73.6256-113.2544z" fill="#FC4956" p-id="9253"></path><path d="M570.4192 397.3632v-29.3376c0-20.6336 14.848-37.7344 34.4576-41.2672a494.21312 494.21312 0 0 0 34.3552-181.4016c0-2.1504-0.1536-4.2496-0.1536-6.4L397.2608 279.04H166.2976c-50.7904 0-92.0064 41.216-92.0064 92.0064v235.776c0 10.6496 1.8944 20.7872 5.2224 30.3104 20.8896 2.6624 42.1376 4.1984 63.7952 4.1984 181.8624 0 340.7872-97.9968 427.1104-243.968z" fill="#FF5C64" p-id="9254"></path><path d="M413.6448 269.5168l-16.384 9.472H166.2976c-50.7904 0-92.0064 41.216-92.0064 92.0064v91.5968c138.3424-15.4624 259.3792-87.7568 339.3536-193.0752z" fill="#FF716E" p-id="9255"></path></svg>