<?xml version="1.0" standalone="no"?><!DOCTYPE svg PUBLIC "-//W3C//DTD SVG 1.1//EN" "http://www.w3.org/Graphics/SVG/1.1/DTD/svg11.dtd"><svg t="1636963764686" class="icon" viewBox="0 0 1024 1024" version="1.1" xmlns="http://www.w3.org/2000/svg" p-id="8967" xmlns:xlink="http://www.w3.org/1999/xlink" width="200" height="200"><defs><style type="text/css"></style></defs><path d="M928.1536 450.048c-65.8944-226.8672-160.1536-267.9808-212.48-267.9808-52.3264 0-88.3712 18.8416-108.1344 32.2048s-39.4752 23.7056-87.9616 23.7056c-48.4864 0-74.8544-18.944-91.4432-28.5184s-50.6368-36.608-106.3424-34.048c-59.0848 2.7136-201.4208 100.096-242.8928 344.576-10.1888 60.2112-39.5776 494.6944 252.0576 257.9968 48.4864-39.3216 118.6816-91.904 183.1424-91.904s99.5328 24.8832 151.8592 63.1808c52.3264 38.2976 143.7184 119.552 214.3744 87.3984 63.1296-28.672 109.7216-173.5168 47.8208-386.6112z m-503.6544 45.568h-43.4688v43.4688c0 22.6304-18.3296 40.9088-40.9088 40.9088-22.6304 0-40.9088-18.3296-40.9088-40.9088V495.616h-43.4176c-22.6304 0-40.9088-18.3296-40.9088-40.9088 0-22.6304 18.3296-40.9088 40.9088-40.9088h43.4176v-43.4688c0-22.6304 18.3296-40.9088 40.9088-40.9088 22.6304 0 40.9088 18.3296 40.9088 40.9088v43.4688h43.4688c22.6304 0 40.9088 18.3296 40.9088 40.9088s-18.3296 40.9088-40.9088 40.9088z m258.4064-159.0272c23.9104 0 43.264 19.3536 43.264 43.264s-19.3536 43.264-43.264 43.264-43.264-19.3536-43.264-43.264c0-23.8592 19.3536-43.264 43.264-43.264z m-82.0224 168.5504c-23.9104 0-43.264-19.3536-43.264-43.264s19.3536-43.264 43.264-43.264 43.264 19.3536 43.264 43.264-19.3536 43.264-43.264 43.264z m82.0224 82.0224c-23.9104 0-43.264-19.3536-43.264-43.264s19.3536-43.264 43.264-43.264 43.264 19.3536 43.264 43.264-19.4048 43.264-43.264 43.264z m81.9712-82.0224c-23.9104 0-43.264-19.3536-43.264-43.264s19.3536-43.264 43.264-43.264 43.264 19.3536 43.264 43.264-19.3536 43.264-43.264 43.264z" fill="#6C6CEA" p-id="8968"></path><path d="M715.6736 182.016c-52.3264 0-88.3712 18.8416-108.1344 32.2048-19.7632 13.4144-39.4752 23.7056-87.9616 23.7056-48.4864 0-74.8544-18.944-91.4432-28.5184s-50.6368-36.608-106.3424-34.048c-59.0848 2.7136-201.4208 100.096-242.8928 344.576-10.1888 60.2112-39.5776 494.6944 252.0576 257.9968 48.4864-39.3216 118.6816-91.904 183.1424-91.904 64.4608 0 99.5328 24.8832 151.8592 63.1808 12.544 9.1648 27.2896 20.7872 43.52 32.768 109.0048-98.1504 182.8864-234.4448 200.6016-387.8912-64.2048-177.7664-146.7392-212.0704-194.4064-212.0704zM424.4992 495.616h-43.4688v43.4688c0 22.6304-18.3296 40.9088-40.9088 40.9088s-40.9088-18.3296-40.9088-40.9088V495.616h-43.4176c-22.6304 0-40.9088-18.3296-40.9088-40.9088 0-22.6304 18.3296-40.9088 40.9088-40.9088h43.4176v-43.4688c0-22.6304 18.3296-40.9088 40.9088-40.9088s40.9088 18.3296 40.9088 40.9088v43.4688h43.4688c22.6304 0 40.9088 18.3296 40.9088 40.9088s-18.3296 40.9088-40.9088 40.9088z m258.4064-159.0272c23.9104 0 43.264 19.3536 43.264 43.264s-19.3536 43.264-43.264 43.264-43.264-19.3536-43.264-43.264c0-23.8592 19.3536-43.264 43.264-43.264z m-82.0224 168.5504c-23.9104 0-43.264-19.3536-43.264-43.264s19.3536-43.264 43.264-43.264 43.264 19.3536 43.264 43.264-19.3536 43.264-43.264 43.264z m82.0224 82.0224c-23.9104 0-43.264-19.3536-43.264-43.264s19.3536-43.264 43.264-43.264 43.264 19.3536 43.264 43.264-19.4048 43.264-43.264 43.264z m81.9712-82.0224c-23.9104 0-43.264-19.3536-43.264-43.264s19.3536-43.264 43.264-43.264 43.264 19.3536 43.264 43.264-19.3536 43.264-43.264 43.264z" fill="#757BF2" p-id="8969"></path><path d="M596.224 504.8832c-21.7088-2.304-38.656-20.6848-38.656-43.008 0-23.9104 19.3536-43.264 43.264-43.264 18.2272 0 33.792 11.264 40.1408 27.2384 6.4512-9.6768 12.6464-19.5072 18.5344-29.5424a43.19232 43.19232 0 0 1-19.968-36.4032c0-23.9104 19.3536-43.264 43.264-43.264 5.3248 0 10.3936 1.024 15.104 2.7648a614.5024 614.5024 0 0 0 41.5232-154.5728 108.4928 108.4928 0 0 0-23.8592-2.7648c-52.3264 0-88.3712 18.8416-108.1344 32.2048-19.7632 13.4144-39.4752 23.7056-87.9616 23.7056-48.4864 0-74.8544-18.944-91.4432-28.5184s-50.6368-36.608-106.3424-34.048c-59.0848 2.7136-201.4208 100.096-242.8928 344.576-4.352 25.6-12.1344 118.9376 2.7648 199.5264 14.7968 1.0752 29.696 1.6384 44.7488 1.6384 188.1088 0 356.5056-83.9168 469.9136-216.2688z m-340.48-91.136h43.4176v-43.4688c0-22.6304 18.3296-40.9088 40.9088-40.9088s40.9088 18.3296 40.9088 40.9088v43.4688h43.4688c22.6304 0 40.9088 18.3296 40.9088 40.9088 0 22.6304-18.3296 40.9088-40.9088 40.9088h-43.4688v43.4688c0 22.6304-18.3296 40.9088-40.9088 40.9088s-40.9088-18.3296-40.9088-40.9088V495.616h-43.4176c-22.6304 0-40.9088-18.3296-40.9088-40.9088-0.0512-22.6304 18.2784-40.96 40.9088-40.96z" fill="#8486F8" p-id="8970"></path><path d="M428.1344 209.4592c-16.5888-9.5744-50.6368-36.608-106.3424-34.048-56.7296 2.6112-190.2592 92.6208-237.4656 316.3648 45.4656-8.448 89.2416-21.8624 130.6112-39.6288 1.28-21.4528 19.0464-38.4512 40.8064-38.4512h34.048c3.1744-1.8944 6.2976-3.84 9.3696-5.7856v-37.632c0-22.6304 18.3296-40.9088 40.9088-40.9088 15.616 0 29.1328 8.704 36.0448 21.5552C415.8464 316.416 451.072 276.9408 480.9728 233.472c-25.088-6.1952-41.3184-17.3568-52.8384-24.0128z" fill="#8D92F8" p-id="8971"></path></svg>