<?xml version="1.0" standalone="no"?><!DOCTYPE svg PUBLIC "-//W3C//DTD SVG 1.1//EN" "http://www.w3.org/Graphics/SVG/1.1/DTD/svg11.dtd"><svg t="1636962817871" class="icon" viewBox="0 0 1024 1024" version="1.1" xmlns="http://www.w3.org/2000/svg" p-id="8106" xmlns:xlink="http://www.w3.org/1999/xlink" width="200" height="200"><defs><style type="text/css"></style></defs><path d="M434.1248 493.312c-27.1872-16.6912-48.2816-35.84-64.3584-60.1088-58.1632-87.9104-37.632-226.2528 67.2768-279.7568 65.536-33.4336 149.4528-16.0768 197.7856 43.1104 52.6848 64.5632 62.72 135.6288 29.0304 212.5824-13.4656 30.72-32 56.9856-59.7504 76.2368-2.0992 1.4848-3.9936 3.2256-5.9392 4.9664-0.512 0.4608-0.768 1.2288-1.9968 3.328 6.2464 1.536 12.1344 2.7136 17.92 4.4032 72.0384 20.5824 132.4032 57.8048 174.0288 121.9584 23.1936 35.7376 37.7856 74.9568 44.4416 116.6848 4.8128 30.0544 7.2192 60.6208 8.9088 91.0336 1.4336 26.1632-11.8784 41.3696-39.6288 49.6128-34.2528 10.1376-69.632 11.4176-104.9088 12.288-135.7824 3.328-271.616 4.4544-407.3472-2.0992-21.1456-1.024-42.3936-5.0688-62.976-10.24-30.1568-7.5776-40.6016-23.8592-39.68-54.784 1.1776-40.192 5.0688-79.9232 16.4864-118.7328 29.2864-99.5328 93.184-165.6832 191.0272-199.3728 6.2464-2.1504 12.544-4.3008 18.8928-6.0928 5.9392-1.7408 11.9808-2.9184 20.7872-5.0176z" fill="#F23D4F" p-id="8107"></path><path d="M315.904 187.136c-56.832 97.6896-53.76 194.0992 6.5536 290.4576-127.488 62.5152-183.9104 171.9296-199.7312 308.48-23.6032 0.5632-47.0016 1.4848-68.1984-9.216-7.2704-3.6352-15.7184-12.6976-16.4864-20.0192-2.5088-24.6784-4.8128-50.0224-1.8432-74.4448 8.4992-69.0688 39.2192-127.3344 92.6208-172.8 25.4976-21.7088 54.6304-37.1712 86.7328-46.7968 3.4816-1.024 6.912-2.1504 12.3392-3.84-37.4272-20.736-61.6448-50.2784-73.216-89.7536-11.6736-39.7312-7.4752-78.08 11.9808-114.3296 30.6176-56.9856 92.6208-84.8384 149.248-67.7376z" fill="#FC4956" p-id="8108"></path><path d="M699.6992 477.5424c62.0544-97.1264 61.7472-194.3552 6.3488-293.4272 28.7744-8.704 56.7296-6.656 83.3536 6.7072 49.8688 24.9856 77.312 66.304 81.4592 121.3952 4.3008 56.832-16.128 103.7824-63.3856 137.5232-4.4544 3.1744-9.5232 5.4272-15.36 8.704 2.7648 1.4336 4.7104 2.7648 6.8608 3.4816 104.96 35.2768 163.7888 110.336 184.32 216.832 4.5056 23.3984 3.2768 48.1792 2.7136 72.2432-0.4096 16.128-11.4688 26.624-26.88 29.5936-19.2512 3.6864-38.9632 5.1712-59.7504 7.7312-14.2848-139.1104-71.6288-247.8592-199.68-310.784z" fill="#F23D4F" p-id="8109"></path><path d="M793.5488 628.8384c-1.792-2.9696-3.5328-5.9392-5.4272-8.9088-41.6256-64.1536-101.9904-101.376-174.0288-121.9584-5.7856-1.6384-11.6224-2.8672-17.92-4.4032 1.2288-2.0992 1.4336-2.8672 1.9968-3.328 1.9456-1.6896 3.84-3.4816 5.9392-4.9664 27.7504-19.2512 46.2848-45.5168 59.7504-76.2368 33.6896-76.9536 23.7056-148.0192-29.0304-212.5824-48.3328-59.1872-132.2496-76.4928-197.7856-43.1104-104.9088 53.504-125.44 191.8464-67.2768 279.7568 16.0768 24.32 37.12 43.4176 64.3584 60.1088-8.8064 2.048-14.848 3.2768-20.7872 4.9152-6.3488 1.792-12.6464 3.9424-18.8928 6.0928-97.8432 33.6896-161.7408 99.84-191.0272 199.3728-11.4176 38.8096-15.3088 78.5408-16.4864 118.7328-0.9216 30.8736 9.5232 47.2064 39.68 54.784 9.1136 2.304 18.432 4.3008 27.7504 5.9904 12.9024 0.8192 25.856 1.28 38.912 1.28 205.824 0.0512 388.096-100.6592 500.2752-255.5392z" fill="#FC4956" p-id="8110"></path><path d="M798.976 461.8752c-2.1504-0.7168-4.0448-2.048-6.8608-3.4816 5.8368-3.2768 10.9056-5.5296 15.36-8.704 47.2576-33.7408 67.6864-80.6912 63.3856-137.5232-4.1472-55.0912-31.5904-96.4096-81.4592-121.3952-26.624-13.3632-54.5792-15.4112-83.3536-6.7072 55.3984 99.072 55.6544 196.3008-6.3488 293.4272 53.76 26.4192 95.0272 60.928 125.9008 102.3488 16.0256-27.1872 30.0032-55.7056 41.7792-85.3504-20.1728-13.056-42.9056-24.064-68.4032-32.6144z" fill="#FC4956" p-id="8111"></path><path d="M315.904 187.136c-56.6272-17.1008-118.5792 10.752-149.1968 67.7376-19.456 36.2496-23.6544 74.5984-11.9808 114.3296 11.5712 39.4752 35.84 69.0176 73.216 89.7536-5.4272 1.6896-8.8576 2.816-12.3392 3.84-32.1536 9.6256-61.2352 25.088-86.7328 46.7968-47.36 40.2944-76.8 90.7264-88.832 149.8112 27.5968 3.7888 55.7568 5.7856 84.3776 5.7856 8.96 0 17.8688-0.256 26.7776-0.6144 30.5152-79.9232 84.3264-144.384 171.264-186.9824C262.144 381.2864 259.072 284.8256 315.904 187.136z" fill="#FF5C64" p-id="8112"></path><path d="M394.4448 504.32c-81.8688 28.2112-139.8784 79.2064-173.824 153.3952 205.1072-32.1024 376.6784-165.1712 462.3872-346.7264-2.56-40.0896-18.688-78.2848-48.1792-114.432-48.3328-59.1872-132.2496-76.4928-197.7856-43.1104-104.9088 53.504-125.44 191.8464-67.2768 279.7568 16.0768 24.32 37.12 43.4176 64.3584 60.1088-8.8064 2.048-14.848 3.2768-20.7872 4.9152-6.3488 1.8432-12.5952 3.9424-18.8928 6.0928z" fill="#FF5C64" p-id="8113"></path><path d="M706.048 184.1152c5.12 9.1136 9.5744 18.2272 13.7728 27.3408 2.8672-10.496 5.4784-21.1456 7.8336-31.8976-7.168 0.8704-14.336 2.4064-21.6064 4.5568z" fill="#FF696C" p-id="8114"></path><path d="M166.7072 254.8736c-19.456 36.2496-23.6544 74.5984-11.9808 114.3296 4.608 15.7184 11.3152 29.7984 19.968 42.3936a614.656 614.656 0 0 0 103.5264-47.7184c-9.0624-58.624 3.2256-117.4528 37.7344-176.7424-56.6784-17.1008-118.6816 10.752-149.248 67.7376zM437.0944 153.4464C370.0736 187.5968 337.5616 256.3584 337.92 324.5056c67.584-50.432 124.5184-114.3296 166.7584-187.8016-23.2448 0.512-46.3872 5.9392-67.584 16.7424z" fill="#FF716E" p-id="8115"></path></svg>