<?xml version="1.0" standalone="no"?><!DOCTYPE svg PUBLIC "-//W3C//DTD SVG 1.1//EN" "http://www.w3.org/Graphics/SVG/1.1/DTD/svg11.dtd"><svg t="1636962723293" class="icon" viewBox="0 0 1024 1024" version="1.1" xmlns="http://www.w3.org/2000/svg" p-id="7070" xmlns:xlink="http://www.w3.org/1999/xlink" width="200" height="200"><defs><style type="text/css"></style></defs><path d="M886.1696 141.2608h-0.0512c-5.4784-37.9904-29.6448-46.4384-64.256-47.36-187.8016-5.0176-334.4896 69.8368-443.8528 222.2592-16.6912 23.2448-41.216 44.3392-66.7648 57.1392-83.0464 41.5744-145.0496 102.6048-184.9856 185.6512-5.0176 10.496-3.584 29.44 3.072 38.4 4.8128 6.5536 24.0128 6.6048 35.2256 3.6352 32.768-8.7552 64.3072-22.6304 97.3824-29.8496 11.6736-2.56 28.8256 5.2224 39.0656 13.6192 54.7328 44.9024 102.7584 100.8128 163.1744 135.168 76.544 43.52 93.5424 98.1504 72.0384 176.384-3.328 12.032 2.6624 34.8672 11.52 39.7824 9.1648 5.12 30.1568-1.5872 40.6528-9.8816 68.1984-53.6064 113.8688-123.6992 133.3248-207.7184 9.3696-40.4992 29.2352-70.1952 55.6544-100.4544 51.4048-58.9312 84.7872-112.1792 103.424-177.8176 0.1024-0.1024 0.1536-0.2048 0.256-0.256 44.2368-129.3824 5.12-298.7008 5.12-298.7008zM641.9456 501.76c-58.0608 6.8608-104.8064-31.1296-111.4112-90.5216-6.3488-57.088 32.3584-108.2368 87.7568-116.0704 55.1936-7.7824 110.08 35.3792 116.8384 91.9552 6.9632 58.2144-33.1776 107.5712-93.184 114.6368z" fill="#F23D4F" p-id="7071"></path><path d="M407.7568 818.4832c23.04-28.5696 9.6768-84.736-22.3232-110.592-0.1024-0.1024-0.256-0.1536-0.3584-0.256l-0.3072-0.3072c-32-25.856-89.7536-27.136-112.7936 1.3824-25.2928 31.2832-51.8144 108.3904-67.072 166.3488-8.192 31.1808 26.368 58.9312 55.04 44.1856 53.8624-27.648 123.7504-70.912 147.8144-100.7616z" fill="#F23D4F" p-id="7072"></path><path d="M385.4336 707.9424c-0.1024-0.1024-0.256-0.1536-0.3584-0.256l-0.3072-0.3072c-32-25.856-89.7536-27.136-112.7936 1.3824-15.8208 19.6096-32.1536 57.088-45.8752 96.6656a464.5376 464.5376 0 0 0 162.4576 29.2352c1.1264 0 2.2528-0.1024 3.3792-0.1024 6.3488-5.632 11.776-11.0592 15.8208-16.0256 23.0912-28.5696 9.6768-84.7872-22.3232-110.592z" fill="#FC4956" p-id="7073"></path><path d="M764.5184 95.0272c-160.6144 10.3936-288.512 84.6336-386.5088 221.184-16.6912 23.2448-41.216 44.3392-66.7648 57.1392-83.0464 41.5744-145.0496 102.6048-184.9856 185.6512-5.0176 10.496-3.584 29.44 3.072 38.4 4.8128 6.5536 24.0128 6.6048 35.2256 3.6352 32.8192-8.7552 64.3072-22.6304 97.3824-29.8496 11.6736-2.56 28.8256 5.2224 39.0656 13.6192 54.7328 44.9024 102.7584 100.8128 163.1744 135.168 44.1856 25.088 68.4032 53.9648 76.9536 88.8832 75.4176-26.1632 142.0288-71.168 194.2016-129.3824 10.5472-22.272 24.8832-41.728 41.984-61.3376 5.2224-5.9904 10.24-11.9296 15.1552-17.8688 39.0656-68.096 61.4912-146.944 61.4912-231.0656 0-102.5536-33.2288-197.2736-89.4464-274.176zM641.9456 501.76c-58.0608 6.8608-104.8064-31.1296-111.4112-90.5216-6.3488-57.088 32.3584-108.2368 87.7568-116.0704 55.1936-7.7824 110.08 35.3792 116.8384 91.9552 6.9632 58.2144-33.1776 107.5712-93.184 114.6368z" fill="#FC4956" p-id="7074"></path><path d="M378.0608 316.2112c-16.6912 23.2448-41.216 44.3392-66.7648 57.1392-83.0464 41.5744-145.0496 102.6048-184.9856 185.6512-5.0176 10.496-3.584 29.44 3.072 38.4 4.8128 6.5536 24.0128 6.6048 35.2256 3.6352 32.8192-8.7552 64.3072-22.6304 97.3824-29.8496 11.6736-2.56 28.8256 5.2224 39.0656 13.6192 26.624 21.8624 51.6608 46.2848 77.312 69.632 95.4368-24.7296 178.944-79.0016 240.2304-152.4224-46.848-4.4032-82.3808-39.5776-88.064-90.7776-6.3488-57.088 32.3584-108.2368 87.7568-116.0704 34.2016-4.8128 68.1984 9.9328 90.8288 35.2768a465.00864 465.00864 0 0 0 17.5616-126.5664c0-35.584-4.1472-70.1952-11.7248-103.5264-137.5744 21.3504-249.2416 93.6448-336.896 215.8592z" fill="#FF5C64" p-id="7075"></path><path d="M378.0608 316.2112c-16.6912 23.2448-41.216 44.3392-66.7648 57.1392-63.5904 31.8464-114.7904 75.1104-153.2416 130.9184 218.9312-6.4 399.9744-163.8912 442.2144-371.9168-86.4768 36.1984-160.3584 97.5872-222.208 183.8592z" fill="#FF716E" p-id="7076"></path></svg>