<?xml version="1.0" standalone="no"?><!DOCTYPE svg PUBLIC "-//W3C//DTD SVG 1.1//EN" "http://www.w3.org/Graphics/SVG/1.1/DTD/svg11.dtd"><svg t="1636963789285" class="icon" viewBox="0 0 1024 1024" version="1.1" xmlns="http://www.w3.org/2000/svg" p-id="9393" xmlns:xlink="http://www.w3.org/1999/xlink" width="200" height="200"><defs><style type="text/css"></style></defs><path d="M818.432 204.4928c-62.2592-0.1024-174.7968-15.36-271.4624-109.7216-17.1008-16.6912-43.8784-18.4832-62.6688-3.6864-50.2272 39.5776-153.4464 106.5984-279.808 109.7728-25.8048 0.6656-46.336 21.8624-46.336 47.7184v300.3392c0 60.7744-3.4816 195.6352 331.3152 386.5088a47.85152 47.85152 0 0 0 45.1584 1.1776c329.728-165.8368 331.3152-308.224 331.3152-362.8544V252.2624c0.0512-26.3168-21.1968-47.7184-47.5136-47.7696zM474.2656 296.0384c0-20.8896 16.9472-37.8368 37.8368-37.8368s37.8368 16.9472 37.8368 37.8368v240.7936c0 20.8896-16.9472 37.8368-37.8368 37.8368s-37.8368-16.9472-37.8368-37.8368V296.0384z m37.7856 425.0112c-28.2112 0-51.0464-22.8352-51.0464-51.0464 0-28.2112 22.8352-51.0464 51.0464-51.0464 28.2112 0 51.0464 22.8352 51.0464 51.0464 0.0512 28.16-22.8352 51.0464-51.0464 51.0464z" fill="#05C46D" p-id="9394"></path><path d="M837.0176 290.9696c0-28.8768-2.304-57.2416-6.656-84.8896a47.8208 47.8208 0 0 0-11.8784-1.5872c-62.2592-0.1024-174.7968-15.36-271.4624-109.7216-17.1008-16.6912-43.8784-18.4832-62.6688-3.6864-50.2272 39.5776-153.4464 106.5984-279.808 109.7728-25.8048 0.6656-46.336 21.8624-46.336 47.7184v300.3392c0 49.1008-2.2528 146.688 173.7216 283.0848 282.112-19.2 505.088-254.0032 505.088-541.0304z m-362.752 5.0688c0-20.8896 16.9472-37.8368 37.8368-37.8368s37.8368 16.9472 37.8368 37.8368v240.7936c0 20.8896-16.9472 37.8368-37.8368 37.8368s-37.8368-16.9472-37.8368-37.8368V296.0384z m37.7856 322.8672c28.2112 0 51.0464 22.8352 51.0464 51.0464 0 28.2112-22.8352 51.0464-51.0464 51.0464-28.2112 0-51.0464-22.8352-51.0464-51.0464 0-28.16 22.8864-51.0464 51.0464-51.0464z" fill="#1DCE75" p-id="9395"></path><path d="M547.0208 94.7712c-17.1008-16.6912-43.8784-18.4832-62.6688-3.6864-50.2272 39.5776-153.4464 106.5984-279.808 109.7728-25.8048 0.6656-46.336 21.8624-46.336 47.7184v300.3392c0 21.4528-0.4096 52.1216 13.7216 91.1872 113.3568-5.2736 217.6-45.4144 302.336-109.8752V296.0384c0-20.8896 16.9472-37.8368 37.8368-37.8368s37.8368 16.9472 37.8368 37.8368v164.4544c68.9664-76.8 116.3264-173.312 132.5568-280.1152-44.3392-16.1792-91.5456-42.7008-135.4752-85.6064z" fill="#3CD38E" p-id="9396"></path><path d="M522.9568 82.0224c-13.2096-2.7136-27.3408 0.1536-38.656 9.0624-50.2272 39.5776-153.4464 106.5984-279.808 109.7728-25.8048 0.6656-46.336 21.8624-46.336 47.7184v179.5072c171.0592-48.5376 307.5584-178.8416 364.8-346.0608z" fill="#48E1AA" p-id="9397"></path></svg>