<?xml version="1.0" standalone="no"?><!DOCTYPE svg PUBLIC "-//W3C//DTD SVG 1.1//EN" "http://www.w3.org/Graphics/SVG/1.1/DTD/svg11.dtd"><svg t="1662550447676" class="icon" viewBox="0 0 1024 1024" version="1.1" xmlns="http://www.w3.org/2000/svg" p-id="3211" xmlns:xlink="http://www.w3.org/1999/xlink" width="64" height="64"><path d="M1011.585761 107.015316l0 22.854521c-28.04166 0-77.032444 6.827499-90.638323 20.457938-13.654998 13.628392-29.705556 44.095287-48.157813 91.39557L605.818247 916.493497l-171.095773 0.490164L139.903865 256.162194c-23.246447-52.097542-43.263339-86.184895-60.147892-102.237499-16.835434-16.027022-39.249933-24.054859-67.342758-24.054859L12.413216 107.015316 473.385029 107.015316l0 22.854521c-35.285644 0-90.588181 2.619664-103.020328 7.831362-12.429077 5.212722-18.645662 17.422811-18.645662 36.681434 0 11.231809 6.607488 31.688723 19.820418 61.347207 13.214976 29.68202 23.052019 52.145637 29.463032 67.36527l181.472098 404.983661 176.723957-440.000176c4.844332-15.220656 10.129708-30.833239 15.808034-46.860261 4.89345-17.643845 7.29208-29.634948 7.29208-36.044938 0-22.440082-7.78122-37.244252-23.443945-44.463678-15.609513-7.218402-83.051531-10.840906-110.310362-10.840906L648.544351 107.015316 1011.585761 107.015316z" p-id="3212" fill="#707070"></path></svg>