<?xml version="1.0" encoding="UTF-8"?>
<svg width="439px" height="416px" viewBox="0 0 439 416" version="1.1" xmlns="http://www.w3.org/2000/svg" xmlns:xlink="http://www.w3.org/1999/xlink">
    <title>编组 2</title>
    <g id="页面-1" stroke="none" stroke-width="1" fill="none" fill-rule="evenodd">
        <g id="编组-2" transform="translate(0.000000, 0.000000)" fill-rule="nonzero">
            <g id="25上传">
                <g id="bg" fill="#545454">
                    <path d="M231.858238,399.420331 C322.306846,418.825809 436.264537,322.879976 438.197623,207.482922 C432.751123,94.3001304 343.399347,-0.805100111 222.14208,0.00513921085 C100.884813,0.815378533 21.0866157,119.893649 15.8026956,207.482922 C9.6355912,307.280257 108.645644,389.250765 231.858238,399.420331 Z" id="1" opacity="0.200000003"></path>
                    <path d="M194.117647,415.317432 C298.441178,419.928417 390.528293,324.223948 388.235294,238.900126 C377.37391,127.203317 301.325863,39.3632784 194.117647,47.0951088 C86.9094309,54.8269393 0,133.811658 0,223.512415 C2.85822416,295.058588 90.7620466,402.91958 194.117647,415.317432 Z" id="2" opacity="0.300000012"></path>
                    <path d="M207.923106,378.451963 C329.175142,399.419058 412.859954,307.792275 412.38677,207.196851 C419.925706,112.254378 303.590533,9.60386334 196.305556,13.0339825 C83.9119772,13.0339825 14.3454351,98.7560049 15.544671,188.495495 C21.6579476,237.084688 48.4126179,360.782064 207.923106,378.451963 Z" id="3" opacity="0.400000006"></path>
                    <path d="M193.181639,374.498124 C301.535358,396.142754 386.312217,368.733672 385.130088,207.216628 C361.237788,87.0872792 272.503537,44.9778587 201.882353,45.6749686 C73.4910599,50.7488836 23.7231619,120.224662 18.6346022,207.216628 C27.247047,258.653672 77.0609229,362.210048 193.181639,374.498124 Z" id="4" opacity="0.400000006"></path>
                    <path d="M195.43098,335.609755 C298.698602,321.770596 368.302145,258.816499 369.99012,186.110465 C382.856623,81.0748083 305.703532,23.4231811 203.195686,28.8409875 C111.063078,50.3047747 59.4969389,107.241076 46.754193,186.110465 C46.6357003,254.066277 36.5053399,362.539179 195.43098,335.609755 Z" id="5" opacity="0.600000024"></path>
                </g>
                <path d="M184.337617,155.395254 C184.779615,154.043428 206.301525,106.678172 250.960339,117.646788 C295.619152,128.615404 297.285145,183.800719 297.285145,183.800719 C297.285145,183.800719 336.707981,194.478435 333.851993,227.709406 C331.030004,260.940377 299.053138,269 299.053138,269 L243.456522,269 L191.717,268.982 L129.716844,268.982888 C129.716844,268.982888 86.5798831,258.400259 97.8904643,221.212635 L98.2499756,220.077577 C110.812923,182.003987 135.309821,184.006059 135.309821,184.006059 C135.309821,184.006059 129.325846,164.960709 145.849777,154.933238 C162.390708,144.905767 178.132642,152.725825 181.702628,156.131059 C181.702628,156.131059 183.895618,156.747081 184.337617,155.395254 Z" id="形状结合" fill="#FFFFFF"></path>
            </g>
            <g id="编组" transform="translate(178.000000, 181.000000)" fill="#DF0000">
                <path d="M41.4995173,0 C18.5827761,0 0.00372052831,18.5755012 5.5832686e-07,41.4939545 C-0.00371829467,64.4124078 18.5706882,82.9897666 41.4874294,82.9999874 C64.4041706,83.0101998 82.9888052,64.4356273 82.9999817,41.5181027 C83.0103251,30.5150813 78.6433154,19.9588203 70.8600438,12.1725856 C63.0767723,4.386351 52.515112,0.00825867323 41.4995173,0.00185754006 L41.4995173,0 Z M62.7797469,57.5636206 C63.8519925,58.6524488 64.1664986,60.2771239 63.5779013,61.6867262 C62.9893041,63.0963285 61.6122551,64.0162846 60.0832221,64.0214002 C59.0763169,64.0232783 58.1106982,63.6218145 57.4025046,62.9068635 L41.4632537,46.8966391 L25.2738769,62.8520658 C24.5677028,63.5566566 23.6098853,63.9516438 22.6117561,63.9498779 C21.0845112,63.9304848 19.7172147,62.9998936 19.1403959,61.5872465 C18.563577,60.1745994 18.8892781,58.554292 19.9673022,57.4735294 L36.1576088,41.5181027 L20.1644274,25.3276958 C19.1594335,24.3737323 18.7511597,22.9505507 19.0978349,21.6097129 C19.4445101,20.2688751 20.4916442,19.2211326 21.8334146,18.8725438 C23.175185,18.5239549 24.6006937,18.9293105 25.5574769,19.9315127 L41.5506583,36.1209908 L57.7418947,20.1655641 C59.2438396,18.7398832 61.6100759,18.7710069 63.073916,20.2356976 C64.5377561,21.7003883 64.5648391,24.0639744 63.1349443,25.5617472 L46.8628121,41.6434873 L62.7797469,57.5636206 Z" id="形状"></path>
            </g>
        </g>
    </g>
</svg>