<?xml version="1.0" standalone="no"?><!DOCTYPE svg PUBLIC "-//W3C//DTD SVG 1.1//EN" "http://www.w3.org/Graphics/SVG/1.1/DTD/svg11.dtd"><svg t="1646808517010" class="icon" viewBox="0 0 1024 1024" version="1.1" xmlns="http://www.w3.org/2000/svg" p-id="1497" xmlns:xlink="http://www.w3.org/1999/xlink" width="200" height="200"><defs><style type="text/css"></style></defs><path d="M754.816 968.96H258.688c-112.64 0-203.904-91.264-203.904-203.904V269.056c0-112.64 91.264-203.904 203.904-203.904h496c112.64 0 203.904 91.264 203.904 203.904v496c0.128 112.64-91.264 203.904-203.776 203.904z" fill="#5855CE" p-id="1498"></path><path d="M718.848 579.712c8.192-5.888 19.584 2.56 16 12.032-33.28 89.472-119.68 153.344-221.184 153.344-130.048 0-235.776-105.472-235.776-235.776 0-99.456 61.696-184.704 148.864-219.264 9.856-3.84 19.072 6.912 13.056 15.488-26.24 37.888-39.936 85.248-34.304 135.936 9.6 86.784 77.44 158.976 163.712 173.056 55.936 9.216 108.672-5.248 149.632-34.816z" fill="#FFFFFF" p-id="1499"></path></svg>