<?xml version="1.0" encoding="UTF-8"?>
<svg width="439px" height="416px" viewBox="0 0 439 416" version="1.1" xmlns="http://www.w3.org/2000/svg" xmlns:xlink="http://www.w3.org/1999/xlink">
    <title>编组 2</title>
    <defs>
        <linearGradient x1="50%" y1="100%" x2="50%" y2="5.43710773%" id="linearGradient-1">
            <stop stop-color="#EEEEEE" stop-opacity="0.190067745" offset="0%"></stop>
            <stop stop-color="#FFFFFF" offset="100%"></stop>
        </linearGradient>
    </defs>
    <g id="页面-1" stroke="none" stroke-width="1" fill="none" fill-rule="evenodd">
        <g id="编组-2" transform="translate(0.000000, 0.000000)">
            <g id="25上传" fill-rule="nonzero">
                <g id="bg" fill="#909EFC">
                    <path d="M231.858238,399.420331 C322.306846,418.825809 436.264537,322.879976 438.197623,207.482922 C432.751123,94.3001304 343.399347,-0.805100111 222.14208,0.00513921085 C100.884813,0.815378533 21.0866157,119.893649 15.8026956,207.482922 C9.6355912,307.280257 108.645644,389.250765 231.858238,399.420331 Z" id="1" opacity="0.200000003"></path>
                    <path d="M194.117647,415.317432 C298.441178,419.928417 390.528293,324.223948 388.235294,238.900126 C377.37391,127.203317 301.325863,39.3632784 194.117647,47.0951088 C86.9094309,54.8269393 0,133.811658 0,223.512415 C2.85822416,295.058588 90.7620466,402.91958 194.117647,415.317432 Z" id="2" opacity="0.300000012"></path>
                    <path d="M207.923106,378.451963 C329.175142,399.419058 412.859954,307.792275 412.38677,207.196851 C419.925706,112.254378 303.590533,9.60386334 196.305556,13.0339825 C83.9119772,13.0339825 14.3454351,98.7560049 15.544671,188.495495 C21.6579476,237.084688 48.4126179,360.782064 207.923106,378.451963 Z" id="3" opacity="0.400000006"></path>
                    <path d="M193.181639,374.498124 C301.535358,396.142754 386.312217,368.733672 385.130088,207.216628 C361.237788,87.0872792 272.503537,44.9778587 201.882353,45.6749686 C73.4910599,50.7488836 23.7231619,120.224662 18.6346022,207.216628 C27.247047,258.653672 77.0609229,362.210048 193.181639,374.498124 Z" id="4" opacity="0.400000006"></path>
                    <path d="M195.43098,335.609755 C298.698602,321.770596 368.302145,258.816499 369.99012,186.110465 C382.856623,81.0748083 305.703532,23.4231811 203.195686,28.8409875 C111.063078,50.3047747 59.4969389,107.241076 46.754193,186.110465 C46.6357003,254.066277 36.5053399,362.539179 195.43098,335.609755 Z" id="5" opacity="0.600000024"></path>
                </g>
                <rect id="矩形" fill="url(#linearGradient-1)" x="173" y="176" width="88" height="83"></rect>
                <path d="M184.337617,155.395254 C184.779615,154.043428 206.301525,106.678172 250.960339,117.646788 C295.619152,128.615404 297.285145,183.800719 297.285145,183.800719 C297.285145,183.800719 336.707981,194.478435 333.851993,227.709406 C331.030004,260.940377 299.053138,269 299.053138,269 L231.988418,269 L243.456522,269 L191.717,268.982 L129.716844,268.982888 C129.716844,268.982888 86.5798831,258.400259 97.8904643,221.212635 L98.2499756,220.077577 C110.812923,182.003987 135.309821,184.006059 135.309821,184.006059 C135.309821,184.006059 129.325846,164.960709 145.849777,154.933238 C162.390708,144.905767 178.132642,152.725825 181.702628,156.131059 C181.702628,156.131059 183.895618,156.747081 184.337617,155.395254 Z" id="形状结合" fill="#FFFFFF"></path>
            </g>
            <g id="编组" transform="translate(177.000000, 179.000000)">
                <circle id="椭圆形" fill="#FF0000" cx="42.5" cy="42.5" r="42.5"></circle>
                <path d="M24.2441099,14.5324456 C24.8678439,14.0843495 25.6394199,13.9089871 26.3890962,14.0449368 C27.1387725,14.1808866 27.805138,14.617012 28.2415967,15.2573683 L64.4620044,68.3633579 C65.3708917,69.6968187 65.0547536,71.5342269 63.7558901,72.4673239 C62.4570265,73.400421 60.6672907,73.0758621 59.7584033,71.7424013 L23.5379956,18.6364117 C23.1015256,17.9960636 22.930713,17.2039354 23.0631355,16.4342903 C23.1955579,15.6646453 23.6203679,14.9805301 24.2441099,14.5324456 Z M50.3454602,18.5519357 C57.6263984,13.2688824 67.6929983,14.9880296 72.915909,22.4064571 C78.1388197,29.8248845 76.571132,40.1772751 69.400977,45.6176806 L69.0048641,45.9104001 L61.2069899,51.5152902 C59.9524341,52.417735 58.2286937,52.1497642 57.2906291,50.906457 C56.3525646,49.6631498 56.5307878,47.882698 57.6955546,46.8612472 L57.9137038,46.6883659 L65.7115778,41.0834759 C70.3983414,37.7068611 71.5960366,31.1032587 68.4071612,26.2211304 C65.2182858,21.3390021 58.8128629,19.9696388 53.9908468,23.1391836 L53.6387465,23.3808245 L45.8293909,28.9935728 C44.5748351,29.896018 42.8510943,29.6280474 41.9130296,28.38474 C40.9749649,27.1414327 41.1531883,25.3609805 42.3179555,24.3395298 L42.5361046,24.1666486 L50.3454602,18.5519357 Z M26.8465905,35.4471529 C28.1012335,34.5529813 29.8181977,34.8240633 30.7531645,36.0639403 C31.6881312,37.3038173 31.5136242,39.0782169 30.3561123,40.1011958 L30.1379631,40.2740771 L22.2884222,45.9162938 C17.6016586,49.2929086 16.4039634,55.8965109 19.5928388,60.7786392 C22.7817142,65.6607675 29.1871371,67.0301309 34.0091532,63.8605861 L34.3612535,63.6189452 L42.2146217,57.9727994 C43.4694954,57.0592076 45.2028184,57.3237031 46.1446243,58.572496 C47.0864303,59.821289 46.9018217,61.61032 45.7260571,62.6288069 L45.507908,62.8016881 L37.6545398,68.447834 C30.3736016,73.7308872 20.3070017,72.01174 15.084091,64.5933126 C9.86118031,57.1748851 11.428868,46.8224946 18.599023,41.382089 L18.9951359,41.0893695 L26.844677,35.4471529 L26.8465905,35.4471529 Z" id="形状" fill="#FFFFFF" fill-rule="nonzero"></path>
            </g>
        </g>
    </g>
</svg>