<?xml version="1.0" encoding="UTF-8"?>
<svg width="480px" height="480px" viewBox="0 0 480 480" version="1.1" xmlns="http://www.w3.org/2000/svg" xmlns:xlink="http://www.w3.org/1999/xlink">
    <!-- Generator: Sketch 57.1 (83088) - https://sketch.com -->
    <title>插画480@1x</title>
    <desc>Created with Sketch.</desc>
    <defs>
        <linearGradient x1="50%" y1="100%" x2="50%" y2="5.43710773%" id="linearGradient-1">
            <stop stop-color="#EEEEEE" stop-opacity="0.190067745" offset="0%"></stop>
            <stop stop-color="#FFFFFF" offset="100%"></stop>
        </linearGradient>
    </defs>
    <g id="插画480" stroke="none" stroke-width="1" fill="none" fill-rule="evenodd">
        <g id="25上传" transform="translate(20.000000, 32.000000)">
            <g id="bg" fill="#909EFC">
                <path d="M231.858238,399.420331 C322.306846,418.825809 436.264537,322.879976 438.197623,207.482922 C432.751123,94.3001304 343.399347,-0.805100111 222.14208,0.00513921086 C100.884813,0.815378533 21.0866157,119.893649 15.8026956,207.482922 C9.6355912,307.280257 108.645644,389.250765 231.858238,399.420331 Z" id="1" opacity="0.200000003"></path>
                <path d="M194.117647,415.317432 C298.441178,419.928417 390.528293,324.223948 388.235294,238.900126 C377.37391,127.203317 301.325863,39.3632784 194.117647,47.0951088 C86.9094309,54.8269393 0,133.811658 0,223.512415 C2.85822416,295.058588 90.7620466,402.91958 194.117647,415.317432 Z" id="2" opacity="0.300000012"></path>
                <path d="M207.923106,378.451963 C329.175142,399.419058 412.859954,307.792275 412.38677,207.196851 C419.925706,112.254378 303.590533,9.60386334 196.305556,13.0339825 C83.9119772,13.0339825 14.3454351,98.7560049 15.544671,188.495495 C21.6579476,237.084688 48.4126179,360.782064 207.923106,378.451963 Z" id="3" opacity="0.400000006"></path>
                <path d="M193.181639,374.498124 C301.535358,396.142754 386.312217,368.733672 385.130088,207.216628 C361.237788,87.0872792 272.503537,44.9778587 201.882353,45.6749686 C73.4910599,50.7488836 23.7231619,120.224662 18.6346022,207.216628 C27.247047,258.653672 77.0609229,362.210048 193.181639,374.498124 Z" id="4" opacity="0.400000006"></path>
                <path d="M195.43098,335.609755 C298.698602,321.770596 368.302145,258.816499 369.99012,186.110465 C382.856623,81.0748083 305.703532,23.4231811 203.195686,28.8409875 C111.063078,50.3047747 59.4969389,107.241076 46.754193,186.110465 C46.6357003,254.066277 36.5053399,362.539179 195.43098,335.609755 Z" id="5" opacity="0.600000024"></path>
            </g>
            <rect id="矩形" fill="url(#linearGradient-1)" x="173" y="176" width="88" height="83"></rect>
            <path d="M184.337617,155.395254 C184.779615,154.043428 206.301525,106.678172 250.960339,117.646788 C295.619152,128.615404 297.285145,183.800719 297.285145,183.800719 C297.285145,183.800719 336.707981,194.478435 333.851993,227.709406 C331.030004,260.940377 299.053138,269 299.053138,269 L299.053138,269 L231.988418,269 L231.988,268.999 L243.456522,269 L243.456522,258.627119 L231.988,258.627 L231.988418,228.462322 L248.274349,228.462322 L248.274349,228.393875 C248.308349,228.393875 248.308349,228.428099 248.34235,228.428099 C249.311346,228.428099 250.076343,227.640959 250.076343,226.682703 C250.076343,226.35758 249.974342,226.118016 249.821343,225.844228 L249.821343,225.844228 L249.923343,225.844228 L249.634345,225.536217 C249.583344,225.484882 249.532344,225.433547 249.481345,225.399323 L249.481345,225.399323 L219.425471,193.605737 C219.000472,193.075274 218.371474,192.715928 217.657477,192.715928 C216.960481,192.715928 216.365483,193.04105 215.940485,193.520179 L215.940485,193.520179 L185.663611,225.570441 C185.255613,225.86134 184.983614,226.306245 184.983614,226.819597 C184.983614,227.692295 185.663611,228.376764 186.513607,228.376764 L186.513607,228.376764 L186.513607,228.445211 L203.598536,228.445211 L203.598,258.627 L191.717391,258.627119 L191.717,268.982 L129.716844,268.982888 C129.716844,268.982888 86.5798831,258.400259 97.8904643,221.212635 L98.2499756,220.077577 C110.812923,182.003987 135.309821,184.006059 135.309821,184.006059 C135.309821,184.006059 129.325846,164.960709 145.849777,154.933238 C162.390708,144.905767 178.132642,152.725825 181.702628,156.131059 C181.702628,156.131059 183.895618,156.747081 184.337617,155.395254 Z" id="形状结合" fill="#FFFFFF" fill-rule="nonzero"></path>
        </g>
    </g>
</svg>