<?xml version="1.0" standalone="no"?><!DOCTYPE svg PUBLIC "-//W3C//DTD SVG 1.1//EN" "http://www.w3.org/Graphics/SVG/1.1/DTD/svg11.dtd"><svg t="1647225601793" class="icon" viewBox="0 0 1024 1024" version="1.1" xmlns="http://www.w3.org/2000/svg" p-id="2226" xmlns:xlink="http://www.w3.org/1999/xlink" width="200" height="200"><defs><style type="text/css"></style></defs><path d="M668.392727 445.905455v-0.93091 0.93091zM446.836364 668.392727l0.930909 0.930909H446.836364h0.930909l-0.930909-0.930909z" fill="#50B674" p-id="2227"></path><path d="M512 0C229.003636 0 0 229.003636 0 512s229.003636 512 512 512 512-229.003636 512-512S794.996364 0 512 0z m100.538182 280.203636c20.48 8.378182 40.029091 20.48 57.716363 34.443637 7.447273 5.585455 14.894545 12.101818 21.41091 18.618182 15.825455 15.825455 28.858182 33.512727 40.02909 52.130909 2.792727 4.654545 5.585455 9.309091 7.447273 13.963636L612.538182 525.032727c0.930909-7.447273 0-244.829091 0-244.829091zM484.072727 262.516364c9.309091-0.930909 18.618182-1.861818 28.858182-1.861819 22.341818 0 44.683636 2.792727 65.163636 8.378182 5.585455 1.861818 10.24 2.792727 15.825455 4.654546v178.734545C588.334545 445.905455 418.909091 279.272727 418.909091 279.272727c20.48-8.378182 41.890909-13.963636 65.163636-16.756363z m-169.425454 92.16c5.585455-7.447273 12.101818-13.963636 18.618182-21.410909 15.825455-15.825455 33.512727-28.858182 52.130909-40.029091 4.654545-2.792727 9.309091-5.585455 13.963636-7.447273l126.603636 125.672727c-7.447273-0.930909-245.76 0-245.76 0 9.309091-19.549091 20.48-39.098182 34.443637-56.785454zM262.516364 539.927273c-0.930909-9.309091-1.861818-18.618182-1.861819-27.927273 0-22.341818 2.792727-43.752727 8.378182-65.163636 1.861818-5.585455 2.792727-10.24 4.654546-15.825455h178.734545C446.836364 435.665455 279.272727 605.090909 279.272727 605.090909c-8.378182-20.48-13.963636-41.890909-16.756363-65.163636zM353.745455 708.421818c-7.447273-5.585455-14.894545-12.101818-21.41091-18.618182-15.825455-15.825455-28.858182-33.512727-40.02909-52.130909-2.792727-4.654545-5.585455-9.309091-7.447273-13.963636l126.603636-125.672727c-0.930909 7.447273 0 245.76 0 244.829091-20.48-9.309091-39.098182-20.48-57.716363-34.443637z m186.181818 53.061818c-9.309091 0.930909-18.618182 1.861818-27.927273 1.861819-22.341818 0-44.683636-2.792727-65.163636-8.378182-5.585455-1.861818-10.24-2.792727-15.825455-4.654546V571.578182c4.654545 6.516364 175.010909 173.149091 175.010909 173.149091-21.410909 8.378182-42.821818 13.963636-66.094545 16.756363zM707.490909 670.254545c-5.585455 7.447273-12.101818 14.894545-18.618182 21.41091-15.825455 15.825455-33.512727 28.858182-52.130909 40.02909-4.654545 2.792727-9.309091 5.585455-13.963636 7.447273L496.174545 612.538182c7.447273 0.930909 245.76 0 245.76 0C733.556364 633.018182 722.385455 651.636364 707.490909 670.254545z m47.476364-93.090909c-1.861818 5.585455-2.792727 10.24-4.654546 15.825455H570.647273C577.163636 588.334545 744.727273 418.909091 744.727273 418.909091c8.378182 20.48 13.963636 41.890909 16.756363 65.163636 0.930909 9.309091 1.861818 18.618182 1.861819 27.927273 0 23.272727-2.792727 44.683636-8.378182 65.163636z" fill="#50B674" p-id="2228"></path></svg>