<?xml version="1.0" standalone="no"?><!DOCTYPE svg PUBLIC "-//W3C//DTD SVG 1.1//EN" "http://www.w3.org/Graphics/SVG/1.1/DTD/svg11.dtd"><svg t="1653098688578" class="icon" viewBox="0 0 1024 1024" version="1.1" xmlns="http://www.w3.org/2000/svg" p-id="3699" xmlns:xlink="http://www.w3.org/1999/xlink" width="200" height="200"><defs><style type="text/css">@font-face { font-family: feedback-iconfont; src: url("//at.alicdn.com/t/font_1031158_u69w8yhxdu.woff2?t=1630033759944") format("woff2"), url("//at.alicdn.com/t/font_1031158_u69w8yhxdu.woff?t=1630033759944") format("woff"), url("//at.alicdn.com/t/font_1031158_u69w8yhxdu.ttf?t=1630033759944") format("truetype"); }
</style></defs><path d="M496.713 119.237c-10.897 0-22.097 5.751-27.849 17.557l-88.996 180.414c-4.54 9.08-13.319 15.74-23.611 17.254l-199.484 29.06c-25.428 3.935-35.72 35.114-17.255 53.276L283.91 556.952c7.265 7.265 10.595 17.557 9.081 27.546l-33.6 197.971c-3.33 20.282 12.713 36.628 30.876 36.628 4.843 0 9.99-1.211 14.53-3.935l178.294-93.537c4.541-2.422 9.384-3.33 14.53-3.33 4.844 0 9.99 1.211 14.53 3.33l178.295 93.537c4.843 2.724 9.99 3.935 14.53 3.935 18.163 0 34.206-16.346 30.876-36.628l-34.508-198.273c-1.817-10.292 1.513-20.584 9.08-27.547l144.392-140.456c18.768-17.86 8.476-49.341-17.254-53.276l-199.484-29.06c-10.292-1.514-19.07-7.87-23.611-17.255L525.47 136.19c-6.054-11.2-17.557-16.952-28.757-16.952z" fill="#FABE00" p-id="3700"></path><path d="M704.37 829.692c-6.659 0-13.318-1.817-19.373-5.146l-177.992-93.537c-5.751-2.724-13.319-3.027-19.373 0l-177.69 93.537c-6.053 3.33-12.41 5.146-19.675 5.146-12.411 0-24.217-5.45-32.087-15.136-7.87-9.384-11.2-21.492-9.082-33.903l33.904-198.273c0.908-6.357-1.211-13.32-6.054-18.163L132.253 424.063c-11.503-11.2-15.74-27.849-10.594-42.984 4.843-15.135 17.86-26.033 33.6-28.455l199.484-29.06c6.66-0.908 12.714-5.145 15.741-11.502l88.996-180.414c6.963-14.53 21.19-23.309 37.233-23.309 16.044 0 30.271 8.779 37.839 22.704v0.302l88.996 180.414c3.027 6.054 8.778 10.292 15.74 11.2l199.485 29.06c16.043 2.422 28.757 13.32 33.6 28.757 4.844 15.136 0.606 31.482-10.897 42.682l-144.392 140.76c-4.843 4.237-6.962 10.897-5.751 17.556l33.903 198.576c2.12 12.411-1.21 24.52-9.081 33.904-7.87 9.989-19.373 15.438-31.784 15.438zM497.32 707.398c6.66 0 13.319 1.513 19.07 4.54l178.295 93.84c3.33 1.816 6.357 2.724 9.687 2.724 6.054 0 12.108-2.724 16.043-7.568 3.935-4.54 5.449-10.594 4.54-16.649l-33.902-198.273c-2.422-13.622 2.118-27.546 12.41-36.93l144.09-140.457c5.75-5.448 7.87-13.319 5.448-20.886-2.422-7.87-8.778-13.017-16.649-14.228l-199.484-29.06c-13.622-2.119-25.428-10.594-31.482-23.005l-89.298-180.111c-4.541-8.476-12.714-11.503-19.071-11.503-7.87 0-14.833 4.238-18.162 11.503l-89.3 180.716c-6.053 12.411-17.859 20.887-31.48 23.006l-199.485 29.06c-7.87 1.21-14.227 6.357-16.649 13.924-2.422 7.568-0.605 15.438 5.449 21.19L291.78 549.384c9.687 9.687 14.227 23.309 12.109 36.628l-33.904 198.576c-0.908 6.054 0.606 12.108 4.54 16.65 3.936 4.842 9.99 7.567 16.044 7.567 3.33 0 6.357-0.908 9.082-2.422l0.302-0.303 178.295-93.536c5.752-3.33 12.411-5.146 19.07-5.146z" fill="#FABE00" p-id="3701"></path></svg>