<?xml version="1.0" standalone="no"?><!DOCTYPE svg PUBLIC "-//W3C//DTD SVG 1.1//EN" "http://www.w3.org/Graphics/SVG/1.1/DTD/svg11.dtd"><svg t="1653098691751" class="icon" viewBox="0 0 1025 1024" version="1.1" xmlns="http://www.w3.org/2000/svg" p-id="3850" xmlns:xlink="http://www.w3.org/1999/xlink" width="200.1953125" height="200"><defs><style type="text/css">@font-face { font-family: feedback-iconfont; src: url("//at.alicdn.com/t/font_1031158_u69w8yhxdu.woff2?t=1630033759944") format("woff2"), url("//at.alicdn.com/t/font_1031158_u69w8yhxdu.woff?t=1630033759944") format("woff"), url("//at.alicdn.com/t/font_1031158_u69w8yhxdu.ttf?t=1630033759944") format("truetype"); }
</style></defs><path d="M512.7653 237.547222A274.448123 274.448123 0 1 0 787.204115 512.004655a274.466741 274.466741 0 0 0-274.438815-274.457433z m0-35.31837a62.146926 62.146926 0 0 0 62.156235-62.156234v-77.916383a62.156235 62.156235 0 0 0-124.31247 0v77.916383a62.146926 62.146926 0 0 0 62.156235 62.156234z m0 619.532987a62.146926 62.146926 0 0 0-62.156235 62.156234v77.916383a62.156235 62.156235 0 1 0 124.31247 0v-77.916383a62.146926 62.146926 0 0 0-62.156235-62.156234z m449.839111-371.913419h-77.916383a62.156235 62.156235 0 0 0 0 124.30316h77.916383a62.156235 62.156235 0 1 0 0-124.30316zM202.989498 512.004655a62.146926 62.146926 0 0 0-62.156235-62.156235h-77.916382a62.156235 62.156235 0 1 0 0 124.30316h77.916382a62.146926 62.146926 0 0 0 62.156235-62.137616z m616.730975 219.050226a62.156235 62.156235 0 0 0-87.904946 87.895638l55.100008 55.08139a62.137617 62.137617 0 1 0 87.87702-87.886329l-55.072082-55.090699z m-613.947582-438.081835a62.174853 62.174853 0 1 0 87.951492-87.895638l-55.0907-55.100008a62.156235 62.156235 0 1 0-87.932873 87.87702z m0 438.091144l-55.08139 55.0907a62.146926 62.146926 0 1 0 87.886328 87.886328l55.100008-55.08139a62.156235 62.156235 0 1 0-87.904946-87.895638z m569.971837-419.892037a61.92351 61.92351 0 0 0 43.966436-18.199107l55.0907-55.118626a62.165544 62.165544 0 1 0-87.960801-87.87702l-55.072081 55.100008a62.146926 62.146926 0 0 0 43.985055 106.122672z" fill="#FA931A" p-id="3851"></path></svg>