<?xml version="1.0" standalone="no"?><!DOCTYPE svg PUBLIC "-//W3C//DTD SVG 1.1//EN" "http://www.w3.org/Graphics/SVG/1.1/DTD/svg11.dtd"><svg t="1662192676692" class="icon" viewBox="0 0 1024 1024" version="1.1" xmlns="http://www.w3.org/2000/svg" p-id="1371" width="16" height="16" xmlns:xlink="http://www.w3.org/1999/xlink"><path d="M698.569 531.322a39.825 39.825 0 0 0-23.898 7.949c-17.702 13.216-21.34 38.28-8.124 55.982l95.716 128.212c7.854 10.521 19.893 16.073 32.084 16.073a39.825 39.825 0 0 0 23.898-7.949c17.702-13.216 21.34-38.28 8.124-55.982l-95.716-128.212c-7.853-10.521-19.892-16.074-32.084-16.073z" fill="#16af08" p-id="1372"></path><path d="M922.498 563.818a39.825 39.825 0 0 0-23.898 7.949l-128.212 95.716c-17.703 13.216-21.34 38.28-8.124 55.982 7.854 10.521 19.893 16.073 32.084 16.073a39.825 39.825 0 0 0 23.898-7.949l128.212-95.716c17.702-13.216 21.34-38.28 8.124-55.982-7.854-10.521-19.893-16.074-32.084-16.073zM229.652 282.148a39.825 39.825 0 0 0-23.898 7.949c-17.702 13.216-21.34 38.28-8.124 55.982l95.716 128.212c7.854 10.521 19.893 16.073 32.084 16.073a39.825 39.825 0 0 0 23.898-7.949c17.702-13.216 21.34-38.28 8.124-55.982l-95.716-128.212c-7.854-10.521-19.892-16.074-32.084-16.073z" fill="#16af08" p-id="1373"></path><path d="M229.652 282.148a39.825 39.825 0 0 0-23.898 7.949L77.542 385.813c-17.702 13.216-21.34 38.28-8.124 55.982 7.854 10.521 19.893 16.073 32.084 16.073a39.825 39.825 0 0 0 23.898-7.949l128.213-95.716c17.702-13.216 21.34-38.28 8.124-55.982-7.855-10.521-19.893-16.073-32.085-16.073z" fill="#16af08" p-id="1374"></path><path d="M614.968 763.65c-44.13 18.171-94.005 25.121-146.168 16.968C353.747 762.636 261.364 670.253 243.381 555.2c-9.681-61.936 1.932-120.646 28.337-170.344l-58.657-58.657c-40.139 64.442-60.11 142.746-50.806 226.152 17.993 161.306 148.088 291.401 309.394 309.394 62.041 6.92 121.259-2.357 174.048-24.083 26.535-10.921 33.625-45.203 13.335-65.493l-0.098-0.098c-11.555-11.555-28.854-14.643-43.966-8.421zM409.033 260.35c44.131-18.171 94.007-25.122 146.169-16.968 115.051 17.985 207.431 110.365 225.416 225.416 9.682 61.935-1.931 120.646-28.337 170.346l58.658 58.658c40.139-64.443 60.109-142.747 50.805-226.155-17.993-161.305-148.087-291.399-309.391-309.391-62.042-6.92-121.26 2.356-174.05 24.082-26.535 10.921-33.625 45.203-13.335 65.493l0.099 0.099c11.555 11.554 28.854 14.642 43.966 8.42z" fill="#16af08" p-id="1375"></path></svg>