<?xml version="1.0" standalone="no"?><!DOCTYPE svg PUBLIC "-//W3C//DTD SVG 1.1//EN" "http://www.w3.org/Graphics/SVG/1.1/DTD/svg11.dtd"><svg t="1650789640657" class="icon" viewBox="0 0 1024 1024" version="1.1" xmlns="http://www.w3.org/2000/svg" p-id="6545" xmlns:xlink="http://www.w3.org/1999/xlink" width="32" height="32"><defs><style type="text/css"></style></defs><path d="M779.07437 412.216889a18.962963 18.962963 0 0 1 26.737778 2.161778l111.634963 131.356444a18.962963 18.962963 0 0 1-14.449778 31.250963h-50.251852c-13.274074 70.769778-47.407407 136.343704-99.555555 188.491852-139.58637 139.567407-364.980148 141.027556-506.349037 4.361481l-4.437333-4.361481a62.862222 62.862222 0 0 1 86.091851-91.515259l2.787556 2.616889c91.97037 91.97037 241.057185 91.97037 332.98963 0a234.268444 234.268444 0 0 0 59.354074-99.593482h-43.918223a18.962963 18.962963 0 0 1-14.449777-31.250963l111.634963-131.356444a18.962963 18.962963 0 0 1 2.18074-2.161778z m-35.858963-179.749926l4.437334 4.361481a62.862222 62.862222 0 0 1-86.110815 91.51526l-2.787556-2.616889c-91.97037-91.97037-241.038222-91.97037-332.989629 0a234.458074 234.458074 0 0 0-56.149334 89.6l40.732445 0.018963a18.962963 18.962963 0 0 1 14.449778 31.250963l-111.653926 131.337481a18.962963 18.962963 0 0 1-28.899556 0l-111.653926-131.337481a18.962963 18.962963 0 0 1 14.449778-31.250963h52.261926a359.784296 359.784296 0 0 1 97.564444-178.517334c139.567407-139.567407 364.980148-141.027556 506.349037-4.361481z" fill="#0CCA8A" p-id="6546"></path></svg>