<?xml version="1.0" standalone="no"?><!DOCTYPE svg PUBLIC "-//W3C//DTD SVG 1.1//EN" "http://www.w3.org/Graphics/SVG/1.1/DTD/svg11.dtd"><svg t="1653119960570" class="icon" viewBox="0 0 1024 1024" version="1.1" xmlns="http://www.w3.org/2000/svg" p-id="5775" xmlns:xlink="http://www.w3.org/1999/xlink" width="200" height="200"><defs><style type="text/css">@font-face { font-family: feedback-iconfont; src: url("//at.alicdn.com/t/font_1031158_u69w8yhxdu.woff2?t=1630033759944") format("woff2"), url("//at.alicdn.com/t/font_1031158_u69w8yhxdu.woff?t=1630033759944") format("woff"), url("//at.alicdn.com/t/font_1031158_u69w8yhxdu.ttf?t=1630033759944") format("truetype"); }
</style></defs><path d="M509.9008 513.1264m-450.816 0a450.816 450.816 0 1 0 901.632 0 450.816 450.816 0 1 0-901.632 0Z" fill="#59ADF8" p-id="5776"></path><path d="M355.84 772.5568H268.4928c-23.7568 0-42.9568-19.2512-42.9568-42.9568V433.6128c0-23.7568 19.2512-42.9568 42.9568-42.9568H355.84c23.7568 0 42.9568 19.2512 42.9568 42.9568v295.9872c0 23.7056-19.2512 42.9568-42.9568 42.9568z" fill="#FFFFFF" p-id="5777"></path><path d="M558.3872 772.5568H471.04c-23.7568 0-42.9568-19.2512-42.9568-42.9568V234.3424c0-23.7568 19.2512-42.9568 42.9568-42.9568h87.3472c23.7568 0 42.9568 19.2512 42.9568 42.9568v495.2064c0 23.7568-19.2512 43.008-42.9568 43.008z" fill="#2595E8" p-id="5778"></path><path d="M760.9344 772.5568h-87.3472c-23.7568 0-42.9568-19.2512-42.9568-42.9568v-155.2384c0-23.7568 19.2512-42.9568 42.9568-42.9568h87.3472c23.7568 0 42.9568 19.2512 42.9568 42.9568v155.2384c0 23.7056-19.2 42.9568-42.9568 42.9568zM559.2576 191.3856H470.1184a42.0864 42.0864 0 0 0-42.0864 42.0864v496.9984a42.0864 42.0864 0 0 0 42.0864 42.0864h67.1744c21.6576-8.448 42.4448-18.5344 62.2592-30.1056 1.1264-3.7888 1.7408-7.8336 1.7408-11.9808V233.472c0.0512-23.2448-18.7904-42.0864-42.0352-42.0864z" fill="#FFFFFF" p-id="5779"></path></svg>