<?xml version="1.0" standalone="no"?><!DOCTYPE svg PUBLIC "-//W3C//DTD SVG 1.1//EN" "http://www.w3.org/Graphics/SVG/1.1/DTD/svg11.dtd"><svg t="1662115460432" class="icon" viewBox="0 0 1024 1024" version="1.1" xmlns="http://www.w3.org/2000/svg" p-id="2699" xmlns:xlink="http://www.w3.org/1999/xlink" width="128" height="128"><path d="M899.982222 233.585778c0-60.512711-49.055289-109.568-109.568-109.568H233.585778c-60.512711 0-109.568 49.055289-109.568 109.568v556.828444c0 60.513849 49.055289 109.568 109.568 109.568h556.828444c60.512711 0 109.568-49.054151 109.568-109.568V233.585778zM716.289138 737.35168c-27.116658-0.857884-36.250738 0-36.250738 0s-1.999076 31.113671-28.543431 31.684836c-26.833351 0.284444-30.830364-21.694009-31.688249-29.97248-16.269084 0-211.805298 0.854471-211.805298 0.854471s-3.424711 28.831289-29.970204 28.831289c-26.833351 0-28.261262-23.976391-29.97248-28.831289-17.414827 0-40.821191-0.571164-40.821191-0.571165s-58.803769-12.270933-66.509938-88.771698c0.854471-76.500764 0-227.793351 0-227.793351s-5.424924-70.504676 64.797582-90.771911c21.691733-0.853333 68.509013-1.143467 122.744605-1.143466l-49.955272-48.525085s-7.705031-9.704107 5.424925-20.55168c13.417813-10.843022 13.985564-6.167893 18.55488-3.024213 4.568178 3.137991 74.502827 72.329671 74.502827 72.329671h-9.419663c26.832213 0 54.522311 0.175218 81.067805 0.175218 10.275271-10.277547 68.793458-67.711431 72.791609-70.566116 4.56704-2.854684 5.422649-7.735751 18.55488 3.110685 13.131093 10.845298 5.423787 20.538027 5.423786 20.538026l-48.81408 47.09376c67.08224 0.571164 118.749867 0.853333 118.749867 0.853334s66.223218 14.556729 67.936711 90.482915c-0.855609 75.930738 0.284444 228.64896 0.284445 228.64896s-3.711431 74.213831-67.083378 85.919289z" p-id="2700" fill="#1296db"></path><path d="M707.439502 387.982222H322.080996C310.377813 387.982222 301.511111 397.376853 301.511111 409.366756V664.849067c0 11.986489 8.866702 21.230933 20.569885 21.230933h385.358506c11.702044 0 20.738276-9.244444 20.738276-21.230933V409.366756c0-11.989902-9.035093-21.384533-20.738276-21.384534z m-359.121351 94.867911l108.604302-20.792889 8.205654 40.759752-107.508623 20.789475-9.301333-40.756338z m167.418311 124.191858c-33.374436 36.384996-68.388409-11.488142-68.388409-11.488142l17.780054-11.490418s23.798898 42.94656 50.334151-13.953707c25.441849 55.257316 53.617778 14.49984 53.617778 14.770632l16.142791 10.397013c-0.002276 0.002276-30.093084 48.150756-69.486365 11.764622z m161.125262-83.43552l-107.781688-20.789475 8.480995-40.759752 108.326685 20.792889-9.025992 40.756338z" p-id="2701" fill="#1296db"></path></svg>