<?xml version="1.0" encoding="UTF-8"?><svg version="1.1" width="358px" height="358px" viewBox="0 0 358.0 358.0" xmlns="http://www.w3.org/2000/svg" xmlns:xlink="http://www.w3.org/1999/xlink"><defs><clipPath id="i0"><path d="M179,0 C277.85897,0 358,80.1410298 358,179 C358,277.85897 277.85897,358 179,358 C80.1410298,358 0,277.85897 0,179 C0,80.1410298 80.1410298,0 179,0 Z"></path></clipPath><clipPath id="i1"><path d="M112.5,0 C174.632034,0 225,50.3679656 225,112.5 C225,174.632034 174.632034,225 112.5,225 C50.3679656,225 0,174.632034 0,112.5 C0,50.3679656 50.3679656,0 112.5,0 Z M112.5375,40.9852261 C94.9417033,40.9852261 79.7122667,53.2193179 75.9191711,70.4014158 C72.1260756,87.5835137 80.7895454,105.09217 96.75,112.5 L85.8,165.675 C84.9134809,170.129585 86.0930855,174.745955 89.0079281,178.229192 C91.9227706,181.712429 96.2588972,183.687358 100.8,183.6 L123.9,183.6 C128.441103,183.687358 132.777229,181.712429 135.692072,178.229192 C138.606914,174.745955 139.786519,170.129585 138.9,165.675 L128.25,112.5 L128.325,112.5 C144.285455,105.09217 152.948924,87.5835137 149.155829,70.4014158 C145.362733,53.2193179 130.133297,40.9852261 112.5375,40.9852261 Z"></path></clipPath></defs><g clip-path="url(#i0)"><polygon points="0,0 358,0 358,358 0,358 0,0" stroke="none" fill="#4F8BFE"></polygon></g><g clip-path="url(#i0)"><polygon points="0,0 358,0 358,358 0,358 0,0" stroke="none" fill="#4F8BFE"></polygon></g><g transform="translate(150.0 130.0)"><path d="M0.5,0.5 L56.5,0.5" stroke="#508AFE" stroke-width="17" fill="none" stroke-linecap="round" stroke-miterlimit="10"></path></g><g transform="translate(67.0 67.0)"><g clip-path="url(#i1)"><polygon points="0,0 225,0 225,225 0,225 0,0" stroke="none" fill="#FFFFFF"></polygon></g></g></svg>