<?xml version="1.0" standalone="no"?><!DOCTYPE svg PUBLIC "-//W3C//DTD SVG 1.1//EN" "http://www.w3.org/Graphics/SVG/1.1/DTD/svg11.dtd"><svg t="1657091482619" class="icon" viewBox="0 0 1024 1024" version="1.1" xmlns="http://www.w3.org/2000/svg" p-id="71443" xmlns:xlink="http://www.w3.org/1999/xlink" width="32" height="32"><defs><style type="text/css">@font-face { font-family: feedback-iconfont; src: url("//at.alicdn.com/t/font_1031158_u69w8yhxdu.woff2?t=1630033759944") format("woff2"), url("//at.alicdn.com/t/font_1031158_u69w8yhxdu.woff?t=1630033759944") format("woff"), url("//at.alicdn.com/t/font_1031158_u69w8yhxdu.ttf?t=1630033759944") format("truetype"); }
</style></defs><path d="M505.088 513.1264m-450.816 0a450.816 450.816 0 1 0 901.632 0 450.816 450.816 0 1 0-901.632 0Z" fill="#59ADF8" p-id="71444"></path><path d="M705.0752 649.3696l-148.3776-78.6432 42.752-61.0816a39.1168 39.1168 0 0 0 7.1168-22.5792V369.2544c0-78.5408-63.8976-142.4384-142.4384-142.4384S321.6896 290.6624 321.6896 369.2544v117.5552c0 8.4992 2.816 16.9472 7.9872 23.7568l44.288 58.5728-160.7168 84.2752a39.24992 39.24992 0 0 0-21.0944 34.8672v41.8816c0 21.7088 17.664 39.3728 39.3728 39.3728h455.2192c21.7088 0 39.3728-17.664 39.3728-39.3728v-45.9776a39.53664 39.53664 0 0 0-21.0432-34.816z" fill="#FFFFFF" p-id="71445"></path><path d="M843.2128 604.3136l-148.3776-78.6432 42.752-61.0816a39.1168 39.1168 0 0 0 7.1168-22.5792V324.1472c0-78.5408-63.8976-142.4384-142.4384-142.4384-13.6192 0-24.6784 11.0592-24.6784 24.6784s11.0592 24.6784 24.6784 24.6784c51.3536 0 93.1328 41.7792 93.1328 93.1328v114.7392l-47.4112 67.7376a39.6032 39.6032 0 0 0-6.0416 31.7952 39.62368 39.62368 0 0 0 19.8656 25.6L814.848 645.12v30.0032h-20.992c-13.6192 0-24.6784 11.0592-24.6784 24.6784s11.0592 24.6784 24.6784 24.6784h30.976c21.7088 0 39.3728-17.664 39.3728-39.3728v-45.9776c0-14.6432-8.0384-28.0064-20.992-34.816z" fill="#FFFFFF" p-id="71446"></path></svg>