<?xml version="1.0" standalone="no"?><!DOCTYPE svg PUBLIC "-//W3C//DTD SVG 1.1//EN" "http://www.w3.org/Graphics/SVG/1.1/DTD/svg11.dtd"><svg t="1669255540615" class="icon" viewBox="0 0 1024 1024" version="1.1" xmlns="http://www.w3.org/2000/svg" p-id="1724" xmlns:xlink="http://www.w3.org/1999/xlink" width="128" height="128"><path d="M417 1c-48.602 0-88 39.399-88 88v346H89c-48.6 0-88 39.399-88 88v412c0 48.6 39.4 88 88 88h314.69c4.341 0.658 8.786 1 13.31 1h517c24.555 0 46.761-10.057 62.724-26.277C1012.943 981.761 1023 959.555 1023 935V523c0-4.524-0.341-8.968-1-13.31V89c0-48.601-39.398-88-88-88H417z m250.036 645.739V389.131c0-27.134 21.977-49.131 49.087-49.131 27.11 0 49.088 21.997 49.088 49.131V745H453.699l31.657 31.657c19.174 19.173 19.167 50.263-0.012 69.441-19.178 19.179-50.268 19.185-69.441 0.013L266 696.207l149.956-149.955c19.179-19.179 50.269-19.185 69.441-0.013 19.172 19.173 19.167 50.263-0.012 69.441l-31.059 31.059h212.71z" p-id="1725"></path></svg>