<?xml version="1.0" encoding="UTF-8"?>
<svg width="94.2631132px" height="99.560514px" viewBox="0 0 94.2631132 99.560514" version="1.1" xmlns="http://www.w3.org/2000/svg" xmlns:xlink="http://www.w3.org/1999/xlink">
    <title>头像框 2</title>
    <defs>
        <linearGradient x1="49.9728113%" y1="99.9840013%" x2="49.9728113%" y2="-0.0307832516%" id="linearGradient-1">
            <stop stop-color="#E7CFEB" offset="3%"></stop>
            <stop stop-color="#CBC0EB" offset="31%"></stop>
            <stop stop-color="#869CEC" offset="98%"></stop>
        </linearGradient>
        <linearGradient x1="47.919794%" y1="81.8331685%" x2="54.5404496%" y2="28.3217936%" id="linearGradient-2">
            <stop stop-color="#8259AC" offset="0%"></stop>
            <stop stop-color="#FFFFFF" offset="100%"></stop>
        </linearGradient>
        <linearGradient x1="50.0106084%" y1="0%" x2="50.0106084%" y2="100%" id="linearGradient-3">
            <stop stop-color="#18062B" offset="1%"></stop>
            <stop stop-color="#922BB3" offset="97%"></stop>
        </linearGradient>
        <radialGradient cx="50.0088638%" cy="49.999603%" fx="50.0088638%" fy="49.999603%" r="50.009738%" gradientTransform="translate(0.5001, 0.5), scale(1, 0.9997), translate(-0.5001, -0.5)" id="radialGradient-4">
            <stop stop-color="#5837EC" offset="0%"></stop>
            <stop stop-color="#5635E5" offset="14%"></stop>
            <stop stop-color="#5231D4" offset="32%"></stop>
            <stop stop-color="#4B2AB7" offset="54%"></stop>
            <stop stop-color="#42208F" offset="77%"></stop>
            <stop stop-color="#381561" offset="100%"></stop>
        </radialGradient>
        <linearGradient x1="43.8599741%" y1="40.1781785%" x2="50.8797926%" y2="62.5310039%" id="linearGradient-5">
            <stop stop-color="#8259AC" offset="0%"></stop>
            <stop stop-color="#FFFFFF" offset="100%"></stop>
        </linearGradient>
        <linearGradient x1="49.9923041%" y1="100%" x2="49.9923041%" y2="-0.0376931775%" id="linearGradient-6">
            <stop stop-color="#8259AC" offset="0%"></stop>
            <stop stop-color="#FFFFFF" offset="100%"></stop>
        </linearGradient>
        <linearGradient x1="46.5%" y1="26%" x2="52.5%" y2="76%" id="linearGradient-7">
            <stop stop-color="#FA9300" offset="0%"></stop>
            <stop stop-color="#F66A00" offset="45%"></stop>
            <stop stop-color="#F63F00" offset="100%"></stop>
        </linearGradient>
        <linearGradient x1="49.95493%" y1="0.0632111252%" x2="49.95493%" y2="100.063211%" id="linearGradient-8">
            <stop stop-color="#6664D4" offset="2%"></stop>
            <stop stop-color="#D688E3" offset="98%"></stop>
        </linearGradient>
        <linearGradient x1="49.9734184%" y1="-0.0195618153%" x2="49.9734184%" y2="100.019562%" id="linearGradient-9">
            <stop stop-color="#E7CFEB" offset="3%"></stop>
            <stop stop-color="#CBC0EB" offset="31%"></stop>
            <stop stop-color="#869CEC" offset="98%"></stop>
        </linearGradient>
        <radialGradient cx="31.2177586%" cy="39.1968897%" fx="31.2177586%" fy="39.1968897%" r="64.626893%" gradientTransform="translate(0.3122, 0.392), scale(1, 0.6534), translate(-0.3122, -0.392)" id="radialGradient-10">
            <stop stop-color="#5837EC" offset="0%"></stop>
            <stop stop-color="#5635E5" offset="14%"></stop>
            <stop stop-color="#5231D4" offset="32%"></stop>
            <stop stop-color="#4B2AB7" offset="54%"></stop>
            <stop stop-color="#42208F" offset="77%"></stop>
            <stop stop-color="#381561" offset="100%"></stop>
        </radialGradient>
        <linearGradient x1="4.02288881e-13%" y1="50.0537069%" x2="100%" y2="50.0537069%" id="linearGradient-11">
            <stop stop-color="#18062B" offset="1%"></stop>
            <stop stop-color="#922BB3" offset="97%"></stop>
        </linearGradient>
        <linearGradient x1="0%" y1="50.0866395%" x2="100%" y2="50.0866395%" id="linearGradient-12">
            <stop stop-color="#18062B" offset="1%"></stop>
            <stop stop-color="#922BB3" offset="97%"></stop>
        </linearGradient>
        <linearGradient x1="0.0893655049%" y1="49.9111895%" x2="100%" y2="49.9111895%" id="linearGradient-13">
            <stop stop-color="#18062B" offset="1%"></stop>
            <stop stop-color="#922BB3" offset="97%"></stop>
        </linearGradient>
        <linearGradient x1="-0.129533679%" y1="50.0544047%" x2="99.8704663%" y2="50.0544047%" id="linearGradient-14">
            <stop stop-color="#18062B" offset="1%"></stop>
            <stop stop-color="#922BB3" offset="97%"></stop>
        </linearGradient>
        <linearGradient x1="0%" y1="50.0097716%" x2="100.104932%" y2="50.0097716%" id="linearGradient-15">
            <stop stop-color="#18062B" offset="1%"></stop>
            <stop stop-color="#922BB3" offset="97%"></stop>
        </linearGradient>
        <linearGradient x1="0.119976005%" y1="49.9190433%" x2="100%" y2="49.9190433%" id="linearGradient-16">
            <stop stop-color="#18062B" offset="1%"></stop>
            <stop stop-color="#922BB3" offset="97%"></stop>
        </linearGradient>
        <linearGradient x1="-0.040078338%" y1="50.1880751%" x2="100%" y2="50.1880751%" id="linearGradient-17">
            <stop stop-color="#18062B" offset="1%"></stop>
            <stop stop-color="#922BB3" offset="97%"></stop>
        </linearGradient>
        <radialGradient cx="68.8023443%" cy="39.1921907%" fx="68.8023443%" fy="39.1921907%" r="64.626893%" gradientTransform="translate(0.688, 0.3919), scale(1, 0.6535), rotate(180), translate(-0.688, -0.3919)" id="radialGradient-18">
            <stop stop-color="#5837EC" offset="0%"></stop>
            <stop stop-color="#5635E5" offset="14%"></stop>
            <stop stop-color="#5231D4" offset="32%"></stop>
            <stop stop-color="#4B2AB7" offset="54%"></stop>
            <stop stop-color="#42208F" offset="77%"></stop>
            <stop stop-color="#381561" offset="100%"></stop>
        </radialGradient>
        <linearGradient x1="100%" y1="50.0537069%" x2="0%" y2="50.0537069%" id="linearGradient-19">
            <stop stop-color="#18062B" offset="1%"></stop>
            <stop stop-color="#922BB3" offset="97%"></stop>
        </linearGradient>
        <linearGradient x1="100.070077%" y1="50.0866395%" x2="0.0700770848%" y2="50.0866395%" id="linearGradient-20">
            <stop stop-color="#18062B" offset="1%"></stop>
            <stop stop-color="#922BB3" offset="97%"></stop>
        </linearGradient>
        <linearGradient x1="100%" y1="49.9111895%" x2="5.07984083e-13%" y2="49.9111895%" id="linearGradient-21">
            <stop stop-color="#18062B" offset="1%"></stop>
            <stop stop-color="#922BB3" offset="97%"></stop>
        </linearGradient>
        <linearGradient x1="100.129534%" y1="50.0544047%" x2="-7.36313716e-13%" y2="50.0544047%" id="linearGradient-22">
            <stop stop-color="#18062B" offset="1%"></stop>
            <stop stop-color="#922BB3" offset="97%"></stop>
        </linearGradient>
        <linearGradient x1="100%" y1="50.0097716%" x2="-5.96468194e-13%" y2="50.0097716%" id="linearGradient-23">
            <stop stop-color="#18062B" offset="1%"></stop>
            <stop stop-color="#922BB3" offset="97%"></stop>
        </linearGradient>
        <linearGradient x1="100.059988%" y1="49.9190433%" x2="0%" y2="49.9190433%" id="linearGradient-24">
            <stop stop-color="#18062B" offset="1%"></stop>
            <stop stop-color="#922BB3" offset="97%"></stop>
        </linearGradient>
        <linearGradient x1="100.040078%" y1="50.1880751%" x2="0%" y2="50.1880751%" id="linearGradient-25">
            <stop stop-color="#18062B" offset="1%"></stop>
            <stop stop-color="#922BB3" offset="97%"></stop>
        </linearGradient>
        <linearGradient x1="50.1345989%" y1="0.0199401989%" x2="50.1345989%" y2="99.9992909%" id="linearGradient-26">
            <stop stop-color="#869CEC" offset="2%"></stop>
            <stop stop-color="#E7CFEB" offset="97%"></stop>
        </linearGradient>
        <radialGradient cx="47.4412689%" cy="39.9077869%" fx="47.4412689%" fy="39.9077869%" r="72.6178279%" gradientTransform="translate(0.4744, 0.3991), scale(0.5588, 1), translate(-0.4744, -0.3991)" id="radialGradient-27">
            <stop stop-color="#E7CFEB" offset="3%"></stop>
            <stop stop-color="#CBC0EB" offset="31%"></stop>
            <stop stop-color="#869CEC" offset="98%"></stop>
        </radialGradient>
        <linearGradient x1="0%" y1="49.9429502%" x2="100%" y2="49.9429502%" id="linearGradient-28">
            <stop stop-color="#8259AC" offset="0%"></stop>
            <stop stop-color="#FFFFFF" offset="100%"></stop>
        </linearGradient>
        <linearGradient x1="0%" y1="50.2192982%" x2="100%" y2="50.2192982%" id="linearGradient-29">
            <stop stop-color="#8259AC" offset="0%"></stop>
            <stop stop-color="#FFFFFF" offset="100%"></stop>
        </linearGradient>
        <linearGradient x1="0%" y1="49.9701311%" x2="100%" y2="49.9701311%" id="linearGradient-30">
            <stop stop-color="#B5C4EC" offset="2%"></stop>
            <stop stop-color="#F9ECFF" offset="97%"></stop>
        </linearGradient>
        <linearGradient x1="50%" y1="100%" x2="50%" y2="-0.0195579894%" id="linearGradient-31">
            <stop stop-color="#8259AC" offset="0%"></stop>
            <stop stop-color="#FFFFFF" offset="100%"></stop>
        </linearGradient>
        <linearGradient x1="2.41886889e-12%" y1="50.0595948%" x2="100%" y2="50.0595948%" id="linearGradient-32">
            <stop stop-color="#8259AC" offset="0%"></stop>
            <stop stop-color="#FFFFFF" offset="100%"></stop>
        </linearGradient>
        <linearGradient x1="0%" y1="49.9771585%" x2="100.068189%" y2="49.9771585%" id="linearGradient-33">
            <stop stop-color="#8259AC" offset="0%"></stop>
            <stop stop-color="#FFFFFF" offset="100%"></stop>
        </linearGradient>
        <linearGradient x1="49.2984672%" y1="133.117932%" x2="57.2157657%" y2="-248.142165%" id="linearGradient-34">
            <stop stop-color="#8259AC" offset="0%"></stop>
            <stop stop-color="#FFFFFF" offset="100%"></stop>
        </linearGradient>
        <radialGradient cx="50.0491003%" cy="49.9940445%" fx="50.0491003%" fy="49.9940445%" r="49.9956971%" id="radialGradient-35">
            <stop stop-color="#00FFFF" offset="0%"></stop>
            <stop stop-color="#00D8D8" offset="12%"></stop>
            <stop stop-color="#008C8C" offset="36%"></stop>
            <stop stop-color="#004F4F" offset="58%"></stop>
            <stop stop-color="#002424" offset="77%"></stop>
            <stop stop-color="#000909" offset="91%"></stop>
            <stop stop-color="#000000" offset="100%"></stop>
        </radialGradient>
        <radialGradient cx="49.9724421%" cy="49.997598%" fx="49.9724421%" fy="49.997598%" r="49.9956971%" id="radialGradient-36">
            <stop stop-color="#056DFF" offset="0%"></stop>
            <stop stop-color="#045CD8" offset="12%"></stop>
            <stop stop-color="#023B8C" offset="36%"></stop>
            <stop stop-color="#01224F" offset="58%"></stop>
            <stop stop-color="#000F24" offset="77%"></stop>
            <stop stop-color="#000409" offset="91%"></stop>
            <stop stop-color="#000000" offset="100%"></stop>
        </radialGradient>
        <radialGradient cx="49.929027%" cy="50.0207646%" fx="49.929027%" fy="50.0207646%" r="49.9956971%" id="radialGradient-37">
            <stop stop-color="#00FFFF" offset="0%"></stop>
            <stop stop-color="#00D8D8" offset="12%"></stop>
            <stop stop-color="#008C8C" offset="36%"></stop>
            <stop stop-color="#004F4F" offset="58%"></stop>
            <stop stop-color="#002424" offset="77%"></stop>
            <stop stop-color="#000909" offset="91%"></stop>
            <stop stop-color="#000000" offset="100%"></stop>
        </radialGradient>
    </defs>
    <g id="👨‍👩‍👧‍👦-小队模块" stroke="none" stroke-width="1" fill="none" fill-rule="evenodd">
        <g id="小队模块/队员名片-已购" transform="translate(-803.0684, -138)">
            <g id="小队/边栏-道具面板" transform="translate(681, 40)">
                <g id="头像" transform="translate(101, 80)">
                    <g id="头像框" transform="translate(18, 18)">
                        <rect id="矩形" fill-opacity="0" fill="#D8D8D8" x="0" y="0" width="100" height="100"></rect>
                        <path d="M72.18,0.124664601 C72.56,1.5246646 71.95,3.0846646 71.19,3.4546646 C70.44,3.8246646 62.54,4.8546646 61.24,6.1646646 C59.94,7.4746646 60.13,13.3346646 60.3,14.0446646 C60.47,14.7546646 69.63,18.1046646 70.24,20.3346646 C70.85,22.5646646 70.74,24.7746646 70.74,24.7746646 C70.74,24.7746646 73.29,24.6246646 73.97,21.6846646 C74.66,18.7446646 66.76,13.2946646 65.61,11.2846646 C64.46,9.2746646 71.63,8.7346646 73.11,6.1546646 C74.59,3.5746646 72.17,0.104664601 72.17,0.104664601 L72.18,0.124664601 Z" id="路径" fill="#FF90FF" fill-rule="nonzero"></path>
                        <path d="M76.07,44.7246646 C76.07,44.7246646 77.78,49.6146646 76.8,55.4546646 C75.81,61.2846646 68.74,75.8546646 52.47,77.2946646 C52.47,77.2946646 68.12,78.5646646 75.04,64.3546646 C81.96,50.1446646 75.89,41.3646646 75.89,41.3646646 L76.07,44.7346646 L76.07,44.7246646 Z" id="路径" fill="#FF90FF" fill-rule="nonzero"></path>
                        <path d="M30.8,0.124664601 C26.91,2.6846646 26.68,5.8746646 27.09,7.4446646 C27.5,9.0146646 30.88,10.2946646 31.41,10.4946646 C31.94,10.7046646 26.72,12.5646646 23.49,14.0546646 C20.27,15.5346646 17.4,17.8446646 16.87,20.3846646 C16.34,22.9246646 16.09,26.6346646 17.42,30.2946646 C18.75,33.9546646 20.49,37.5446646 20.3,38.4346646 C20.11,39.3246646 17.4,43.0046646 17.05,48.2646646 C16.7,53.5246646 18.12,58.8946646 18.64,61.0646646 C19.15,63.2346646 18.22,70.0446646 17.72,73.7346646 C17.22,77.4246646 16.4,80.9646646 16.45,81.2046646 C16.5,81.4446646 17.75,84.6246646 18.64,85.5646646 C19.53,86.5046646 19.65,86.7646646 19.65,87.0346646 C19.65,87.3046646 19.57,93.0946646 19.57,93.0946646 L21.81,92.0946646 L24.49,70.1546646 C24.49,70.1546646 20.31,58.5546646 21.49,49.7246646 C22.67,40.8946646 27.12,32.8246646 27.12,32.8246646 C27.12,32.8246646 23.22,22.3246646 29.27,17.9746646 C35.32,13.6246646 38.05,10.0846646 38.05,10.0846646 C38.05,10.0846646 30.16,7.4946646 29.63,4.9046646 C29.1,2.3146646 30.79,0.144664601 30.79,0.144664601 L30.8,0.124664601 Z" id="路径" fill="#FF90FF" fill-rule="nonzero"></path>
                        <g id="编组" transform="translate(16.8, 0)" fill-rule="nonzero">
                            <path d="M18.39,77.3846646 L18.01,87.3246646 L17.87,91.0746646 C13.86,94.0346646 2.77,93.0846646 2.77,93.0846646 L3.57,86.1146646 C0.74,84.1046646 5.68434189e-14,80.7046646 5.68434189e-14,80.7046646 C5.68434189e-14,80.7046646 2.25,74.5346646 2.4,60.7446646 L18.39,77.3946646 L18.39,77.3846646 Z" id="路径" fill="url(#linearGradient-1)"></path>
                            <path d="M2.4,60.7346646 C2.24,74.5146646 5.68434189e-14,80.6946646 5.68434189e-14,80.6946646 C5.68434189e-14,80.6946646 0.75,84.1046646 3.57,86.1046646 C3.57,86.1046646 4.25,74.3746646 5.56,73.2646646 C5.9,72.9746646 6.52,73.1446646 7.29,73.5746646 C7.92,78.1046646 7.62,86.3046646 7.62,86.3046646 C7.62,86.3046646 8.32,76.9346646 9.09,74.8246646 C11.06,76.3846646 13.24,78.5746646 14.15,79.4746646 C15.77,81.0846646 17.88,90.7846646 17.87,91.0646646 L18.4,77.3846646 L2.41,60.7346646 L2.4,60.7346646 Z" id="路径" fill="url(#linearGradient-2)" opacity="0.6" style="mix-blend-mode: multiply;"></path>
                            <g transform="translate(0.9191, 18.1847)">
                                <path d="M33.7709096,3.51 C21.7609096,3.51 12.0809096,10.96 5.38090965,20.24 C0.100909648,27.55 1.96090965,38.25 5.81090965,45.76 C10.9609096,55.8 20.8709096,63.47 32.4409096,63.48 C51.0509096,63.48 62.5409096,48.92 63.7109096,31.4 C64.6809096,16.92 47.0309096,3.51 33.7709096,3.51 Z M35.1109096,59.2 C22.0809096,59.28 8.15090965,50.73 7.42090965,36.61 C6.68090965,22.13 19.0609096,8.05 33.7009096,7.4 C47.3109096,6.8 60.0109096,21 60.0109096,34.03 C60.0109096,47.44 48.5109096,59.12 35.1109096,59.2 Z" id="形状" fill="url(#linearGradient-3)"></path>
                                <path d="M33.7709096,0 C16.3309096,0 0.120909648,16.46 0.000909648207,33.78 C-0.0190903518,36.12 0.290909648,38.72 0.910909648,41 C0.910909648,41 0.910909648,41 0.910909648,41 C0.910909648,41 0.910909648,41.01 0.910909648,41.02 C4.41090965,55.4 18.9309096,67.46 33.7709096,67.5505363 C47.8909096,67.64 61.2609096,56.39 65.8809096,43.49 C65.8809096,43.46 65.9009096,43.43 65.9109096,43.41 C66.1609096,42.7 66.3709096,41.96 66.5709096,41.23 C66.5909096,41.14 66.6209096,41.04 66.6409096,40.95 C66.6409096,40.95 66.6409096,40.95 66.6409096,40.95 C67.2509096,38.69 67.5509096,36.12 67.5309096,33.79 C67.4109096,16.47 51.1909096,0.01 33.7609096,0.01 L33.7709096,0 Z M6.71090965,29.06 C6.71090965,29.06 6.71090965,29.06 6.71090965,29.06 C9.19090965,16.72 20.9509096,6.13 33.7709096,6.27 C46.2009096,6.4 58.1209096,16.12 60.6909096,28.37 C60.6909096,28.37 60.6909096,28.37 60.6909096,28.38 C60.6909096,28.38 60.6909096,28.38 60.6909096,28.38 C61.0809096,30.13 61.2809096,31.93 61.2809096,33.78 C61.2809096,48.1 48.1309096,61.39 33.7609096,61.29 C19.5409096,61.19 6.14090965,48.14 6.24090965,33.78 C6.25090965,32.18 6.40090965,30.59 6.69090965,29.06 L6.71090965,29.06 Z" id="形状" fill="url(#radialGradient-4)"></path>
                                <path d="M60.6909096,28.37 C58.1309096,16.11 46.2009096,6.39 33.7709096,6.26 C20.9409096,6.12 9.19090965,16.72 6.71090965,29.05 C8.28090965,15.53 20.2109096,4.9 33.7409096,4.9 C47.2109096,4.9 58.5909096,15.14 60.7009096,28.37 L60.6909096,28.37 Z" id="路径" fill="url(#linearGradient-5)" opacity="0.6" style="mix-blend-mode: multiply;"></path>
                                <path d="M65.8909096,43.49 C65.8909096,43.49 56.3909096,67.55 33.7809096,67.55 C18.9409096,67.55 4.43090965,55.39 0.920909648,41.02 C5.46090965,54.41 19.1009096,65.99 33.7809096,65.99 C56.3309096,65.99 65.8909096,43.5 65.8909096,43.5 L65.8909096,43.49 Z" id="路径" fill="url(#linearGradient-6)" opacity="0.6" style="mix-blend-mode: multiply;"></path>
                                <path d="M66.6809096,40.71 C66.6809096,40.71 66.6709096,40.81 66.6509096,40.94 C66.6509096,40.94 66.6509096,40.94 66.6509096,40.94 C66.6309096,41.03 66.6009096,41.13 66.5809096,41.22 C66.6409096,40.89 66.6809096,40.72 66.6909096,40.7 L66.6809096,40.71 Z" id="路径" fill="url(#linearGradient-7)"></path>
                                <path d="M4.87090965,18.69 C3.65090965,20.59 7.55090965,18.18 8.27090965,17.63 C12.2609096,14.57 12.9309096,12.61 18.8409096,8.82 C27.4109096,3.31 38.1209096,3.62 46.9609096,7.59 C53.6309096,10.59 55.0309096,10.17 57.6009096,15.44 C58.6109096,17.5 63.5509096,20.17 62.9209096,18.5 C60.0109096,10.83 46.5109096,0.19 34.9109096,0.13 C21.3009096,0.06 11.9109096,7.71 4.87090965,18.7 L4.87090965,18.69 Z" id="路径" fill="#FFFFFF" opacity="0.3" style="mix-blend-mode: soft-light;"></path>
                                <path d="M53.0309096,58.88 C52.6209096,58.05 45.5709096,61.56 46.9709096,62.46 C47.6809096,62.92 53.3509096,59.52 53.0309096,58.88 Z" id="路径" fill="#FFFFFF" style="mix-blend-mode: soft-light;"></path>
                                <path d="M36.3409096,61.29 C36.3409096,61.29 44.8009096,60.12 48.1909096,57.88 C51.5309096,55.67 56.3909096,48.86 56.3909096,48.86 C48.1509096,60.44 36.3409096,61.29 36.3409096,61.29 Z" id="路径" fill="#FFFFFF" style="mix-blend-mode: soft-light;"></path>
                                <path d="M14.8209096,7.53 C15.0709096,8.21 18.0509096,6.99 18.6409096,6.5 C19.2409096,6.01 20.1909096,4.87 19.4109096,4.66 C18.6309096,4.45 14.5709096,6.88 14.8109096,7.54 L14.8209096,7.53 Z" id="路径" fill="#FFFFFF"></path>
                                <path d="M61.7109096,35.34 C60.6909096,47.64 50.1909096,55.38 59.6809096,54.26 C59.6809096,54.26 64.7509096,49.11 65.8509096,36.27 C66.0309096,34.13 61.7009096,35.34 61.7009096,35.34 L61.7109096,35.34 Z" id="路径" fill="#2B3986" opacity="0.3" style="mix-blend-mode: multiply;"></path>
                                <path d="M58.6509096,19.87 C59.9009096,22.73 61.1609096,26.44 61.6609096,29.81 C62.1609096,33.18 62.1609096,33.99 62.5909096,34.12 C63.0209096,34.25 65.5609096,33.54 65.8809096,31.75 C66.2009096,29.96 64.2209096,21.94 63.3109096,20.78 C62.4009096,19.62 58.2909096,19.03 58.6509096,19.87 Z" id="路径" fill="#FFFFFF" opacity="0.3" style="mix-blend-mode: soft-light;"></path>
                                <path d="M6.26090965,36.19 C6.39090965,33.43 1.61090965,34 0.920909648,34.68 C-0.0790903518,35.68 -0.109090352,45.79 12.5109096,58.74 C13.7809096,60.05 18.8609096,57.46 18.2409096,56.46 C17.6309096,55.47 11.2709096,50.62 8.28090965,44.35 C6.26090965,40.12 6.19090965,37.71 6.26090965,36.18 L6.26090965,36.19 Z" id="路径" fill="#2B3986" opacity="0.3" style="mix-blend-mode: multiply;"></path>
                                <path d="M0.910909648,33.77 C1.60090965,34.37 5.52090965,34.14 5.81090965,33.49 C6.10090965,32.84 8.06090965,22.07 8.27090965,20.35 C8.48090965,18.63 3.97090965,21.15 2.46090965,23.86 C0.950909648,26.57 0.0809096482,33.05 0.910909648,33.77 L0.910909648,33.77 Z" id="路径" fill="#FFFFFF" opacity="0.3" style="mix-blend-mode: soft-light;"></path>
                            </g>
                            <path d="M48.27,29.8346646 C48.08,33.9946646 49.3,44.0246646 49.3,44.0246646 C52.42,45.3646646 59.24,45.6446646 59.24,45.6446646 C53.98,41.6746646 50.83,31.8146646 50.83,31.8146646 L48.27,29.8246646 L48.27,29.8346646 Z" id="路径" fill="url(#linearGradient-8)"></path>
                            <path d="M75.49,80.6846646 C75.49,80.6846646 75.22,80.7346646 74.77,80.8246646 C73.52,81.0746646 70.87,81.5846646 68.55,81.9646646 C68.42,81.9846646 68.29,82.0046646 68.16,82.0246646 C67.4,82.1446646 66.68,82.2546646 66.08,82.3246646 L65.27,85.7246646 C65.27,85.7246646 63.89,86.2946646 61.32,86.2946646 C61.19,86.2946646 61.06,86.2946646 60.93,86.2946646 C59.74,86.2646646 58.32,86.1146646 56.68,85.7346646 C56.68,85.7346646 61.58,75.5346646 63.01,67.0446646 C65.47,52.4746646 65.53,45.4846646 65.2,41.4646646 C65.08,40.0246646 64.92,38.9546646 64.79,38.0646646 L64.4,37.0346646 L65.27,35.1746646 C68.31,38.8946646 70.82,50.2846646 72.6,60.7846646 C72.6,60.7846646 72.6,60.8046646 72.6,60.8046646 C72.79,61.9046646 72.96,62.9946646 73.13,64.0646646 C74.42,72.1646646 75.23,79.1346646 75.47,80.7046646 L75.49,80.6846646 Z" id="路径" fill="url(#linearGradient-9)"></path>
                            <g transform="translate(0.6105, -0)" id="路径">
                                <g>
                                    <path d="M3.96948053,38.0546646 C6.83948053,37.8646646 11.1394805,35.5246646 12.6194805,33.1346646 C14.0994805,30.7446646 14.9594805,25.2546646 14.9594805,25.2546646 C14.9594805,25.2546646 13.7794805,22.0246646 15.2694805,19.7846646 C16.7494805,17.5446646 24.7094805,14.0246646 24.8494805,13.4546646 C24.9894805,12.8846646 24.4894805,6.3546646 22.9894805,5.7846646 C21.4894805,5.2146646 13.5994805,4.2846646 13.2394805,3.4946646 C12.8794805,2.7046646 12.8794805,0.774664601 13.3794805,0.124664601 C13.8794805,-0.525335399 10.9394805,1.4446646 10.4394805,4.2146646 C10.2994805,5.0046646 9.40948053,9.4446646 15.3094805,10.4946646 C15.7794805,10.5746646 3.26948053,14.4846646 0.829480534,19.0346646 C0.399480534,19.8346646 -0.560519466,24.2546646 0.439480534,29.1346646 C1.43948053,34.0046646 3.94948053,38.0646646 3.94948053,38.0646646 L3.96948053,38.0546646 Z" fill="url(#radialGradient-10)"></path>
                                    <path d="M0.459480534,29.1246646 C6.71948053,30.0846646 14.5894805,23.4446646 14.5894805,23.4446646 C14.5894805,23.4446646 8.80948053,33.0846646 0.679480534,30.0746646 L0.459480534,29.1146646 L0.459480534,29.1246646 Z" fill="url(#linearGradient-11)" opacity="0.5" style="mix-blend-mode: multiply;"></path>
                                    <path d="M0.349480534,20.8246646 C5.50948053,23.4446646 14.6194805,21.6946646 14.6194805,21.6946646 C14.6194805,21.6946646 11.6894805,23.2046646 6.71948053,23.4446646 C1.74948053,23.6946646 0.349480534,20.8246646 0.349480534,20.8246646 Z" fill="url(#linearGradient-12)" opacity="0.5" style="mix-blend-mode: multiply;"></path>
                                    <path d="M5.02948053,15.2546646 C13.6194805,13.8246646 15.2694805,19.7846646 15.2694805,19.7846646 C15.2694805,19.7846646 13.4894805,18.3346646 10.0494805,16.8046646 C6.60948053,15.2746646 4.07948053,15.8646646 4.07948053,15.8646646 L5.02948053,15.2546646 L5.02948053,15.2546646 Z" fill="url(#linearGradient-13)" opacity="0.5" style="mix-blend-mode: multiply;"></path>
                                    <path d="M13.2194805,11.3746646 C16.7494805,10.5846646 20.1794805,16.2146646 20.1794805,16.2146646 L19.2394805,16.8046646 C19.2394805,16.8046646 15.9094805,11.8446646 12.4594805,11.6746646 L13.2294805,11.3646646 L13.2194805,11.3746646 Z" fill="url(#linearGradient-14)" opacity="0.5" style="mix-blend-mode: multiply;"></path>
                                    <path d="M15.3194805,10.4946646 C21.1294805,8.0146646 24.3094805,10.4946646 24.8494805,13.4546646 L24.8494805,12.3846646 C24.8494805,12.3846646 24.8494805,9.4546646 21.2694805,8.6446646 C17.6794805,7.8446646 15.3194805,10.4846646 15.3194805,10.4846646 L15.3194805,10.4946646 Z" fill="url(#linearGradient-15)" opacity="0.5" style="mix-blend-mode: multiply;"></path>
                                    <path d="M20.1694805,5.1646646 C14.1694805,5.7146646 15.3194805,10.4946646 15.3194805,10.4946646 C15.3194805,10.4946646 13.7294805,8.5746646 15.3194805,6.5746646 C16.9094805,4.5746646 20.1694805,5.1646646 20.1694805,5.1646646 L20.1694805,5.1646646 Z" fill="url(#linearGradient-16)" opacity="0.5" style="mix-blend-mode: multiply;"></path>
                                    <path d="M14.6194805,4.0746646 C11.4294805,5.8046646 12.4494805,9.4446646 12.4494805,9.4446646 C12.4494805,9.4446646 10.8294805,5.6346646 12.0394805,4.5546646 C13.2494805,3.4746646 14.6194805,4.0646646 14.6194805,4.0646646 L14.6194805,4.0746646 Z" fill="url(#linearGradient-17)" opacity="0.5" style="mix-blend-mode: multiply;"></path>
                                    <path d="M15.3194805,10.4946646 C19.1594805,10.0946646 15.8894805,6.5046646 14.1694805,5.7146646 C12.4494805,4.9246646 10.7994805,4.2346646 10.6594805,5.9546646 C10.5194805,7.6746646 11.3894805,8.7546646 12.6694805,9.4546646 C13.9494805,10.1546646 14.8694805,10.5446646 15.3194805,10.4946646 Z" fill="#2B3986" opacity="0.3" style="mix-blend-mode: multiply;"></path>
                                    <path d="M24.6395355,13.0346646 C24.6694805,10.9546646 12.3994805,15.4546646 10.9094805,18.7546646 C9.41948053,22.0546646 12.5994805,24.2746646 13.6294805,23.0846646 C14.6494805,21.8946646 13.8894805,20.1146646 15.6894805,18.7346646 C17.7594805,17.1446646 24.6294805,13.6946646 24.6395355,13.0346646 L24.6395355,13.0346646 Z" fill="#2B3986" opacity="0.3" style="mix-blend-mode: multiply;"></path>
                                    <path d="M22.4094805,6.2846646 C18.8694805,5.6346646 17.4094805,7.8646646 17.3994805,8.6546646 C17.3994805,9.4446646 17.3694805,10.7346646 16.1094805,10.7346646 C14.8494805,10.7346646 19.3894805,13.4346646 22.4094805,11.7946646 C25.4294805,10.1546646 23.3994805,6.4646646 22.4094805,6.2846646 L22.4094805,6.2846646 Z" fill="#2B3986" opacity="0.3" style="mix-blend-mode: multiply;"></path>
                                    <path d="M10.8794805,33.8046646 C11.2194805,31.6046646 10.0994805,25.5646646 6.70948053,23.0846646 C5.27948053,22.0446646 5.16948053,20.9146646 1.62948053,21.6946646 C-0.160519466,22.0946646 -0.260519466,26.7646646 1.36948053,31.5146646 C2.99948053,36.2646646 3.87948053,37.4646646 5.21948053,37.4646646 C6.54948053,37.4646646 10.5994805,35.6746646 10.8794805,33.8046646 L10.8794805,33.8046646 Z" fill="#2B3986" opacity="0.3" style="mix-blend-mode: multiply;"></path>
                                    <path d="M1.05948053,19.0946646 C1.94948053,23.3146646 8.68948053,18.8646646 9.67948053,17.9646646 C10.6794805,17.0546646 15.1794805,12.5446646 14.2494805,12.5146646 C13.3194805,12.4846646 10.6094805,12.2146646 7.16948053,14.0746646 C3.72948053,15.9346646 0.909480534,18.3846646 1.05948053,19.1046646 L1.05948053,19.0946646 Z" fill="#FFFFFF" opacity="0.3" style="mix-blend-mode: soft-light;"></path>
                                    <path d="M7.47948053,22.1446646 C7.29948053,23.6746646 10.2594805,24.9946646 11.2394805,33.7546646 C11.2394805,33.7546646 12.1394805,31.1546646 11.9694805,30.2346646 C11.4794805,27.4946646 9.48948053,23.5646646 9.40948053,21.2646646 C9.31948053,18.9546646 13.4394805,15.4946646 19.2294805,13.4546646 C19.2294805,13.4546646 8.02948053,17.5246646 7.47948053,22.1446646 L7.47948053,22.1446646 Z" fill="#FFFFFF" style="mix-blend-mode: soft-light;"></path>
                                    <path d="M2.06948053,18.3046646 C5.57948053,19.2546646 4.89948053,16.2146646 4.60948053,16.1346646 C4.31948053,16.0646646 1.50948053,18.1546646 2.06948053,18.3046646 Z" fill="#FFFFFF"></path>
                                </g>
                                <g transform="translate(43.287, 0.0029)">
                                    <path d="M20.9025182,38.0517231 C18.0325182,37.8617231 13.7325182,35.5217231 12.2525182,33.1317231 C10.7725182,30.7417231 9.9125182,25.2517231 9.9125182,25.2517231 C9.9125182,25.2517231 11.0925182,22.0217231 9.6025182,19.7817231 C8.1225182,17.5417231 0.162518198,14.0217231 0.0225181979,13.4517231 C-0.117481802,12.8817231 0.382518198,6.3517231 1.8825182,5.7817231 C3.3925182,5.2117231 11.2725182,4.2817231 11.6325182,3.4917231 C11.9925182,2.7017231 11.9925182,0.771723098 11.4925182,0.121723098 C10.9925182,-0.518276902 13.9325182,1.4417231 14.4325182,4.2117231 C14.5725182,5.0017231 15.4625182,9.4417231 9.5625182,10.4917231 C9.0925182,10.5717231 21.6025182,14.4817231 24.0425182,19.0317231 C24.4725182,19.8317231 25.4325182,24.2517231 24.4325182,29.1317231 C23.4325182,34.0017231 20.9225182,38.0617231 20.9225182,38.0617231 L20.9025182,38.0517231 Z" fill="url(#radialGradient-18)"></path>
                                    <path d="M24.4225182,29.1217231 C18.1625182,30.0817231 10.2925182,23.4417231 10.2925182,23.4417231 C10.2925182,23.4417231 16.0725182,33.0817231 24.2025182,30.0717231 L24.4225182,29.1117231 L24.4225182,29.1217231 Z" fill="url(#linearGradient-19)" opacity="0.5" style="mix-blend-mode: multiply;"></path>
                                    <path d="M24.5225182,20.8217231 C19.3625182,23.4417231 10.2525182,21.6917231 10.2525182,21.6917231 C10.2525182,21.6917231 13.1825182,23.2017231 18.1525182,23.4417231 C23.1225182,23.6917231 24.5225182,20.8217231 24.5225182,20.8217231 Z" fill="url(#linearGradient-20)" opacity="0.5" style="mix-blend-mode: multiply;"></path>
                                    <path d="M19.8425182,15.2517231 C11.2525182,13.8217231 9.6025182,19.7817231 9.6025182,19.7817231 C9.6025182,19.7817231 11.3825182,18.3317231 14.8225182,16.8017231 C18.2625182,15.2717231 20.7925182,15.8617231 20.7925182,15.8617231 L19.8425182,15.2517231 L19.8425182,15.2517231 Z" fill="url(#linearGradient-21)" opacity="0.5" style="mix-blend-mode: multiply;"></path>
                                    <path d="M11.6625182,11.3717231 C8.1325182,10.5817231 4.7025182,16.2117231 4.7025182,16.2117231 L5.6425182,16.8017231 C5.6425182,16.8017231 8.9725182,11.8417231 12.4225182,11.6717231 L11.6525182,11.3617231 L11.6625182,11.3717231 Z" fill="url(#linearGradient-22)" opacity="0.5" style="mix-blend-mode: multiply;"></path>
                                    <path d="M9.5525182,10.4917231 C3.7425182,8.0117231 0.562518198,10.4917231 0.0225181979,13.4517231 L0.0225181979,12.3817231 C0.0225181979,12.3817231 0.0225181979,9.4517231 3.6025182,8.6417231 C7.1925182,7.8417231 9.5525182,10.4817231 9.5525182,10.4817231 L9.5525182,10.4917231 Z" fill="url(#linearGradient-23)" opacity="0.5" style="mix-blend-mode: multiply;"></path>
                                    <path d="M4.7025182,5.1617231 C10.7025182,5.7117231 9.5525182,10.4917231 9.5525182,10.4917231 C9.5525182,10.4917231 11.1425182,8.5717231 9.5525182,6.5717231 C7.9625182,4.5717231 4.7025182,5.1617231 4.7025182,5.1617231 L4.7025182,5.1617231 Z" fill="url(#linearGradient-24)" opacity="0.5" style="mix-blend-mode: multiply;"></path>
                                    <path d="M10.2625182,4.0717231 C13.4525182,5.8017231 12.4325182,9.4417231 12.4325182,9.4417231 C12.4325182,9.4417231 14.0525182,5.6317231 12.8425182,4.5517231 C11.6325182,3.4717231 10.2625182,4.0617231 10.2625182,4.0617231 L10.2625182,4.0717231 Z" fill="url(#linearGradient-25)" opacity="0.5" style="mix-blend-mode: multiply;"></path>
                                    <path d="M9.5525182,10.4917231 C5.7125182,10.0917231 8.9825182,6.5017231 10.7025182,5.7117231 C12.4225182,4.9217231 14.0725182,4.2317231 14.2125182,5.9517231 C14.3525182,7.6717231 13.4825182,8.7517231 12.2025182,9.4517231 C10.9225182,10.1517231 10.0025182,10.5417231 9.5525182,10.4917231 Z" fill="#2B3986" opacity="0.3" style="mix-blend-mode: multiply;"></path>
                                    <path d="M0.242463278,13.0317231 C0.212518198,10.9517231 12.4825182,15.4517231 13.9725182,18.7517231 C15.4625182,22.0517231 12.2825182,24.2717231 11.2525182,23.0817231 C10.2225182,21.8917231 10.9925182,20.1117231 9.1925182,18.7317231 C7.1225182,17.1417231 0.252518198,13.6917231 0.242463278,13.0317231 L0.242463278,13.0317231 Z" fill="#2B3986" opacity="0.3" style="mix-blend-mode: multiply;"></path>
                                    <path d="M2.4625182,6.2817231 C6.0025182,5.6317231 7.4625182,7.8617231 7.4725182,8.6517231 C7.4725182,9.4417231 7.5025182,10.7317231 8.7625182,10.7317231 C10.0225182,10.7317231 5.4825182,13.4317231 2.4625182,11.7917231 C-0.557481802,10.1517231 1.4725182,6.4617231 2.4625182,6.2817231 L2.4625182,6.2817231 Z" fill="#2B3986" opacity="0.3" style="mix-blend-mode: multiply;"></path>
                                    <path d="M13.9925182,33.8017231 C13.6525182,31.6017231 14.7725182,25.5617231 18.1625182,23.0817231 C19.5925182,22.0417231 19.7025182,20.9117231 23.2425182,21.6917231 C25.0325182,22.0917231 25.1325182,26.7617231 23.5025182,31.5117231 C21.8825182,36.2617231 20.9925182,37.4617231 19.6525182,37.4617231 C18.3225182,37.4617231 14.2725182,35.6717231 13.9925182,33.8017231 L13.9925182,33.8017231 Z" fill="#2B3986" opacity="0.3" style="mix-blend-mode: multiply;"></path>
                                    <path d="M23.8225182,19.0917231 C22.9325182,23.3117231 16.1925182,18.8617231 15.2025182,17.9617231 C14.2025182,17.0517231 9.7025182,12.5417231 10.6325182,12.5117231 C11.5625182,12.4817231 14.2725182,12.2117231 17.7125182,14.0717231 C21.1525182,15.9317231 23.9725182,18.3817231 23.8225182,19.1017231 L23.8225182,19.0917231 Z" fill="#FFFFFF" opacity="0.3" style="mix-blend-mode: soft-light;"></path>
                                    <path d="M17.3925182,22.1417231 C17.5725182,23.6717231 14.6125182,24.9917231 13.6325182,33.7517231 C13.6325182,33.7517231 12.7325182,31.1517231 12.9025182,30.2317231 C13.3925182,27.4917231 15.3825182,23.5617231 15.4625182,21.2617231 C15.5525182,18.9517231 11.4325182,15.4917231 5.6425182,13.4517231 C5.6425182,13.4517231 16.8425182,17.5217231 17.3925182,22.1417231 L17.3925182,22.1417231 Z" fill="#FFFFFF" style="mix-blend-mode: soft-light;"></path>
                                    <path d="M22.8125182,18.3017231 C19.3025182,19.2517231 19.9825182,16.2117231 20.2725182,16.1317231 C20.5625182,16.0617231 23.3725182,18.1517231 22.8125182,18.3017231 Z" fill="#FFFFFF"></path>
                                </g>
                            </g>
                            <path d="M59.24,45.6548224 C59.24,45.6548224 52.03,45.7046646 49.3,44.0246646 C49.3,44.0246646 56.68,37.5946646 52.63,24.0446646 C52.63,24.0446646 52.67,23.9146646 52.79,23.7746646 L52.79,23.7746646 C52.98,23.5546646 53.38,23.2946646 54.18,23.4446646 L54.12,24.1746646 L54.68,25.5646646 C54.68,25.5646646 55.97,28.5146646 57.18,32.5446646 C57.18,32.5446646 57.18,32.5446646 57.18,32.5446646 C58.36,36.4646646 59.46,41.4046646 59.22,45.6548224 L59.24,45.6548224 Z" id="路径" fill="url(#linearGradient-26)"></path>
                            <path d="M48.68,21.7146646 C46,24.3046646 46.53,28.7446646 46.53,28.7446646 C46.53,28.7446646 42.52,26.3846646 39.12,25.9246646 C39.12,25.9246646 42.31,22.4846646 46.85,20.8446646 L48.67,21.7246646 L48.68,21.7146646 Z" id="路径" fill="#A521BF" opacity="0.7" style="mix-blend-mode: multiply;"></path>
                            <path d="M49.54,22.1446646 L47.7,21.2046646 C45.68,21.7146646 39.9,27.0246646 35.56,32.2746646 C33.03,35.3346646 31.49,35.4546646 31.41,35.4546646 C21.4,35.7146646 18.18,37.8146646 18.18,37.8146646 C14.49,33.3246646 14.61,26.3146646 14.61,26.3146646 L15.14,22.8146646 C15.52,22.3546646 16.22,21.8046646 16.56,21.8446646 C17.72,21.9846646 18.09,22.1646646 21.16,20.2246646 C21.25,20.1646646 21.37,20.1246646 21.52,20.1046646 C22.35,19.9546646 23.85,20.2646646 23.85,20.2646646 L22.87,20.6646646 C22.58,22.8646646 23.48,25.7646646 24.51,28.1046646 C25.82,31.0646646 26.65,32.1046646 26.65,32.1046646 C28.49,33.8846646 34.06,27.1346646 35.27,25.5546646 C40.29,19.0146646 43.18,18.2946646 43.18,18.2946646 C43.18,18.2946646 45.32,20.0546646 46.27,20.3546646 C47.03,20.5946646 48.27,20.1546646 48.48,20.3246646 C48.5,20.3346646 48.52,20.3546646 48.53,20.3746646 C49,20.8146646 49.53,22.1446646 49.53,22.1446646 L49.54,22.1446646 Z" id="路径" fill="url(#radialGradient-27)"></path>
                            <path d="M40.58,25.3646646 C36.01,30.6846646 33.62,35.5046646 30.32,35.5046646 L30.32,35.5046646 C27.99,35.2046646 26.65,32.1246646 26.65,32.1246646 C28.99,34.0046646 34.87,25.3046646 37.59,23.6146646 C38.2,23.2346646 40.4,24.3446646 40.57,25.3646646 L40.58,25.3646646 Z" id="路径" fill="url(#linearGradient-28)" opacity="0.6" style="mix-blend-mode: multiply;"></path>
                            <path d="M49.54,22.1446646 L47.7,21.2046646 C46.6,21.4846646 44.62,22.9946646 42.44,24.9346646 C42.53,24.6446646 42.6,24.3946646 42.67,24.1946646 C44.32,22.5546646 46.07,20.6446646 48.54,20.3746646 C49.01,20.8146646 49.54,22.1446646 49.54,22.1446646 L49.54,22.1446646 Z" id="路径" fill="url(#linearGradient-29)" opacity="0.6" style="mix-blend-mode: multiply;"></path>
                            <path d="M29.16,35.1646646 C26.34,33.7646646 22.35,27.1946646 21.4,20.3846646 C21.4,20.3846646 21.45,20.2846646 21.52,20.1146646 C22.35,19.9646646 23.85,20.2746646 23.85,20.2746646 L22.87,20.6746646 C22.58,22.8746646 23.5,25.7646646 24.51,28.1146646 C27.08,33.5646646 28.75,35.0446646 29.16,35.1546646 L29.16,35.1646646 Z" id="路径" fill="url(#linearGradient-30)"></path>
                            <path d="M15.41,23.0846646 C14.61,25.6246646 15.89,34.5146646 17.4,32.5146646 C20.44,28.4946646 22.22,22.4846646 20.7,22.8146646 C19.18,23.1446646 15.62,22.3946646 15.41,23.0846646 L15.41,23.0846646 Z" id="路径" fill="#FFFFFF" opacity="0.3" style="mix-blend-mode: soft-light;"></path>
                            <path d="M26.66,34.7146646 C25.91,32.5046646 23.65,27.4646646 22.41,27.0546646 C21.17,26.6346646 18.19,30.9346646 17.49,33.7546646 C17.13,35.2046646 18.49,37.4946646 19.21,37.0046646 C21.79,35.2646646 27.19,36.2646646 26.66,34.7146646 Z" id="路径" fill="#990000" opacity="0.3" style="mix-blend-mode: soft-light;"></path>
                            <path d="M68.55,81.9746646 C67.64,82.1246646 66.78,82.2546646 66.08,82.3446646 L65.27,85.7446646 C65.27,85.7446646 63.75,86.3746646 60.93,86.3046646 C64.83,85.2246646 65.43,83.0246646 66.8,71.8446646 C68.17,60.6646646 67.72,47.2446646 67.72,47.2446646 C67.72,47.2446646 68.46,54.1346646 68.55,81.9746646 Z" id="路径" fill="#990000" opacity="0.3" style="mix-blend-mode: soft-light;"></path>
                            <path d="M72.6,60.7646646 C72.6,60.7646646 70.15,58.3146646 69.31,71.0746646 C69.04,75.1346646 68.61,78.8546646 68.16,82.0346646 C67.4,82.1546646 66.68,82.2646646 66.08,82.3346646 L65.27,85.7346646 C65.27,85.7346646 63.89,86.3046646 61.32,86.3046646 C61.32,86.3046646 63.45,85.1546646 63.91,84.5146646 C66.55,80.8346646 68.25,62.2046646 67.49,52.3046646 C66.96,45.3946646 66.42,42.4146646 65.2,41.4646646 C65.08,40.0246646 64.92,38.9546646 64.79,38.0646646 L64.4,37.0346646 L65.27,35.1746646 C68.31,38.8946646 70.82,50.2846646 72.6,60.7846646 L72.6,60.7646646 Z" id="路径" fill="url(#linearGradient-31)" opacity="0.6" style="mix-blend-mode: multiply;"></path>
                            <path d="M75.49,80.6846646 C75.49,80.6846646 75.22,80.7346646 74.77,80.8246646 C74.28,73.4946646 73.72,68.0446646 73.14,64.0446646 C74.43,72.1446646 75.24,79.1146646 75.48,80.6846646 L75.49,80.6846646 Z" id="路径" fill="url(#linearGradient-32)" opacity="0.6" style="mix-blend-mode: multiply;"></path>
                            <path d="M3.57,86.1046646 C4.68,76.2346646 4.04,65.3146646 4.04,65.3146646 C4.04,65.3146646 2.59,68.8346646 1.84,74.0846646 C1.08,79.3446646 1.21,83.5146646 1.21,83.5146646 C1.21,83.5146646 1.73,84.3546646 2.44,85.1146646 C3.15,85.8846646 3.57,86.0946646 3.57,86.0946646 L3.57,86.1046646 Z" id="路径" fill="#990000" opacity="0.3" style="mix-blend-mode: soft-light;"></path>
                            <path d="M52.67,37.4646646 C52.24,34.9546646 50.94,32.6146646 50.43,31.8546646 C50.21,31.5246646 48.5,30.0446646 48.45,30.4246646 C48.2,32.4046646 48.87,43.1246646 49.54,43.0847763 C50.21,43.0446646 52.86,38.5946646 52.67,37.4746646 L52.67,37.4646646 Z" id="路径" fill="#2B3986" opacity="0.3" style="mix-blend-mode: multiply;"></path>
                            <path d="M59.24,45.6546646 C59.24,45.6546646 52.03,45.7046646 49.3,44.0246646 C49.3,44.0246646 56.68,37.5946646 52.63,24.0446646 C52.63,24.0446646 52.67,23.9146646 52.79,23.7746646 L52.79,23.7746646 C54.84,30.7946646 55.45,33.7946646 54.74,38.4846646 C54.6,39.4346646 56.46,40.1546646 57.37,40.0146646 C58.28,39.8746646 57.61,34.4346646 57.19,32.5546646 C57.19,32.5546646 57.19,32.5546646 57.19,32.5546646 C58.37,36.4746646 59.47,41.4146646 59.23,45.6646646 L59.24,45.6546646 Z" id="路径" fill="url(#linearGradient-33)" opacity="0.6" style="mix-blend-mode: multiply;"></path>
                            <path d="M5.36,93.2046646 C6.15,92.9046646 6.77,92.0846646 6.99,91.0646646 C7.28,89.7046646 7.57,87.0146646 7.57,87.0146646 C7.57,87.0146646 7.6,89.8846646 7.51,92.1746646 C7.49,92.8246646 9.2,93.1546646 9.2,93.1546646 L5.36,93.1946646 L5.36,93.2046646 Z" id="路径" fill="url(#linearGradient-34)" opacity="0.6" style="mix-blend-mode: multiply;"></path>
                            <path d="M51.75,23.4646646 C53.57,28.2146646 51.75,32.6646646 51.75,32.6646646 L53.66,34.6246646 C53.66,34.6246646 54.1,30.4746646 53.91,28.7346646 C53.48,24.8446646 52.63,24.0446646 52.63,24.0446646 L51.75,23.4546646 L51.75,23.4646646 Z" id="路径" fill="#A521BF" opacity="0.7" style="mix-blend-mode: multiply;"></path>
                            <path d="M51.88,34.7146646 C49.8,31.7046646 48.28,32.3746646 48.28,32.3746646 L48.28,29.8446646 C48.28,29.8446646 50.83,31.8346646 50.83,31.8346646 L51.88,34.7246646 L51.88,34.7146646 Z" id="路径" fill="#A521BF" opacity="0.7" style="mix-blend-mode: multiply;"></path>
                            <path d="M49.54,22.1446646 C49.54,22.1446646 48.87,20.5746646 48.54,20.3746646 C48.21,20.1746646 46.79,20.6646646 44.43,22.8846646 C42.06,25.1046646 40.99,26.3146646 40.99,26.3146646 C40.99,26.3146646 45.03,22.3046646 47.71,21.2046646 L49.55,22.1446646 L49.54,22.1446646 Z" id="路径" fill="#A521BF" opacity="0.7" style="mix-blend-mode: multiply;"></path>
                            <path d="M45.36,20.3346646 C44.46,19.3746646 43.35,18.4446646 43.02,18.5846646 C42.69,18.7246646 40.35,19.3746646 38.11,23.0846646 C37.98,23.3046646 40.74,24.1646646 41.88,23.7146646 C42.62,23.4246646 46.04,21.0646646 45.36,20.3346646 Z" id="路径" fill="#FFFFFF" opacity="0.3" style="mix-blend-mode: soft-light;"></path>
                            <path d="M27.3,32.8046646 C27.9,34.6146646 29.91,35.3846646 30.88,35.2646646 C31.86,35.1346646 35.59,31.9446646 35.44,30.7946646 C35.3,29.6446646 32.87,29.1146646 31.9,29.6746646 C30.93,30.2346646 29.89,31.6346646 28.94,32.0546646 C27.98,32.4746646 27.18,32.4646646 27.29,32.8146646 L27.3,32.8046646 Z" id="路径" fill="#990000" opacity="0.3" style="mix-blend-mode: soft-light;"></path>
                            <path d="M27.8,23.4046646 C28.21,23.7546646 33.27,22.9846646 33.22,22.6646646 C33.17,22.3446646 31.91,21.4946646 29.64,22.0346646 C28.43,22.3246646 27.47,23.1246646 27.8,23.4046646 L27.8,23.4046646 Z" id="路径" fill="#FFFFFF"></path>
                        </g>
                        <circle id="椭圆形" fill="url(#radialGradient-35)" fill-rule="nonzero" opacity="0.5" style="mix-blend-mode: color-dodge;" transform="translate(76.824, 20.8949) rotate(-78.7) translate(-76.824, -20.8949)" cx="76.8240338" cy="20.8949412" r="17.43"></circle>
                        <circle id="椭圆形" fill="url(#radialGradient-36)" fill-rule="nonzero" opacity="0.5" style="mix-blend-mode: color-dodge;" transform="translate(72.6487, 72.0857) rotate(-76.82) translate(-72.6487, -72.0857)" cx="72.6486528" cy="72.0856822" r="17.43"></circle>
                        <circle id="椭圆形" fill="url(#radialGradient-37)" fill-rule="nonzero" opacity="0.5" style="mix-blend-mode: color-dodge;" transform="translate(24.0587, 21.3849) rotate(-76.62) translate(-24.0587, -21.3849)" cx="24.0587151" cy="21.38491" r="17.43"></circle>
                        <path d="M58.58,26.5746646 C58.58,26.5746646 65.41,28.2346646 70.47,34.6246646 L70.31,35.6346646 C70.31,35.6346646 65.11,29.3946646 58.59,26.5646646 L58.58,26.5746646 Z" id="路径" fill="#FF90FF" fill-rule="nonzero"></path>
                        <path d="M80.8,60.7346646 C80.8,60.7346646 80.8,72.0946646 73.48,85.7346646 C73.48,85.7346646 75.43,86.2246646 78.12,86.3046646 C78.12,86.3046646 75.05,86.7646646 72.67,86.1046646 C72.67,86.1046646 76.75,78.2246646 78.52,71.7846646 C80.45,64.8046646 80.8,60.7346646 80.8,60.7346646 Z" id="路径" fill="#FF90FF" fill-rule="nonzero"></path>
                        <path d="M73.13,98.9546646 C73.4,100.134665 75.52,99.4546646 75.52,98.0846646 C75.52,96.7146646 72.86,97.7746646 73.13,98.9546646 Z" id="路径" fill="#00FFFF" fill-rule="nonzero"></path>
                        <path d="M69.48,92.2346646 C68.77,93.4846646 71.14,94.4146646 71.09,93.2046646 C71.04,91.9946646 70.29,90.8146646 69.48,92.2346646 Z" id="路径" fill="#00FFFF" fill-rule="nonzero"></path>
                        <path d="M43.09,89.6246646 C43.78,90.7146646 46.25,91.2446646 45.85,89.2746646 C45.45,87.3046646 44.15,86.8346646 43.09,87.4246646 C42.03,88.0146646 42.03,87.9446646 43.09,89.6246646 Z" id="路径" fill="#00FFFF" fill-rule="nonzero"></path>
                        <path d="M92.29,43.6746646 C92.41,45.2746646 94.38,44.8346646 93.67,43.4846646 C92.96,42.1346646 92.2,42.5046646 92.29,43.6746646 Z" id="路径" fill="#00FFFF" fill-rule="nonzero"></path>
                        <path d="M12.33,39.5846646 C12.33,40.1846646 15.39,40.5046646 13.86,38.9046646 C12.33,37.3046646 12.33,37.9746646 12.33,39.5846646 Z" id="路径" fill="#00FFFF" fill-rule="nonzero"></path>
                        <path d="M42.29,91.5846646 C42,92.4146646 44.6,92.7946646 43.45,91.7446646 C42.3,90.6946646 43.01,89.5246646 42.29,91.5846646 Z" id="路径" fill="#00FFFF" fill-rule="nonzero"></path>
                    </g>
                </g>
            </g>
        </g>
    </g>
</svg>