<?xml version="1.0" encoding="UTF-8"?>
<svg width="90.97px" height="80.9371264px" viewBox="0 0 90.97 80.9371264" version="1.1" xmlns="http://www.w3.org/2000/svg" xmlns:xlink="http://www.w3.org/1999/xlink">
    <title>头像框 3</title>
    <defs>
        <linearGradient x1="49.9426186%" y1="0.0514418727%" x2="49.9426186%" y2="100.007185%" id="linearGradient-1">
            <stop stop-color="#FFBB00" offset="0%"></stop>
            <stop stop-color="#FF5319" offset="53%"></stop>
            <stop stop-color="#FF4000" offset="100%"></stop>
        </linearGradient>
        <linearGradient x1="49.9575274%" y1="-0.0723357428%" x2="49.9575274%" y2="100%" id="linearGradient-2">
            <stop stop-color="#FFECC7" offset="0%"></stop>
            <stop stop-color="#FFAE7A" offset="100%"></stop>
        </linearGradient>
        <linearGradient x1="100%" y1="49.9549566%" x2="0.0451263538%" y2="49.9549566%" id="linearGradient-3">
            <stop stop-color="#FFC79F" offset="0%"></stop>
            <stop stop-color="#B41E2D" offset="100%"></stop>
        </linearGradient>
        <linearGradient x1="50.0573814%" y1="0.0514418727%" x2="50.0573814%" y2="100.007185%" id="linearGradient-4">
            <stop stop-color="#FFBB00" offset="0%"></stop>
            <stop stop-color="#FF5319" offset="53%"></stop>
            <stop stop-color="#FF4000" offset="100%"></stop>
        </linearGradient>
        <linearGradient x1="50.0424726%" y1="-0.0723357428%" x2="50.0424726%" y2="100%" id="linearGradient-5">
            <stop stop-color="#FFECC7" offset="0%"></stop>
            <stop stop-color="#FFAE7A" offset="100%"></stop>
        </linearGradient>
        <linearGradient x1="0.0451263538%" y1="-385.806804%" x2="100%" y2="-385.806804%" id="linearGradient-6">
            <stop stop-color="#FFC79F" offset="0%"></stop>
            <stop stop-color="#B41E2D" offset="100%"></stop>
        </linearGradient>
        <linearGradient x1="49.9991348%" y1="4.73932123e-14%" x2="49.9991348%" y2="100%" id="linearGradient-7">
            <stop stop-color="#941F63" offset="0%"></stop>
            <stop stop-color="#AC3026" offset="100%"></stop>
        </linearGradient>
        <linearGradient x1="50.0073842%" y1="0%" x2="50.0073842%" y2="99.9845522%" id="linearGradient-8">
            <stop stop-color="#FFBB00" offset="0%"></stop>
            <stop stop-color="#FF5319" offset="53%"></stop>
            <stop stop-color="#FF4000" offset="100%"></stop>
        </linearGradient>
        <linearGradient x1="45.5%" y1="26%" x2="52.5%" y2="75%" id="linearGradient-9">
            <stop stop-color="#FA9300" offset="0%"></stop>
            <stop stop-color="#F66A00" offset="45%"></stop>
            <stop stop-color="#F63F00" offset="100%"></stop>
        </linearGradient>
        <radialGradient cx="40.4609811%" cy="3.13100028%" fx="40.4609811%" fy="3.13100028%" r="161.67229%" gradientTransform="translate(0.4046, 0.0313), scale(0.4303, 1), translate(-0.4046, -0.0313)" id="radialGradient-10">
            <stop stop-color="#FFBB00" offset="0%"></stop>
            <stop stop-color="#FF5319" offset="53%"></stop>
            <stop stop-color="#FF4000" offset="100%"></stop>
        </radialGradient>
        <linearGradient x1="50%" y1="-0.0493733249%" x2="50%" y2="99.9685314%" id="linearGradient-11">
            <stop stop-color="#FFECC7" offset="0%"></stop>
            <stop stop-color="#FFAE7A" offset="100%"></stop>
        </linearGradient>
        <linearGradient x1="38.5402263%" y1="43.3666685%" x2="68.5666664%" y2="54.4610819%" id="linearGradient-12">
            <stop stop-color="#FFC79F" offset="0%"></stop>
            <stop stop-color="#B41E2D" offset="100%"></stop>
        </linearGradient>
        <linearGradient x1="50.0187237%" y1="0%" x2="50.0187237%" y2="99.9205719%" id="linearGradient-13">
            <stop stop-color="#FFC79F" offset="0%"></stop>
            <stop stop-color="#B41E2D" offset="100%"></stop>
        </linearGradient>
        <radialGradient cx="49.9835693%" cy="50.0012639%" fx="49.9835693%" fy="50.0012639%" r="49.9936805%" id="radialGradient-14">
            <stop stop-color="#7A369E" offset="22%"></stop>
            <stop stop-color="#6B2F8B" offset="29%"></stop>
            <stop stop-color="#3D1B4F" offset="53%"></stop>
            <stop stop-color="#1C0C24" offset="74%"></stop>
            <stop stop-color="#070309" offset="90%"></stop>
            <stop stop-color="#000000" offset="100%"></stop>
        </radialGradient>
        <radialGradient cx="-903.472714%" cy="-34.8334515%" fx="-903.472714%" fy="-34.8334515%" r="111.12686%" id="radialGradient-15">
            <stop stop-color="#7A369E" offset="22%"></stop>
            <stop stop-color="#6B2F8B" offset="29%"></stop>
            <stop stop-color="#3D1B4F" offset="53%"></stop>
            <stop stop-color="#1C0C24" offset="74%"></stop>
            <stop stop-color="#070309" offset="90%"></stop>
            <stop stop-color="#000000" offset="100%"></stop>
        </radialGradient>
    </defs>
    <g id="👨‍👩‍👧‍👦-小队模块" stroke="none" stroke-width="1" fill="none" fill-rule="evenodd">
        <g id="小队模块/队员名片-已购" transform="translate(-803.41, -355.8393)">
            <g id="小队/边栏-道具面板" transform="translate(681, 40)">
                <g id="头像" transform="translate(101, 286)">
                    <g id="头像框" transform="translate(18, 18)">
                        <rect id="矩形" fill-opacity="0" fill="#D8D8D8" x="0" y="0" width="100" height="100"></rect>
                        <path d="M19.02,11.93 C15.55,15.63 17.14,30.77 17.75,34.1 C17.91,34.96 12.25,38.26 11.31,43.53 C11.07,44.88 11.31,45.08 11.31,45.08 L11.86,45.08 C11.86,45.08 10.37,49.52 11.86,53.04 C11.86,53.04 12.88,53.18 14.57,52.84 C14.57,52.84 16.27,61.45 20.85,67.48 C20.85,67.48 14.14,72.26 14.83,78.17 C15.71,85.77 21.51,87.92 21.51,87.92 C21.51,87.92 18.01,79.33 21,77.33 C23.99,75.33 27.12,70.31 27.12,70.31 C27.12,70.31 16.23,59.96 19.15,45.09 C22.07,30.23 23,22.29 23,22.29 L19.05,11.94 L19.02,11.93 Z" id="路径" fill="#FF90FF" fill-rule="nonzero"></path>
                        <path d="M80.87,11.93 C76.26,11.35 71.31,16.18 68.6,18.42 C65.88,20.66 64.04,19.53 64.04,19.53 L67.54,23.75 L80.87,11.93 L80.87,11.93 Z" id="路径" fill="#FF90FF" fill-rule="nonzero"></path>
                        <path d="M64.03,27.96 C64.03,27.96 74.64,36.92 74.81,49.91 C74.97,61.67 65.71,70.28 65.71,70.28 C65.71,70.28 77.56,64.43 77.5500063,49.79 C77.5500063,35.15 64.02,27.96 64.02,27.96 L64.03,27.96 Z" id="路径" fill="#FF90FF" fill-rule="nonzero"></path>
                        <g id="编组" transform="translate(11.8355, 11.8393)" fill-rule="nonzero">
                            <g id="路径">
                                <path d="M7.76452893,37.4706733 C6.98452893,39.5906733 4.76452893,40.1206733 2.98452893,40.1806733 C1.62452893,40.2306733 0.52452893,40.0006733 0.52452893,40.0006733 C-1.12547107,34.8806733 1.64452893,31.7306733 1.64452893,31.7306733 C1.26452893,32.0006733 0.91452893,32.1606733 0.62452893,32.2606733 C0.62452893,32.2606733 0.62452893,32.2606733 0.62452893,32.2606733 C0.26452893,32.3806733 0.0245289296,32.4006733 0.0245289296,32.4006733 C0.16452893,31.7906733 0.36452893,31.2006733 0.60452893,30.6506733 C1.78452893,27.9106733 3.95452893,25.9506733 5.47452893,24.8306733 C6.46452893,24.1006733 7.18452893,23.7206733 7.18452893,23.7206733 C6.70452893,21.7506733 6.34452893,19.6806733 6.09452893,17.6106733 C5.06452893,8.99067335 5.91452893,0.47067335 7.18452893,0.0706733497 C8.00452893,-0.18932665 10.1245289,0.16067335 13.9345289,2.96067335 C13.9345289,2.96067335 13.9545289,2.97067335 13.9645289,2.98067335 C14.0445289,3.04067335 14.1345289,3.11067335 14.2245289,3.17067335 C14.2245289,3.17067335 14.2245289,3.17067335 14.2345289,3.18067335 C15.7845289,4.34067335 17.6045289,5.90067335 19.7145289,7.97067335 C20.0945289,8.34067335 20.4945289,8.56067335 20.8645289,8.68067335 C21.6045289,8.93067335 22.1945289,8.79067335 22.1945289,8.79067335 C7.63452893,23.5706733 7.77452893,37.4406733 7.77452893,37.4406733 L7.76452893,37.4706733 Z" fill="url(#linearGradient-1)"></path>
                                <path d="M10.0545289,6.04067335 C9.02452893,5.96067335 10.1545289,16.3706733 11.8245289,19.2306733 L16.7945289,13.5406733 C16.7945289,13.5406733 14.3245289,6.38067335 10.0545289,6.04067335 Z" fill="url(#linearGradient-2)"></path>
                                <path d="M22.1745289,8.81067335 C22.1745289,8.81067335 20.8545289,9.12067335 19.7045289,7.99067335 C17.5945289,5.92067335 15.7745289,4.36067335 14.2245289,3.20067335 C15.4945289,4.21067335 17.3145289,6.49067335 16.6945289,7.21067335 C16.5345289,7.40067335 13.6745289,5.52067335 13.2245289,5.18067335 C11.5945289,3.93067335 8.66452893,2.70067335 8.43452893,3.55067335 C7.79452893,6.01067335 9.83452893,11.2306733 9.83452893,11.2306733 C9.83452893,11.2306733 9.61452893,8.44067335 10.8345289,8.08067335 C12.1645289,7.69067335 14.6845289,9.68067335 15.6145289,11.2906733 C16.0245289,11.9906733 16.1245289,12.7506733 15.9945289,13.1106733 C15.7845289,13.6906733 13.0145289,16.3506733 11.8145289,16.0806733 C11.0845289,15.9106733 10.3145289,14.4106733 9.97452893,11.6906733 C9.97452893,11.6906733 9.97452893,13.6206733 10.8945289,16.7806733 C11.3145289,18.2106733 6.78452893,22.0106733 6.08452893,17.6406733 C6.33452893,19.7106733 6.68452893,21.7806733 7.17452893,23.7506733 C7.17452893,23.7506733 6.45452893,24.1206733 5.46452893,24.8606733 C9.20452893,22.4906733 4.25452893,28.6506733 2.49452893,29.7006733 C0.92452893,30.6406733 0.59452893,30.6806733 0.59452893,30.6806733 C0.35452893,31.2306733 0.15452893,31.8106733 0.0145289296,32.4306733 C0.0145289296,32.4306733 0.25452893,32.4206733 0.61452893,32.2906733 C0.61452893,32.2906733 0.61452893,32.2906733 0.61452893,32.2906733 C0.98452893,32.0906733 1.42452893,32.0206733 1.63452893,31.7606733 C2.82452893,30.2306733 3.89452893,30.0006733 3.89452893,30.0006733 C3.89452893,30.0006733 3.55452893,31.7506733 2.96452893,34.3906733 C1.91452893,39.1206733 0.50452893,40.0306733 0.50452893,40.0306733 C0.50452893,40.0306733 6.37452893,41.2306733 7.74452893,37.4906733 C7.74452893,37.4906733 7.60452893,23.6106733 22.1645289,8.84067335 L22.1745289,8.81067335 Z" fill="url(#linearGradient-3)" opacity="0.42" style="mix-blend-mode: multiply;"></path>
                                <path d="M9.98452893,11.6506733 C9.90452893,11.2206733 9.86452893,10.9006733 9.84452893,10.8106733 C9.86452893,10.9106733 9.91452893,11.2206733 9.98452893,11.6506733 Z" fill="#B41E2D" opacity="0.42" style="mix-blend-mode: multiply;"></path>
                                <path d="M10.8945289,1.38067335 C10.8245289,2.99067335 13.0645289,3.41067335 13.2345289,3.00067335 C13.4045289,2.59067335 10.9145289,0.83067335 10.8945289,1.38067335 L10.8945289,1.38067335 Z" fill="#FFFFFF"></path>
                                <path d="M7.76452893,37.4706733 C6.98452893,39.5906733 4.76452893,40.1206733 2.98452893,40.1806733 C6.51452893,39.1406733 -1.41547107,37.1406733 8.16452893,22.5706733 C12.0245289,16.6906733 17.5445289,11.6506733 20.8545289,8.71067335 C21.5945289,8.96067335 22.1845289,8.82067335 22.1845289,8.82067335 C7.62452893,23.6006733 7.76452893,37.4706733 7.76452893,37.4706733 L7.76452893,37.4706733 Z" fill="#A52188" opacity="0.5" style="mix-blend-mode: multiply;"></path>
                            </g>
                            <g transform="translate(54.0245, 0)" id="路径">
                                <path d="M14.43,37.4706733 C15.21,39.5906733 17.43,40.1206733 19.21,40.1806733 C20.57,40.2306733 21.67,40.0006733 21.67,40.0006733 C23.32,34.8806733 20.55,31.7306733 20.55,31.7306733 C20.93,32.0006733 21.28,32.1606733 21.57,32.2606733 C21.57,32.2606733 21.57,32.2606733 21.57,32.2606733 C21.93,32.3806733 22.17,32.4006733 22.17,32.4006733 C22.03,31.7906733 21.83,31.2006733 21.59,30.6506733 C20.41,27.9106733 18.24,25.9506733 16.72,24.8306733 C15.73,24.1006733 15.01,23.7206733 15.01,23.7206733 C15.49,21.7506733 15.85,19.6806733 16.1,17.6106733 C17.13,8.99067335 16.28,0.47067335 15.01,0.0706733497 C14.19,-0.18932665 12.07,0.16067335 8.26,2.96067335 C8.26,2.96067335 8.24,2.97067335 8.23,2.98067335 C8.15,3.04067335 8.06,3.11067335 7.97,3.17067335 C7.97,3.17067335 7.97,3.17067335 7.96,3.18067335 C6.41,4.34067335 4.59,5.90067335 2.48,7.97067335 C2.1,8.34067335 1.7,8.56067335 1.33,8.68067335 C0.59,8.93067335 0,8.79067335 0,8.79067335 C14.56,23.5706733 14.42,37.4406733 14.42,37.4406733 L14.43,37.4706733 Z" fill="url(#linearGradient-4)"></path>
                                <path d="M12.14,6.04067335 C13.17,5.96067335 12.04,16.3706733 10.37,19.2306733 L5.4,13.5406733 C5.4,13.5406733 7.87,6.38067335 12.14,6.04067335 Z" fill="url(#linearGradient-5)"></path>
                                <path d="M0.01,8.81067335 C0.01,8.81067335 1.33,9.12067335 2.48,7.99067335 C4.59,5.92067335 6.41,4.36067335 7.96,3.20067335 C6.69,4.21067335 4.87,6.49067335 5.49,7.21067335 C5.65,7.40067335 8.51,5.52067335 8.96,5.18067335 C10.59,3.93067335 13.52,2.70067335 13.75,3.55067335 C14.39,6.01067335 12.35,11.2306733 12.35,11.2306733 C12.35,11.2306733 12.57,8.44067335 11.35,8.08067335 C10.02,7.69067335 7.5,9.68067335 6.57,11.2906733 C6.16,11.9906733 6.06,12.7506733 6.19,13.1106733 C6.4,13.6906733 9.17,16.3506733 10.37,16.0806733 C11.1,15.9106733 11.87,14.4106733 12.21,11.6906733 C12.21,11.6906733 12.21,13.6206733 11.29,16.7806733 C10.87,18.2106733 15.4,22.0106733 16.1,17.6406733 C15.85,19.7106733 15.5,21.7806733 15.01,23.7506733 C15.01,23.7506733 15.73,24.1206733 16.72,24.8606733 C12.98,22.4906733 17.93,28.6506733 19.69,29.7006733 C21.26,30.6406733 21.59,30.6806733 21.59,30.6806733 C21.83,31.2306733 22.03,31.8106733 22.17,32.4306733 C22.17,32.4306733 21.93,32.4206733 21.57,32.2906733 C21.57,32.2906733 21.57,32.2906733 21.57,32.2906733 C21.2,32.0906733 20.76,32.0206733 20.55,31.7606733 C19.36,30.2306733 18.29,30.0006733 18.29,30.0006733 C18.29,30.0006733 18.63,31.7506733 19.22,34.3906733 C20.27,39.1206733 21.68,40.0306733 21.68,40.0306733 C21.68,40.0306733 15.81,41.2306733 14.44,37.4906733 C14.44,37.4906733 14.58,23.6106733 0.02,8.84067335 L0.01,8.81067335 Z" fill="url(#linearGradient-6)" opacity="0.42" style="mix-blend-mode: multiply;"></path>
                                <path d="M12.21,11.6506733 C12.29,11.2206733 12.33,10.9006733 12.35,10.8106733 C12.33,10.9106733 12.28,11.2206733 12.21,11.6506733 Z" fill="#B41E2D" opacity="0.42" style="mix-blend-mode: multiply;"></path>
                                <path d="M11.3,1.38067335 C11.37,2.99067335 9.13,3.41067335 8.96,3.00067335 C8.79,2.59067335 11.28,0.83067335 11.3,1.38067335 Z" fill="#FFFFFF"></path>
                                <path d="M14.43,37.4706733 C15.21,39.5906733 17.43,40.1206733 19.21,40.1806733 C15.68,39.1406733 23.61,37.1406733 14.03,22.5706733 C10.17,16.6906733 4.65,11.6506733 1.34,8.71067335 C0.6,8.96067335 0.01,8.82067335 0.01,8.82067335 C14.57,23.6006733 14.43,37.4706733 14.43,37.4706733 L14.43,37.4706733 Z" fill="#A52188" opacity="0.5" style="mix-blend-mode: multiply;"></path>
                            </g>
                            <g transform="translate(4.4336, 4.1807)">
                                <path d="M33.7708836,3.51 C21.7608836,3.51 12.0808836,10.96 5.38088363,20.24 C0.110883629,27.55 1.96088363,38.24 5.81088363,45.76 C6.49088363,47.09 7.25088363,48.38 8.10088363,49.61 C13.6108836,57.7 22.4108836,63.47 32.4508836,63.48 C42.4408836,63.48 50.3908836,59.28 55.7808836,52.68 C60.4308836,46.99 63.1808836,39.51 63.7208836,31.4 C64.6908836,16.92 47.0408836,3.51 33.7808836,3.51 L33.7708836,3.51 Z M35.1108836,59.200495 C26.4708836,59.25 17.4308836,55.51 12.1108836,48.86 C9.41088363,45.48 7.67088363,41.36 7.42088363,36.61 C6.68088363,22.13 19.0608836,8.05 33.7108836,7.4 C47.3208836,6.8 60.0208836,21 60.0208836,34.03 C60.0208836,40.88 57.0108836,47.29 52.2908836,51.92 C47.7708836,56.35 41.6708836,59.16 35.1208836,59.200495 L35.1108836,59.200495 Z" id="形状" fill="url(#linearGradient-7)"></path>
                                <path d="M33.7708836,0 C16.3308836,0 0.120883629,16.46 0.000883629221,33.78 C-0.0191163708,36.13 0.300883629,38.72 0.910883629,41 L0.910883629,41 C0.910883629,41 0.910883629,41.01 0.910883629,41.02 C1.79088363,44.63 3.36088363,48.09 5.46088363,51.26 C11.7208836,60.7 22.6508836,67.49 33.7708836,67.5604366 C44.2108836,67.62 54.2408836,61.49 60.6208836,53.08 C62.8708836,50.11 64.6708836,46.86 65.8808836,43.5 C65.8808836,43.47 65.9008836,43.44 65.9108836,43.42 C66.1608836,42.71 66.3708836,41.97 66.5708836,41.24 C66.5908836,41.15 66.6208836,41.05 66.6408836,40.95 C66.6408836,40.95 66.6408836,40.95 66.6408836,40.95 C67.2408836,38.69 67.5508836,36.12 67.5308836,33.79 C67.4108836,16.47 51.1908836,0.01 33.7608836,0.01 L33.7708836,0 Z M33.7708836,61.29 C24.9108836,61.23 16.3708836,56.14 11.2208836,48.84 C8.10088363,44.42 6.22088363,39.19 6.2505299,33.77 C6.26088363,32.17 6.40088363,30.58 6.70088363,29.05 L6.70088363,29.05 C9.18088363,16.71 20.9408836,6.11 33.7608836,6.25 C46.1908836,6.38 58.1108836,16.1 60.6808836,28.35 C60.6808836,28.35 60.6808836,28.35 60.6808836,28.36 C60.6808836,28.36 60.6808836,28.36 60.6808836,28.36 C61.0708836,30.11 61.2708836,31.91 61.2708836,33.76 C61.2708836,40.6 58.2708836,47.2 53.5708836,52.22 C48.4308836,57.72 41.2608836,61.32 33.7508836,61.27 L33.7708836,61.29 Z" id="形状" fill="url(#linearGradient-8)"></path>
                                <path d="M60.6908836,28.37 C58.1308836,16.11 46.2008836,6.39 33.7708836,6.26 C20.9408836,6.12 9.19088363,16.72 6.71088363,29.05 C8.28088363,15.53 20.2108836,4.9 33.7408836,4.9 C47.2108836,4.9 58.5908836,15.14 60.7008836,28.37 L60.6908836,28.37 Z" id="路径" fill="#B41E2D" opacity="0.42" style="mix-blend-mode: multiply;"></path>
                                <path d="M65.8808836,43.49 C65.8808836,43.49 56.3808836,67.55 33.7708836,67.55 C18.9308836,67.55 4.42088363,55.39 0.910883629,41.02 C5.45088363,54.41 18.2508836,66.72 32.9208836,66.72 C55.4708836,66.72 65.8808836,43.5 65.8808836,43.5 L65.8808836,43.49 Z" id="路径" fill="#B41E2D" opacity="0.42" style="mix-blend-mode: multiply;"></path>
                                <path d="M66.6808836,40.71 C66.6808836,40.71 66.6708836,40.81 66.6508836,40.94 C66.6508836,40.94 66.6508836,40.94 66.6508836,40.94 C66.6308836,41.03 66.6008836,41.13 66.5808836,41.22 C66.6408836,40.89 66.6808836,40.72 66.6908836,40.7 L66.6808836,40.71 Z" id="路径" fill="url(#linearGradient-9)"></path>
                                <path d="M4.87088363,18.69 C3.65088363,20.59 6.54088363,23.93 7.26088363,23.37 C11.2508836,20.31 12.9408836,12.6 18.8408836,8.81 C27.4108836,3.3 38.1208836,3.61 46.9608836,7.58 C53.6308836,10.58 58.0708836,19.98 60.6508836,25.25 C61.6608836,27.31 64.9208836,23.05 64.2808836,21.38 C60.2708836,10.92 46.5208836,0.18 34.9208836,0.12 C21.3108836,0.05 11.9208836,7.7 4.88088363,18.69 L4.87088363,18.69 Z" id="路径" fill="#FFFFFF" opacity="0.3" style="mix-blend-mode: soft-light;"></path>
                                <path d="M53.0308836,58.87 C52.6208836,58.04 45.5708836,61.55 46.9708836,62.45 C47.6808836,62.91 53.3508836,59.51 53.0308836,58.87 Z" id="路径" fill="#FFFFFF" style="mix-blend-mode: soft-light;"></path>
                                <path d="M36.3408836,61.29 C36.3408836,61.29 44.8008836,60.12 48.1908836,57.88 C51.5308836,55.67 56.3908836,48.86 56.3908836,48.86 C48.1508836,60.44 36.3408836,61.29 36.3408836,61.29 Z" id="路径" fill="#D2FFF1"></path>
                                <path d="M14.8608836,12.58 C14.8608836,12.58 20.6408836,7.45 29.0308836,5.26 C29.0308836,5.26 23.0108836,6.05 20.6408836,7.45 C18.5508836,8.69 14.8608836,12.58 14.8608836,12.58 Z" id="路径" fill="#D2FFF1"></path>
                                <path d="M14.8208836,7.52 C15.0708836,8.2 18.0508836,6.98 18.6408836,6.49 C19.2408836,6 20.1908836,4.86 19.4108836,4.65 C18.6308836,4.44 14.5708836,6.87 14.8108836,7.53 L14.8208836,7.52 Z" id="路径" fill="#FFFFFF"></path>
                                <path d="M60.6908836,52.63 C60.6908836,52.63 60.6708836,52.78 60.6208836,53.07 C54.2308836,61.48 44.2008836,67.61 33.7708836,67.55 C22.6608836,67.48 11.7208836,60.7 5.46088363,51.25 C6.37088363,50.5 7.27088363,49.97 8.10088363,49.61 C9.39088363,49.05 10.5008836,48.88 11.2208836,48.84 C11.7608836,48.81 12.0808836,48.85 12.1108836,48.86 C17.4308836,55.51 26.4708836,59.25 35.1108836,59.2 C41.6608836,59.16 47.7608836,56.35 52.2808836,51.92 C52.7408836,52.04 53.1808836,52.15 53.5908836,52.25 C54.4008836,52.44 55.1308836,52.58 55.7708836,52.69 C59.6608836,53.33 60.6908836,52.64 60.6908836,52.64 L60.6908836,52.63 Z" id="路径" fill="#A52188" opacity="0.5" style="mix-blend-mode: multiply;"></path>
                            </g>
                            <g transform="translate(3.7682, 52.7718)" id="路径">
                                <path d="M65.4363538,5.6888559 C65.3363538,7.3488559 63.7963538,10.7788559 61.9563538,12.0388559 C47.4463538,21.9288559 30.5563538,12.4488559 24.3463538,13.9188559 C18.1363538,15.3888559 15.1763538,26.2788559 22.2463538,27.2388559 C22.2463538,27.2388559 20.7763538,28.4588559 17.9363538,28.0988559 C11.9263538,27.3388559 9.53635381,22.9388559 8.48635381,20.8388559 C7.43635381,18.7388559 8.00635381,24.1888559 10.2063538,25.8088559 C10.2063538,25.8088559 4.78635381,23.3988559 1.91635381,19.6288559 C1.40635381,18.9588559 0.976353814,18.2488559 0.666353814,17.4988559 C0.426353814,16.9188559 0.256353814,16.3188559 0.146353814,15.7088559 L0.146353814,15.7088559 C-0.693646186,11.0888559 2.05635381,5.8088559 9.06635381,2.6888559 C16.9963538,-0.851144098 23.4963538,-0.941144098 38.6863538,2.6888559 C47.8163538,4.8688559 53.3363538,5.5488559 56.6363538,5.5388559 C58.8263538,5.5388559 60.0463538,5.2288559 60.6863538,4.8588559 C60.6863538,4.8588559 62.4263538,2.9588559 64.0763538,0.288855902 C64.0763538,0.288855902 65.5363538,4.0488559 65.4463538,5.7088559 L65.4363538,5.6888559 Z" fill="url(#radialGradient-10)"></path>
                                <path d="M22.2463538,27.2288559 C22.2463538,27.2288559 20.7763538,28.4488559 17.9363538,28.0888559 C11.9263538,27.3288559 9.53635381,22.9288559 8.48635381,20.8288559 C7.43635381,18.7288559 8.00635381,24.1788559 10.2063538,25.7988559 C10.2063538,25.7988559 2.68635381,22.4588559 0.666353814,17.4888559 C0.426353814,16.9088559 0.256353814,16.3088559 0.146353814,15.6988559 C0.666353814,17.4888559 1.08635381,17.4888559 1.58635381,17.0088559 C2.08635381,16.5288559 5.38635381,12.7088559 5.38635381,12.7088559 C4.07635381,14.2188559 4.25635381,16.1588559 5.24635381,16.8188559 C5.85635381,17.2188559 6.57635381,11.9488559 10.7863538,9.3688559 C14.9963538,6.7888559 15.9463538,7.7488559 15.6563538,8.2188559 C15.3663538,8.6988559 8.92635381,14.5788559 10.9763538,20.4488559 C10.9763538,20.4488559 13.0863538,14.8888559 16.2263538,13.9188559 C17.6563538,13.4788559 17.2763538,16.0588559 17.2763538,16.0588559 C18.0363538,16.1588559 19.1863538,13.9888559 24.3463538,13.9188559 C18.1363538,15.3888559 15.1763538,26.2788559 22.2463538,27.2388559 L22.2463538,27.2288559 Z" fill="url(#linearGradient-11)"></path>
                                <path d="M65.4363538,5.6888559 C65.3363538,7.3488559 63.7963538,10.7788559 61.9563538,12.0388559 C47.4463538,21.9288559 30.5563538,12.4488559 24.3463538,13.9188559 C18.1363538,15.3888559 15.1763538,26.2788559 22.2463538,27.2388559 C22.2463538,27.2388559 20.7763538,28.4588559 17.9363538,28.0988559 C11.9263538,27.3388559 9.53635381,22.9388559 8.48635381,20.8388559 C7.43635381,18.7388559 8.00635381,24.1888559 10.2063538,25.8088559 C10.2063538,25.8088559 4.78635381,23.3988559 1.91635381,19.6288559 C1.91635381,19.6288559 4.60635381,22.5488559 4.11635381,20.0588559 C2.53635381,12.0888559 6.92635381,11.8588559 10.7863538,9.3788559 C6.38635381,12.3888559 6.15635381,17.8188559 10.5263538,23.3088559 C12.8263538,26.1988559 14.3563538,25.5788559 14.4663538,24.5988559 C15.0063538,19.7388559 17.1463538,16.7488559 17.2863538,16.0688559 C18.3363538,10.9588559 21.2263538,6.6888559 26.0763538,5.7088559 C36.7763538,3.5488559 46.3763538,16.1188559 54.1663538,14.0888559 C61.9563538,12.0588559 65.4463538,4.3188559 57.0663538,5.7088559 C56.9063538,5.7388559 56.7763538,5.6088559 56.6463538,5.5388559 C58.8363538,5.5388559 60.0563538,5.2288559 60.6963538,4.8588559 C60.6963538,4.8588559 62.4363538,2.9588559 64.0863538,0.288855902 C64.0863538,0.288855902 65.5463538,4.0488559 65.4563538,5.7088559 L65.4363538,5.6888559 Z" fill="url(#linearGradient-12)" opacity="0.61" style="mix-blend-mode: multiply;"></path>
                                <path d="M15.6263538,7.8588559 C12.5963538,8.3488559 9.83635381,12.4188559 10.2263538,15.6188559 C10.6163538,18.8188559 10.9663538,20.4488559 10.9663538,20.4488559 C10.9663538,20.4488559 11.1063538,17.3088559 12.5963538,13.7588559 C13.9263538,10.6188559 16.5563538,7.7188559 15.6263538,7.8688559 L15.6263538,7.8588559 Z" fill="url(#linearGradient-13)" opacity="0.42" style="mix-blend-mode: multiply;"></path>
                                <path d="M48.2163538,5.3688559 C32.0063538,2.3488559 26.9263538,-2.7311441 13.4563538,1.9288559 C13.4563538,1.9288559 19.6163538,-0.221144098 27.0063538,1.9288559 C27.0063538,1.9288559 20.6263538,-0.0011440983 10.7363538,6.4888559 C10.7363538,6.4888559 21.4963538,-0.921144098 32.0963538,4.8688559 C42.6963538,10.6588559 51.0163538,14.8288559 54.7463538,13.1788559 C58.4763538,11.5288559 59.0763538,6.8288559 59.0763538,6.8288559 C59.0763538,6.8288559 57.3963538,12.5388559 51.1663538,11.4588559 C44.9263538,10.3888559 36.6863538,5.6888559 36.6863538,5.6888559 C36.6863538,5.6888559 46.6463538,10.4588559 51.5263538,9.5988559 C56.3963538,8.7388559 57.9763538,6.4788559 57.9763538,6.4788559 C57.9763538,6.4788559 52.1363538,6.0888559 48.2263538,5.3588559 L48.2163538,5.3688559 Z" fill="#FFFFFF" opacity="0.3" style="mix-blend-mode: soft-light;"></path>
                                <path d="M46.3263538,15.4688559 C44.8963538,12.4988559 30.7163538,3.1588559 23.9763538,6.3188559 C20.1463538,8.1088559 18.2263538,14.4288559 19.9563538,14.2088559 C21.1063538,14.0688559 24.3563538,12.6688559 28.3663538,13.0788559 C33.9663538,13.6588559 47.4763538,17.8288559 46.3263538,15.4688559 L46.3263538,15.4688559 Z" fill="#990000" opacity="0.3" style="mix-blend-mode: soft-light;"></path>
                                <path d="M38.9663538,14.3288559 C42.4163538,15.0788559 36.3163538,4.1588559 25.6363538,7.6388559 C22.4463538,8.6788559 20.9063538,13.2788559 23.1263538,12.6988559 C25.3463538,12.1188559 31.5163538,12.6988559 38.9663538,14.3288559 Z" fill="#990000" opacity="0.3" style="mix-blend-mode: soft-light;"></path>
                            </g>
                        </g>
                        <path d="M4.47,49.47 C5.18,52.48 6.83,50.54 6.83,48.91 C6.83,47.28 3.77,46.46 4.47,49.47 L4.47,49.47 Z" id="路径" fill="#00FFFF" fill-rule="nonzero"></path>
                        <path d="M64.03,87.9 C63.59,90.21 68.11,89.37 67.17,87.9 C66.23,86.43 64.67,84.52 64.03,87.9 Z" id="路径" fill="#00FFFF" fill-rule="nonzero"></path>
                        <path d="M84.47,74.47 C84.11,76.22 85.8,76.13 86.27,74.21 C86.74,72.28 84.8,72.89 84.47,74.47 Z" id="路径" fill="#00FFFF" fill-rule="nonzero"></path>
                        <path d="M84.43,68.82 C84.43,68.82 85.45,68.82 85.39,67.14 C85.33,65.45 83.76,66.77 84.43,68.82 Z" id="路径" fill="#00FFFF" fill-rule="nonzero"></path>
                        <circle id="椭圆形" fill="url(#radialGradient-14)" fill-rule="nonzero" style="mix-blend-mode: color-dodge;" cx="74.6" cy="64.66" r="19.78"></circle>
                        <circle id="椭圆形" fill="url(#radialGradient-15)" fill-rule="nonzero" style="mix-blend-mode: color-dodge;" cx="17.52" cy="37.65" r="14.11"></circle>
                    </g>
                </g>
            </g>
        </g>
    </g>
</svg>