<?xml version="1.0" standalone="no"?><!DOCTYPE svg PUBLIC "-//W3C//DTD SVG 1.1//EN" "http://www.w3.org/Graphics/SVG/1.1/DTD/svg11.dtd"><svg t="1669771167801" class="icon" viewBox="0 0 1024 1024" version="1.1" xmlns="http://www.w3.org/2000/svg" p-id="923" xmlns:xlink="http://www.w3.org/1999/xlink" width="128" height="128"><path d="M510.5 261.4c-66.3 0-120.1 53.8-120.1 120.1v58.2h240.2v-58.2c0-66.3-53.7-120.1-120.1-120.1zM510.5 526.1c-26.5 0-48.1 21.5-48.1 48.1 0 17.8 9.6 33.2 24 41.6v63.4c0 13.3 10.7 24 24 24s24-10.7 24-24v-63.4c14.3-8.4 24-23.8 24-41.6 0.2-26.6-21.3-48.1-47.9-48.1z" p-id="924" fill="#508BFE"></path><path d="M512.5 8.9C234.6 8.9 9.4 234.1 9.4 512s225.2 503.1 503.1 503.1 503.1-225.2 503.1-503.1S790.4 8.9 512.5 8.9z m237.4 729c0 31.4-25.6 56.9-57 56.9H328.2c-31.5 0-57-25.5-57-56.9V496.6c0-31.4 25.6-56.9 57-56.9h14.2v-56.5c0-97.5 75.3-171.8 168.1-171.8s168.1 74.2 168.1 171.8v56.5h14.2c31.5 0 57 25.5 57 56.9l0.1 241.3z" p-id="925" fill="#508BFE"></path></svg>