<?xml version="1.0" standalone="no"?><!DOCTYPE svg PUBLIC "-//W3C//DTD SVG 1.1//EN" "http://www.w3.org/Graphics/SVG/1.1/DTD/svg11.dtd"><svg class="icon" width="200px" height="200.00px" viewBox="0 0 1024 1024" version="1.1" xmlns="http://www.w3.org/2000/svg"><path d="M0 512c0 282.7776 229.2224 512 512 512s512-229.2224 512-512S794.7776 0 512 0 0 229.2224 0 512z" fill="#508BFE" /><path d="M281.2928 637.0816c-0.1024-1.792-0.2048-3.4816-0.2048-5.2736 0-31.0272 21.4016-57.7024 52.6336-70.656l6.8608-2.56c19.6096-7.7824 36.4032-22.6816 42.7008-39.7824 9.216-25.3952-7.9872-45.9264-38.5024-45.9264-7.68 0.1024-15.2576 1.3312-22.5792 3.584h-0.1024c-44.032 12.6464-80.5888 40.2432-102.7072 76.544a150.3744 150.3744 0 0 0-22.1696 72.4992 213.5552 213.5552 0 0 1 84.0704 11.5712z m367.3088-409.6a190.6688 190.6688 0 0 0-94.72 24.9344c-50.176 28.8768-83.8656 79.7696-83.8656 137.7792v241.6128c0 39.0144-34.2016 71.3728-78.8992 77.568 21.1968 23.3472 36.6592 49.152 45.6704 75.008 11.52-3.8912 22.6304-8.9088 33.2288-14.848 50.2784-28.7232 83.968-79.7184 83.968-137.9328V390.2976c0-43.52 42.24-78.7968 94.4128-78.7968 52.224 0 94.5152 35.328 94.5152 78.7968 0 32.2048-23.296 60.0064-56.6272 72.0896-21.6064 7.3216-39.168 22.8352-45.8752 41.216-9.216 25.2928 7.8848 45.7216 38.0928 45.7216 7.0144-0.1024 13.8752-1.2288 20.5824-3.1232l3.328-0.9216a176.6912 176.6912 0 0 0 101.9904-76.1856c14.6944-23.552 22.528-50.8928 22.528-78.7968 0.0512-89.8048-80.0256-162.816-178.3296-162.816z" fill="#FFFFFF" /><path d="M375.5008 710.5024c-50.1248 0-90.9824-32.4096-94.3104-73.4208a211.1488 211.1488 0 0 0-84.0704-11.4688c-0.1024 1.9968-0.1024 4.096-0.1024 6.0928 0 89.8048 80.0768 162.816 178.3808 162.816 20.8896 0.1024 41.6768-3.4304 61.44-10.0352a220.3648 220.3648 0 0 0-45.7216-75.008c-5.12 0.7168-10.3424 1.024-15.616 1.024z" fill="#FFFFFF" /></svg>