<?xml version="1.0" standalone="no"?><!DOCTYPE svg PUBLIC "-//W3C//DTD SVG 1.1//EN" "http://www.w3.org/Graphics/SVG/1.1/DTD/svg11.dtd"><svg t="1652921737242" class="icon" viewBox="0 0 1024 1024" version="1.1" xmlns="http://www.w3.org/2000/svg" p-id="1123" xmlns:xlink="http://www.w3.org/1999/xlink" width="200" height="200"><defs><style type="text/css"></style></defs><path d="M168 32c-12 0-24.8 4.8-33.6 14.4C124.8 55.2 120 68 120 80v864c0 12 4.8 24.8 14.4 33.6 9.6 9.6 21.6 14.4 33.6 14.4h704c12 0 24.8-4.8 33.6-14.4 9.6-9.6 14.4-21.6 14.4-33.6V304L648 32H168z" fill="#FFAC33" p-id="1124"></path><path d="M920 304H696c-12 0-24.8-4.8-33.6-14.4-9.6-8.8-14.4-21.6-14.4-33.6V32l272 272z" fill="#FFDEAD" p-id="1125"></path><path d="M788.8 714.4c-18.4 0-34.4 12.8-38.4 29.6-54.4 9.6-166.4 17.6-255.2-53.6 1.6-4 2.4-8.8 2.4-12.8 0-22.4-17.6-40-40-40-4 0-7.2 0.8-11.2 1.6-68.8-93.6-71.2-211.2-67.2-268.8 17.6-4.8 29.6-20 29.6-38.4 0-22.4-17.6-40-40-40s-40 17.6-40 40c0 13.6 7.2 26.4 18.4 33.6-4.8 54.4-4 160.8 49.6 256.8L287.2 512c1.6-3.2 2.4-6.4 2.4-10.4 0-13.6-10.4-24-24-24s-24 10.4-24 24 10.4 24 24 24c4 0 7.2-0.8 10.4-2.4l143.2 143.2c-0.8 3.2-1.6 7.2-1.6 11.2 0 22.4 17.6 40 40 40 4 0 7.2-0.8 11.2-1.6l143.2 143.2c-1.6 3.2-2.4 6.4-2.4 10.4 0 13.6 10.4 24 24 24s24-10.4 24-24-10.4-24-24-24c-4 0-7.2 0.8-10.4 2.4L522.4 746.4c53.6 28 109.6 36.8 156.8 36.8 30.4 0 56.8-3.2 76.8-7.2 7.2 11.2 19.2 18.4 33.6 18.4 22.4 0 40-17.6 40-40s-18.4-40-40.8-40z" fill="#FFFFFF" p-id="1126"></path></svg>
