<?xml version="1.0" encoding="UTF-8"?>
<svg width="188px" height="170px" viewBox="0 0 188 170" version="1.1" xmlns="http://www.w3.org/2000/svg" xmlns:xlink="http://www.w3.org/1999/xlink">
    <title>zip</title>
    <g id="页面-1" stroke="none" stroke-width="1" fill="none" fill-rule="evenodd">
        <g id="编组" transform="translate(0.250000, 0.625000)">
            <g id="zip" fill-rule="nonzero">
                <path d="M178.125,168.75 L9.375,168.75 C4.21875,168.75 0,165.15625 0,160.78125 L0,112.5 L187.5,112.5 L187.5,160.78125 C187.5,165.15625 183.28125,168.75 178.125,168.75 Z" id="路径" fill="#5ACC9B"></path>
                <path d="M9.375,0 L178.125,0 C183.28125,0 187.5,3.59375 187.5,7.96875 L187.5,56.25 L0,56.25 L0,7.96875 C0,3.59375 4.21875,0 9.375,0 Z" id="路径" fill="#6CCBFF"></path>
                <polygon id="路径" fill="#FFD766" points="0 56.25 187.5 56.25 187.5 112.5 0 112.5"></polygon>
                <polygon id="路径" fill="#FF5562" points="62.5 0 125 0 125 168.75 62.5 168.75"></polygon>
                <path d="M80.46875,9.375 L92.96875,9.375 L92.96875,18.75 L80.46875,18.75 L80.46875,9.375 Z M92.96875,0 L105.46875,0 L105.46875,9.375 L92.96875,9.375 L92.96875,0 Z M92.96875,18.75 L105.46875,18.75 L105.46875,28.125 L92.96875,28.125 L92.96875,18.75 Z M80.46875,28.125 L92.96875,28.125 L92.96875,37.5 L80.46875,37.5 L80.46875,28.125 Z M92.96875,37.5 L105.46875,37.5 L105.46875,46.875 L92.96875,46.875 L92.96875,37.5 Z M80.46875,46.875 L92.96875,46.875 L92.96875,56.25 L80.46875,56.25 L80.46875,46.875 Z M92.96875,56.25 L105.46875,56.25 L105.46875,65.625 L92.96875,65.625 L92.96875,56.25 Z M80.46875,65.625 L92.96875,65.625 L92.96875,75 L80.46875,75 L80.46875,65.625 Z M92.96875,75 L105.46875,75 L105.46875,84.375 L92.96875,84.375 L92.96875,75 Z M80.46875,84.375 L92.96875,84.375 L92.96875,93.75 L80.46875,93.75 L80.46875,84.375 Z M92.96875,93.75 L105.46875,93.75 L105.46875,103.125 L92.96875,103.125 L92.96875,93.75 Z M80.46875,103.125 L92.96875,103.125 L92.96875,112.5 L80.46875,112.5 L80.46875,103.125 Z M92.96875,112.5 L105.46875,112.5 L105.46875,121.875 L92.96875,121.875 L92.96875,112.5 Z M80.46875,121.875 L92.96875,121.875 L92.96875,131.25 L80.46875,131.25 L80.46875,121.875 Z M92.96875,131.25 L105.46875,131.25 L105.46875,140.625 L92.96875,140.625 L92.96875,131.25 Z M80.46875,140.625 L92.96875,140.625 L92.96875,150 L80.46875,150 L80.46875,140.625 Z M80.46875,159.375 L92.96875,159.375 L92.96875,168.75 L80.46875,168.75 L80.46875,159.375 Z M92.96875,150 L105.46875,150 L105.46875,159.375 L92.96875,159.375 L92.96875,150 Z" id="形状" fill="#FFFFFF"></path>
            </g>
            <rect id="矩形" fill="#E84637" x="84.75" y="8.375" width="94" height="38" rx="8"></rect>
            <text id="CRX" font-family="PingFangSC-Semibold, PingFang SC" font-size="39" font-weight="500" fill="#FFFFFF">
                <tspan x="91.75" y="41.375">CRX</tspan>
            </text>
        </g>
    </g>
</svg>