<?xml version="1.0" standalone="no"?><!DOCTYPE svg PUBLIC "-//W3C//DTD SVG 1.1//EN" "http://www.w3.org/Graphics/SVG/1.1/DTD/svg11.dtd"><svg t="1661222608375" class="icon" viewBox="0 0 1024 1024" version="1.1" xmlns="http://www.w3.org/2000/svg" p-id="2847" xmlns:xlink="http://www.w3.org/1999/xlink" width="200" height="200"><defs><style type="text/css">@font-face { font-family: feedback-iconfont; src: url("//at.alicdn.com/t/font_1031158_u69w8yhxdu.woff2?t=1630033759944") format("woff2"), url("//at.alicdn.com/t/font_1031158_u69w8yhxdu.woff?t=1630033759944") format("woff"), url("//at.alicdn.com/t/font_1031158_u69w8yhxdu.ttf?t=1630033759944") format("truetype"); }
</style></defs><path d="M923.136 969.557333H193.024v-909.653333h521.386667l208.725333 207.701333z" fill="#7CCDFF" p-id="2848"></path><path d="M912.896 253.952l2.56 671.914667c0 15.530667-12.458667 27.989333-27.989333 27.989333H237.909333c-15.530667 0-27.989333-12.458667-27.989333-27.989333V96.938667c0-15.530667 12.458667-27.989333 27.989333-27.989334l493.397334-1.024-38.912-39.936H239.274667c-36.352 0-65.706667 29.354667-65.706667 65.706667v835.584c0 36.352 29.354667 65.706667 65.706667 65.706667h646.826666c36.352 0 65.706667-29.354667 65.706667-65.706667V293.888l-38.912-39.936z" fill="#4191FB" p-id="2849"></path><path d="M692.394667 222.72c0 39.424 31.914667 71.338667 71.338666 71.338667h188.245334L692.394667 27.989333v194.730667z" fill="#C7E2FF" p-id="2850"></path><path d="M557.568 482.304H158.72c-50.346667 0-91.136-40.789333-91.136-91.136v-60.245333c0-50.346667 40.789333-91.136 91.136-91.136h398.848c50.346667 0 91.136 40.789333 91.136 91.136v60.245333c0 50.346667-40.789333 91.136-91.136 91.136zM782.677333 679.594667H342.698667c-15.701333 0-28.330667-12.8-28.330667-28.330667v-5.290667c0-15.701333 12.8-28.330667 28.330667-28.330666h439.978666c15.701333 0 28.330667 12.8 28.330667 28.330666v5.290667c0 15.530667-12.629333 28.330667-28.330667 28.330667zM782.677333 810.154667H342.698667c-15.701333 0-28.330667-12.8-28.330667-28.330667V776.533333c0-15.701333 12.8-28.330667 28.330667-28.330666h439.978666c15.701333 0 28.330667 12.8 28.330667 28.330666v5.290667c0 15.530667-12.629333 28.330667-28.330667 28.330667z" fill="#4191FB" p-id="2851"></path><path d="M118.784 287.573333h69.290667c13.653333 0 24.746667 1.877333 33.109333 5.802667 8.362667 3.754667 15.36 9.386667 20.821333 16.384 5.461333 7.168 9.557333 15.530667 11.946667 24.917333 2.389333 9.557333 3.754667 19.626667 3.754667 30.208 0 16.725333-1.877333 29.525333-5.461334 38.741334-3.754667 9.216-8.704 16.896-15.36 23.04-6.485333 6.144-13.482667 10.24-20.992 12.458666-10.24 2.901333-19.456 4.266667-27.818666 4.266667H118.784v-155.818667z m46.592 35.328V407.893333h11.434667c9.728 0 16.725333-1.194667 20.821333-3.413333 4.096-2.218667 7.338667-6.144 9.728-11.605333 2.389333-5.632 3.584-14.506667 3.584-26.965334 0-16.554667-2.56-27.818667-7.850667-33.962666-5.290667-6.144-13.824-9.216-25.941333-9.216l-11.776 0.170666zM276.309333 365.568c0-25.429333 6.826667-45.226667 20.650667-59.392 13.653333-14.165333 32.938667-21.162667 57.344-21.162667 25.088 0 44.544 6.997333 58.026667 20.821334 13.653333 13.994667 20.48 33.450667 20.48 58.538666 0 18.261333-2.901333 33.109333-8.874667 44.714667s-14.506667 20.650667-25.770667 27.136c-11.264 6.485333-25.258667 9.728-41.984 9.728-17.066667 0-31.061333-2.730667-42.325333-8.362667-11.093333-5.632-20.138667-14.506667-27.136-26.624s-10.410667-27.306667-10.410667-45.397333z m46.762667 0.170667c0 15.701333 2.901333 26.965333 8.533333 33.962666 5.632 6.826667 13.312 10.24 23.210667 10.24 10.069333 0 17.749333-3.413333 23.210667-10.069333 5.461333-6.656 8.192-18.773333 8.192-36.181333 0-14.677333-2.901333-25.429333-8.533334-32.085334-5.802667-6.826667-13.482667-10.069333-23.381333-10.069333-9.386667 0-16.896 3.413333-22.698667 10.24-5.802667 6.656-8.533333 18.090667-8.533333 33.962667zM558.592 379.562667l40.96 12.8c-2.730667 11.776-6.997333 21.674667-12.970667 29.696-5.973333 7.850667-13.312 13.994667-22.016 17.92-8.704 3.925333-19.968 5.973333-33.450666 5.973333-16.384 0-29.866667-2.389333-40.277334-7.338667-10.410667-4.949333-19.456-13.653333-26.965333-25.941333-7.509333-12.458667-11.264-28.16-11.264-47.616 0-25.770667 6.656-45.568 19.968-59.392 13.312-13.824 32.085333-20.821333 56.490667-20.821333 18.944 0 33.962667 3.925333 44.885333 11.946666 10.922667 7.850667 18.944 20.138667 24.234667 36.522667l-41.130667 9.386667c-1.365333-4.778667-2.901333-8.192-4.608-10.410667-2.56-3.754667-5.802667-6.485333-9.557333-8.533333s-8.021333-2.901333-12.629334-2.901334c-10.581333 0-18.602667 4.437333-24.234666 13.141334-4.266667 6.485333-6.314667 16.725333-6.314667 30.72 0 17.237333 2.56 29.013333 7.68 35.498666s12.288 9.557333 21.504 9.557334c8.874667 0 15.701333-2.56 20.309333-7.68 3.925333-5.12 7.338667-12.629333 9.386667-22.528z" fill="#FFFFFF" p-id="2852"></path></svg>