<?xml version="1.0" standalone="no"?><!DOCTYPE svg PUBLIC "-//W3C//DTD SVG 1.1//EN" "http://www.w3.org/Graphics/SVG/1.1/DTD/svg11.dtd"><svg t="1651732299264" class="icon" viewBox="0 0 1024 1024" version="1.1" xmlns="http://www.w3.org/2000/svg" p-id="3076" xmlns:xlink="http://www.w3.org/1999/xlink" width="200" height="200"><defs><style type="text/css"></style></defs><path d="M160 32c-12 0-24.8 4.8-33.6 14.4S112 68 112 80v864c0 12 4.8 24.8 14.4 33.6 9.6 9.6 21.6 14.4 33.6 14.4h704c12 0 24.8-4.8 33.6-14.4 9.6-9.6 14.4-21.6 14.4-33.6V304L640 32H160z" fill="#5ACC9B" p-id="3077"></path><path d="M912 304H688c-12 0-24.8-4.8-33.6-14.4-9.6-8.8-14.4-21.6-14.4-33.6V32l272 272z" fill="#BDEBD7" p-id="3078"></path><path d="M640.8 644m-136 0a136 136 0 1 0 272 0 136 136 0 1 0-272 0Z" fill="#9CE0C3" p-id="3079"></path><path d="M512.8 596m-136 0a136 136 0 1 0 272 0 136 136 0 1 0-272 0Z" fill="#CDF0E1" p-id="3080"></path><path d="M384.8 540m-136 0a136 136 0 1 0 272 0 136 136 0 1 0-272 0Z" fill="#FFFFFF" p-id="3081"></path></svg>