<?xml version="1.0" standalone="no"?><!DOCTYPE svg PUBLIC "-//W3C//DTD SVG 1.1//EN" "http://www.w3.org/Graphics/SVG/1.1/DTD/svg11.dtd"><svg t="1652921785080" class="icon" viewBox="0 0 1024 1024" version="1.1" xmlns="http://www.w3.org/2000/svg" p-id="1572" xmlns:xlink="http://www.w3.org/1999/xlink" width="200" height="200"><defs><style type="text/css"></style></defs><path d="M160 32c-12 0-24.8 4.8-33.6 14.4S112 68 112 80v864c0 12 4.8 24.8 14.4 33.6 9.6 9.6 21.6 14.4 33.6 14.4h704c12 0 24.8-4.8 33.6-14.4 9.6-9.6 14.4-21.6 14.4-33.6V304L640 32H160z" fill="#FF8976" p-id="1573"></path><path d="M912 304H688c-12 0-24.8-4.8-33.6-14.4-9.6-8.8-14.4-21.6-14.4-33.6V32l272 272z" fill="#FFD0C8" p-id="1574"></path><path d="M421.6 564L304 610.4l117.6 46.4v36.8l-162.4-64.8V592l162.4-64.8v36.8zM538.4 457.6h36.8l-89.6 240h-36.8l89.6-240zM602.4 657.6L720 611.2l-117.6-46.4V528l162.4 64v37.6l-162.4 64.8v-36.8z" fill="#FFFFFF" p-id="1575"></path></svg>
