<?xml version="1.0" standalone="no"?><!DOCTYPE svg PUBLIC "-//W3C//DTD SVG 1.1//EN" "http://www.w3.org/Graphics/SVG/1.1/DTD/svg11.dtd"><svg t="1651732193938" class="icon" viewBox="0 0 1024 1024" version="1.1" xmlns="http://www.w3.org/2000/svg" p-id="1274" xmlns:xlink="http://www.w3.org/1999/xlink" width="200" height="200"><defs><style type="text/css"></style></defs><path d="M168 32c-12 0-24.8 4.8-33.6 14.4C124.8 55.2 120 68 120 80v864c0 12 4.8 24.8 14.4 33.6 9.6 9.6 21.6 14.4 33.6 14.4h704c12 0 24.8-4.8 33.6-14.4 9.6-9.6 14.4-21.6 14.4-33.6V304L648 32H168z" fill="#6CCBFF" p-id="1275"></path><path d="M920 304H696c-12 0-24.8-4.8-33.6-14.4-9.6-8.8-14.4-21.6-14.4-33.6V32l272 272z" fill="#C4EAFF" p-id="1276"></path><path d="M320 400h80v80H320zM480 400h80v80H480zM640 400h80v80H640zM400 480h80v80H400zM560 480h80v80H560zM400 640h80v80H400zM560 640h80v80H560zM320 560h80v80H320zM480 560h80v80H480zM640 560h80v80H640zM320 720h80v80H320zM480 720h80v80H480zM640 720h80v80H640z" fill="#FFFFFF" p-id="1277"></path></svg>