<?xml version="1.0" standalone="no"?><!DOCTYPE svg PUBLIC "-//W3C//DTD SVG 1.1//EN" "http://www.w3.org/Graphics/SVG/1.1/DTD/svg11.dtd"><svg t="1651732249821" class="icon" viewBox="0 0 1024 1024" version="1.1" xmlns="http://www.w3.org/2000/svg" p-id="1722" xmlns:xlink="http://www.w3.org/1999/xlink" width="200" height="200"><defs><style type="text/css"></style></defs><path d="M160 32c-12 0-24.8 4.8-33.6 14.4S112 68 112 80v864c0 12 4.8 24.8 14.4 33.6 9.6 9.6 21.6 14.4 33.6 14.4h704c12 0 24.8-4.8 33.6-14.4 9.6-9.6 14.4-21.6 14.4-33.6V304L640 32H160z" fill="#FF8976" p-id="1723"></path><path d="M912 304H688c-12 0-24.8-4.8-33.6-14.4-9.6-8.8-14.4-21.6-14.4-33.6V32l272 272z" fill="#FFD0C8" p-id="1724"></path><path d="M385.6 385.6h176c70.4 0 92.8 47.2 92.8 97.6 0 48-28 96.8-92 96.8H445.6v120h-60V385.6z m60 145.6h96.8c34.4 0 52.8-10.4 52.8-47.2 0-38.4-24.8-48-48-48H445.6v95.2z" fill="#FFFFFF" p-id="1725"></path></svg>