<?xml version="1.0" encoding="UTF-8"?>
<svg width="495px" height="495.999627px" viewBox="0 0 495 495.999627" version="1.1" xmlns="http://www.w3.org/2000/svg" xmlns:xlink="http://www.w3.org/1999/xlink">
    <title>勇士版</title>
    <defs>
        <radialGradient cx="49.9298%" cy="50.6144%" fx="49.9298%" fy="50.6144%" r="49.9941247%" id="radialGradient-1">
            <stop stop-color="#98C5FF" offset="0%"></stop>
            <stop stop-color="#1777F2" offset="100%"></stop>
        </radialGradient>
    </defs>
    <g id="勇士版" stroke="none" stroke-width="1" fill="none" fill-rule="evenodd">
        <circle id="椭圆形" fill="url(#radialGradient-1)" fill-rule="nonzero" cx="247.5" cy="247.5" r="247.5"></circle>
        <path d="M484.309389,164.244302 C448.877169,196.8815 425.560587,220.198388 414.359642,234.194966 C397.558225,255.189833 408.266273,304.900862 415.946076,319.244302 C432.118842,315.914804 442.026297,308.306936 450.096752,300.940578 C455.477055,296.029673 459.736328,287.852822 462.874571,276.410026 C441.46544,287.775349 429.533893,292.050719 427.079929,289.236135 C423.398982,285.014258 422.237646,267.976559 445.093945,256.016464 C460.331478,248.043067 476.114523,242.562842 492.44308,239.575786 L484.309389,164.244302 Z" id="路径-3" fill="#6D5235" transform="translate(448.943080, 241.744302) scale(-1, 1) rotate(7.000000) translate(-448.943080, -241.744302) "></path>
        <path d="M63,226 C63,247.333333 66.6492537,274.457711 73.9477612,307.373134 L94.8955224,307.373134 L82.9253731,442.037313 L118,462 L208.61194,457 L319.335821,457 L368.794431,449.272092 L415.097015,442.037313 L406.119403,355.253731 L406.119403,307.373134 L427.067164,286.425373 C430.355721,237.475124 431.666667,204.666667 431,188 C419.666667,163.333333 399.402985,141.278607 370.208955,121.835821 C317.271298,80.3451365 277.201646,60.7331962 250,63 C209.197531,66.4002057 135,102 107,136 C88.3333333,158.666667 80.3084577,167.910448 82.9253731,163.731343 C69.641791,183.910448 63,204.666667 63,226 Z" id="路径" fill="#424947"></path>
        <path d="M269.775,467.46 C319.107,443.472 393.567,516.499 378.18,400.999 C359.301,252.499 332.18,158.999 262.78,158.999 C114.18,139.999 101.18,334.348 101.18,400.999 C101.18,424.593 102.342,443.499 105.98,450.765 C157.928,489.999 224.265,465.499 269.775,467.46 Z" id="椭圆形-2" fill-opacity="0.300000012" fill="#FFFFFF" fill-rule="nonzero"></path>
        <g id="组_4" transform="translate(80.360149, 87.442366)">
            <path d="M41.948851,374.605634 C38.9614895,353.388682 37.5213565,331.982537 37.639851,310.556634 C37.639851,243.905634 50.639851,49.5566339 199.239851,68.5566339 C268.639851,68.5566339 295.758851,162.056634 314.639851,310.556634 C316.779102,326.293712 317.563648,342.18537 316.984851,358.056634 C237.119431,418.768044 128.51775,425.30264 41.948851,374.605634 Z" id="形状结合" fill="#FFFFFF" fill-rule="nonzero"></path>
            <path d="M176.639851,361.196634 C227.449851,361.196634 268.639851,326.685634 268.639851,272.561634 C268.639851,218.437634 227.449851,172.496634 176.639851,172.496634 C125.829851,172.496634 84.639851,218.433634 84.639851,272.557634 C84.639851,326.681634 125.829851,361.196634 176.639851,361.196634 Z" id="椭圆形-3" fill="#030303" fill-rule="nonzero"></path>
            <path d="M104.738521,156.509534 C104.738521,156.509534 128.938521,128.617534 169.543521,128.617534 C210.148521,128.617534 222.338521,150.861534 222.338521,150.861534" id="直线" stroke="#4D4D4D" stroke-width="21" stroke-linecap="round" transform="translate(163.538521, 142.563534) rotate(-8.000000) translate(-163.538521, -142.563534) "></path>
            <path d="M89.7181494,113.050397 C89.7181494,113.050397 87.7621494,86.1203973 62.8431494,72.0503973 C37.9241494,57.9803973 3.71814942,72.0503973 3.71814942,72.0503973" id="直线_3" stroke="#FFFFFF" stroke-width="13" stroke-linecap="round" transform="translate(46.718149, 89.423731) rotate(-11.000000) translate(-46.718149, -89.423731) "></path>
            <path d="M296.947465,71.9126861 C296.947465,71.9126861 294.991465,44.9826861 270.072465,30.9126861 C245.153465,16.8426861 210.947465,30.9126861 210.947465,30.9126861" id="直线_3-2" stroke="#FFFFFF" stroke-width="15" stroke-linecap="round" transform="translate(253.947465, 48.286019) rotate(-51.000000) translate(-253.947465, -48.286019) "></path>
            <circle id="椭圆_1" fill="#FFFFFF" fill-rule="nonzero" cx="196.139851" cy="218.557634" r="26.5"></circle>
            <circle id="椭圆_2" fill="#FFFFFF" fill-rule="nonzero" cx="233.139851" cy="245.557634" r="10.5"></circle>
        </g>
        <path d="M104.755319,192 C68.8396046,222.004713 45.2048528,243.440883 33.8510638,256.308511 C16.8203804,275.609952 10.4557264,294.159018 5.81914894,304.12766 C2.72809732,310.773421 1.07916115,318.468456 0.872340426,327.212766 C-0.0315994765,333.227787 1.61733669,338.174596 5.81914894,342.053191 C10.0209612,345.931787 15.5174151,347.580724 22.3085106,347 L44,335 C54,328.333333 59.3333333,317.666667 60,303 C50.6666667,310.333333 42,317 34,323 C30,318.333333 33.248227,309.843972 43.7446809,297.531915 C65.5622448,282.986872 88.6473512,270.894674 113,261.255319 L104.755319,192 Z" id="路径-3" fill="#6D5235"></path>
        <path d="M165,449 C150.311329,457.666667 137.644662,462 127,462 C116.355338,462 106.355338,457.76562 97,449.296859 L89,367.450984 C84.8348017,350.251105 81.168135,337.091572 78,327.972386 C74.831865,318.8532 68.9235885,304.452137 60.2751706,284.769198 C57.4250569,275.055617 54.6666667,260.569901 52,241.312048 C55.3087146,223.079241 63.9203044,205.310662 77.8347692,188.006311 C144.337256,157.244412 207.392333,142.908975 267,145 C326.607667,147.091025 376.274334,161.542009 416,188.352952 L431,252 C435.666667,275.333333 435.666667,304 431,338 C420.333333,368.666667 415.333333,402.876942 416,440.630825 C400.72429,446.408181 388.72429,449.296859 380,449.296859 C371.27571,449.296859 362.942377,446.408181 355,440.630825 C356.333333,387.543608 356.333333,349 355,325 C362.227355,314.106538 370,267 363,240 C336.511964,195.451939 325,182 267,177 C208,176.037107 165,208 154,241 C146.666667,263 144,280 146,292 L154,354 L165,449 Z" id="路径-2" fill="#424947"></path>
        <path d="M127,280 L165,449 C155.740187,382.155313 150.157207,340.909859 148.251061,325.263637 C146.750354,312.94538 146,305.524168 146,303 C146,295.666667 139.666667,288 127,280 Z" id="路径-4" fill-opacity="0.42034528" fill="#D8D8D8" opacity="0.482259115"></path>
        <polygon id="路径-5" fill="#BB955C" opacity="0.496000744" points="47 242 27 265 13 297 36 267 47 253"></polygon>
        <path d="M244,76 C221.199376,76.9771696 187.901733,94.8094482 174,102 C164.732178,106.793701 159.065511,113.127035 157,121 C171.139906,119.508683 185.806573,116.842016 201,113 C223.790141,107.236976 233.96566,107.634199 244,99 C254.03434,90.3658008 266.800624,75.0228304 244,76 Z" id="路径-6" fill="#D8D8D8" opacity="0.216215588"></path>
        <path d="M146,184 L140,165 C146,163 150.333333,159.666667 153,155 C155.666667,150.333333 159.666667,151.333333 165,158 C163,167.333333 162,172 162,172 C162,172 156.666667,176 146,184 Z" id="路径-7" fill="#424947"></path>
        <path d="M290,168 L284,149 C290,147 294.333333,143.666667 297,139 C299.666667,134.333333 303.666667,135.333333 309,142 C307,151.333333 306,156 306,156 C306,156 300.666667,160 290,168 Z" id="路径-7" fill="#424947" transform="translate(296.500000, 152.058824) scale(-1, 1) translate(-296.500000, -152.058824) "></path>
    </g>
</svg>