<?xml version="1.0" encoding="UTF-8"?><svg version="1.1" width="112px" height="112px" viewBox="0 0 112.0 112.0" xmlns="http://www.w3.org/2000/svg" xmlns:xlink="http://www.w3.org/1999/xlink"><defs><clipPath id="i0"><path d="M28.5137784,1.73330899 C30.824801,4.0443316 30.8249131,7.79112702 28.5137784,10.1022617 L20.548,18.067 L38.9077216,18.0670233 C40.2059338,17.6264312 41.6267341,17.6493367 42.9122125,18.1357702 C45.2646652,18.5732824 47.0670021,21.0621949 47.0670021,24.0670021 C47.0670021,27.1005837 45.2299812,29.6083427 42.8448775,30.0106547 L26.5871092,46.266691 C24.2760866,48.5777136 20.5292911,48.5778257 18.2181564,46.266691 C15.9071338,43.9556684 15.9070218,40.208873 18.2181564,37.8977383 L26.048,30.067 L7.36743287,30.0677071 C6.34792368,30.3242431 5.27341845,30.3056225 4.26188449,30.0118316 L4.21640754,29.9977077 C2.99326758,29.7683964 1.9191674,28.9843747 1.17037732,27.8617671 C0.12753806,26.4657434 -0.218195217,24.7137305 0.132381771,23.0812486 C0.439201001,20.807974 1.78869282,18.9656729 3.55870864,18.3174086 L20.1448256,1.73330899 C22.4558483,-0.577713621 26.2026437,-0.577825703 28.5137784,1.73330899 Z"></path></clipPath><clipPath id="i1"><path d="M55.9996227,0 C88.4054977,0 114.383873,27.5275 111.825998,60.474375 C109.752123,87.187 88.4977477,108.984375 61.8429977,111.702625 C59.8862477,111.90225 57.9488727,111.999375 56.0339977,111.999375 C51.4331227,111.999375 46.9649977,111.43775 42.6899977,110.38475 C37.1227477,109.013125 31.4259977,108.3755 25.7169977,108.3755 C20.0634977,108.3755 14.3979977,109.00125 8.83937267,110.15925 C8.45561788,110.239722 8.06459887,110.280479 7.67249767,110.280875 C4.12662267,110.280875 1.33149767,106.893625 2.27849767,103.263375 L2.78099767,101.337625 C5.37149767,91.407125 4.89087267,81.0225 2.09774767,71.147125 C0.126997668,64.17925 -0.527752332,56.66125 0.444247668,48.861875 C3.57712267,23.723375 23.7359977,3.539625 48.8784977,0.439875 C51.2809977,0.14375 53.6559977,0 55.9996227,0 Z M55.9996227,9.333375 C54.0226227,9.333375 52.0109977,9.457875 50.0204977,9.70325 C29.2526227,12.263625 12.2978727,29.217625 9.70587267,50.016125 C8.91737267,56.343625 9.37924767,62.5985 11.0787477,68.606875 C14.0733727,79.195 14.6034977,89.970375 12.6497477,100.009125 C17.0449977,99.3665 21.4207477,99.042 25.7168727,99.042 C32.3192477,99.042 38.7808727,99.809125 44.9224977,101.322125 C48.5421227,102.213875 52.2804977,102.666 56.0338727,102.666 C57.6577382,102.666 59.2805236,102.58225 60.8959977,102.417375 C82.9118727,100.17225 100.806623,81.830125 102.520623,59.752 C103.545498,46.551 99.1914977,33.965875 90.2606227,24.314625 C81.4502477,14.793875 68.9626227,9.333375 55.9996227,9.333375 Z"></path></clipPath></defs><g transform="translate(2.3319277886457712e-06 0.0006250000000136424)"><g transform="translate(32.932995588222695 31.932372920150495)"><g clip-path="url(#i0)"><polygon points="1.35787762e-05,1.11022302e-15 47.0670021,1.11022302e-15 47.0670021,48 1.35787762e-05,48 1.35787762e-05,1.11022302e-15" stroke="none" fill="#333333"></polygon></g></g><g transform=""><g clip-path="url(#i1)"><polygon points="0,0 112,0 112,111.999375 0,111.999375 0,0" stroke="none" fill="#333333"></polygon></g></g></g></svg>