<?xml version="1.0" standalone="no"?><!DOCTYPE svg PUBLIC "-//W3C//DTD SVG 1.1//EN" "http://www.w3.org/Graphics/SVG/1.1/DTD/svg11.dtd"><svg t="1646017664574" class="icon" viewBox="0 0 1024 1024" version="1.1" xmlns="http://www.w3.org/2000/svg" p-id="42900" xmlns:xlink="http://www.w3.org/1999/xlink" width="32" height="32"><defs><style type="text/css"></style></defs><path d="M509.184 513.1264m-450.816 0a450.816 450.816 0 1 0 901.632 0 450.816 450.816 0 1 0-901.632 0Z" fill="#FF5C64" p-id="42901"></path><path d="M723.0464 258.9184H299.9296c-39.5264 0-71.5264 30.72-71.5264 68.6592v314.6752c0 37.9392 32.0512 68.6592 71.5264 68.6592h140.288v51.1488h-38.5536c-13.9264 0-25.2416 10.8544-25.2416 24.2176 0 13.3632 11.3152 24.2176 25.2416 24.2176h219.6992c13.9264 0 25.2416-10.8544 25.2416-24.2176 0-13.3632-11.3152-24.2176-25.2416-24.2176h-38.5536v-51.1488h140.288c39.5264 0 71.5264-30.72 71.5264-68.6592V327.5776c-0.0512-37.9392-32.0512-68.6592-71.5776-68.6592zM511.488 693.7088c-17.9712 0-32.5632-13.9776-32.5632-31.232 0-17.2544 14.592-31.232 32.5632-31.232 17.9712 0 32.5632 13.9776 32.5632 31.232-0.0512 17.2032-14.592 31.232-32.5632 31.232z m246.1696-120.9856c0 22.272-18.8928 40.3456-42.0864 40.3456H307.3536c-23.1936 0-42.0864-18.1248-42.0864-40.3456V338.176c0-22.272 18.8928-40.3968 42.0864-40.3968h408.2688c23.1936 0 42.0864 18.1248 42.0864 40.3968v234.5472z" fill="#FFFFFF" p-id="42902"></path><path d="M715.6224 334.336H307.3536c-2.2016 0-3.9424 1.6896-3.9424 3.7888v234.5472c0 2.0992 1.792 3.7888 3.9424 3.7888h408.2688c2.2016 0 3.9424-1.6896 3.9424-3.7888v-234.496c0-2.0992-1.792-3.84-3.9424-3.84zM448.512 505.856c-4.4032 6.4-11.6736 9.8816-19.1488 9.8816-4.3008 0-8.6528-1.1776-12.544-3.6352l-64.8192-40.9088c-6.5536-4.1472-10.4448-11.264-10.2912-18.8416 0.1536-7.5776 4.4032-14.4896 11.1616-18.3808l62.5664-35.84c10.8544-6.1952 24.8832-2.816 31.3344 7.6288 6.4512 10.3936 2.9184 23.8592-7.936 30.1056l-31.232 17.8688 34.3552 21.7088c10.5984 6.7072 13.5168 20.2752 6.5536 30.4128z m106.5984-112.1792l-56.6784 139.4688c-3.5328 8.6528-12.1856 13.9776-21.2992 13.9776-2.7648 0-5.5808-0.4608-8.2944-1.4848-11.776-4.4032-17.5616-17.152-13.0048-28.416l56.6784-139.4688c4.608-11.3152 17.8688-16.896 29.5936-12.4928 11.776 4.4032 17.5616 17.1008 13.0048 28.416z m106.2912 77.5168l-64.8192 40.9088c-3.8912 2.4576-8.2432 3.6352-12.544 3.6352-7.424 0-14.7456-3.4816-19.1488-9.8816-6.9632-10.1376-3.9936-23.7568 6.5536-30.4128l34.3552-21.7088-31.232-17.8688c-10.8544-6.1952-14.3872-19.6608-7.936-30.1056 6.4512-10.3936 20.5312-13.824 31.3344-7.6288l62.5664 35.84c6.7584 3.8912 10.9568 10.8032 11.1616 18.3808 0.2048 7.5776-3.6864 14.6944-10.2912 18.8416z" fill="#FFFFFF" p-id="42903"></path></svg>