<?xml version="1.0" standalone="no"?><!DOCTYPE svg PUBLIC "-//W3C//DTD SVG 1.1//EN" "http://www.w3.org/Graphics/SVG/1.1/DTD/svg11.dtd"><svg t="1646199698815" class="icon" viewBox="0 0 1024 1024" version="1.1" xmlns="http://www.w3.org/2000/svg" p-id="13399" xmlns:xlink="http://www.w3.org/1999/xlink" width="32" height="32"><defs><style type="text/css"></style></defs><path d="M515.1744 509.696m-450.816 0a450.816 450.816 0 1 0 901.632 0 450.816 450.816 0 1 0-901.632 0Z" fill="#FFBC42" p-id="13400"></path><path d="M756.9408 300.9536h-244.5824c-5.0176 0-9.7792-1.8944-13.4656-5.3248L443.1872 243.456a19.58912 19.58912 0 0 0-13.4656-5.3248h-107.008c-37.1712 0-67.328 30.1568-67.328 67.328v402.944c0 37.1712 30.1568 67.328 67.328 67.328h434.176c37.1712 0 67.328-30.1568 67.328-67.328V368.3328c0.0512-37.2224-30.1056-67.3792-67.2768-67.3792z m-113.2032 289.1264l-79.1552 76.3392a36.608 36.608 0 0 1-50.5344 0.3072l-77.7216-73.1648c-14.7456-13.8752-15.4112-37.0688-1.5872-51.8144a36.65408 36.65408 0 0 1 51.8144-1.5872l16.2816 15.3088V451.072c0-20.224 16.384-36.6592 36.6592-36.6592 20.224 0 36.6592 16.384 36.6592 36.6592v102.4l16.7424-16.128a36.5568 36.5568 0 0 1 25.4464-10.2912c9.6256 0 19.2 3.7376 26.368 11.2128 13.9776 14.592 13.568 37.7856-0.9728 51.8144z" fill="#FFFFFF" p-id="13401"></path></svg>