<?xml version="1.0" standalone="no"?><!DOCTYPE svg PUBLIC "-//W3C//DTD SVG 1.1//EN" "http://www.w3.org/Graphics/SVG/1.1/DTD/svg11.dtd"><svg t="1661414600005" class="icon" viewBox="0 0 1024 1024" version="1.1" xmlns="http://www.w3.org/2000/svg" p-id="2427" xmlns:xlink="http://www.w3.org/1999/xlink" width="128" height="128"><defs><style type="text/css">@font-face { font-family: feedback-iconfont; src: url("//at.alicdn.com/t/font_1031158_u69w8yhxdu.woff2?t=1630033759944") format("woff2"), url("//at.alicdn.com/t/font_1031158_u69w8yhxdu.woff?t=1630033759944") format("woff"), url("//at.alicdn.com/t/font_1031158_u69w8yhxdu.ttf?t=1630033759944") format("truetype"); }
</style></defs><path d="M485.833 738.05a39.834 39.834 0 0 0 25.69 9.359c0.16 0 0.317-0.049 0.478-0.051 0.16 0.002 0.316 0.051 0.477 0.051a39.841 39.841 0 0 0 25.69-9.359l196.107-164.554c16.923-14.2 19.13-39.43 4.93-56.353v-0.001c-7.912-9.429-19.246-14.289-30.662-14.289a39.844 39.844 0 0 0-25.69 9.359L552 622.012V104c0-22.092-17.908-40-40-40-22.091 0-40 17.908-40 40v518.011L341.148 512.213a39.835 39.835 0 0 0-25.69-9.359c-11.415 0.001-22.752 4.861-30.663 14.29-14.2 16.923-11.992 42.152 4.931 56.353L485.833 738.05z" fill="#333333" p-id="2428"></path><path d="M920 688c-22.092 0-40 17.908-40 40v40c0 61.855-50.145 112-112 112H256c-61.855 0-112-50.145-112-112v-40c0-22.092-17.908-40-40-40s-40 17.908-40 40v40c0 106.038 85.961 192 192 192h512c106.039 0 192-85.962 192-192v-40c0-22.092-17.908-40-40-40z" fill="#333333" p-id="2429"></path></svg>