<?xml version="1.0" encoding="UTF-8"?>
<svg width="26px" height="25px" viewBox="0 0 26 25" version="1.1" xmlns="http://www.w3.org/2000/svg" xmlns:xlink="http://www.w3.org/1999/xlink">
    <title>fav</title>
    <g id="页面-1" stroke="none" stroke-width="1" fill="none" fill-rule="evenodd">
        <g id="fav" transform="translate(0.950000, 0.000000)" fill-rule="nonzero">
            <path d="M0,12.2 C0,18.9378739 5.46212605,24.4 12.2,24.4 C18.9378739,24.4 24.4,18.9378739 24.4,12.2 C24.4,5.46212605 18.9378739,0 12.2,0 C5.46212605,0 0,5.46212605 0,12.2 Z" id="路径" fill="#4E8DF6"></path>
            <path d="M3.05,12.2 C3.05,15.4689802 4.79398009,18.4896425 7.625,20.1241326 C10.4560198,21.7586227 13.9439802,21.7586227 16.775,20.1241326 C19.6060199,18.4896425 21.35,15.4689802 21.35,12.2 C21.35,7.14659454 17.2534055,3.05 12.2,3.05 C7.1465945,3.05 3.05,7.14659454 3.05,12.2 Z" id="路径" fill="#2166CC"></path>
            <path d="M4.65,12.2 C4.65,14.8973552 6.08902182,17.3898143 8.425,18.7384919 C10.7609781,20.0871695 13.6390219,20.0871695 15.975,18.7384919 C18.3109782,17.3898143 19.75,14.8973552 19.75,12.2 C19.75,8.03025014 16.3697499,4.65 12.2,4.65 C8.0302501,4.65 4.65,8.03025014 4.65,12.2 Z" id="路径" fill="#FFFFFF"></path>
            <path d="M16.85,11.1 C16.8,11 16.7,10.9 16.6,10.9 L13.75,10.5 L12.45,7.9 C12.4,7.8 12.3,7.75 12.2,7.75 C12.1,7.75 12,7.8 11.95,7.9 L10.6,10.5 L7.7,10.9 C7.6,10.9 7.5,11 7.45,11.1 C7.4,11.2 7.45,11.35 7.55,11.4 L9.65,13.45 L9.15,16.35 C9.15,16.45 9.15,16.55 9.25,16.65 C9.35,16.7 9.45,16.7 9.55,16.65 L12.15,15.3 L14.75,16.65 C14.85,16.7 14.95,16.7 15.05,16.65 C15.15,16.6 15.2,16.45 15.15,16.35 L14.65,13.45 L16.75,11.4 C16.85,11.35 16.9,11.2 16.85,11.1 L16.85,11.1 Z" id="路径" fill="#4E8DF6"></path>
        </g>
    </g>
</svg>