<?xml version="1.0" standalone="no"?><!DOCTYPE svg PUBLIC "-//W3C//DTD SVG 1.1//EN" "http://www.w3.org/Graphics/SVG/1.1/DTD/svg11.dtd"><svg t="1646017601621" class="icon" viewBox="0 0 1024 1024" version="1.1" xmlns="http://www.w3.org/2000/svg" p-id="42744" xmlns:xlink="http://www.w3.org/1999/xlink" width="32" height="32"><defs><style type="text/css"></style></defs><path d="M515.3792 514.2016m-450.816 0a450.816 450.816 0 1 0 901.632 0 450.816 450.816 0 1 0-901.632 0Z" fill="#FFBC42" p-id="42745"></path><path d="M536.5248 507.6992l-17.664-35.7376-17.664 35.7376a52.736 52.736 0 0 1-39.68 28.8256l-39.4752 5.7344 28.5696 27.8528c12.4416 12.0832 18.0736 29.5424 15.1552 46.6432l-6.7584 39.3216 35.2768-18.5344c15.36-8.0896 33.6896-8.0896 49.0496 0l35.2768 18.5344-6.7584-39.3216c-2.9184-17.1008 2.7136-34.5088 15.1552-46.6432l28.5696-27.8528-39.4752-5.7344a52.736 52.736 0 0 1-39.5776-28.8256z" fill="#FFFFFF" p-id="42746"></path><path d="M747.1616 336.7424h-225.1264c-12.1344 0-23.5008-5.9392-30.464-15.9232l-40.3968-53.2992a37.0688 37.0688 0 0 0-30.464-15.9232h-130.048c-41.1136 0-74.3936 33.3312-74.3936 74.3936v376.4736c0 41.1136 33.3312 74.3936 74.3936 74.3936h456.4992c41.1136 0 74.3936-33.3312 74.3936-74.3936V416.0512c0-41.1136-33.3312-79.3088-74.3936-79.3088z m-81.6128 239.0016l-35.1232 34.2016 8.2944 48.3328c3.4304 19.9168-4.608 39.6288-20.9408 51.5072-16.3328 11.8784-37.5808 13.4144-55.5008 3.9936l-43.4176-22.8352-43.4176 22.8352c-7.7824 4.096-16.1792 6.0928-24.576 6.0928-10.8544 0-21.6576-3.4304-30.9248-10.1376-16.3328-11.8784-24.3712-31.5904-20.9408-51.5072l8.2944-48.3328-35.1232-34.2016a52.38272 52.38272 0 0 1-13.312-54.016c6.2464-19.2 22.528-32.9728 42.5472-35.84l48.5376-7.0656 21.7088-43.9808c8.96-18.1248 27.0336-29.3888 47.2576-29.3888 20.1728 0 38.2976 11.264 47.2576 29.3888l21.7088 43.9808 48.5376 7.0656c19.968 2.9184 36.3008 16.64 42.5472 35.84 6.144 19.2512 1.024 39.936-13.4144 54.0672z" fill="#FFFFFF" p-id="42747"></path></svg>