<?xml version="1.0" standalone="no"?><!DOCTYPE svg PUBLIC "-//W3C//DTD SVG 1.1//EN" "http://www.w3.org/Graphics/SVG/1.1/DTD/svg11.dtd"><svg t="1661414638575" class="icon" viewBox="0 0 1024 1024" version="1.1" xmlns="http://www.w3.org/2000/svg" p-id="2586" xmlns:xlink="http://www.w3.org/1999/xlink" width="128" height="128"><defs><style type="text/css">@font-face { font-family: feedback-iconfont; src: url("//at.alicdn.com/t/font_1031158_u69w8yhxdu.woff2?t=1630033759944") format("woff2"), url("//at.alicdn.com/t/font_1031158_u69w8yhxdu.woff?t=1630033759944") format("woff"), url("//at.alicdn.com/t/font_1031158_u69w8yhxdu.ttf?t=1630033759944") format("truetype"); }
</style></defs><path d="M512 154.542c8.174 0 28.547 2.272 41.166 23.315l63.639 106.126c25.384 42.332 67.532 72.955 115.637 84.015l120.598 27.729c23.913 5.498 32.369 24.173 34.895 31.947 2.526 7.774 6.661 27.853-9.452 46.356l-81.269 93.321c-32.415 37.223-48.514 86.771-44.168 135.938l10.895 123.265c1.542 17.449-5.727 29.404-12.096 36.361-9.332 10.194-22.296 16.041-35.567 16.041-6.32 0-12.694-1.348-18.944-4.008l-113.865-48.453c-22.725-9.67-46.771-14.573-71.467-14.573s-48.742 4.903-71.467 14.573l-113.864 48.453c-6.25 2.66-12.625 4.008-18.946 4.008-13.274 0-26.239-5.846-35.57-16.038-6.368-6.956-13.636-18.911-12.093-36.364l10.895-123.264c4.345-49.169-11.754-98.717-44.169-135.939l-81.267-93.319c-16.114-18.503-11.979-38.582-9.453-46.355 2.526-7.774 10.982-26.449 34.895-31.947l120.598-27.729c48.104-11.061 90.253-41.683 115.637-84.015l63.64-106.127c12.615-21.046 32.988-23.317 41.162-23.317m0-80c-42.461 0-84.921 20.725-109.776 62.173l-63.639 106.127a102.522 102.522 0 0 1-64.953 47.191l-120.598 27.729C58.833 339.422 21.71 453.676 85.189 526.569l81.267 93.319a102.521 102.521 0 0 1 24.81 76.357l-10.895 123.264c-6.911 78.189 55.876 139.445 127.353 139.445 16.541 0 33.555-3.283 50.269-10.396l113.865-48.453a102.506 102.506 0 0 1 80.286 0l113.865 48.453c16.72 7.115 33.723 10.396 50.269 10.396 71.471 0 134.264-61.262 127.353-139.445l-10.895-123.264a102.525 102.525 0 0 1 24.81-76.357l81.268-93.319c63.479-72.893 26.355-187.147-67.846-208.807L750.37 290.033a102.522 102.522 0 0 1-64.953-47.191l-63.639-106.127C596.921 95.266 554.461 74.542 512 74.542z" fill="#323333" p-id="2587"></path></svg>