<?xml version="1.0" encoding="UTF-8"?><svg version="1.1" width="120px" height="120px" viewBox="0 0 120.0 120.0" xmlns="http://www.w3.org/2000/svg" xmlns:xlink="http://www.w3.org/1999/xlink"><g transform="translate(5.0 5.0)"><path d="M55,0 C24.6243388,0 0,24.6243388 0,55 C0,85.3756612 24.6243388,110 55,110 C85.3756612,110 110,85.3756612 110,55 C110,24.6243388 85.3756612,0 55,0 L55,0 Z M62.7,55 L67.9066667,80.9966667 C68.340076,83.1744639 67.7633804,85.4313558 66.3383463,87.1342716 C64.9133121,88.8371874 62.793428,89.8027082 60.5733333,89.76 L49.28,89.76 C47.0599053,89.8027082 44.9400212,88.8371874 43.5149871,87.1342716 C42.0899529,85.4313558 41.5132573,83.1744639 41.9466667,80.9966667 L47.3,55 C39.4971111,51.378394 35.2616369,42.8186067 37.1160392,34.4184699 C38.9704415,26.0183332 46.4159438,20.0372216 55.0183333,20.0372216 C63.6207228,20.0372216 71.0662252,26.0183332 72.9206275,34.4184699 C74.7750297,42.8186067 70.5395556,51.378394 62.7366667,55 L62.7,55 Z" stroke="#333333" stroke-width="10" fill="none" stroke-linejoin="round"></path></g></svg>