<?xml version="1.0" standalone="no"?><!DOCTYPE svg PUBLIC "-//W3C//DTD SVG 1.1//EN" "http://www.w3.org/Graphics/SVG/1.1/DTD/svg11.dtd"><svg t="1646017350873" class="icon" viewBox="0 0 1024 1024" version="1.1" xmlns="http://www.w3.org/2000/svg" p-id="42588" xmlns:xlink="http://www.w3.org/1999/xlink" width="32" height="32"><defs><style type="text/css"></style></defs><path d="M510.8224 513.1264m-450.816 0a450.816 450.816 0 1 0 901.632 0 450.816 450.816 0 1 0-901.632 0Z" fill="#8486F8" p-id="42589"></path><path d="M324.4544 387.9424c-11.6224-128.2048 98.304-206.3872 186.4704-206.3872 87.552 0 197.7856 77.056 186.6752 206.3872 3.072 0.3584 6.144 0.768 9.216 1.0752 46.0288 5.1712 78.1312 38.912 78.5408 85.1968 0.7168 76.2368 0.8192 152.4736-0.0512 228.6592-0.5632 49.92-38.0928 85.8112-88.064 85.8624-124.3136 0.1536-248.6272 0.1536-372.8896 0-50.5856-0.0512-87.6544-35.7376-88.1664-86.4768-0.7168-75.9296-0.6656-151.8592 0-227.7888 0.4096-46.9504 32.256-80.5376 78.8992-85.6064 2.9696-0.2048 5.8368-0.512 9.3696-0.9216z m57.2928-0.0512h257.8944c7.7312-48.7936-14.8992-101.2736-56.2688-127.488-47.2064-30.0032-96.0512-31.0272-143.104-0.8192-45.9776 29.4912-62.6688 74.24-58.5216 128.3072z m26.7776 164.352c-0.2048 20.992 4.7104 43.264 20.3776 60.672 12.9536 14.336 20.5824 28.4672 21.3504 48.64 0.9728 26.8288 22.7328 47.6672 48.896 52.5312 26.7776 4.9664 52.8896-7.6288 65.8944-31.488 7.0144-12.8512 7.424-26.8288 7.8848-40.9088 0.1024-3.84 1.9456-8.2432 4.352-11.3664 6.7072-8.7552 15.4112-16.2304 20.992-25.6512 19.712-33.1776 20.1216-67.6864 1.792-101.2736-19.1488-35.072-50.432-52.992-90.0608-52.8896-56.2176 0.1536-98.6112 42.752-101.4784 101.7344z" fill="#FFFFFF" p-id="42590"></path><path d="M510.8224 500.48c23.1936 0 42.8032 14.592 49.8688 37.0688 6.656 21.248-1.024 46.1312-20.3264 57.856-13.7216 8.3456-18.5856 19.1488-17.664 34.2016 0.4608 7.5776 0.256 15.2064-0.1024 22.8352-0.3584 7.3216-4.1984 12.544-11.9296 12.4928-7.68-0.0512-11.52-5.0176-11.6736-12.5952-0.1536-8.4992-0.3584-16.9984-0.0512-25.4464 0.4096-13.4144-4.352-23.1936-16.3328-30.5152-20.1216-12.3392-28.4672-36.3008-21.8112-58.0096 7.2704-23.5008 26.1632-37.888 50.0224-37.888z" fill="#FFFFFF" p-id="42591"></path></svg>