<?xml version="1.0" standalone="no"?><!DOCTYPE svg PUBLIC "-//W3C//DTD SVG 1.1//EN" "http://www.w3.org/Graphics/SVG/1.1/DTD/svg11.dtd"><svg t="1661414683145" class="icon" viewBox="0 0 1024 1024" version="1.1" xmlns="http://www.w3.org/2000/svg" p-id="2905" xmlns:xlink="http://www.w3.org/1999/xlink" width="128" height="128"><defs><style type="text/css">@font-face { font-family: feedback-iconfont; src: url("//at.alicdn.com/t/font_1031158_u69w8yhxdu.woff2?t=1630033759944") format("woff2"), url("//at.alicdn.com/t/font_1031158_u69w8yhxdu.woff?t=1630033759944") format("woff"), url("//at.alicdn.com/t/font_1031158_u69w8yhxdu.ttf?t=1630033759944") format("truetype"); }
</style></defs><path d="M704 400H352V272c0-70.692 57.308-128 128-128h32c61.684 0 113.154 43.641 125.276 101.726l0.052-0.184 79.114-11.082C698.747 137.531 614.038 64 512 64h-32c-114.875 0-208 93.125-208 208v128.808C173.467 408.957 96 491.362 96 592v176c0 106.038 85.962 192 192 192h416c106.039 0 192-85.962 192-192V592c0-106.039-85.961-192-192-192z m112 368c0 61.757-50.242 112-112 112H288c-61.757 0-112-50.243-112-112V592c0-61.758 50.243-112 112-112h416c61.758 0 112 50.242 112 112v176z" fill="#333333" p-id="2906"></path><path d="M683.601 287.529c21.878-3.064 37.129-23.284 34.064-45.162l-1.11-7.923-79.227 11.098 1.11 7.923c3.065 21.878 23.285 37.129 45.163 34.064zM584 640H408c-22.092 0-40 17.908-40 40 0 22.091 17.908 40 40 40h176c22.092 0 40-17.909 40-40 0-22.092-17.908-40-40-40z" fill="#333333" p-id="2907"></path></svg>