<?xml version="1.0" standalone="no"?><!DOCTYPE svg PUBLIC "-//W3C//DTD SVG 1.1//EN" "http://www.w3.org/Graphics/SVG/1.1/DTD/svg11.dtd"><svg t="1646017756486" class="icon" viewBox="0 0 1024 1024" version="1.1" xmlns="http://www.w3.org/2000/svg" p-id="43058" xmlns:xlink="http://www.w3.org/1999/xlink" width="32" height="32"><defs><style type="text/css"></style></defs><path d="M509.1328 509.5936m-450.816 0a450.816 450.816 0 1 0 901.632 0 450.816 450.816 0 1 0-901.632 0Z" fill="#59ADF8" p-id="43059"></path><path d="M626.7392 478.6688c-14.4384 14.336-33.3312 21.504-52.1728 21.504-19.0464 0-38.0928-7.3216-52.5824-21.9136-28.8256-29.0304-28.672-75.9296 0.3584-104.7552l148.8896-147.8144h-353.28c-46.848 0-84.8384 37.9904-84.8384 84.8384v417.1264c0 46.848 37.9904 84.8384 84.8384 84.8384h359.8848c46.848 0 84.8384-37.9904 84.8384-84.8384v-384l-135.936 135.0144z m-281.1904-36.5568h94.0544c15.4624 0 28.0064 12.544 28.0064 28.0064 0 15.4624-12.544 28.0064-28.0064 28.0064H345.5488c-15.4624 0-28.0064-12.544-28.0064-28.0064-0.0512-15.4624 12.544-28.0064 28.0064-28.0064z m257.6384 221.7472H335.3088c-15.4624 0-28.0064-12.544-28.0064-28.0064s12.544-28.0064 28.0064-28.0064h267.8784c15.4624 0 28.0064 12.544 28.0064 28.0064s-12.4928 28.0064-28.0064 28.0064z" fill="#FFFFFF" p-id="43060"></path><path d="M574.5664 454.144c-7.2192 0-14.3872-2.7648-19.9168-8.2944a27.99616 27.99616 0 0 1 0.1536-39.6288l188.3136-186.6752a27.99616 27.99616 0 0 1 39.6288 0.1536 27.99616 27.99616 0 0 1-0.1536 39.6288l-188.3136 186.6752a27.83232 27.83232 0 0 1-19.712 8.1408z" fill="#FFFFFF" p-id="43061"></path></svg>