<?xml version="1.0" standalone="no"?><!DOCTYPE svg PUBLIC "-//W3C//DTD SVG 1.1//EN" "http://www.w3.org/Graphics/SVG/1.1/DTD/svg11.dtd"><svg t="1661414654982" class="icon" viewBox="0 0 1024 1024" version="1.1" xmlns="http://www.w3.org/2000/svg" p-id="2746" xmlns:xlink="http://www.w3.org/1999/xlink" width="128" height="128"><defs><style type="text/css">@font-face { font-family: feedback-iconfont; src: url("//at.alicdn.com/t/font_1031158_u69w8yhxdu.woff2?t=1630033759944") format("woff2"), url("//at.alicdn.com/t/font_1031158_u69w8yhxdu.woff?t=1630033759944") format("woff"), url("//at.alicdn.com/t/font_1031158_u69w8yhxdu.ttf?t=1630033759944") format("truetype"); }
</style></defs><path d="M823.765 200.765l-79.529-79.529A192 192 0 0 0 608.471 65H304c-106.039 0-192 85.961-192 192v512c0 106.038 85.961 192 192 192h384c106.039 0 192-85.962 192-192V336.528a192 192 0 0 0-56.235-135.763z m-56.569 56.568c9.261 9.262 16.611 20.033 22.071 31.667H720c-35.347 0-64-28.654-64-64v-69.268c11.634 5.46 22.405 12.811 31.666 22.071l79.53 79.53zM688 881H304c-61.855 0-112-50.145-112-112V257c0-61.856 50.145-112 112-112h272v96c0 70.692 57.308 128 128 128h96v400c0 61.855-50.145 112-112 112z" fill="#333333" p-id="2747"></path><path d="M616 465H376c-22.092 0-40 17.908-40 40s17.908 40 40 40h240c22.092 0 40-17.908 40-40s-17.908-40-40-40zM536 641H376c-22.092 0-40 17.908-40 40s17.908 40 40 40h160c22.092 0 40-17.908 40-40s-17.908-40-40-40z" fill="#333333" p-id="2748"></path></svg>