<?xml version="1.0" standalone="no"?><!DOCTYPE svg PUBLIC "-//W3C//DTD SVG 1.1//EN" "http://www.w3.org/Graphics/SVG/1.1/DTD/svg11.dtd"><svg t="1668578537389" class="icon" viewBox="0 0 1024 1024" version="1.1" xmlns="http://www.w3.org/2000/svg" p-id="1277" xmlns:xlink="http://www.w3.org/1999/xlink" width="128" height="128"><path d="M639.9 351.9C639.9 192.9 511.1 64 352 64S64.2 192.8 64.2 351.9c0 158.9 128.8 287.9 287.9 287.9 158.9-0.1 287.8-128.9 287.8-287.9z m-367.4 16.4c-50.4 0-91.3-40.9-91.3-91.3s40.9-91.3 91.3-91.3 91.3 40.9 91.3 91.3-40.9 91.3-91.3 91.3z" p-id="1278"></path><path d="M930 732.3L663.8 455l-43 71.6h0.7l253.4 266.3-1.8 27.6-45.9 1.8-237.7-250.4c-39.1 46-85.6 70.5-85.6 70.5l5.5 112 53.3 58.8H706L704.2 949l126.7 11s12.9-12.9 91.9-90c78.9-77.1 7.2-137.7 7.2-137.7z" p-id="1279"></path></svg>