<?xml version="1.0" encoding="UTF-8"?><svg version="1.1" width="365px" height="150px" viewBox="0 0 365.0 150.0" xmlns="http://www.w3.org/2000/svg" xmlns:xlink="http://www.w3.org/1999/xlink"><defs><clipPath id="i0"><path d="M320.527214,-7.10542736e-15 C352.283587,-7.10542736e-15 378.027214,21.0426168 378.027214,47 C378.027214,72.9573832 352.283587,94 320.527214,94 C299.013779,94 280.259845,84.3426608 270.399967,70.0423145 L273.781288,70.0041374 C151.982153,71.3765285 68.4851098,68.5548126 23.2901574,61.5389896 C-15.5223894,57.7197997 3.33572086,37.3146122 14.8113779,33.8061517 C22.2606497,31.5286808 106.799439,29.2893137 268.427745,27.0880505 C277.598235,11.0843106 297.479101,-7.10542736e-15 320.527214,-7.10542736e-15 Z"></path></clipPath></defs><g transform="translate(14.71977104555674 -36.659411470759295) rotate(17.000000000000007)"><g clip-path="url(#i0)"><polygon points="0,-7.10542736e-15 378.027214,-7.10542736e-15 378.027214,94 0,94 0,-7.10542736e-15" stroke="none" fill="#FFFFFF"></polygon></g></g></svg>