<?xml version="1.0" encoding="UTF-8"?><svg version="1.1" width="649px" height="421px" viewBox="0 0 649.0 421.0" xmlns="http://www.w3.org/2000/svg" xmlns:xlink="http://www.w3.org/1999/xlink"><defs><clipPath id="i0"><path d="M533.107527,44.3202215 C566.107527,69.3202215 594.107527,107.320222 596.107527,151.320222 C592.107527,175.320222 570.462852,177.458693 517.107527,192.320222 C463.752202,207.18175 368.107527,184.320222 361.107527,225.320222 C356.44086,252.653555 375.774194,259.320222 419.107527,245.320222 C445.794992,230.639914 478.461658,216.639914 517.107527,203.320222 C556.315856,189.806671 571.747996,180.96987 591.107527,178.320222 C600.370711,177.052413 617.107527,175.320222 622.107527,178.320222 C659.107527,245.320222 652.107527,302.320222 622.107527,356.320222 C555.107527,434.320222 525.107527,418.320222 444.107527,418.320222 C303.44086,418.320222 189.44086,397.653555 102.107527,356.320222 C47.4408602,365.653555 14.4408602,357.653555 3.10752688,332.320222 C-8.22580645,306.986888 11.4408602,282.653555 62.1075269,259.320222 C82.7741935,230.653555 108.44086,194.653555 139.107527,151.320222 C185.107527,86.3202215 235.24688,32.9955749 326.107527,8.32022153 C416.968174,-16.3551318 500.107527,19.3202215 533.107527,44.3202215 Z"></path></clipPath></defs><g transform="translate(0.8924731182771097 0.679778470770799)"><g clip-path="url(#i0)"><polygon points="0,0 647.300721,0 647.300721,419.674271 0,419.674271 0,0" stroke="none" fill="#FFFFFF"></polygon></g><path d="M139.107527,151.320222 C185.107527,86.3202215 235.24688,32.9955749 326.107527,8.32022153 C416.968174,-16.3551318 500.107527,19.3202215 533.107527,44.3202215 C566.107527,69.3202215 594.107527,107.320222 596.107527,151.320222 C592.107527,175.320222 570.462852,177.458693 517.107527,192.320222 C463.752202,207.18175 368.107527,184.320222 361.107527,225.320222 C356.44086,252.653555 375.774194,259.320222 419.107527,245.320222 C445.794992,230.639914 478.461658,216.639914 517.107527,203.320222 C556.315856,189.806671 571.747996,180.96987 591.107527,178.320222 C600.370711,177.052413 617.107527,175.320222 622.107527,178.320222 C659.107527,245.320222 652.107527,302.320222 622.107527,356.320222 C555.107527,434.320222 525.107527,418.320222 444.107527,418.320222 C303.44086,418.320222 189.44086,397.653555 102.107527,356.320222 C47.4408602,365.653555 14.4408602,357.653555 3.10752688,332.320222 C-8.22580645,306.986888 11.4408602,282.653555 62.1075269,259.320222 C82.7741935,230.653555 108.44086,194.653555 139.107527,151.320222 Z" stroke="#969696" stroke-width="1" fill="none" stroke-miterlimit="10"></path></g></svg>