<?xml version="1.0" standalone="no"?><!DOCTYPE svg PUBLIC "-//W3C//DTD SVG 1.1//EN" "http://www.w3.org/Graphics/SVG/1.1/DTD/svg11.dtd"><svg t="1646669494932" class="icon" viewBox="0 0 1024 1024" version="1.1" xmlns="http://www.w3.org/2000/svg" p-id="4322" xmlns:xlink="http://www.w3.org/1999/xlink" width="32" height="32"><defs><style type="text/css"></style></defs><path d="M616.96 596.48c12.8 0 23.04-10.24 23.04-23.04V294.912c0-12.8-10.24-23.04-23.04-23.04H222.208c-12.8 0-23.04 10.24-23.04 23.04V573.44c0 12.8 10.24 23.04 23.04 23.04H291.84v104.448c0 4.608 2.56 8.192 6.144 10.24 3.584 2.048 8.704 1.536 12.288-1.024l159.232-113.664h147.456z" fill="#FFE9B4" p-id="4323"></path><path d="M709.632 364.544h-46.592v220.672c0 19.456-15.36 34.816-34.816 34.816H477.184l-97.28 69.632h105.984l136.192 91.136c3.584 2.56 8.192 2.56 11.776 0.512 3.584-2.048 6.144-6.144 6.144-10.24v-81.408h69.632c12.8 0 23.04-10.24 23.04-23.04V387.584c0-12.8-10.24-23.04-23.04-23.04z" fill="#FFE9B4" p-id="4324"></path><path d="M709.632 654.848c12.8 0 23.04-10.24 23.04-23.04V352.768c0-12.8-10.24-23.04-23.04-23.04H314.88c-12.8 0-23.04 10.24-23.04 23.04v278.528c0 12.8 10.24 23.04 23.04 23.04h69.632v104.448c0 4.608 2.56 8.192 6.144 10.24 3.584 2.048 8.704 1.536 12.288-1.024l159.232-113.664h147.456z" fill="#FFBA00" p-id="4325"></path><path d="M802.304 422.4h-46.592v220.672c0 19.456-15.36 34.816-34.816 34.816h-151.552l-97.28 69.632H578.56l136.192 91.136c3.584 2.56 8.192 2.56 11.776 0.512 3.584-2.048 6.144-6.144 6.144-10.24V747.52h69.632c12.8 0 23.04-10.24 23.04-23.04V445.952c0.512-12.8-10.24-23.552-23.04-23.552z" fill="#FFBA00" p-id="4326"></path><path d="M187.392 712.704h-29.696v-29.696c0-6.656-5.12-11.776-11.776-11.776s-11.776 5.12-11.776 11.776v29.696h-29.696c-6.656 0-11.776 5.12-11.776 11.776s5.12 11.776 11.776 11.776h29.696v29.696c0 6.656 5.12 11.776 11.776 11.776s11.776-5.12 11.776-11.776v-29.696h29.696c6.656 0 11.776-5.12 11.776-11.776s-5.12-11.776-11.776-11.776z" fill="#FFC879" p-id="4327"></path><path d="M80.384 398.336h65.536v65.536H80.384z" fill="#FFF7EC" p-id="4328"></path><path d="M921.088 444.928m-32.768 0a32.768 32.768 0 1 0 65.536 0 32.768 32.768 0 1 0-65.536 0Z" fill="#FFF7EC" p-id="4329"></path><path d="M791.04 183.808c-30.72 0-56.32 25.088-56.32 56.32s25.088 56.32 56.32 56.32 56.32-25.088 56.32-56.32-25.6-56.32-56.32-56.32z m0 88.576c-17.92 0-32.768-14.848-32.768-32.768s14.848-32.768 32.768-32.768c17.92 0 32.768 14.848 32.768 32.768s-14.848 32.768-32.768 32.768z" fill="#FFC879" p-id="4330"></path></svg>