<?xml version="1.0" standalone="no"?><!DOCTYPE svg PUBLIC "-//W3C//DTD SVG 1.1//EN" "http://www.w3.org/Graphics/SVG/1.1/DTD/svg11.dtd"><svg t="1646669472132" class="icon" viewBox="0 0 1024 1024" version="1.1" xmlns="http://www.w3.org/2000/svg" p-id="3852" xmlns:xlink="http://www.w3.org/1999/xlink" width="32" height="32"><defs><style type="text/css"></style></defs><path d="M506.88 257.024H321.024c-25.6 0-46.08 20.992-46.08 46.592v371.2c0 25.6 20.48 46.592 46.08 46.592h279.04c25.6 0 46.592-20.992 46.592-46.592V396.288L506.88 257.024z m46.08 371.2H367.616v-46.592H552.96v46.592z m0-92.672H367.616v-46.592H552.96v46.592zM483.328 419.328V291.84l127.488 127.488H483.328z" fill="#AAD4FF" p-id="3853"></path><path d="M599.552 314.88H413.696c-25.6 0-46.08 20.992-46.08 46.592v371.2c0 25.6 20.48 46.592 46.08 46.592h279.04c25.6 0 46.592-20.992 46.592-46.592V454.144l-139.776-139.264z m46.592 371.2H460.288v-46.08h185.856v46.08z m0-92.672H460.288v-46.592h185.856v46.592z m-69.632-116.224V349.696l127.488 127.488h-127.488z" fill="#2B95FF" p-id="3854"></path><path d="M827.904 233.472H798.72v-29.696c0-6.656-5.12-11.776-11.776-11.776-6.656 0-11.776 5.12-11.776 11.776v29.696h-29.696c-6.656 0-11.776 5.12-11.776 11.776s5.12 11.776 11.776 11.776h29.696V286.72c0 6.656 5.12 11.776 11.776 11.776 6.656 0 11.776-5.12 11.776-11.776v-29.696h29.696c6.656 0 11.776-5.12 11.776-11.776s-5.632-11.776-12.288-11.776z" fill="#A8D4FF" p-id="3855"></path><path d="M805.66272 620.4416l46.336-46.336 46.34624 46.336-46.34112 46.336zM786.944 831.488l34.816-34.816h-69.632z" fill="#D9EDFF" p-id="3856"></path><path d="M216.064 234.496m-32.768 0a32.768 32.768 0 1 0 65.536 0 32.768 32.768 0 1 0-65.536 0Z" fill="#D9EDFF" p-id="3857"></path><path d="M281.088 794.112l-89.088-89.088c-3.072-3.072-8.192-4.096-12.8-2.56-4.096 2.048-7.168 6.144-7.168 10.752v89.088c0 3.072 1.536 6.144 3.584 8.192 2.048 2.048 5.12 3.584 8.192 3.584h89.088c4.608 0 8.704-3.072 10.752-7.168 1.536-4.096 0.512-9.216-2.56-12.8z m-86.016-3.072v-49.152l49.152 49.152h-49.152z" fill="#A8D4FF" p-id="3858"></path></svg>