<?xml version="1.0" standalone="no"?><!DOCTYPE svg PUBLIC "-//W3C//DTD SVG 1.1//EN" "http://www.w3.org/Graphics/SVG/1.1/DTD/svg11.dtd"><svg t="1646669482844" class="icon" viewBox="0 0 1024 1024" version="1.1" xmlns="http://www.w3.org/2000/svg" p-id="4167" xmlns:xlink="http://www.w3.org/1999/xlink" width="32" height="32"><defs><style type="text/css"></style></defs><path d="M769.536 358.4l-49.664-49.664c-10.24-10.24-25.6-17.408-40.448-17.408-14.848 0-30.208 5.632-40.448 17.408L322.048 624.64c-1.024 1.024-1.024 2.56-2.56 3.584v2.048l-23.04 139.264c-1.024 3.584 1.024 7.168 3.584 10.24 2.56 2.56 4.608 3.584 8.192 3.584h2.56l139.264-23.04h2.048c1.024 0 2.56-1.024 3.584-2.56l315.904-315.904c20.992-23.04 20.992-60.416-2.048-83.456z m-399.36 390.144l-41.984-41.984 8.192-51.2 84.48 84.48-50.688 8.704z m248.32-272.896l-189.44 189.44c-2.56 2.56-5.632 3.584-8.192 3.584-3.584 0-5.632-1.024-8.192-3.584-4.608-4.608-4.608-11.776 0-16.384l189.44-189.44c4.608-4.608 11.776-4.608 16.384 0 4.608 4.608 4.608 11.776 0 16.384z m82.432 1.024l-99.84-99.84 30.208-30.208 99.84 99.84-30.208 30.208z" fill="#FFE9B4" p-id="4168"></path><path d="M862.208 416.256l-49.664-49.664c-10.24-10.24-25.6-17.408-40.448-17.408s-30.208 5.632-40.448 17.408L414.72 682.496c-1.024 1.024-1.024 2.56-2.56 3.584v2.048L389.12 827.392c-1.024 3.584 1.024 7.168 3.584 10.24 2.56 2.56 4.608 3.584 8.192 3.584h2.56l139.264-23.04h2.048c1.024 0 2.56-1.024 3.584-2.56l315.904-315.904c20.992-23.04 20.992-59.904-2.048-83.456z m-399.36 390.144l-41.984-41.984 8.192-51.2 84.48 84.48-50.688 8.704z m248.32-272.896l-189.44 189.44c-2.56 2.56-5.632 3.584-8.192 3.584-3.584 0-5.632-1.024-8.192-3.584-4.608-4.608-4.608-11.776 0-16.384l189.44-189.44c4.608-4.608 11.776-4.608 16.384 0s5.12 11.776 0 16.384z m82.432 1.024l-99.84-99.84 30.208-30.208 99.84 99.84-30.208 30.208z" fill="#FFBA00" p-id="4169"></path><path d="M179.2 736.768h-29.696v-29.696c0-6.656-5.12-11.776-11.776-11.776-6.656 0-11.776 5.12-11.776 11.776v29.696H97.28c-6.656 0-11.776 5.12-11.776 11.776 0 6.656 5.12 11.776 11.776 11.776h29.696v29.696c0 6.656 5.12 11.776 11.776 11.776 6.656 0 11.776-5.12 11.776-11.776v-29.696H179.2c6.656 0 11.776-5.12 11.776-11.776 0-6.656-5.12-11.776-11.776-11.776zM899.584 792.576c-20.48 0-30.72-16.384-38.4-28.672-7.68-12.288-11.264-17.408-18.432-17.408-6.656 0-10.752 5.12-18.432 17.408-7.168 12.288-17.408 28.672-38.4 28.672-20.48 0-30.72-16.384-38.4-28.672-7.68-12.288-11.264-17.408-18.432-17.408-6.656 0-11.776-5.12-11.776-11.776 0-6.656 5.12-11.776 11.776-11.776 20.48 0 30.72 16.384 38.4 28.672 7.68 12.288 11.264 17.408 18.432 17.408 6.656 0 10.752-5.12 18.432-17.408 7.168-12.288 17.408-28.672 38.4-28.672 20.48 0 30.72 16.384 38.4 28.672 7.68 12.288 11.264 17.408 18.432 17.408s10.752-5.632 18.432-17.408c7.168-12.288 17.408-28.672 38.4-28.672 6.656 0 11.776 5.12 11.776 11.776 0 6.656-5.12 11.776-11.776 11.776-7.168 0-10.752 5.12-18.432 17.408-7.68 11.776-17.92 28.672-38.4 28.672z" fill="#FFC879" p-id="4170"></path><path d="M809.984 242.688H875.52v65.536h-65.536zM797.184 666.624l49.152 3.072-46.08-52.224z" fill="#FFF7EC" p-id="4171"></path><path d="M378.88 296.96m-32.768 0a32.768 32.768 0 1 0 65.536 0 32.768 32.768 0 1 0-65.536 0Z" fill="#FFF7EC" p-id="4172"></path><path d="M348.672 400.896H223.232c-4.608 0-8.704 3.072-10.752 7.168-2.048 4.096-1.024 9.216 2.56 12.8l62.976 62.976c2.048 2.048 5.12 3.584 8.192 3.584s6.144-1.024 8.192-3.584l62.976-62.976c3.072-3.072 4.096-8.192 2.56-12.8-2.048-4.096-6.144-7.168-11.264-7.168zM285.696 459.264L250.88 424.448h69.632l-34.816 34.816z" fill="#FFC879" p-id="4173"></path></svg>