<?xml version="1.0" standalone="no"?><!DOCTYPE svg PUBLIC "-//W3C//DTD SVG 1.1//EN" "http://www.w3.org/Graphics/SVG/1.1/DTD/svg11.dtd"><svg t="1646669434506" class="icon" viewBox="0 0 1024 1024" version="1.1" xmlns="http://www.w3.org/2000/svg" p-id="3229" xmlns:xlink="http://www.w3.org/1999/xlink" width="32" height="32"><defs><style type="text/css"></style></defs><path d="M674.816 341.504H349.696c-25.6 0-46.592 20.992-46.592 46.592v325.12c0 25.6 20.992 46.592 46.592 46.592h325.12c25.6 0 46.592-20.992 46.592-46.592V388.096c-0.512-25.6-20.992-46.592-46.592-46.592zM425.984 452.096c20.992 0 37.888 16.896 37.888 37.888s-16.896 37.888-37.888 37.888-37.888-16.896-37.888-37.888 16.896-37.888 37.888-37.888z m-76.288 237.568l81.408-104.448L488.96 655.36l81.408-104.448 104.448 139.264H349.696z" fill="#DCCBFF" p-id="3230"></path><path d="M767.488 399.872H442.368c-25.6 0-46.592 20.992-46.592 46.592v325.12c0 25.6 20.992 46.592 46.592 46.592h325.12c25.6 0 46.592-20.992 46.592-46.592V445.952c0-25.6-20.992-46.08-46.592-46.08z m-248.832 110.592c20.992 0 37.888 16.896 37.888 37.888s-16.896 37.888-37.888 37.888-37.888-16.896-37.888-37.888 16.896-37.888 37.888-37.888z m-76.288 237.568l81.408-104.448 57.856 69.632 81.408-104.448 104.448 139.264H442.368z" fill="#A87DFF" p-id="3231"></path><path d="M241.664 691.2h-29.696v-29.696c0-6.656-5.12-11.776-11.776-11.776-6.656 0-11.776 5.12-11.776 11.776v29.696H158.72c-6.656 0-11.776 5.12-11.776 11.776 0 6.656 5.12 11.776 11.776 11.776h29.696v29.696c0 6.656 5.12 11.776 11.776 11.776 6.656 0 11.776-5.12 11.776-11.776v-29.696h29.696c6.656 0 11.776-5.12 11.776-11.776 0-6.656-5.12-11.776-11.776-11.776z" fill="#EAB3FF" p-id="3232"></path><path d="M200.704 505.856H266.24v65.536H200.704z" fill="#F7E2FF" p-id="3233"></path><path d="M863.232 324.608m-32.768 0a32.768 32.768 0 1 0 65.536 0 32.768 32.768 0 1 0-65.536 0Z" fill="#F7E2FF" p-id="3234"></path><path d="M978.944 696.32l-49.664-49.664c-3.584-3.584-9.216-3.584-12.8 0l-49.664 49.664c-3.584 3.584-3.584 9.216 0 12.8l49.664 49.664c3.584 3.584 9.216 3.584 12.8 0l49.664-49.664c3.584-3.072 3.584-9.216 0-12.8z m-56.32 43.52l-36.864-36.864 36.864-36.864 36.864 36.864-36.864 36.864zM296.448 275.456H170.496c-4.608 0-8.704 3.072-10.752 7.168-2.048 4.096-1.024 9.216 2.56 12.8L225.28 358.4c2.048 2.048 5.12 3.584 8.192 3.584 3.072 0 6.144-1.024 8.192-3.584l62.976-62.976c3.072-3.072 4.096-8.192 2.56-12.8-2.048-4.096-6.144-7.168-10.752-7.168zM233.472 333.312l-34.816-34.816h69.632l-34.816 34.816z" fill="#EAB3FF" p-id="3235"></path></svg>