<?xml version="1.0" standalone="no"?><!DOCTYPE svg PUBLIC "-//W3C//DTD SVG 1.1//EN" "http://www.w3.org/Graphics/SVG/1.1/DTD/svg11.dtd"><svg t="1646669386124" class="icon" viewBox="0 0 1024 1024" version="1.1" xmlns="http://www.w3.org/2000/svg" p-id="2919" xmlns:xlink="http://www.w3.org/1999/xlink" width="32" height="32"><defs><style type="text/css"></style></defs><path d="M484.864 436.736c-51.712-24.576-115.712-15.872-158.208 27.136-54.272 54.272-54.272 142.336 0 197.12s142.336 54.272 197.12 0c43.008-43.008 51.712-106.496 27.136-158.208l71.168-71.168L687.616 496.64l65.536-65.536-65.536-65.536 32.768-32.768-65.536-65.536-169.984 169.472z m-27.136 158.72c-17.92 17.92-47.616 17.92-65.536 0s-17.92-47.616 0-65.536 47.616-17.92 65.536 0 18.432 47.104 0 65.536z" fill="#FFE9B4" p-id="2920"></path><path d="M578.048 495.104c-51.712-24.576-115.712-15.872-158.208 27.136-54.272 54.272-54.272 142.336 0 197.12s142.336 54.272 197.12 0c43.008-43.008 51.712-106.496 27.136-158.208l71.168-71.168 65.536 65.536 65.536-65.536-65.536-65.536 32.768-32.768-66.048-66.56-169.472 169.984z m-27.136 158.208c-17.92 17.92-47.616 17.92-65.536 0s-17.92-47.616 0-65.536 47.616-17.92 65.536 0 17.92 47.616 0 65.536z" fill="#FFBA00" p-id="2921"></path><path d="M467.968 299.52h-29.696v-29.696c0-6.656-5.12-11.776-11.776-11.776-6.656 0-11.776 5.12-11.776 11.776v29.696h-29.696c-6.656 0-11.776 5.12-11.776 11.776 0 6.656 5.12 11.776 11.776 11.776H414.72v29.696c0 6.656 5.12 11.776 11.776 11.776 6.656 0 11.776-5.12 11.776-11.776v-29.696h29.696c6.656 0 11.776-5.12 11.776-11.776 0-6.656-5.632-11.776-11.776-11.776zM867.84 730.112c-20.48 0-30.72-16.384-38.4-28.672-7.68-12.288-11.264-17.408-18.432-17.408-6.656 0-10.752 5.12-18.432 17.408-7.168 12.288-17.408 28.672-38.4 28.672-20.48 0-30.72-16.384-38.4-28.672-7.68-12.288-11.264-17.408-18.432-17.408-6.656 0-11.776-5.12-11.776-11.776 0-6.656 5.12-11.776 11.776-11.776 20.48 0 30.72 16.384 38.4 28.672 7.68 12.288 11.264 17.408 18.432 17.408 6.656 0 10.752-5.12 18.432-17.408 7.168-12.288 17.408-28.672 38.4-28.672 20.48 0 30.72 16.384 38.4 28.672 7.68 12.288 11.264 17.408 18.432 17.408s10.752-5.632 18.432-17.408c7.168-12.288 17.408-28.672 38.4-28.672 6.656 0 11.776 5.12 11.776 11.776 0 6.656-5.12 11.776-11.776 11.776-7.168 0-10.752 5.12-18.432 17.408-7.68 11.776-17.92 28.672-38.4 28.672z" fill="#FFC879" p-id="2922"></path><path d="M647.168 799.232l34.816-34.816h-69.632zM935.936 418.816l35.328-34.816H901.12z" fill="#FFF7EC" p-id="2923"></path><path d="M175.104 637.44m-32.768 0a32.768 32.768 0 1 0 65.536 0 32.768 32.768 0 1 0-65.536 0Z" fill="#FFF7EC" p-id="2924"></path><path d="M208.384 428.032c-30.72 0-56.32 25.088-56.32 56.32s25.088 56.32 56.32 56.32 56.32-25.088 56.32-56.32-25.6-56.32-56.32-56.32z m0 89.088c-17.92 0-32.768-14.848-32.768-32.768s14.848-32.768 32.768-32.768 32.768 14.848 32.768 32.768-14.848 32.768-32.768 32.768z" fill="#FFC879" p-id="2925"></path></svg>