<?xml version="1.0" standalone="no"?><!DOCTYPE svg PUBLIC "-//W3C//DTD SVG 1.1//EN" "http://www.w3.org/Graphics/SVG/1.1/DTD/svg11.dtd"><svg t="1646669477850" class="icon" viewBox="0 0 1024 1024" version="1.1" xmlns="http://www.w3.org/2000/svg" p-id="4007" xmlns:xlink="http://www.w3.org/1999/xlink" width="32" height="32"><defs><style type="text/css"></style></defs><path d="M627.712 410.112H302.592c-12.8 0-23.04 10.24-23.04 23.04v255.488c0 12.8 10.24 23.04 23.04 23.04h325.12c12.8 0 23.04-10.24 23.04-23.04V433.664c0.512-12.8-10.24-23.552-23.04-23.552z" fill="#DCCBFF" p-id="4008"></path><path d="M360.96 282.624m-81.408 0a81.408 81.408 0 1 0 162.816 0 81.408 81.408 0 1 0-162.816 0Z" fill="#DCCBFF" p-id="4009"></path><path d="M546.816 305.664m-57.856 0a57.856 57.856 0 1 0 115.712 0 57.856 57.856 0 1 0-115.712 0Z" fill="#DCCBFF" p-id="4010"></path><path d="M808.448 435.2c-3.072-2.048-7.168-2.56-10.752-1.024l-122.88 52.736V634.88l122.88 52.736c1.536 0.512 3.072 1.024 4.608 1.024 2.048 0 4.608-0.512 6.144-2.048 3.072-2.048 5.12-5.632 5.12-9.728V444.928c0-3.584-2.048-7.168-5.12-9.728z" fill="#DCCBFF" p-id="4011"></path><path d="M720.896 468.48H395.776c-12.8 0-23.04 10.24-23.04 23.04v255.488c0 12.8 10.24 23.04 23.04 23.04h325.12c12.8 0 23.04-10.24 23.04-23.04V491.52c0-12.8-10.24-23.04-23.04-23.04z" fill="#A87DFF" p-id="4012"></path><path d="M453.632 340.48m-81.408 0a81.408 81.408 0 1 0 162.816 0 81.408 81.408 0 1 0-162.816 0Z" fill="#A87DFF" p-id="4013"></path><path d="M639.488 364.032m-57.856 0a57.856 57.856 0 1 0 115.712 0 57.856 57.856 0 1 0-115.712 0Z" fill="#A87DFF" p-id="4014"></path><path d="M901.12 493.568c-3.072-2.048-7.168-2.56-10.752-1.024l-122.88 52.736v147.968l122.88 52.736c1.536 0.512 3.072 1.024 4.608 1.024 2.048 0 4.608-0.512 6.144-2.048 3.072-2.048 5.12-5.632 5.12-9.728V503.296c0-4.096-2.048-7.68-5.12-9.728z" fill="#A87DFF" p-id="4015"></path><path d="M211.968 700.416h-29.696V670.72c0-6.656-5.12-11.776-11.776-11.776-6.656 0-11.776 5.12-11.776 11.776v29.696h-29.696c-6.656 0-11.776 5.12-11.776 11.776 0 6.656 5.12 11.776 11.776 11.776H158.72v29.696c0 6.656 5.12 11.776 11.776 11.776 6.656 0 11.776-5.12 11.776-11.776v-29.696h29.696c6.656 0 11.776-5.12 11.776-11.776 0-6.656-5.12-11.776-11.776-11.776z" fill="#EAB3FF" p-id="4016"></path><path d="M155.77088 375.3472l46.336-46.336 46.34112 46.336-46.336 46.34112zM813.568 265.216l34.816-34.816h-69.632z" fill="#F7E2FF" p-id="4017"></path><path d="M828.928 305.664c20.48 0 30.72 16.384 38.4 28.672 7.68 12.288 11.264 17.408 18.432 17.408 6.656 0 10.752-5.12 18.432-17.408 7.168-12.288 17.408-28.672 38.4-28.672 20.48 0 30.72 16.384 38.4 28.672 7.68 12.288 11.264 17.408 18.432 17.408 6.656 0 11.776 5.12 11.776 11.776s-5.12 11.776-11.776 11.776c-20.48 0-30.72-16.384-38.4-28.672-7.68-12.288-11.264-17.408-18.432-17.408-6.656 0-10.752 5.12-18.432 17.408-7.168 12.288-17.408 28.672-38.4 28.672-20.48 0-30.72-16.384-38.4-28.672-7.68-12.288-11.264-17.408-18.432-17.408s-10.752 5.632-18.432 17.408c-7.168 12.288-17.408 28.672-38.4 28.672-6.656 0-11.776-5.12-11.776-11.776s5.12-11.776 11.776-11.776c7.168 0 10.752-5.12 18.432-17.408 7.68-11.776 17.92-28.672 38.4-28.672zM187.904 484.864L137.728 435.2c-3.584-3.584-9.216-3.584-12.8 0l-49.664 49.664c-3.584 3.584-3.584 9.216 0 12.8l49.664 49.664c3.584 3.584 9.216 3.584 12.8 0l49.664-49.664c4.096-3.072 4.096-9.216 0.512-12.8z m-56.32 43.52L94.72 491.52l36.864-36.864 36.864 36.864-36.864 36.864z" fill="#EAB3FF" p-id="4018"></path></svg>