<?xml version="1.0" standalone="no"?><!DOCTYPE svg PUBLIC "-//W3C//DTD SVG 1.1//EN" "http://www.w3.org/Graphics/SVG/1.1/DTD/svg11.dtd"><svg t="1646669459294" class="icon" viewBox="0 0 1024 1024" version="1.1" xmlns="http://www.w3.org/2000/svg" p-id="3696" xmlns:xlink="http://www.w3.org/1999/xlink" width="32" height="32"><defs><style type="text/css"></style></defs><path d="M496.64 224.256c-146.944 0-266.752 119.808-266.752 266.752 0 146.944 119.808 266.752 266.752 266.752s266.752-119.808 266.752-266.752c0.512-146.944-119.296-266.752-266.752-266.752z m126.976 155.648l-69.632 162.304c-1.024 2.56-3.584 5.12-6.144 6.144l-162.304 69.632c-1.536 0.512-3.072 1.024-4.608 1.024-3.072 0-6.144-1.024-8.192-3.584-3.584-3.584-4.096-8.192-2.56-12.8L439.808 440.32c1.024-2.56 3.584-5.12 6.144-6.144l162.304-69.632c4.608-2.048 9.216-1.024 12.8 2.56 3.072 3.584 4.096 8.704 2.56 12.8z" fill="#DCCBFF" p-id="3697"></path><path d="M496.64 491.52m-23.04 0a23.04 23.04 0 1 0 46.08 0 23.04 23.04 0 1 0-46.08 0Z" fill="#DCCBFF" p-id="3698"></path><path d="M589.824 282.624C442.368 282.624 322.56 402.432 322.56 549.376c0 146.944 119.808 266.752 266.752 266.752s266.752-119.808 266.752-266.752c0.512-146.944-119.296-266.752-266.24-266.752z m126.464 155.136l-69.632 162.304c-1.024 2.56-3.584 5.12-6.144 6.144L478.208 675.84c-1.536 0.512-3.072 1.024-4.608 1.024-3.072 0-6.144-1.024-8.192-3.584-3.584-3.584-4.096-8.192-2.56-12.8L532.48 498.688c1.024-2.56 3.584-5.12 6.144-6.144l162.304-69.632c4.608-2.048 9.216-1.024 12.8 2.56 3.584 3.072 4.608 8.192 2.56 12.288z" fill="#A87DFF" p-id="3699"></path><path d="M589.824 549.376m-23.04 0a23.04 23.04 0 1 0 46.08 0 23.04 23.04 0 1 0-46.08 0Z" fill="#A87DFF" p-id="3700"></path><path d="M935.424 787.968H906.24v-29.696c0-6.656-5.12-11.776-11.776-11.776-6.656 0-11.776 5.12-11.776 11.776v29.696h-29.696c-6.656 0-11.776 5.12-11.776 11.776s5.12 11.776 11.776 11.776h29.696v29.696c0 6.656 5.12 11.776 11.776 11.776 6.656 0 11.776-5.12 11.776-11.776v-29.696h29.696c6.656 0 11.776-5.12 11.776-11.776s-5.632-11.776-12.288-11.776zM803.84 201.728c14.848 14.848 10.24 33.792 6.656 47.616-3.584 13.824-4.096 20.48 0.512 25.6 5.12 5.12 11.264 4.096 25.6 0.512 13.824-3.584 32.768-8.192 47.616 6.656 14.848 14.848 10.24 33.28 6.656 47.104-3.584 13.824-4.608 20.48 0.512 25.6 4.608 4.608 4.608 11.776 0 16.384-4.608 4.608-11.776 4.608-16.384 0-14.848-14.848-10.24-33.28-6.656-47.104 3.584-13.824 4.608-20.48-0.512-25.6s-11.264-4.096-25.6-0.512c-13.824 3.584-32.768 8.192-47.104-6.656-14.848-14.848-10.24-33.792-6.656-47.616 3.584-13.824 4.608-20.48-0.512-25.6s-11.776-4.096-25.6-0.512c-13.824 3.584-32.768 8.192-47.616-6.656-4.608-4.608-4.608-11.776 0-16.384 4.608-4.608 11.776-4.608 16.384 0 5.12 5.12 11.264 4.096 25.6 0.512 13.824-3.584 32.768-8.192 47.104 6.656zM162.816 735.232c14.848 14.848 10.24 33.792 6.656 47.616-3.584 13.824-4.096 20.48 0.512 25.6 5.12 5.12 11.264 4.096 25.6 0.512 13.824-3.584 32.768-8.192 47.616 6.656 14.848 14.848 10.24 33.28 6.656 47.104-3.584 13.824-4.608 20.48 0.512 25.6 4.608 4.608 4.608 11.776 0 16.384-4.608 4.608-11.776 4.608-16.384 0-14.848-14.848-10.24-33.28-6.656-47.104 3.584-13.824 4.608-20.48-0.512-25.6s-11.264-4.096-25.6-0.512c-13.824 3.584-32.768 8.192-47.104-6.656-14.848-14.848-10.24-33.792-6.656-47.616 3.584-13.824 4.608-20.48-0.512-25.6s-11.776-4.096-25.6-0.512c-13.824 3.584-32.768 8.192-47.616-6.656-4.608-4.608-4.608-11.776 0-16.384 4.608-4.608 11.776-4.608 16.384 0 5.12 5.12 11.264 4.096 25.6 0.512 13.824-3.072 32.768-7.68 47.104 6.656z" fill="#EAB3FF" p-id="3701"></path><path d="M914.432 493.568h65.536v65.536h-65.536zM148.1216 652.09344l46.34624-46.34112 46.336 46.336-46.336 46.34624z" fill="#F7E2FF" p-id="3702"></path><path d="M161.792 298.496m-32.768 0a32.768 32.768 0 1 0 65.536 0 32.768 32.768 0 1 0-65.536 0Z" fill="#F7E2FF" p-id="3703"></path></svg>