<?xml version="1.0" encoding="UTF-8"?>
<svg width="29px" height="29px" viewBox="0 0 29 29" version="1.1" xmlns="http://www.w3.org/2000/svg" xmlns:xlink="http://www.w3.org/1999/xlink">
    <title>apps</title>
    <g id="页面-1" stroke="none" stroke-width="1" fill="none" fill-rule="evenodd">
        <g id="apps" fill-rule="nonzero">
            <path d="M0,14.09 C0,21.8716921 6.30830787,28.18 14.09,28.18 C21.8716921,28.18 28.18,21.8716921 28.18,14.09 C28.18,6.30830787 21.8716921,0 14.09,0 C6.30830787,0 0,6.30830787 0,14.09 Z" id="路径" fill="#8486F8"></path>
            <path d="M10.5,7 C12.4333333,7 14,8.56666667 14,10.5 L14,13.2866667 C14,13.6813333 13.68,14 13.2866667,14 L10.5,14 C8.56666667,14 7,12.4333333 7,10.5 C7,8.568 8.56666667,7 10.5,7 L10.5,7 Z M10.5,22 C12.4333333,22 14,20.4333333 14,18.5 L14,15.7133333 C14,15.3186667 13.68,15 13.2866667,15 L10.5,15 C8.56666667,15 7,16.5666667 7,18.5 C7,20.4333333 8.56666667,22 10.5,22 L10.5,22 Z M18.5,7 C16.5666667,7 15,8.56666667 15,10.5 L15,13.2866667 C15,13.6813333 15.32,14 15.7133333,14 L18.5,14 C20.4333333,14 22,12.4333333 22,10.5 C22,8.568 20.4333333,7 18.5,7 L18.5,7 Z M18.5,22 C16.5666667,22 15,20.4333333 15,18.5 L15,15.7133333 C15,15.3186667 15.32,15 15.7133333,15 L18.5,15 C20.4333333,15 22,16.5666667 22,18.5 C22,20.4333333 20.4333333,22 18.5,22 L18.5,22 Z" id="形状" fill="#FFFFFF"></path>
        </g>
    </g>
</svg>