<?xml version="1.0" encoding="UTF-8"?>
<svg width="30px" height="29px" viewBox="0 0 30 29" version="1.1" xmlns="http://www.w3.org/2000/svg" xmlns:xlink="http://www.w3.org/1999/xlink">
    <title>微信</title>
    <g id="页面-1" stroke="none" stroke-width="1" fill="none" fill-rule="evenodd">
        <g id="微信" transform="translate(0.921600, 0.056000)" fill-rule="nonzero">
            <path d="M0,14.088 C0,21.8685876 6.30741244,28.176 14.088,28.176 C21.8685876,28.176 28.176,21.8685876 28.176,14.088 C28.176,6.30741244 21.8685876,0 14.088,0 C6.30741244,0 0,6.30741244 0,14.088 L0,14.088 Z" id="路径" fill="#3C74D3"></path>
            <path d="M18.7296,10.4912 C16.5104,10.52 14.5744,11.1264 13.0624,12.7424 C11.52,14.3904 11.1072,16.288 11.8976,18.5984 C10.8864,18.48 9.9808,18.3568 9.0736,18.2768 C8.808,18.2528 8.496,18.28 8.2688,18.4032 C7.5968,18.7664 6.9664,19.2048 6.3008,19.5776 C6.144,19.6656 5.872,19.68 5.7216,19.6 C5.6224,19.5472 5.5904,19.2512 5.6272,19.0864 C5.7504,18.5392 5.9008,17.9952 6.0768,17.4624 C6.1936,17.1056 6.12,16.8912 5.8192,16.64 C3.7312,14.9008 2.9392,12.6976 3.7216,10.0784 C4.2624,8.2688 5.5472,7.016 7.2176,6.1552 C10.312,4.56 14.1952,5.016 16.7824,7.2864 C17.7456,8.1312 18.4048,9.1664 18.7296,10.4912 L18.7296,10.4912 Z M13.7632,10.6752 C14.2752,10.6624 14.6736,10.2688 14.6624,9.784 C14.6528,9.2992 14.2448,8.9328 13.72,8.9408 C13.2144,8.9488 12.7888,9.3584 12.8,9.8272 C12.8112,10.2816 13.2736,10.688 13.7632,10.6752 L13.7632,10.6752 Z M8.7568,10.6752 C9.2656,10.6608 9.6704,10.2592 9.656,9.7808 C9.6416,9.2928 9.2336,8.9312 8.7104,8.9408 C8.1984,8.9488 7.7936,9.3472 7.8064,9.8288 C7.8192,10.304 8.2528,10.6896 8.7568,10.6752 L8.7568,10.6752 Z" id="形状" fill="#FFFFFF"></path>
            <path d="M24.44,16.3392 C24.4256,18.1168 23.7568,19.304 22.6416,20.2544 C22.36,20.4944 22.2816,20.7152 22.3552,21.0512 C22.4224,21.3536 22.4688,21.6624 22.4832,21.9712 C22.4896,22.1248 22.4448,22.3648 22.3456,22.416 C22.2112,22.4848 21.9792,22.4592 21.8272,22.3888 C21.5472,22.2592 21.264,22.1024 21.0368,21.8976 C20.6112,21.5136 20.1744,21.4976 19.6176,21.5888 C17.7824,21.888 16.0416,21.576 14.5504,20.4224 C11.7776,18.2752 11.848,14.7312 14.6704,12.648 C17.3824,10.6464 21.4912,11.2048 23.5328,13.8688 C24.1488,14.6704 24.4752,15.5904 24.44,16.3392 L24.44,16.3392 Z M16.608,15.7632 C17.0064,15.7632 17.3344,15.4608 17.3264,15.1008 C17.32,14.7456 16.9744,14.4256 16.6032,14.4288 C16.2288,14.432 15.888,14.752 15.8848,15.104 C15.88,15.4624 16.2112,15.7632 16.608,15.7632 L16.608,15.7632 Z M20.8096,15.168 C20.8224,14.76 20.5008,14.4336 20.1248,14.4288 C19.7472,14.424 19.408,14.7408 19.4063942,15.1008 C19.4048,15.4624 19.736,15.776 20.128,15.7616 C20.5312,15.7472 20.7664,15.5344 20.8096,15.168 Z" id="形状" fill="#FFFFFF"></path>
            <path d="M24.44,16.3392 C24.4256,18.1168 23.7568,19.304 22.6416,20.2544 C22.36,20.4944 22.2816,20.7152 22.3552,21.0512 C22.4224,21.3536 22.4688,21.6624 22.4832,21.9712 C22.4896,22.1248 22.4448,22.3648 22.3456,22.416 C22.2112,22.4848 21.9792,22.4592 21.8272,22.3888 C21.5472,22.2592 21.264,22.1024 21.0368,21.8976 C20.6112,21.5136 20.1744,21.4976 19.6176,21.5888 C17.7824,21.888 16.0416,21.576 14.5504,20.4224 C11.7776,18.2752 11.848,14.7312 14.6704,12.648 C17.3824,10.6464 21.4912,11.2048 23.5328,13.8688 C24.1488,14.6704 24.4752,15.5904 24.44,16.3392 L24.44,16.3392 Z M16.608,15.7632 C17.0064,15.7632 17.3344,15.4608 17.3264,15.1008 C17.32,14.7456 16.9744,14.4256 16.6032,14.4288 C16.2288,14.432 15.888,14.752 15.8848,15.104 C15.88,15.4624 16.2112,15.7632 16.608,15.7632 L16.608,15.7632 Z M20.8096,15.168 C20.8224,14.76 20.5008,14.4336 20.1248,14.4288 C19.7472,14.424 19.408,14.7408 19.4063942,15.1008 C19.4048,15.4624 19.736,15.776 20.128,15.7616 C20.5312,15.7472 20.7664,15.5344 20.8096,15.168 Z" id="形状" fill="#FFFFFF"></path>
        </g>
    </g>
</svg>