<?xml version="1.0" standalone="no"?><!DOCTYPE svg PUBLIC "-//W3C//DTD SVG 1.1//EN" "http://www.w3.org/Graphics/SVG/1.1/DTD/svg11.dtd"><svg t="1642214568590" class="icon" viewBox="0 0 1024 1024" version="1.1" xmlns="http://www.w3.org/2000/svg" p-id="23279" xmlns:xlink="http://www.w3.org/1999/xlink" width="32" height="32"><defs><style type="text/css"></style></defs><path d="M511.5904 511.2832m-450.816 0a450.816 450.816 0 1 0 901.632 0 450.816 450.816 0 1 0-901.632 0Z" fill="#8486F8" p-id="23280"></path><path d="M657.408 216.7808H364.3904c-76.1344 0-137.8304 61.696-137.8304 137.8304v309.7088c0 76.1344 61.696 137.8304 137.8304 137.8304h293.0176c76.1344 0 137.8304-61.696 137.8304-137.8304V354.6112c0-76.0832-61.696-137.8304-137.8304-137.8304z m-248.7808 324.352v110.9504c0 16.0256-13.0048 29.0304-29.0304 29.0304s-29.0304-13.0048-29.0304-29.0304v-113.2032c-15.7696-10.1888-26.2144-27.8528-26.2144-47.9744s10.4448-37.8368 26.2144-47.9744V373.9136c0-16.0256 13.0048-29.0304 29.0304-29.0304s29.0304 13.0048 29.0304 29.0304v66.7136c17.8176 9.6768 29.952 28.5184 29.952 50.2272 0 21.76-12.1344 40.6016-29.952 50.2784z m127.744 82.7904v28.16c0 16.0256-13.0048 29.0304-29.0304 29.0304s-29.0304-13.0048-29.0304-29.0304v-30.464c-15.7696-10.1888-26.2144-27.8528-26.2144-47.9744 0-20.1216 10.4448-37.8368 26.2144-47.9744V373.9136c0-16.0256 13.0048-29.0304 29.0304-29.0304s29.0304 13.0048 29.0304 29.0304v149.504c17.8176 9.6768 29.952 28.5184 29.952 50.2272s-12.1344 40.6016-29.952 50.2784z m132.5056-82.7904v110.9504c0 16.0256-13.0048 29.0304-29.0304 29.0304s-29.0304-13.0048-29.0304-29.0304v-113.2032c-15.7696-10.1888-26.2144-27.8528-26.2144-47.9744s10.4448-37.8368 26.2144-47.9744V373.9136c0-16.0256 13.0048-29.0304 29.0304-29.0304s29.0304 13.0048 29.0304 29.0304v66.7136c17.8176 9.6768 29.952 28.5184 29.952 50.2272 0 21.76-12.1344 40.6016-29.952 50.2784z" fill="#FFFFFF" p-id="23281"></path></svg>