<?xml version="1.0" standalone="no"?><!DOCTYPE svg PUBLIC "-//W3C//DTD SVG 1.1//EN" "http://www.w3.org/Graphics/SVG/1.1/DTD/svg11.dtd"><svg t="1637757002662" class="icon" viewBox="0 0 1024 1024" version="1.1" xmlns="http://www.w3.org/2000/svg" p-id="1592" xmlns:xlink="http://www.w3.org/1999/xlink" width="32" height="32"><defs><style type="text/css"></style></defs><path d="M516.6592 513.9456m-436.6848 0a436.6848 436.6848 0 1 0 873.3696 0 436.6848 436.6848 0 1 0-873.3696 0Z" fill="#AD9DFF" p-id="1593"></path><path d="M83.3536 567.1936a433.3056 383.4368 0 1 0 866.6112 0 433.3056 383.4368 0 1 0-866.6112 0Z" fill="#9F89FF" p-id="1594"></path><path d="M93.1328 620.3904a423.5264 330.24 0 1 0 847.0528 0 423.5264 330.24 0 1 0-847.0528 0Z" fill="#8C6CFA" p-id="1595"></path><path d="M110.2336 673.6384a406.4256 276.992 0 1 0 812.8512 0 406.4256 276.992 0 1 0-812.8512 0Z" fill="#805AF9" p-id="1596"></path><path d="M135.424 726.8352a381.2352 223.7952 0 1 0 762.4704 0 381.2352 223.7952 0 1 0-762.4704 0Z" fill="#764BF6" p-id="1597"></path><path d="M345.7024 748.1856c-16.4864 0-32.6656-6.4512-44.7488-18.5344a63.20128 63.20128 0 0 1-14.1312-67.6864L382.976 416.1024c6.4-16.384 19.456-29.44 35.84-35.84l245.8624-96.1536c23.3472-9.1136 49.92-3.584 67.6864 14.1312 17.7664 17.7152 23.3472 44.288 14.2336 67.6864l-95.8464 246.1696a63.37024 63.37024 0 0 1-35.9936 35.9936l-246.1696 95.7952c-7.424 2.8672-15.2064 4.3008-22.8864 4.3008z m110.5408-294.656l-77.6192 198.5024 198.7584-77.3632 77.3632-198.7584-198.5024 77.6192z" fill="#FFFFFF" p-id="1598"></path></svg>