<?xml version="1.0" standalone="no"?><!DOCTYPE svg PUBLIC "-//W3C//DTD SVG 1.1//EN" "http://www.w3.org/Graphics/SVG/1.1/DTD/svg11.dtd"><svg t="1637295628750" class="icon" viewBox="0 0 1024 1024" version="1.1" xmlns="http://www.w3.org/2000/svg" p-id="9841" xmlns:xlink="http://www.w3.org/1999/xlink" width="200" height="200"><defs><style type="text/css"></style></defs><path d="M307.2 163.84m81.92 0l552.96 0q81.92 0 81.92 81.92l0 696.32q0 81.92-81.92 81.92l-552.96 0q-81.92 0-81.92-81.92l0-696.32q0-81.92 81.92-81.92Z" fill="#E36130" p-id="9842"></path><path d="M512 399.36a30.72 30.72 0 0 1 30.72-30.72h348.16a30.72 30.72 0 1 1 0 61.44H542.72a30.72 30.72 0 0 1-30.72-30.72z m0 194.56a30.72 30.72 0 0 1 30.72-30.72h348.16a30.72 30.72 0 1 1 0 61.44H542.72a30.72 30.72 0 0 1-30.72-30.72z m30.72 163.84a30.72 30.72 0 1 0 0 61.44h348.16a30.72 30.72 0 1 0 0-61.44H542.72z" fill="#FFA17E" p-id="9843"></path><path d="M51.2 0m81.92 0l573.44 0q81.92 0 81.92 81.92l0 696.32q0 81.92-81.92 81.92l-573.44 0q-81.92 0-81.92-81.92l0-696.32q0-81.92 81.92-81.92Z" fill="#FF7744" p-id="9844"></path><path d="M215.04 266.24a30.72 30.72 0 0 1 30.72-30.72h348.16a30.72 30.72 0 1 1 0 61.44H245.76a30.72 30.72 0 0 1-30.72-30.72z m0 194.56a30.72 30.72 0 0 1 30.72-30.72h348.16a30.72 30.72 0 1 1 0 61.44H245.76a30.72 30.72 0 0 1-30.72-30.72z m30.72 163.84a30.72 30.72 0 1 0 0 61.44h348.16a30.72 30.72 0 1 0 0-61.44H245.76z" fill="#FFA17E" p-id="9845"></path></svg>