<?xml version="1.0" standalone="no"?><!DOCTYPE svg PUBLIC "-//W3C//DTD SVG 1.1//EN" "http://www.w3.org/Graphics/SVG/1.1/DTD/svg11.dtd"><svg t="1637243234341" class="icon" viewBox="0 0 1024 1024" version="1.1" xmlns="http://www.w3.org/2000/svg" p-id="3374" xmlns:xlink="http://www.w3.org/1999/xlink" width="16" height="16"><defs><style type="text/css"></style></defs><path d="M61.44 81.92a61.44 61.44 0 0 0-61.44 61.44v711.68a81.92 81.92 0 0 0 81.92 81.92h706.56a81.92 81.92 0 0 0 81.92-81.92v-604.16a81.92 81.92 0 0 0-81.92-81.92H365.18912a40.96 40.96 0 0 1-34.4064-18.75968l-25.9072-40.1408A61.44 61.44 0 0 0 253.2352 81.92H61.44z" fill="#0099EE" p-id="3375"></path><path d="M61.44 256a61.44 61.44 0 0 0-61.44 61.44v563.2a61.44 61.44 0 0 0 61.44 61.44h901.12a61.44 61.44 0 0 0 61.44-61.44V317.44a61.44 61.44 0 0 0-61.44-61.44H61.44z" fill="#29B4FF" p-id="3376"></path></svg>