<?xml version="1.0" standalone="no"?><!DOCTYPE svg PUBLIC "-//W3C//DTD SVG 1.1//EN" "http://www.w3.org/Graphics/SVG/1.1/DTD/svg11.dtd"><svg t="1637295645269" class="icon" viewBox="0 0 1024 1024" version="1.1" xmlns="http://www.w3.org/2000/svg" p-id="9996" xmlns:xlink="http://www.w3.org/1999/xlink" width="200" height="200"><defs><style type="text/css"></style></defs><path d="M0 51.2m81.92 0l348.16 0q81.92 0 81.92 81.92l0 593.92q0 81.92-81.92 81.92l-348.16 0q-81.92 0-81.92-81.92l0-593.92q0-81.92 81.92-81.92Z" fill="#E36130" p-id="9997"></path><path d="M0 184.32m81.92 0l860.16 0q81.92 0 81.92 81.92l0 593.92q0 81.92-81.92 81.92l-860.16 0q-81.92 0-81.92-81.92l0-593.92q0-81.92 81.92-81.92Z" fill="#FF7744" p-id="9998"></path><path d="M112.64 409.6a61.44 61.44 0 0 1 61.44-61.44h153.6a61.44 61.44 0 0 1 61.44 61.44v153.6a61.44 61.44 0 0 1-61.44 61.44H174.08a61.44 61.44 0 0 1-61.44-61.44V409.6z" fill="#FFA17E" p-id="9999"></path><path d="M491.52 389.12a40.96 40.96 0 0 1 40.96-40.96h317.44a40.96 40.96 0 0 1 0 81.92H532.48a40.96 40.96 0 0 1-40.96-40.96zM491.52 563.2a40.96 40.96 0 0 1 40.96-40.96h317.44a40.96 40.96 0 0 1 0 81.92H532.48a40.96 40.96 0 0 1-40.96-40.96zM491.52 757.76a40.96 40.96 0 0 1 40.96-40.96h317.44a40.96 40.96 0 0 1 0 81.92H532.48a40.96 40.96 0 0 1-40.96-40.96z" fill="#FFA17E" p-id="10000"></path></svg>