<?xml version="1.0" standalone="no"?><!DOCTYPE svg PUBLIC "-//W3C//DTD SVG 1.1//EN" "http://www.w3.org/Graphics/SVG/1.1/DTD/svg11.dtd"><svg t="1637246000829" class="icon" viewBox="0 0 1024 1024" version="1.1" xmlns="http://www.w3.org/2000/svg" p-id="3928" xmlns:xlink="http://www.w3.org/1999/xlink" width="16" height="16"><defs><style type="text/css"></style></defs><path d="M896.88064 178.40128l-45.53728-19.5072c-159.55968-68.38272-344.4736 3.92192-415.3344 162.4064L284.3648 757.9648a142.70464 142.70464 0 0 0 1.11616 96.7168l1.16736 3.13344a138.32192 138.32192 0 0 0 249.38496 20.7872l84.72576-146.74944c37.25312-64.512 87.1424-120.84224 146.69824-165.60128L913.7152 456.33536c95.6416-71.8848 86.80448-218.112-16.82432-277.93408z" fill="#B5F5EC" p-id="3929"></path><path d="M667.648 238.08l-45.52704-19.52768c-159.56992-68.38272-344.49408 3.93216-415.34464 162.41664L55.15264 817.63328a142.70464 142.70464 0 0 0 1.10592 96.7168l1.16736 3.1232a138.32192 138.32192 0 0 0 249.3952 20.7872l84.72576-146.7392c37.24288-64.512 87.1424-120.84224 146.688-165.60128L684.48256 515.9936c95.6416-71.8848 86.79424-218.112-16.82432-277.93408z" fill="#36CFC9" p-id="3930"></path><path d="M542.72 81.92c0 28.27264-20.6336 51.2-46.08 51.2S450.56 110.19264 450.56 81.92s20.6336-51.2 46.08-51.2S542.72 53.64736 542.72 81.92z m102.4 71.68a51.2 51.2 0 1 0 0-102.4 51.2 51.2 0 0 0 0 102.4z m184.32 40.96a51.2 51.2 0 1 1-102.4 0 51.2 51.2 0 0 1 102.4 0z m174.08 168.96C1003.52 422.90176 955.38176 471.04 896 471.04S788.48 422.90176 788.48 363.52 836.61824 256 896 256 1003.52 304.13824 1003.52 363.52zM358.4 184.32a51.2 51.2 0 1 0 0-102.4 51.2 51.2 0 0 0 0 102.4z" fill="#36CFC9" p-id="3931"></path></svg>