<?xml version="1.0" standalone="no"?><!DOCTYPE svg PUBLIC "-//W3C//DTD SVG 1.1//EN" "http://www.w3.org/Graphics/SVG/1.1/DTD/svg11.dtd"><svg t="1637242891564" class="icon" viewBox="0 0 1024 1024" version="1.1" xmlns="http://www.w3.org/2000/svg" p-id="2832" xmlns:xlink="http://www.w3.org/1999/xlink" width="16" height="16"><defs><style type="text/css"></style></defs><path d="M975.13472 794.5216A339.34336 339.34336 0 0 0 804.7616 501.11488a263.61856 263.61856 0 0 1-110.77632 52.59264 432.5888 432.5888 0 0 1 154.95168 333.02528v14.0288a487.28064 487.28064 0 0 0 124.44672-62.75072c1.47456-14.4384 2.05824-28.95872 1.75104-43.4688z" fill="#FAAD14" p-id="2833"></path><path d="M635.0848 61.8496a233.82016 233.82016 0 0 0-41.70752 4.20864 295.87456 295.87456 0 0 1 27.3408 455.7312h14.37696c127.3856 0 230.66624-103.2704 230.66624-230.66624 0-127.39584-103.2704-230.66624-230.66624-230.66624v1.40288z" fill="#FFE58F" p-id="2834"></path><path d="M613.35552 539.32032a381.75744 381.75744 0 0 1 188.61056 380.0064c-111.52384 73.58464-645.66272 72.16128-757.92384-4.1984a391.63904 391.63904 0 0 1-2.79552-45.23008 381.06112 381.06112 0 0 1 191.04768-330.57792c110.82752 90.7264 270.24384 90.7264 381.06112 0z" fill="#FAAD14" p-id="2835"></path><path d="M494.52032 613.9904l-24.8832 67.30752 25.23136 157.05088-66.60096 80.97792-70.11328-80.97792 29.09184-156.70272-29.7984-67.65568z" fill="#D46B08" p-id="2836"></path><path d="M422.656 564.92032c-143.08352-0.77824-258.52928-117.26848-258.01728-260.352 0.512-143.09376 116.79744-258.74432 259.8912-258.48832 143.08352 0.256 258.93888 116.3264 258.93888 259.42016a259.42016 259.42016 0 0 1-260.8128 259.42016z" fill="#FFE58F" p-id="2837"></path></svg>