<?xml version="1.0" standalone="no"?><!DOCTYPE svg PUBLIC "-//W3C//DTD SVG 1.1//EN" "http://www.w3.org/Graphics/SVG/1.1/DTD/svg11.dtd"><svg t="1637756505937" class="icon" viewBox="0 0 1024 1024" version="1.1" xmlns="http://www.w3.org/2000/svg" p-id="1590" xmlns:xlink="http://www.w3.org/1999/xlink" width="200" height="200"><defs><style type="text/css"></style></defs><path d="M965.888 459.7248c0-201.8816-201.216-365.568-449.4848-365.568s-449.4848 163.6352-449.4848 365.568c0 178.2272 156.8768 326.5536 364.3904 358.912l55.5008 97.0752c12.7488 22.3232 45.2096 21.7088 57.088-1.1264l49.2032-94.72c211.712-29.5936 372.7872-179.5072 372.7872-360.1408z" fill="#6FCBF6" p-id="1591"></path><path d="M516.4544 218.0096c-222.3104 0-406.8352 131.328-442.9312 303.7696 31.488 149.76 175.0016 268.3904 357.888 296.8576l55.5008 97.0752c12.7488 22.3232 45.2096 21.7088 57.088-1.1264l49.2032-94.72c186.88-26.1632 334.2848-146.0736 366.2336-298.1376-36.1984-172.3904-220.672-303.7184-442.9824-303.7184z" fill="#68BEF3" p-id="1592"></path><path d="M516.4544 341.8624c-194.7648 0-360.5504 100.7616-422.9632 241.7152 53.0944 119.8592 180.992 210.688 337.92 235.1104l55.5008 97.0752c12.7488 22.3232 45.2096 21.7088 57.088-1.1264l49.2032-94.72c160.7168-22.4768 292.2496-114.3808 346.2656-236.3904-62.5152-140.9024-228.2496-241.664-423.0144-241.664z" fill="#5CAAF0" p-id="1593"></path><path d="M516.4544 465.664c-164.864 0-308.8896 72.192-387.1232 179.8144 64.4096 88.576 173.4656 153.1392 302.0288 173.1584l55.5008 97.0752c12.7488 22.3232 45.2096 21.7088 57.088-1.1264l49.2032-94.72c132.1472-18.4832 244.5824-83.8656 310.4256-174.336-78.2336-107.6224-222.2592-179.8656-387.1232-179.8656z" fill="#4F94EB" p-id="1594"></path><path d="M486.8608 915.7632c12.7488 22.3232 45.2096 21.7088 57.088-1.1264l49.2032-94.72c99.6864-13.9264 188.1088-54.5792 253.7984-112.4864-82.1248-72.448-199.7824-117.8624-330.496-117.8624-130.7136 0-248.3712 45.4144-330.496 117.8624 63.8464 56.32 149.1968 96.3072 245.4016 111.3088l55.5008 97.024z" fill="#3A8CE6" p-id="1595"></path><path d="M518.0416 275.712c-19.8144 0-35.84 16.0256-35.84 35.84v91.1872H382.2592V311.552c0-19.8144-16.0256-35.84-35.84-35.84s-35.84 16.0256-35.84 35.84v254.1056c0 19.8144 16.0256 35.84 35.84 35.84s35.84-16.0256 35.84-35.84V474.4192h99.9424v91.1872c0 19.8144 16.0256 35.84 35.84 35.84s35.84-16.0256 35.84-35.84V311.552c0-19.8144-16.0256-35.84-35.84-35.84zM665.7024 384.6144c-19.8144 0-35.84 16.0256-35.84 35.84v140.3392c0 19.8144 16.0256 35.84 35.84 35.84s35.84-16.0256 35.84-35.84V420.4544c0-19.8144-16.0768-35.84-35.84-35.84zM665.7024 349.3888c23.9616 0 43.4176-19.456 43.4176-43.4176 0-23.9616-19.456-43.4176-43.4176-43.4176-23.9616 0-43.4176 19.456-43.4176 43.4176 0 24.0128 19.4048 43.4176 43.4176 43.4176z" fill="#FFFFFF" p-id="1596"></path></svg>