<?xml version="1.0" standalone="no"?><!DOCTYPE svg PUBLIC "-//W3C//DTD SVG 1.1//EN" "http://www.w3.org/Graphics/SVG/1.1/DTD/svg11.dtd"><svg t="1637243175268" class="icon" viewBox="0 0 1024 1024" version="1.1" xmlns="http://www.w3.org/2000/svg" p-id="3107" xmlns:xlink="http://www.w3.org/1999/xlink" width="16" height="16"><defs><style type="text/css"></style></defs><path d="M511.999898 512.000102m-511.999898 0a511.999898 511.999898 0 1 0 1023.999795 0 511.999898 511.999898 0 1 0-1023.999795 0Z" fill="#36CFC9" p-id="3108"></path><path d="M532.479894 399.360125m-92.159982 0a92.159982 92.159982 0 1 0 184.319963 0 92.159982 92.159982 0 1 0-184.319963 0Z" fill="#08979C" p-id="3109"></path><path d="M511.999898 0.000205c13.015037 0 25.907195 0.48128 38.686712 1.4336a870.123346 870.123346 0 0 1 222.177235 225.044435 858.900308 858.900308 0 0 1 136.407013-37.478393 513.290137 513.290137 0 0 1 39.454712 55.623669 798.41264 798.41264 0 0 0-142.438371 35.184633c9.031678 15.667197 17.602556 31.641594 25.671675 47.90271a92.159982 92.159982 0 0 1 89.456622 98.017261 685.639543 685.639543 0 0 1 101.939179 60.354548 515.276697 515.276697 0 0 1-6.860798 113.786857 661.954428 661.954428 0 0 0-99.57374 21.268476c3.092479 29.757434 4.679679 59.965428 4.679679 90.542061 0 39.987192-2.713599 79.349744-7.966719 117.893097a515.010457 515.010457 0 0 1-77.762544 78.991344A805.488479 805.488479 0 0 0 860.159828 711.680062a814.387037 814.387037 0 0 0-2.979839-69.724146 667.412347 667.412347 0 0 0-268.185547 198.246361A91.729902 91.729902 0 0 1 604.159879 890.880027c0 7.577598-0.9216 14.929917-2.631679 21.964795a622.335876 622.335876 0 0 0 126.750694 63.365108 508.252058 508.252058 0 0 1-84.838383 30.760953 684.984183 684.984183 0 0 1-75.622385-42.751991A91.760622 91.760622 0 0 1 511.999898 983.040008a93.081581 93.081581 0 0 1-11.397118-0.69632 661.268348 661.268348 0 0 0-17.121277 40.878072 513.085337 513.085337 0 0 1-62.771187-7.342078 722.687855 722.687855 0 0 1 24.913915-61.071348A91.852782 91.852782 0 0 1 419.839916 890.880027a91.750382 91.750382 0 0 1 11.171838-44.021752 687.820662 687.820662 0 0 1-94.924781-135.751652 798.7608 798.7608 0 0 0-66.283507 252.098509 512.307098 512.307098 0 0 1-57.774068-36.229113 859.361108 859.361108 0 0 1 90.839021-288.122822 680.755064 680.755064 0 0 1-32.409593-108.953578A627.445635 627.445635 0 0 0 66.283507 764.129332a509.613978 509.613978 0 0 1-32.440314-68.679666 689.571702 689.571702 0 0 1 226.109395-232.212434A693.913461 693.913461 0 0 1 255.999949 389.120127c0-134.932453 38.952952-260.761548 106.219499-366.868407A511.948698 511.948698 0 0 1 511.999898 0.000205z m380.221364 487.301022c1.73056-1.60768 3.399679-3.276799 4.997119-5.017599a624.537475 624.537475 0 0 1 97.17758 58.695669 722.657135 722.657135 0 0 0-86.108143 18.687996 859.811668 859.811668 0 0 0-16.066556-72.366066zM737.843052 430.080119a92.170222 92.170222 0 0 0 97.279981 81.756143 799.23184 799.23184 0 0 1 14.151677 67.246067c-122.163176 46.100471-228.659154 124.159975-309.268418 223.979475A92.119022 92.119022 0 0 0 511.999898 798.720045a91.893742 91.893742 0 0 0-35.327993 7.014399 625.264515 625.264515 0 0 1-105.748459-163.327968 806.727519 806.727519 0 0 1 120.176616-160.665568A92.190702 92.190702 0 0 0 622.346116 419.840121h0.921599L624.639875 419.840121c38.655992 0 76.492785 3.512319 113.203177 10.239998z m35.051513-83.015664a92.671981 92.671981 0 0 0-21.094395 23.111676 688.598902 688.598902 0 0 0-109.424618-11.540478 801.58704 801.58704 0 0 1 105.983978-56.135669 802.611039 802.611039 0 0 1 24.535035 44.564471z m-58.286068-96.81918A807.812958 807.812958 0 0 0 446.566311 8.755403C365.588407 114.094262 317.439937 245.985436 317.439937 389.120127c0 13.793277 0.45056 27.494395 1.331199 41.062392a681.267064 681.267064 0 0 1 122.982376-47.134711C449.47447 339.937417 487.157663 307.200143 532.479894 307.200143c19.240956 0 37.099513 5.898239 51.875829 15.974397a863.815507 863.815507 0 0 1 130.252774-72.939505zM438.312872 448.102515a620.973956 620.973956 0 0 0-111.851497 47.370231c4.290559 25.036795 10.076158 49.56159 17.254396 73.482225a869.099346 869.099346 0 0 1 94.597101-120.852456z" fill="#B5F5EC" p-id="3110"></path></svg>