<?xml version="1.0" standalone="no"?><!DOCTYPE svg PUBLIC "-//W3C//DTD SVG 1.1//EN" "http://www.w3.org/Graphics/SVG/1.1/DTD/svg11.dtd"><svg t="1637295739346" class="icon" viewBox="0 0 1024 1024" version="1.1" xmlns="http://www.w3.org/2000/svg" p-id="10264" xmlns:xlink="http://www.w3.org/1999/xlink" width="200" height="200"><defs><style type="text/css"></style></defs><path d="M92.16 348.16m81.92 0l686.08 0q81.92 0 81.92 81.92l0 491.52q0 81.92-81.92 81.92l-686.08 0q-81.92 0-81.92-81.92l0-491.52q0-81.92 81.92-81.92Z" fill="#40A9FF" p-id="10265"></path><path d="M92.16 829.44m81.92 0l686.08 0q81.92 0 81.92 81.92l0 10.24q0 81.92-81.92 81.92l-686.08 0q-81.92 0-81.92-81.92l0-10.24q0-81.92 81.92-81.92Z" fill="#40A9FF" p-id="10266"></path><path d="M382.28992 351.08864V204.8c0-43.42784 61.56288-87.76704 145.07008-87.76704 83.5072 0 145.07008 44.3392 145.07008 87.76704v146.28864c0 32.31744 25.97888 58.51136 58.01984 58.51136C762.50112 409.6 788.48 383.40608 788.48 351.08864V204.8C788.48 86.64064 668.19072 0 527.36 0S266.24 86.64064 266.24 204.8v146.28864C266.24 383.40608 292.21888 409.6 324.27008 409.6s58.01984-26.19392 58.01984-58.51136z" fill="#40A9FF" p-id="10267"></path><path d="M517.12 522.24a87.04 87.04 0 0 1 46.09024 160.89088L563.2 783.36a46.08 46.08 0 1 1-92.16 0v-100.22912A87.04 87.04 0 0 1 517.12 522.24z" fill="#91D5FF" p-id="10268"></path></svg>