<?xml version="1.0" standalone="no"?><!DOCTYPE svg PUBLIC "-//W3C//DTD SVG 1.1//EN" "http://www.w3.org/Graphics/SVG/1.1/DTD/svg11.dtd"><svg t="1637243465437" class="icon" viewBox="0 0 1024 1024" version="1.1" xmlns="http://www.w3.org/2000/svg" p-id="3909" xmlns:xlink="http://www.w3.org/1999/xlink" width="16" height="16"><defs><style type="text/css"></style></defs><path d="M125.72672 128.28672H382.8736c70.7072 0 128.5632 57.856 128.5632 128.57344v578.56c0 35.36896-28.928 64.29696-64.28672 64.29696h-321.4336C90.37824 899.71712 61.44 870.78912 61.44 835.4304v-642.8672c0-35.34848 28.928-64.27648 64.28672-64.27648z" fill="#08979C" p-id="3910"></path><path d="M61.44 224.7168h835.71712c35.35872 0 64.28672 28.928 64.28672 64.28672v546.42688c0 35.35872-28.928 64.28672-64.28672 64.28672H125.72672C90.368 899.71712 61.44 870.78912 61.44 835.4304v-610.7136z" fill="#36CFC9" p-id="3911"></path><path d="M254.30016 465.78688a48.20992 48.20992 0 1 0 96.43008 0 48.20992 48.20992 0 0 0-96.43008 0zM254.30016 658.6368a48.20992 48.20992 0 1 0 96.43008 0 48.20992 48.20992 0 0 0-96.43008 0zM479.29344 433.64352h257.14688c19.28192 0 32.14336 12.86144 32.14336 32.14336 0 19.28192-12.86144 32.14336-32.14336 32.14336H479.29344c-19.28192 0-32.14336-12.86144-32.14336-32.1536 0-19.27168 12.86144-32.13312 32.1536-32.13312z m0 192.86016h257.14688c19.28192 0 32.14336 12.8512 32.14336 32.14336 0 19.28192-12.86144 32.14336-32.14336 32.14336H479.29344c-19.28192 0-32.14336-12.86144-32.14336-32.1536 0-19.28192 12.86144-32.13312 32.1536-32.13312z" fill="#B5F5EC" p-id="3912"></path></svg>