<?xml version="1.0" standalone="no"?><!DOCTYPE svg PUBLIC "-//W3C//DTD SVG 1.1//EN" "http://www.w3.org/Graphics/SVG/1.1/DTD/svg11.dtd"><svg t="1655884805985" class="icon" viewBox="0 0 1024 1024" version="1.1" xmlns="http://www.w3.org/2000/svg" p-id="92958" width="16" height="16" xmlns:xlink="http://www.w3.org/1999/xlink"><defs><style type="text/css">@font-face { font-family: feedback-iconfont; src: url("//at.alicdn.com/t/font_1031158_u69w8yhxdu.woff2?t=1630033759944") format("woff2"), url("//at.alicdn.com/t/font_1031158_u69w8yhxdu.woff?t=1630033759944") format("woff"), url("//at.alicdn.com/t/font_1031158_u69w8yhxdu.ttf?t=1630033759944") format("truetype"); }
</style></defs><path d="M936.70987 800.414756q5.104686 15.314058 7.657029 39.306082t2.552343 48.494516-3.57328 45.942173-10.71984 32.66999q-5.104686 7.14656-28.075773 14.293121t-56.662014 13.782652-75.549352 11.740778-83.716849 9.188435-81.164506 6.125623-68.91326 2.041874-68.402792-2.552343-80.143569-6.125623-81.674975-8.167498-74.017946-9.698903-56.662014-10.209372-29.09671-10.209372q-10.209372-8.167498-15.824526-50.025922t3.57328-108.219342q6.125623-37.774676 30.628116-57.172483t57.172483-31.138584 67.892323-20.929212 62.787637-26.544367q21.439681-13.272183 32.66999-25.52343t16.334995-24.502493 5.104686-25.52343-1.020937-29.607178q-2.041874-23.481555-16.334995-37.264207t-30.628116-28.075773q-8.167498-7.14656-14.803589-19.908275t-11.740778-26.033898q-5.104686-15.314058-10.209372-32.66999-9.188435-1.020937-18.376869-6.125623-8.167498-5.104686-16.334995-14.803589t-13.272183-27.054835-2.552343-31.649053 8.677966-24.502493q6.125623-11.230309 17.355932-21.439681 0-38.795613 4.083749-77.591226 4.083749-32.66999 14.293121-69.934197t31.649053-66.871386q19.397807-28.586241 42.879362-46.452642t48.494516-28.075773 49.515454-13.782652 47.984048-3.57328q29.607178 0 56.662014 6.636092t50.025922 17.866401 41.347956 25.52343 30.628116 28.586241q25.52343 32.66999 38.285145 72.48654t17.866401 74.528415q5.104686 40.837488 4.083749 81.674975 9.188435 5.104686 15.314058 13.272183 5.104686 7.14656 9.188435 18.376869t2.041874 27.565304q-2.041874 22.460618-10.209372 34.711864t-17.355932 19.397807q-11.230309 8.167498-23.481555 11.230309-5.104686 17.355932-10.209372 32.66999-5.104686 13.272183-11.740778 26.033898t-14.803589 19.908275q-18.376869 15.314058-30.628116 26.033898t-16.334995 36.24327q-3.062812 15.314058-2.552343 31.138584t8.167498 31.649053 23.481555 30.117647 44.410768 25.52343q24.502493 10.209372 54.62014 18.376869t58.19342 18.887338 50.025922 26.544367 31.138584 43.389831zM541.607178 577.850449q18.376869 0 31.649053-13.272183t13.272183-32.66999-13.272183-32.66999-31.649053-13.272183q-19.397807 0-32.66999 13.272183t-13.272183 32.66999 13.272183 32.66999 32.66999 13.272183zM579.381854 393.060818q-1.020937-12.251246 14.293121-26.033898t34.711864-30.117647 35.732802-37.264207 18.376869-47.473579q1.020937-28.586241-6.125623-54.109671t-24.502493-44.410768-44.410768-29.607178-63.808574-10.71984q-44.921236 0-75.549352 16.334995t-49.004985 38.795613-25.52343 47.473579-7.14656 41.347956q1.020937 19.397807 12.251246 28.075773t25.012961 9.188435 25.012961-7.657029 11.230309-22.460618q0-9.188435 5.615155-21.95015t15.314058-25.012961 23.481555-20.418744 30.117647-8.167498q33.690927 0 53.599202 16.845464t18.887338 42.368893q0 19.397807-15.824526 34.201396t-34.711864 30.117647-35.222333 32.66999-17.355932 40.837488l0 27.565304q1.020937 11.230309 11.230309 21.439681t27.565304 11.230309q17.355932-1.020937 27.054835-11.230309t9.698903-24.502493l0-17.355932z" p-id="92959" fill="#ffffff"></path></svg>