<?xml version="1.0" standalone="no"?><!DOCTYPE svg PUBLIC "-//W3C//DTD SVG 1.1//EN" "http://www.w3.org/Graphics/SVG/1.1/DTD/svg11.dtd"><svg t="1637550507884" class="icon" viewBox="0 0 1024 1024" version="1.1" xmlns="http://www.w3.org/2000/svg" p-id="4681" width="32" height="32" xmlns:xlink="http://www.w3.org/1999/xlink"><defs><style type="text/css"></style></defs><path d="M319.5904 548.42368l147.968 147.968A822.3744 822.3744 0 0 1 35.35872 1003.6224l-32.77824 9.76896 9.76896-32.11264a839.03488 839.03488 0 0 1 307.2512-432.86528z" fill="#CF5A1A" p-id="4682"></path><path d="M408.198335 205.534127l160.947912 6.531178-179.143975 192.10496-256.062712-91.494413a366.83776 366.83776 0 0 1 274.258775-107.141725zM826.331279 628.402537L820.176622 468.222147l-211.075787 211.075786 46.80436 95.288579 62.907839 128.0748A367.96416 367.96416 0 0 0 826.324038 628.409777z" fill="#FF7A45" p-id="4683"></path><path d="M563.404314 212.478029l-179.136735 192.097719-110.783834-39.578068 3.352479-6.46601a734.8224 734.8224 0 0 1 105.266364-152.852727c6.770123-0.09413 13.561969-0.007241 20.353814 0.267908l160.947912 6.531178zM817.931982 460.851039L824.064917 621.03867c0.144815 3.591424 0.231705 7.182847 0.260668 10.774271l0.007241 2.295325a733.94176 733.94176 0 0 1-155.220461 106.996909l-22.583972 11.60696-39.672198-80.756346L817.946463 460.865521z" fill="#CF5A1A" p-id="4684"></path><path d="M996.757364 23.602454c46.478525 273.317475-89.170125 545.309888-335.450552 672.624407L333.017385 865.94335 154.416467 687.342432 325.067015 358.654763C452.562554 113.076691 723.881576-22.260605 996.757364 23.602454z" fill="#FF7A45" p-id="4685"></path><path d="M764.524037 630.067915L391.95004 257.493917a638.12608 638.12608 0 0 1 329.433469-220.865312l263.882747 263.882747a637.39904 637.39904 0 0 1-220.742219 329.556563z" fill="#FFBB96" p-id="4686"></path><path d="M707.669484 284.813355m-72.407734-72.407734a102.4 102.4 0 1 0 144.815468 144.815469 102.4 102.4 0 1 0-144.815468-144.815469Z" fill="#FF7A45" p-id="4687"></path></svg>