<?xml version="1.0" standalone="no"?><!DOCTYPE svg PUBLIC "-//W3C//DTD SVG 1.1//EN" "http://www.w3.org/Graphics/SVG/1.1/DTD/svg11.dtd"><svg t="1638508720576" class="icon" viewBox="0 0 1024 1024" version="1.1" xmlns="http://www.w3.org/2000/svg" p-id="37441" width="32" height="32" xmlns:xlink="http://www.w3.org/1999/xlink"><defs><style type="text/css"></style></defs><path d="M508.9792 515.5328m-450.816 0a450.816 450.816 0 1 0 901.632 0 450.816 450.816 0 1 0-901.632 0Z" fill="#E9F4FF" p-id="37442"></path><path d="M769.8432 279.1424c-42.24-1.28-180.3264-10.1376-252.2112-70.0928-5.0176-4.1984-12.2368-3.9936-17.1008 0.3072-72.2944 64.1024-209.4592 69.9392-252.0064 70.144-7.168 0.0512-12.9536 5.8368-12.9536 13.0048v278.9888c0 57.4976 44.4928 196.5568 276.2752 263.3216 2.304 0.6656 4.8128 0.6656 7.1168 0.0512 209.4592-56.3712 263.424-202.7008 263.424-259.072v-283.648c0-7.0144-5.5296-12.8-12.544-13.0048z m-87.552 140.5952c-79.4624 71.6288-156.0064 150.7328-187.0336 252.7744-1.1776 3.9424-6.4 4.7616-8.8064 1.4336-32.1536-44.3904-97.3824-120.832-128.2048-156.5184-3.584-4.1472 1.1776-10.1888 6.0928-7.68l100.4544 51.2512c2.1504 1.1264 4.8128 0.512 6.2976-1.4336 15.0016-20.224 96.9728-124.6208 206.7456-148.4288 5.0176-1.0752 8.2944 5.1712 4.4544 8.6016z" fill="#2595E8" p-id="37443"></path><path d="M782.3872 352.8192V292.1472c0-7.0144-5.5296-12.8-12.5952-13.0048-42.24-1.28-180.3264-10.1376-252.2112-70.0928-5.0176-4.1984-12.2368-3.9936-17.1008 0.3072-72.2944 64.1024-209.4592 69.9392-252.0064 70.144-7.168 0.0512-12.9536 5.8368-12.9536 13.0048v278.9888c0 39.8848 21.4528 118.9376 111.8208 185.9072h0.6656c230.1952 0.0512 418.56-178.4832 434.3808-404.5824z m-287.1296 319.6928c-1.1776 3.9424-6.4 4.7616-8.8064 1.4336-32.1536-44.3904-97.3824-120.832-128.2048-156.5184-3.584-4.1472 1.1776-10.1888 6.0928-7.68l100.4544 51.2512c2.1504 1.1264 4.8128 0.512 6.2976-1.4336 15.0016-20.224 96.9728-124.6208 206.7456-148.4288 5.0176-1.0752 8.3456 5.1712 4.5056 8.6016-79.5136 71.6288-156.0576 150.7328-187.0848 252.7744z" fill="#3A9CED" p-id="37444"></path><path d="M500.5312 209.3568c-72.2944 64.1024-209.4592 69.9392-252.0064 70.144-7.168 0.0512-12.9536 5.8368-12.9536 13.0048v278.9888c0 8.704 1.024 19.2512 3.584 31.1808 57.344-1.3312 111.9744-13.7216 161.792-35.1744-16.5376-19.6096-31.7952-37.376-42.7008-50.0224-3.584-4.1472 1.1776-10.1888 6.0928-7.68l75.5712 38.5536c106.24-58.9312 185.1904-161.024 213.2992-282.5728-48.3328-9.9328-100.0448-27.0848-135.5776-56.7296a13.0048 13.0048 0 0 0-17.1008 0.3072z" fill="#59ADF8" p-id="37445"></path><path d="M509.952 206.08c-3.328-0.1536-6.7072 0.9216-9.4208 3.2768-72.2944 64.1024-209.4592 69.9392-252.0064 70.144-7.168 0.0512-12.9536 5.8368-12.9536 13.0048v140.4928c120.4736-33.2288 219.9552-116.9408 274.3808-226.9184z" fill="#6BC2FC" p-id="37446"></path></svg>