<?xml version="1.0" standalone="no"?><!DOCTYPE svg PUBLIC "-//W3C//DTD SVG 1.1//EN" "http://www.w3.org/Graphics/SVG/1.1/DTD/svg11.dtd"><svg t="1638324969788" class="icon" viewBox="0 0 1024 1024" version="1.1" xmlns="http://www.w3.org/2000/svg" p-id="14688" xmlns:xlink="http://www.w3.org/1999/xlink" width="32" height="32"><defs><style type="text/css"></style></defs><path d="M713 178.67H132.36C59.38 178.67 0 238.02 0 310.97v580.69C0 964.63 59.38 1024 132.36 1024H713c72.97 0 132.34-59.37 132.34-132.34V310.97c0-72.95-59.37-132.3-132.34-132.3zM86.02 310.97c0-25.55 20.79-46.33 46.34-46.33H713c25.54 0 46.32 20.78 46.32 46.33v580.69c0 25.57-20.78 46.37-46.32 46.37H132.36c-25.55 0-46.34-20.8-46.34-46.37V310.97z" fill="#2c2c2c" p-id="14689"></path><path d="M891.66 0H311.02c-23.71 0-43 19.27-43 42.96 0 23.71 19.29 43 43 43h580.65c25.54 0 46.32 20.78 46.32 46.33v580.69c0 23.71 19.29 43 43 43s43-19.29 43-43V132.3C1024 59.35 964.63 0 891.66 0zM221.68 845.33h401.98c23.71 0 43-19.29 43-43 0-23.69-19.29-42.96-43-42.96H221.68c-23.72 0-43.02 19.27-43.02 42.96 0 23.71 19.3 43 43.02 43z" fill="#2c2c2c" p-id="14690"></path></svg>