<?xml version="1.0" standalone="no"?><!DOCTYPE svg PUBLIC "-//W3C//DTD SVG 1.1//EN" "http://www.w3.org/Graphics/SVG/1.1/DTD/svg11.dtd"><svg t="1637295986808" class="icon" viewBox="0 0 1024 1024" version="1.1" xmlns="http://www.w3.org/2000/svg" p-id="10399" xmlns:xlink="http://www.w3.org/1999/xlink" width="200" height="200"><defs><style type="text/css"></style></defs><path d="M190.01344 173.30176h642.85696c70.71744 0 128.57344 57.856 128.57344 128.57344V864.3584c0 45.0048-35.35872 80.36352-80.36352 80.36352H190.01344C119.296 944.73216 61.44 886.87616 61.44 816.15872V301.8752c0-70.71744 57.856-128.57344 128.57344-128.57344z" fill="#FFBB96" p-id="10400"></path><path d="M190.01344 173.30176h642.85696c70.71744 0 128.57344 57.856 128.57344 128.57344v401.78688l-128.57344 115.712-3.21536 3.21536-128.57344 122.14272h-511.0784C119.296 944.73216 61.44 886.87616 61.44 816.15872V301.8752c0-70.71744 57.856-128.57344 128.57344-128.57344z" fill="#CF5A1A" p-id="10401"></path><path d="M190.01344 173.30176h642.85696c70.71744 0 128.57344 57.856 128.57344 128.57344v401.78688H784.65024c-44.99456 0-80.35328 35.34848-80.35328 80.35328v160.7168H190.01344C119.296 944.73216 61.44 886.87616 61.44 816.15872V301.8752c0-70.71744 57.856-128.57344 128.57344-128.57344z" fill="#FF7A45" p-id="10402"></path><path d="M350.72 76.87168c19.29216 0 32.1536 12.86144 32.1536 32.14336v147.8656c0 19.27168-12.86144 32.13312-32.1536 32.13312-19.28192 0-32.13312-12.86144-32.13312-32.14336v-147.8656c0-19.27168 12.8512-32.13312 32.14336-32.13312z m321.4336 0c19.28192 0 32.14336 12.86144 32.14336 32.14336v147.8656c0 19.27168-12.86144 32.13312-32.14336 32.13312-19.28192 0-32.14336-12.86144-32.14336-32.14336v-147.8656c0-19.27168 12.86144-32.13312 32.1536-32.13312zM286.44352 494.72512a48.20992 48.20992 0 1 0 96.43008 0 48.20992 48.20992 0 0 0-96.43008 0zM511.4368 462.58176H704.3072c19.28192 0 32.14336 12.86144 32.14336 32.1536 0 19.28192-12.86144 32.13312-32.14336 32.13312H511.4368c-19.28192 0-32.14336-12.8512-32.14336-32.14336 0-19.28192 12.86144-32.14336 32.1536-32.14336z m0 160.7168H704.3072c19.28192 0 32.14336 12.86144 32.14336 32.1536 0 19.27168-12.86144 32.13312-32.14336 32.13312H511.4368c-19.28192 0-32.14336-12.86144-32.14336-32.14336 0-19.28192 12.86144-32.14336 32.1536-32.14336zM286.44352 655.44192a48.20992 48.20992 0 1 0 96.43008 0 48.20992 48.20992 0 0 0-96.43008 0z" fill="#FFBB96" p-id="10403"></path></svg>