<?xml version="1.0" standalone="no"?><!DOCTYPE svg PUBLIC "-//W3C//DTD SVG 1.1//EN" "http://www.w3.org/Graphics/SVG/1.1/DTD/svg11.dtd"><svg t="1637242716058" class="icon" viewBox="0 0 1024 1024" version="1.1" xmlns="http://www.w3.org/2000/svg" p-id="30619" width="16" height="16" xmlns:xlink="http://www.w3.org/1999/xlink"><defs><style type="text/css"></style></defs><path d="M741.072 488.962a8.864 8.864 0 0 1-8.87 8.87c-4.874 0-8.87-3.966-8.87-8.87s3.996-8.868 8.87-8.868a8.864 8.864 0 0 1 8.87 8.868z" p-id="30620"></path><path d="M741.072 488.962a8.864 8.864 0 0 1-8.87 8.87c-4.874 0-8.87-3.966-8.87-8.87s3.996-8.868 8.87-8.868a8.864 8.864 0 0 1 8.87 8.868z" p-id="30621"></path><path d="M990.064 659.456l-1.5-0.438c-22.014-5.902-29.476-11.584-39.25-15.3-34.754-13.238-43.808-22.792-46.122-27.292-0.094-0.188-0.156-0.344-0.218-0.498l-0.282-40.376-64.7-0.938-64.7 0.938-0.312 40.376a9.3 9.3 0 0 0-0.188 0.498c-2.308 4.498-11.366 14.052-46.15 27.292-9.804 3.716-17.236 9.398-39.22 15.3l-1.528 0.438c-20.046 6.62-33.508 25.2-33.508 46.184v58.296H1023.6V705.64c0-20.986-13.488-39.566-33.536-46.184z" fill="#EC87C0" p-id="30622"></path><path d="M952.374 497.05c0 74.316-70.85 142.702-114.378 142.702-43.528 0-114.41-68.384-114.41-142.702 0-74.348 51.21-123.374 114.41-123.374 63.168 0.002 114.378 49.028 114.378 123.374z" fill="#EAC6BB" p-id="30623"></path><path d="M768.862 437.286c181.172-30.476 157.252 194.722 157.252 194.722 78.69-66.542 43.092-267.166-43.778-281.216-87.556-14.146-109.698 16.268-109.698 16.268l-3.776 70.226z" fill="#FC6E51" p-id="30624"></path><path d="M773.638 364.842s-68.04 29.726-68.04 97.518c0 72.068 25.792 111.912 25.792 111.912 0.812-106.072 46.432-138.828 46.432-138.828l-4.184-70.602z" fill="#FC6E51" p-id="30625"></path><path d="M373.67 659.424l-1.514-0.438c-22.014-5.902-29.46-11.584-39.266-15.3-34.77-13.238-43.81-22.792-46.122-27.322-0.094-0.156-0.156-0.312-0.234-0.498l-0.282-40.376-82.466-0.938-82.452 0.938-0.282 40.376c-0.076 0.186-0.138 0.342-0.232 0.498-2.31 4.53-11.352 14.084-46.122 27.322-9.804 3.716-17.252 9.398-39.266 15.3l-1.516 0.438C13.874 666.074 0.4 684.654 0.4 705.638v58.296H407.19v-58.296c0.002-20.984-13.474-39.564-33.52-46.214z" fill="#48CFAD" p-id="30626"></path><path d="M318.214 497.332c0 74.348-70.882 142.764-114.428 142.764-43.542 0-114.41-68.416-114.41-142.764s51.226-123.374 114.41-123.374c63.202 0 114.428 49.026 114.428 123.374z" fill="#EAC6BB" p-id="30627"></path><path d="M262.852 380.362s-2.216-19.766 21.466-34.006c10.04-6.026-150.352-34.598-190.602 66.73-15.128 38.094-3.95 94.114-3.95 94.114l34.864-62.482s37.986 8.868 79.156 8.868c41.172 0 80.546-8.868 80.546-8.868l33.88 52.802s13.02-50.71-1.562-84.308c-14.58-33.6-53.798-32.85-53.798-32.85z" fill="#FFCE54" p-id="30628"></path><path d="M779.198 683.716l-2.03-0.624c-34.848-9.43-60.39-18.422-75.754-24.356-54.458-20.952-68.666-36.064-72.256-43.214-0.124-0.25-0.25-0.532-0.376-0.782l-0.5-66.636-232.644 2.688-0.454 63.95c-0.11 0.25-0.218 0.532-0.344 0.782-3.624 7.15-17.798 22.264-72.272 43.246-15.364 5.902-40.922 14.894-75.426 24.262l-2.374 0.688c-31.396 10.492-52.522 39.938-52.522 73.13v92.366h639.468v-92.366c0.004-33.196-21.072-62.642-52.516-73.134z" fill="#656D78" p-id="30629"></path><path d="M547.502 721.312h-71.052l-21.296 127.9h113.676z" fill="#DA4453" p-id="30630"></path><path d="M547.502 721.312h-71.052l-28.414-113.256h127.916z" fill="#ED5564" p-id="30631"></path><path d="M693.17 426.418c0 117.752-112.222 230.946-181.186 230.946-68.96 0-181.202-113.194-181.202-230.946 0-117.72 81.124-195.408 181.202-195.408 100.062 0 181.186 77.688 181.186 195.408z" fill="#EAC6BB" p-id="30632"></path><path d="M628.72 209.712c-30.79-27.916-134.098-62.17-237.126 0-52.178 31.474-90.164 170.524-90.164 170.524s101.782 57.674 234.272-4.652c79.282-37.314 77.5-17.768 100.14 16.206 13.426 20.14 57.328 34.628 57.328 34.628s34.16-127.462-64.45-216.706z" fill="#656D78" p-id="30633"></path><path d="M792.78 354.288c-11.208 4.278-16.922 9.274-19.078 11.554l-0.062-1s-12.8 5.59-27.322 17.486c-1.374 22.17-0.654 50.336 6.62 79.594l4.342-1.092c8.836-15.176 17.174-22.67 19.734-24.764 4.808-0.624 9.46-1.06 13.958-1.31-5.498-35.38-0.752-67.198 1.808-80.468z" fill="#E9573F" p-id="30634"></path></svg>