<?xml version="1.0" standalone="no"?><!DOCTYPE svg PUBLIC "-//W3C//DTD SVG 1.1//EN" "http://www.w3.org/Graphics/SVG/1.1/DTD/svg11.dtd"><svg t="1637295654253" class="icon" viewBox="0 0 1024 1024" version="1.1" xmlns="http://www.w3.org/2000/svg" p-id="10131" xmlns:xlink="http://www.w3.org/1999/xlink" width="200" height="200"><defs><style type="text/css"></style></defs><path d="M205.78304 101.62176c21.248-15.872 50.432-13.52704 70.7584 3.49184l18.66752 15.616c18.88256 15.81056 45.23008 18.40128 68.17792 9.46176 4.02432-1.56672 8.0896-3.072 12.16512-4.51584 22.92736-8.0896 41.04192-26.88 45.29152-50.81088l4.53632-25.55904c4.608-25.87648 25.11872-46.32576 51.33312-48.10752a519.5776 519.5776 0 0 1 59.00288-0.65536c26.71616 1.21856 47.88224 21.87264 52.56192 48.19968l3.9936 22.4768c4.352 24.5248 23.2448 43.58144 46.91968 51.31264 5.19168 1.69984 10.3424 3.4816 15.44192 5.38624 22.71232 8.43776 48.56832 5.66272 67.15392-9.89184l20.224-16.93696c20.10112-16.82432 48.88576-19.33312 70.10304-3.95264a514.69312 514.69312 0 0 1 44.4416 36.1472c19.8656 18.08384 22.8864 47.64672 9.49248 70.92224L855.04 223.30368c-12.50304 21.71904-10.17856 48.64 3.23584 69.8368 3.76832 5.94944 7.39328 12.01152 10.86464 18.176 11.93984 21.1968 33.5872 35.79904 57.92768 35.82976l25.86624 0.03072c26.29632 0.03072 50.01216 16.71168 56.28928 42.24 4.37248 17.8176 7.81312 35.98336 10.27072 54.4768 3.5328 26.58304-13.14816 51.10784-38.32832 60.3136l-20.8896 7.6288c-23.52128 8.6016-39.04512 30.67904-42.3936 55.5008-1.1264 8.3456-2.5088 16.60928-4.12672 24.7808-4.78208 24.13568 2.3552 49.60256 21.17632 65.4336l18.71872 15.74912c20.2752 17.05984 27.65824 45.38368 15.7184 69.03808a511.49824 511.49824 0 0 1-26.9824 47.08352c-14.45888 22.38464-42.83392 30.30016-67.8912 21.21728l-21.95456-7.96672c-23.33696-8.45824-49.19296-1.72032-67.6864 14.81728-6.57408 5.86752-13.32224 11.53024-20.26496 16.96768-19.5584 15.34976-30.74048 39.68-26.44992 64.17408l3.98336 22.74304c4.608 26.30656-8.17152 52.92032-32.80896 63.21152a508.01664 508.01664 0 0 1-51.34336 18.29888c-25.32352 7.51616-51.80416-4.67968-65.03424-27.5456l-12.52352-21.6064c-12.27776-21.20704-35.98336-32.6656-60.48768-32.2048a417.69984 417.69984 0 0 1-24.44288-0.256c-25.00608-0.99328-49.42848 10.46528-61.97248 32.13312l-11.14112 19.2512c-13.44512 23.21408-40.52992 35.38944-66.08896 27.2384a508.24192 508.24192 0 0 1-52.2752-19.90656c-23.9616-10.65984-36.1984-36.864-31.67232-62.69952l4.52608-25.81504c4.17792-23.9104-6.37952-47.7184-25.10848-63.16032-5.15072-4.23936-10.1888-8.6016-15.11424-13.07648-18.5344-16.82432-44.58496-23.7568-68.11648-15.21664l-20.96128 7.59808c-25.21088 9.13408-53.76 1.0752-68.12672-21.56544a511.19104 511.19104 0 0 1-28.20096-50.51392c-11.44832-23.552-3.96288-51.44576 16.0768-68.31104l20.29568-17.07008c18.52416-15.58528 25.7536-40.51968 21.42208-64.33792-0.9216-5.0176-1.7408-10.05568-2.4576-15.13472-3.5328-24.576-19.00544-46.3872-42.3424-54.91712l-21.87264-7.9872C17.32608 498.61632 0.67584 474.3168 3.97312 447.86688c2.48832-19.8656 6.10304-39.38304 10.8032-58.4704 6.26688-25.53856 29.99296-42.20928 56.27904-42.24l25.87648-0.03072c24.33024-0.03072 45.9776-14.6432 57.92768-35.84 2.048-3.65568 4.17792-7.28064 6.3488-10.87488 12.6976-21.00224 14.65344-47.3088 2.4064-68.59776l-12.34944-21.44256c-13.18912-22.91712-10.48576-51.98848 8.704-70.16448 14.49984-13.7216 29.7984-26.624 45.81376-38.59456zM512 675.84c90.49088 0 163.84-73.34912 163.84-163.84s-73.34912-163.84-163.84-163.84-163.84 73.34912-163.84 163.84 73.34912 163.84 163.84 163.84z" fill="#29B4FF" p-id="10132"></path><path d="M512 860.16c192.28672 0 348.16-155.87328 348.16-348.16S704.28672 163.84 512 163.84 163.84 319.71328 163.84 512s155.87328 348.16 348.16 348.16z m0-112.64c130.07872 0 235.52-105.44128 235.52-235.52S642.07872 276.48 512 276.48 276.48 381.92128 276.48 512s105.44128 235.52 235.52 235.52z" fill="#0099EE" p-id="10133"></path></svg>