<?xml version="1.0" standalone="no"?><!DOCTYPE svg PUBLIC "-//W3C//DTD SVG 1.1//EN" "http://www.w3.org/Graphics/SVG/1.1/DTD/svg11.dtd"><svg t="1643880890466" class="icon" viewBox="0 0 1024 1024" version="1.1" xmlns="http://www.w3.org/2000/svg" p-id="10184" xmlns:xlink="http://www.w3.org/1999/xlink" width="32" height="32"><defs><style type="text/css"></style></defs><path d="M51.48672 730.35776c0 113.6128 199.55712 205.71136 445.71648 205.71136s445.70624-92.09856 445.70624-205.7216c0-113.60256-199.54688-205.71136-445.70624-205.71136-246.1696 0-445.71648 92.1088-445.71648 205.7216z" fill="#40A9FF" p-id="10185"></path><path d="M51.48672 501.59616c0 113.6128 199.55712 205.7216 445.71648 205.7216s445.70624-92.1088 445.70624-205.7216-199.54688-205.71136-445.70624-205.71136c-246.1696 0-445.71648 92.09856-445.71648 205.7216z" fill="#BAE7FF" p-id="10186"></path><path d="M51.48672 272.8448c0 113.6128 199.55712 205.7216 445.71648 205.7216S942.8992 386.4576 942.8992 272.83456 743.36256 67.1232 497.2032 67.1232c-246.1696 0-445.71648 92.1088-445.71648 205.7216z" fill="#40A9FF" p-id="10187"></path></svg>