<?xml version="1.0" standalone="no"?><!DOCTYPE svg PUBLIC "-//W3C//DTD SVG 1.1//EN" "http://www.w3.org/Graphics/SVG/1.1/DTD/svg11.dtd"><svg t="1638508894229" class="icon" viewBox="0 0 1024 1024" version="1.1" xmlns="http://www.w3.org/2000/svg" p-id="37820" xmlns:xlink="http://www.w3.org/1999/xlink" width="32" height="32"><defs><style type="text/css"></style></defs><path d="M513.2288 513.1264m-450.816 0a450.816 450.816 0 1 0 901.632 0 450.816 450.816 0 1 0-901.632 0Z" fill="#FFF1DC" p-id="37821"></path><path d="M746.7008 285.5424c-47.616-0.0512-133.7856-11.7248-207.7696-83.968-13.1072-12.8-33.5872-14.1824-47.9744-2.816-38.4 30.2592-117.4528 81.6128-214.1184 84.0192-19.7632 0.512-35.4816 16.7424-35.4816 36.5056v229.8368c0 46.4896-2.6624 149.7088 253.5936 295.8336a36.73088 36.73088 0 0 0 34.56 0.9216c252.3648-126.9248 253.5936-235.8784 253.5936-277.7088V322.048c0-20.1216-16.2816-36.5056-36.4032-36.5056z m-117.9136 250.7264l-125.9008 131.1744c-6.5536 6.8096-15.2576 10.24-24.0128 10.24-8.2944 0-16.5888-3.072-23.04-9.2672a33.3056 33.3056 0 0 1-0.9728-47.0528l71.8336-74.8544h-107.008c-13.4656 0-25.6-8.1408-30.7712-20.5824s-2.2528-26.7776 7.2704-36.3008l117.6064-117.248c13.0048-12.9536 34.0992-12.9536 47.0528 0.0512 12.9536 13.0048 12.9536 34.0992-0.0512 47.0528L500.224 479.9488h104.5504a33.26464 33.26464 0 0 1 24.0128 56.32z" fill="#FF8E12" p-id="37822"></path><path d="M783.104 417.024V322.048c0-20.1216-16.2304-36.5056-36.4032-36.5568-47.616-0.0512-133.7856-11.7248-207.7696-83.968-13.1072-12.8-33.5872-14.1824-47.9744-2.816-38.4 30.2592-117.4528 81.6128-214.1184 84.0192-19.7632 0.512-35.4816 16.7424-35.4816 36.5056v229.8368c0 38.656-1.792 116.48 144.64 225.4848 197.6832-19.3024 357.888-166.3488 397.1072-357.5296zM396.1856 489.6256l117.6064-117.248c13.0048-12.9536 34.0992-12.9536 47.0528 0.0512 12.9536 13.0048 12.9536 34.0992-0.0512 47.0528L500.224 479.9488h104.5504a33.26464 33.26464 0 0 1 24.0128 56.32l-125.9008 131.1744c-6.5536 6.8096-15.2576 10.24-24.0128 10.24-8.2944 0-16.5888-3.072-23.04-9.2672a33.3056 33.3056 0 0 1-0.9728-47.0528l71.8336-74.8544h-107.008c-13.4656 0-25.6-8.1408-30.7712-20.5824s-2.2528-26.7776 7.2704-36.3008z" fill="#FCA315" p-id="37823"></path><path d="M538.9824 201.5744c-13.1072-12.8-33.5872-14.1824-47.9744-2.816-38.4 30.2592-117.4528 81.6128-214.1184 84.0192-19.7632 0.512-35.4816 16.7424-35.4816 36.5056v229.8368c0 15.7696-0.3072 38.0928 9.3184 66.4064a448.42496 448.42496 0 0 0 209.152-69.0176h-40.1408c-13.4656 0-25.6-8.1408-30.7712-20.5824s-2.2528-26.7776 7.2704-36.3008l117.6064-117.248c13.0048-12.9536 34.0992-12.9536 47.0528 0.0512 12.9536 13.0048 12.9536 34.0992-0.0512 47.0528L500.224 479.9488h41.3184c55.296-56.9344 95.6928-128.4096 114.8928-208.1792-37.7344-11.7248-79.2576-32.8704-117.4528-70.1952z" fill="#FCB138" p-id="37824"></path><path d="M516.0448 191.1808a36.0448 36.0448 0 0 0-25.088 7.5776c-38.4 30.2592-117.4528 81.6128-214.1184 84.0192-19.7632 0.512-35.4816 16.7424-35.4816 36.5056v116.7872c122.624-38.912 222.464-128.8704 274.688-244.8896z" fill="#FFC65E" p-id="37825"></path></svg>