<?xml version="1.0" encoding="UTF-8"?>
<svg width="28px" height="28px" viewBox="0 0 28 28" version="1.1" xmlns="http://www.w3.org/2000/svg" xmlns:xlink="http://www.w3.org/1999/xlink">
    <title>矩形</title>
    <g id="页面-1" stroke="none" stroke-width="1" fill="none" fill-rule="evenodd">
        <g id="编组">
            <rect id="矩形" fill="#3C74D3" x="0" y="0" width="28" height="28"></rect>
            <g id="chat" transform="translate(4.000000, 6.000000)" fill="#FFFFFF" fill-rule="nonzero">
                <path d="M9.63682915,7.53204295 C8.09442915,9.18004295 7.68162915,11.077643 8.47202915,13.388043 C7.46082915,13.269643 6.55522915,13.146443 5.64802915,13.066443 C5.38242915,13.042443 5.07042915,13.069643 4.84322915,13.192843 C4.17122915,13.556043 3.54082915,13.994443 2.87522915,14.367243 C2.71842915,14.455243 2.44642915,14.469643 2.29602915,14.389643 C2.19682915,14.336843 2.16482915,14.040843 2.20162915,13.876043 C2.32482915,13.328843 2.47522915,12.784843 2.65122915,12.252043 C2.76802915,11.895243 2.69442915,11.680843 2.39362915,11.429643 C0.305629147,9.69044295 -0.486370853,7.48724295 0.296029147,4.86804295 C0.836829147,3.05844295 2.12162915,1.80564295 3.79202915,0.944842953 C6.88642915,-0.650357047 10.7696291,-0.194357047 13.3568291,2.07604295 C14.3200291,2.92084295 14.9792291,3.95604295 15.3040291,5.28084295 C13.0848291,5.30964295 11.1488291,5.91604295 9.63682915,7.53204295 Z M11.2368291,4.57364295 C11.2272291,4.08884295 10.8192291,3.72244295 10.2944291,3.73044295 C9.78882915,3.73844295 9.36322915,4.14804295 9.37442915,4.61684295 C9.38562915,5.07124295 9.84802915,5.47764295 10.3376291,5.46484295 C10.8496291,5.45204295 11.2480291,5.05844295 11.2368291,4.57364295 Z M6.23042915,4.57044295 C6.21602915,4.08244295 5.80802915,3.72084295 5.28482915,3.73044295 C4.77282915,3.73844295 4.36802915,4.13684295 4.38082915,4.61844295 C4.39362915,5.09364295 4.82722915,5.47924295 5.33122915,5.46484295 C5.84002915,5.45044295 6.24482915,5.04884295 6.23042915,4.57044295 Z" id="形状"></path>
                <path d="M21.0144291,11.128843 C21.0000291,12.906443 20.3312291,14.093643 19.2160291,15.044043 C18.9344291,15.284043 18.8560291,15.504843 18.9296291,15.840843 C18.9968291,16.143243 19.0432291,16.452043 19.0576291,16.760843 C19.0640291,16.914443 19.0192291,17.154443 18.9200291,17.205643 C18.7856291,17.274443 18.5536291,17.248843 18.4016291,17.178443 C18.1216291,17.048843 17.8384291,16.892043 17.6112291,16.687243 C17.1856291,16.303243 16.7488291,16.287243 16.1920291,16.378443 C14.3568291,16.677643 12.6160291,16.365643 11.1248291,15.212043 C8.35202915,13.064843 8.42242915,9.52084295 11.2448291,7.43764295 C13.9568291,5.43604295 18.0656291,5.99444295 20.1072291,8.65844295 C20.7232291,9.46004295 21.0496291,10.380043 21.0144291,11.128843 L21.0144291,11.128843 Z M13.1824291,10.552843 C13.5808291,10.552843 13.9088291,10.250443 13.9008291,9.89044295 C13.8944291,9.53524295 13.5488291,9.21524295 13.1776291,9.21844295 C12.8032291,9.22164295 12.4624291,9.54164295 12.4592291,9.89364295 C12.4544291,10.252043 12.7856291,10.552843 13.1824291,10.552843 L13.1824291,10.552843 Z M17.3840291,9.95764295 C17.3968291,9.54964295 17.0752291,9.22324295 16.6992291,9.21844295 C16.3216291,9.21364295 15.9824291,9.53044295 15.9808176,9.89044295 C15.9792291,10.252043 16.3104291,10.565643 16.7024291,10.551243 C17.1056291,10.536843 17.3408291,10.324043 17.3840291,9.95764295 Z" id="形状"></path>
                <path d="M21.0144291,11.128843 C21.0000291,12.906443 20.3312291,14.093643 19.2160291,15.044043 C18.9344291,15.284043 18.8560291,15.504843 18.9296291,15.840843 C18.9968291,16.143243 19.0432291,16.452043 19.0576291,16.760843 C19.0640291,16.914443 19.0192291,17.154443 18.9200291,17.205643 C18.7856291,17.274443 18.5536291,17.248843 18.4016291,17.178443 C18.1216291,17.048843 17.8384291,16.892043 17.6112291,16.687243 C17.1856291,16.303243 16.7488291,16.287243 16.1920291,16.378443 C14.3568291,16.677643 12.6160291,16.365643 11.1248291,15.212043 C8.35202915,13.064843 8.42242915,9.52084295 11.2448291,7.43764295 C13.9568291,5.43604295 18.0656291,5.99444295 20.1072291,8.65844295 C20.7232291,9.46004295 21.0496291,10.380043 21.0144291,11.128843 L21.0144291,11.128843 Z M13.1824291,10.552843 C13.5808291,10.552843 13.9088291,10.250443 13.9008291,9.89044295 C13.8944291,9.53524295 13.5488291,9.21524295 13.1776291,9.21844295 C12.8032291,9.22164295 12.4624291,9.54164295 12.4592291,9.89364295 C12.4544291,10.252043 12.7856291,10.552843 13.1824291,10.552843 L13.1824291,10.552843 Z M17.3840291,9.95764295 C17.3968291,9.54964295 17.0752291,9.22324295 16.6992291,9.21844295 C16.3216291,9.21364295 15.9824291,9.53044295 15.9808176,9.89044295 C15.9792291,10.252043 16.3104291,10.565643 16.7024291,10.551243 C17.1056291,10.536843 17.3408291,10.324043 17.3840291,9.95764295 Z" id="形状"></path>
            </g>
        </g>
    </g>
</svg>