<?xml version="1.0" encoding="UTF-8"?><svg version="1.1" width="358px" height="358px" viewBox="0 0 358.0 358.0" xmlns="http://www.w3.org/2000/svg" xmlns:xlink="http://www.w3.org/1999/xlink"><defs><clipPath id="i0"><path d="M179,0 C277.85897,0 358,80.1410298 358,179 C358,277.85897 277.85897,358 179,358 C80.1410298,358 0,277.85897 0,179 C0,80.1410298 80.1410298,0 179,0 Z"></path></clipPath><clipPath id="i1"><path d="M156.75,0 C185.61445,0 209,23.450671 209,52.3418977 L209,131.109351 C209,160.000578 185.61445,183.451249 156.75,183.451249 L72.5352941,183.451249 L60.1877238,195.833203 C57.9961637,198.030866 55.1097187,199.076096 52.25,198.995694 C49.3902813,199.049295 47.412532,198.218472 44.3122762,195.833203 L22.851023,174.312188 C22.4591368,173.882171 22.0681615,173.453068 21.6784658,173.024597 L20.9008895,172.168414 C10.0417628,160.191334 0.378372942,148.562974 0,131.109351 L0,52.3418977 C0,23.450671 23.3855499,0 52.25,0 Z M111.689386,44.9984876 C107.466624,40.7639664 100.597954,40.7639664 96.3751918,44.9984876 L55.3235294,86.1644655 C52.6241688,88.8713429 51.6620205,92.6770518 52.4370844,96.1611515 C53.3190537,101.038891 57.5685422,104.764198 62.7,104.764198 L115.163811,104.764198 L91.9118926,128.080865 C87.6891304,132.315386 87.6891304,139.203183 91.9118926,143.437704 C96.1346547,147.672225 103.003325,147.672225 107.226087,143.437704 L148.277749,102.271726 C149.854604,100.690481 150.843478,98.7072244 151.244373,96.6435653 C151.404731,95.8931438 151.538363,95.1159216 151.511637,94.3118986 C151.511637,89.1661514 147.796675,84.9048294 142.932481,84.0204041 C141.890153,83.7791972 140.794373,83.7523964 139.72532,83.8327987 L88.27711,83.8327987 L111.689386,60.355327 C115.912148,56.094005 115.912148,49.2330087 111.689386,44.9984876 Z"></path></clipPath><clipPath id="i2"><path d="M144,0 L144,128 L0,128 L0,0 L144,0 Z"></path></clipPath></defs><g clip-path="url(#i0)"><polygon points="0,0 358,0 358,358 0,358 0,0" stroke="none" fill="#4F8BFE"></polygon></g><g transform="translate(75.0 86.0)"><g clip-path="url(#i1)"><polygon points="0,0 209,0 209,199 0,199 0,0" stroke="none" fill="#FFFFFF"></polygon></g></g><g transform="translate(108.0 121.0)"><g clip-path="url(#i2)"><polygon points="0,0 144,0 144,128 0,128 0,0" stroke="none" fill="#FFFFFF"></polygon></g></g><g transform="translate(121.0 104.0)"><text transform="translate(0.0 126.0)" font-family="Helvetica" font-size="163.0" font-weight="normal" fill="#508AFE" text-anchor="left">Q</text></g></svg>